<?xml version="1.0" encoding="UTF-8"?>
<!DOCTYPE svg PUBLIC "-//W3C//DTD SVG 1.1//EN" "http://www.w3.org/Graphics/SVG/1.1/DTD/svg11.dtd">
<!-- Creator: CorelDRAW (Evaluation Version) -->
<svg xmlns="http://www.w3.org/2000/svg" xml:space="preserve" width="52.3314mm" height="35.7481mm" version="1.1" style="shape-rendering:geometricPrecision; text-rendering:geometricPrecision; image-rendering:optimizeQuality; fill-rule:evenodd; clip-rule:evenodd"
viewBox="0 0 1192.31 814.48"
 xmlns:xlink="http://www.w3.org/1999/xlink"
 xmlns:xodm="http://www.corel.com/coreldraw/odm/2003">
 <defs>
  <style type="text/css">
   <![CDATA[
    .fil4 {fill:none}
    .fil1 {fill:#FFF215}
    .fil3 {fill:#FFF215}
    .fil0 {fill:#292929}
    .fil2 {fill:#EE3338;fill-rule:nonzero}
   ]]>
  </style>
   <clipPath id="id0">
    <path d="M84.84 0l1022.62 0c46.67,0 84.84,38.18 84.84,84.84l0 644.79c0,46.66 -38.18,84.84 -84.84,84.84l-1022.62 0c-46.67,0 -84.84,-38.18 -84.84,-84.84l0 -644.79c0,-46.66 38.18,-84.84 84.84,-84.84z"/>
   </clipPath>
 </defs>
 <g id="Camada_x0020_1">
  <metadata id="CorelCorpID_0Corel-Layer"/>
  <path class="fil0" d="M84.84 0l1022.62 0c46.67,0 84.84,38.18 84.84,84.84l0 644.79c0,46.66 -38.18,84.84 -84.84,84.84l-1022.62 0c-46.67,0 -84.84,-38.18 -84.84,-84.84l0 -644.79c0,-46.66 38.18,-84.84 84.84,-84.84z"/>
  <g style="clip-path:url(#id0)">
   <g id="_105553210919680">
    <g>
     <g>
      <polygon id="_1" class="fil1" points="207.04,404.01 218.66,404.01 212.22,386.84 "/>
      <polygon class="fil1" points="199.79,353.7 179.73,300.2 238.41,300.2 293.84,455.03 136.17,455.03 167.79,353.7 "/>
      <polygon class="fil1" points="1010.69,404.01 1022.31,404.01 1015.87,386.84 "/>
      <path class="fil1" d="M449 375.89c-0.25,0.26 -0.5,0.51 -0.76,0.76 0.26,0.22 0.51,0.44 0.76,0.66l0 -1.42z"/>
      <path class="fil1" d="M591.86 348.79c-6.51,0.02 -13.78,0.17 -19.71,1.22 -5.37,0.97 -11.42,2.9 -15.2,7.07 -4.7,5.18 -5.66,13.7 -5.66,20.38 0,6.97 1.05,15.59 5.96,20.98 3.83,4.21 9.69,6.14 15.14,7.07l0.03 0c5.93,1.03 13.01,1.2 19.44,1.23l0 -57.95z"/>
      <path class="fil1" d="M647.7 348.79l0 4.6 40.75 0c2.41,0 7.31,-0.04 9.6,-0.85 0.12,-0.04 0.32,-0.12 0.49,-0.2 0.01,-0.12 0.01,-0.25 0.01,-0.34 0,-1.3 -0.08,-1.55 -1.26,-2.02 -2.79,-1.1 -8.47,-1.19 -11.44,-1.19l-38.14 0z"/>
      <path class="fil1" d="M849.5 401.38l-48.82 0 0 5.06 50.33 0c-0.57,-1.66 -1.07,-3.35 -1.52,-5.06z"/>
      <path class="fil1" d="M851.25 348.49l-93.72 0c0.05,1.06 0.07,2.13 0.07,3.21 0,0.57 -0.01,1.13 -0.02,1.7l92.09 0c0.47,-1.66 0.99,-3.29 1.57,-4.91z"/>
      <path class="fil1" d="M1082.51 413.18l0 -6.44 47.54 0c1.51,0 5.75,-0.13 7.14,-0.88 0.48,-0.38 0.7,-1.4 0.79,-1.92l0.03 -0.16 0.03 -0.16c0.14,-0.66 0.26,-1.37 0.26,-2.05 0,-3.45 -3.84,-8.97 -5.82,-11.55l-31.62 -41.18 -0.18 -0.27c-1.85,-2.81 -3.8,-5.71 -5.48,-8.62l-0.05 -0.08 -0.04 -0.08c-3.69,-6.69 -4.79,-14.65 -4.79,-22.19l0 -17.1 52.78 0 0 8.91c0,2.7 0.07,5.61 0.5,8.28 0.12,0.77 0.37,1.4 0.9,1.98l0.36 0.41 34.53 49.38c4.23,5.5 7.7,11.58 9.87,18.19 2.23,6.81 3.05,14.05 3.05,21.19 0,9.73 -2.18,19.23 -7.98,27.2 -3.64,5.06 -8.36,8.97 -14,11.63l-0.16 0.08 -0.16 0.07c-4.37,1.85 -10.26,4.43 -14.93,5.27l-0.05 0.01 -0.05 0.01c-8.28,1.39 -17.16,1.64 -25.54,1.64l-32.05 0 0.11 0.3 -157.67 0 0.03 -0.1c-24.7,-0.71 -52.75,-5.32 -71.38,-21.84 -5.97,-5.28 -10.5,-11.36 -13.84,-17.99l0 39.62 -110.1 0 0 -68.99c-0.46,0.43 -0.94,0.85 -1.43,1.26 -12.52,10.6 -31.77,13.78 -48.65,14.5l0 53.23 -89.21 0 0 0.3 -8.91 0c-26.29,0 -58.21,-3.76 -78.72,-21.94 -5.35,-4.73 -9.55,-10.11 -12.77,-15.95l0 37.59 -55.84 0 0 -17.05c-1.26,1.17 -2.6,2.29 -4.05,3.35 -15.91,11.69 -39.5,14.01 -58.62,14.01l-47.23 0 0 -48.29 46.93 0c4.15,0 8.64,-0.49 12.48,-2.15 0.18,-0.08 0.46,-0.21 0.74,-0.36 -0.37,-0.23 -0.78,-0.45 -1.01,-0.56 -3.7,-1.79 -8.16,-2.3 -12.22,-2.3l-46.93 0 0 -47.68 46.62 0c3.64,0 7.42,-0.45 10.82,-1.8l0.05 -0.02c0.32,-0.12 0.89,-0.36 1.46,-0.65 -0.1,-0.05 -0.2,-0.1 -0.27,-0.14 -3.48,-1.68 -7.31,-2.29 -11.15,-2.29l-47.54 0 0 -48.59 46.93 0c18.39,0 42.33,2.05 57.33,13.89 2.13,1.68 4.01,3.51 5.65,5.46l0 -19.65 55.84 0 0 38.84c3.35,-5.96 7.72,-11.45 13.26,-16.32 19.55,-17.13 48.31,-21.72 73.76,-22.18l0 -0.34 55.84 0 0 0.31 38.18 0.3c18.71,0 42.87,2.29 57.52,15.26 0.39,0.34 0.76,0.69 1.13,1.04l0 -16.9 110.41 0 0 40.24c3.44,-6.51 8.05,-12.47 14.03,-17.72 20.7,-18.14 51.73,-22.22 78.22,-22.22l8.92 0 0 48.59 -8.92 0c-7.46,0 -16.84,-0.08 -24.18,1.22 -5.37,0.97 -11.42,2.9 -15.2,7.07 -4.7,5.18 -5.66,13.7 -5.66,20.38 0,6.97 1.05,15.59 5.95,20.98 3.83,4.21 9.69,6.14 15.14,7.07l0.03 0c7.34,1.28 16.46,1.23 23.91,1.23l7.7 0 16.55 -53.05 32 0 -20.06 -53.5 58.69 0 40.45 112.98z"/>
      <path class="fil2" d="M281.18 446.12l-132.9 0 26.06 -83.51 35.87 0 -15.17 50.32 36.48 0 -38.93 -103.82 39.55 0 49.05 137.01zm171.67 -38.8c0,11.21 -4.39,20.05 -13.18,26.52 -11.14,8.18 -28.92,12.28 -53.34,12.28l-38.32 0 0 -30.46 38.01 0c6.23,0 11.57,-0.96 16.02,-2.88 4.45,-1.92 6.67,-4.7 6.67,-8.33 0,-3.74 -2.2,-6.67 -6.59,-8.79 -4.39,-2.12 -9.76,-3.18 -16.09,-3.18l-38.01 0 0 -29.86 37.71 0c5.32,0 10.02,-0.81 14.1,-2.42 5.21,-2.02 8.02,-4.85 8.43,-8.49 0,-3.64 -2.2,-6.52 -6.59,-8.64 -4.39,-2.12 -9.4,-3.18 -15.02,-3.18l-38.63 0 0 -30.76 38.01 0c24.42,0 41.69,3.99 51.81,11.97 7.56,5.96 11.34,14.6 11.34,25.92 0,8.18 -1.1,14.3 -3.3,18.34 -2.2,4.04 -6.67,7.98 -13.41,11.82 6.95,3.34 12.08,7.38 15.4,12.13 3.32,4.75 4.98,10.76 4.98,18.04zm43.07 38.5l-38.01 0 0 -137.01 38.01 0 0 137.01zm100.4 0.3c-33.72,0 -57.99,-6.57 -72.81,-19.7 -12.57,-11.11 -18.85,-27.53 -18.85,-49.26 0,-20.71 6.44,-36.73 19.31,-48.04 15.22,-13.34 39.34,-20.01 72.35,-20.01l0 30.76c-12.06,0 -20.64,0.46 -25.75,1.36 -8.99,1.62 -15.73,4.9 -20.23,9.85 -5.31,5.86 -7.97,14.65 -7.97,26.37 0,11.92 2.76,20.92 8.28,26.98 4.6,5.05 11.34,8.33 20.23,9.85 5.21,0.91 13.69,1.36 25.44,1.36l0 30.46zm42.46 -0.3l-38.01 0 0 -137.01 38.01 0 0 137.01zm109.9 -94.12c0,12.63 -3.78,22.13 -11.34,28.49 -9.91,8.38 -27.18,12.58 -51.81,12.58l0 53.05 -38.32 0 0 -83.51 37.71 0 3.52 0c5.83,0 10.02,-0.45 12.57,-1.36 4.29,-1.52 6.44,-4.5 6.44,-8.94 0,-5.05 -2.3,-8.49 -6.9,-10.31 -3.07,-1.21 -7.97,-1.82 -14.72,-1.82l-38.63 0 0 -30.76 38.63 0.3c24.63,0 41.85,4.34 51.66,13.03 7.46,6.57 11.19,16.32 11.19,29.25zm97.33 -12.13l-92.58 0 0 -30.76 92.58 0 0 30.76zm-0.31 106.24l-92.28 0 0 -83.51 92.28 0 0 30.16 -53.96 0 0 22.88 53.96 0 0 30.46zm101.47 0.3c-33.72,0 -57.99,-6.57 -72.81,-19.7 -12.57,-11.11 -18.85,-27.53 -18.85,-49.26 0,-20.71 6.44,-36.73 19.31,-48.04 15.23,-13.34 39.34,-20.01 72.35,-20.01l0 30.76c-12.06,0 -20.64,0.46 -25.75,1.36 -8.99,1.62 -15.74,4.9 -20.23,9.85 -5.31,5.86 -7.97,14.65 -7.97,26.37 0,11.92 2.76,20.92 8.28,26.98 4.6,5.05 11.34,8.33 20.23,9.85 5.21,0.91 13.69,1.36 25.44,1.36l0 30.46zm137.65 0l-132.89 0 26.06 -83.51 35.87 0 -15.18 50.32 36.48 0 -38.93 -103.82 39.55 0 49.05 137.01zm98.56 -37.28c0,8.89 -2.09,16.22 -6.28,21.97 -2.76,3.84 -6.29,6.77 -10.58,8.79 -6.44,2.73 -10.78,4.29 -13.03,4.7 -6.03,1.01 -14.05,1.52 -24.06,1.52l-38.01 0 0 -30.16 38.63 0c5.82,0 9.91,-0.83 12.26,-2.5 2.35,-1.67 3.83,-4.22 4.45,-7.66 0.31,-1.41 0.46,-2.73 0.46,-3.94 0,-4.65 -2.55,-10.31 -7.66,-16.97l-31.42 -40.92c-2.66,-4.04 -4.39,-6.77 -5.21,-8.18 -2.45,-4.45 -3.68,-10.41 -3.68,-17.88l0 -8.18 34.95 0c0,3.94 0.21,7.17 0.61,9.7 0.41,2.53 1.43,4.7 3.07,6.52l34.34 49.1c3.98,5.15 6.85,10.38 8.58,15.69 1.74,5.3 2.61,11.44 2.61,18.41z"/>
     </g>
     <g>
      <path class="fil3" d="M6.19 407.24c6.46,1.47 11.39,5.96 12.11,11.77 0.95,7.62 -5.66,14.74 -14.91,16.29 0.39,1.56 0.8,3.11 1.25,4.66 8.78,-3.3 18.13,-0.46 21.21,6.59 3.09,7.08 -1.28,15.81 -9.8,19.84 0.88,1.49 1.79,2.98 2.74,4.45 7.48,-5.72 17.34,-5.66 22.34,0.27 5.03,5.95 3.3,15.61 -3.8,21.87 1.2,1.12 2.42,2.22 3.65,3.29 5.54,-7.66 15.09,-10.4 21.61,-6.08 6.55,4.33 7.62,14.18 2.49,22.18 1.48,0.74 2.97,1.46 4.48,2.14 3.09,-8.97 11.53,-14.32 19.05,-11.99 7.55,2.34 11.38,11.54 8.68,20.68 1.64,0.3 3.28,0.56 4.93,0.8 0.38,-9.51 6.96,-17.04 14.87,-16.89 7.93,0.15 14.24,7.96 14.22,17.52 1.66,-0.16 3.32,-0.37 4.98,-0.6 -2.4,-9.27 1.78,-18.37 9.44,-20.44 7.67,-2.07 15.97,3.7 18.65,12.92 1.55,-0.62 3.09,-1.29 4.62,-1.98 -4.98,-8.23 -3.57,-18.17 3.21,-22.29 6.77,-4.12 16.37,-0.9 21.56,7.19 0.68,-0.54 1.36,-1.08 2.04,-1.64 0.62,-0.51 1.22,-1.03 1.82,-1.55 -7.1,-6.52 -8.57,-16.43 -3.25,-22.26 5.32,-5.83 15.44,-5.42 22.73,0.89 0.96,-1.36 1.9,-2.74 2.8,-4.13 -6.8,-3.36 -10.87,-9.69 -10.64,-15.67l-22.08 0c0.15,0.68 0.19,1.4 0.13,2.13 -0.36,3.97 -3.91,6.9 -7.92,6.55 -4.02,-0.36 -6.98,-3.87 -6.62,-7.84 0.03,-0.29 0.07,-0.57 0.13,-0.85l-15.81 0c-15.36,32.61 -41.88,41.24 -70.04,36.98 -24.64,-4.14 -17.56,-17.27 4.28,-16.82 4.64,-1.94 7.71,-6.73 7.71,-11.25 0,-5.27 -4.42,-11.7 -10.47,-12.87l0.26 -0.03c-31.35,-8.69 -47.52,-24.68 -53.51,-43.8l-29.16 0zm86.49 26.34c-1.44,-1.43 -1.44,-3.74 0,-5.17 1.44,-1.43 3.79,-1.43 5.23,0 1.44,1.43 1.44,3.74 0,5.17 -1.44,1.43 -3.78,1.43 -5.23,0zm48.04 -5.17c1.08,-1.07 2.66,-1.34 4,-0.81l-2.17 6.96c-0.67,-0.14 -1.31,-0.47 -1.82,-0.99 -1.44,-1.43 -1.44,-3.74 0,-5.17zm-21.41 8.77c2.04,0 3.7,1.63 3.7,3.65 0,2.02 -1.66,3.65 -3.7,3.65 -2.04,0 -3.7,-1.64 -3.7,-3.65 0,-2.02 1.65,-3.65 3.7,-3.65zm-69.05 -29.94c5.87,22.58 30.6,35.34 53.96,47.25 11.72,5.42 7.66,16.53 -2.97,21.74 20.83,3.11 35,-6.69 46.22,-21.19l-11.32 0 3.99 -12.78c-6.11,3.56 -13.23,5.61 -20.83,5.61 -22.69,0 -41.08,-18.19 -41.08,-40.62l0 0 -27.97 0zm31.38 0l0 0 7.39 0 0 0c0,2.02 -1.65,3.65 -3.7,3.65 -2.04,0 -3.7,-1.64 -3.7,-3.65zm67.94 0l0 0 1.48 0 -0.7 2.24c-0.49,-0.62 -0.78,-1.4 -0.78,-2.24zm-3.6 0l0 0c0,14.57 -11.94,26.37 -26.67,26.37 -14.73,0 -26.68,-11.8 -26.68,-26.37l0 0 53.35 0zm-72.7 56.55c-0.39,3.97 -3.96,6.88 -7.98,6.49 -4.01,-0.39 -6.95,-3.92 -6.56,-7.89 0.39,-3.97 3.96,-6.87 7.98,-6.49 4.02,0.39 6.95,3.92 6.56,7.89z"/>
      <path class="fil3" d="M119.33 380.86c14.73,0 26.67,11.8 26.67,26.37 0,0.69 -0.03,1.38 -0.08,2.06l-0.01 0.13 -53.16 0 -0.02 -0.18c-0.05,-0.67 -0.08,-1.34 -0.08,-2.02 0,-14.57 11.94,-26.37 26.68,-26.37zm69.35 -56.79c-4.5,1.92 -9.39,1.82 -13.24,-0.72 -6.43,-4.25 -7.58,-13.8 -2.78,-21.72 -1.45,-0.72 -2.91,-1.4 -4.39,-2.06 -3.24,8.64 -11.48,13.73 -18.85,11.44 -7.34,-2.28 -11.16,-11.04 -8.89,-19.92 -1.59,-0.28 -3.17,-0.54 -4.77,-0.75 -0.7,9.13 -7.14,16.23 -14.83,16.09 -7.67,-0.14 -13.82,-7.45 -14.2,-16.57 -1.59,0.16 -3.19,0.37 -4.78,0.6 1.89,8.93 -2.26,17.5 -9.66,19.5 -7.39,2 -15.37,-3.29 -18.33,-11.92 -1.48,0.6 -2.95,1.24 -4.41,1.9 4.34,8.04 2.79,17.4 -3.73,21.37 -6.52,3.97 -15.65,1.13 -20.96,-6.31 -0.69,0.54 -1.38,1.09 -2.06,1.65 -0.55,0.46 -1.09,0.92 -1.64,1.39 6.43,6.51 7.61,15.91 2.48,21.53 -5.14,5.63 -14.75,5.44 -21.96,-0.26 -0.93,1.3 -1.83,2.62 -2.7,3.95 8.07,4.44 11.91,13.16 8.58,20 -3.33,6.85 -12.65,9.33 -21.21,5.84 -0.52,1.51 -1,3.03 -1.46,4.55 9.04,2 15.23,9.31 13.98,16.82 -1.25,7.53 -9.53,12.51 -18.78,11.5 -0.07,1.59 -0.11,3.19 -0.11,4.79 4.19,-0.29 8.12,0.63 11.27,2.42 0.14,0.08 0.28,0.16 0.41,0.24l24.41 0 -0.08 -0.22c-3.73,-10.51 -4.25,-22.04 -2.42,-33.86 4.2,-24.46 17.57,-17.31 17,4.5 1.79,4.91 6.85,8.21 11.6,8.21 4.32,0 9.4,-2.87 11.81,-7.13 12.78,-50.31 44.01,-63.54 77.57,-58.46 23.61,3.96 18.1,16.18 -1.61,16.8 -12.04,3.19 -11.65,19.44 -0.88,23.97 5.14,1.4 9.88,2.99 14.24,4.76l4.47 -14.31 32 0 -11.11 -29.62zm-128.59 19.92c4.02,0.36 6.98,3.86 6.62,7.84 -0.36,3.97 -3.91,6.9 -7.93,6.55 -4.02,-0.36 -6.98,-3.87 -6.62,-7.84 0.36,-3.97 3.91,-6.91 7.92,-6.55zm120.66 1.32c-0.39,3.97 -3.96,6.87 -7.98,6.49 -4.01,-0.39 -6.95,-3.92 -6.56,-7.89 0.39,-3.97 3.96,-6.87 7.97,-6.48 4.02,0.38 6.96,3.91 6.56,7.88zm26.29 58.7l11.62 0 -6.44 -17.17 -5.18 17.17zm-87.71 -37.39c16.42,0 30.59,9.53 37.16,23.29l4.7 -15.06c-8.33,-5.44 -17.66,-10.22 -26.78,-14.86 -21.04,-12.93 -0.96,-21.36 2.97,-21.74 -32.7,-4.88 -48.99,22.03 -63.22,49.06 -6.39,16.97 -22.74,10.76 -24.6,2.07 -1.13,7.41 -0.57,13.96 1.29,19.84 0.02,0.07 0.04,0.14 0.06,0.21l27.39 0 -0.01 -0.19c-0.03,-0.66 -0.05,-1.33 -0.05,-2 0,-22.43 18.39,-40.62 41.08,-40.62zm0 3.37c2.04,0 3.7,1.64 3.7,3.65 0,2.02 -1.66,3.65 -3.7,3.65 -2.04,0 -3.7,-1.63 -3.7,-3.65 0,-2.02 1.65,-3.65 3.7,-3.65zm-26.64 10.91c1.44,-1.43 3.79,-1.43 5.23,0 1.44,1.43 1.44,3.74 0,5.17 -1.44,1.43 -3.78,1.43 -5.23,0 -1.44,-1.43 -1.44,-3.74 0,-5.17zm48.04 5.17c-1.44,-1.43 -1.44,-3.74 0,-5.17 1.44,-1.43 3.78,-1.43 5.22,0 1.45,1.43 1.45,3.74 0,5.17 -1.44,1.43 -3.78,1.43 -5.22,0zm-59.08 21.17c0,-2.02 1.65,-3.65 3.7,-3.65 2.04,0 3.7,1.64 3.7,3.65 0,0.75 -0.23,1.44 -0.61,2.01 -0.04,0.06 -0.08,0.12 -0.13,0.18l-5.91 0c-0.05,-0.06 -0.09,-0.12 -0.13,-0.18 -0.39,-0.58 -0.61,-1.27 -0.61,-2.01zm67.94 0c0,-1.63 1.08,-3.01 2.57,-3.48l-1.73 5.55 -0.04 0.13 -0.06 0c-0.03,-0.04 -0.06,-0.08 -0.09,-0.13 -0.41,-0.59 -0.65,-1.3 -0.65,-2.06z"/>
     </g>
    </g>
   </g>
  </g>
  <path class="fil4" d="M84.84 0l1022.62 0c46.67,0 84.84,38.18 84.84,84.84l0 644.79c0,46.66 -38.18,84.84 -84.84,84.84l-1022.62 0c-46.67,0 -84.84,-38.18 -84.84,-84.84l0 -644.79c0,-46.66 38.18,-84.84 84.84,-84.84z"/>
 </g>
</svg>
