<?xml version="1.0" encoding="UTF-8"?>
<!DOCTYPE svg PUBLIC "-//W3C//DTD SVG 1.1//EN" "http://www.w3.org/Graphics/SVG/1.1/DTD/svg11.dtd">
<!-- Creator: CorelDRAW (Evaluation Version) -->
<svg xmlns="http://www.w3.org/2000/svg" xml:space="preserve" width="52.3314mm" height="35.7481mm" version="1.1" style="shape-rendering:geometricPrecision; text-rendering:geometricPrecision; image-rendering:optimizeQuality; fill-rule:evenodd; clip-rule:evenodd"
viewBox="0 0 1338.61 914.42"
 xmlns:xlink="http://www.w3.org/1999/xlink"
 xmlns:xodm="http://www.corel.com/coreldraw/odm/2003">
 <defs>
  <style type="text/css">
   <![CDATA[
    .fil4 {fill:none}
    .fil0 {fill:white}
    .fil1 {fill:black}
    .fil3 {fill:#380000}
    .fil2 {fill:#FF2310}
   ]]>
  </style>
   <clipPath id="id0">
    <path d="M95.26 0l1148.1 0c52.39,0 95.25,42.87 95.25,95.26l0 723.91c0,52.39 -42.86,95.25 -95.25,95.25l-1148.1 0c-52.39,0 -95.26,-42.86 -95.26,-95.25l0 -723.91c0,-52.39 42.86,-95.26 95.26,-95.26z"/>
   </clipPath>
      <mask id="id1">
  <linearGradient id="id2" gradientUnits="userSpaceOnUse" x1="1081.15" y1="514.21" x2="1224.36" y2="514.23">
   <stop offset="0" style="stop-opacity:1; stop-color:white"/>
   <stop offset="0.2" style="stop-opacity:0.501961; stop-color:white"/>
   <stop offset="1" style="stop-opacity:0; stop-color:white"/>
  </linearGradient>
       <rect style="fill:url(#id2)" x="1113.74" y="498.81" width="198.16" height="37.28"/>
      </mask>
      <mask id="id3">
  <linearGradient id="id4" gradientUnits="userSpaceOnUse" x1="950.29" y1="514.21" x2="807.08" y2="514.23">
   <stop offset="0" style="stop-opacity:1; stop-color:white"/>
   <stop offset="0.2" style="stop-opacity:0.501961; stop-color:white"/>
   <stop offset="1" style="stop-opacity:0; stop-color:white"/>
  </linearGradient>
       <rect style="fill:url(#id4)" x="719.53" y="498.81" width="198.16" height="37.28"/>
      </mask>
      <mask id="id5">
  <linearGradient id="id6" gradientUnits="userSpaceOnUse" x1="1102.86" y1="380.51" x2="1006.69" y2="380.52">
   <stop offset="0" style="stop-opacity:1; stop-color:white"/>
   <stop offset="0.2" style="stop-opacity:0.501961; stop-color:white"/>
   <stop offset="1" style="stop-opacity:0; stop-color:white"/>
  </linearGradient>
       <rect style="fill:url(#id6)" x="947.06" y="365.35" width="134.74" height="36.68"/>
      </mask>
      <mask id="id7">
  <linearGradient id="id8" gradientUnits="userSpaceOnUse" x1="926.02" y1="420.55" x2="1022.18" y2="420.56">
   <stop offset="0" style="stop-opacity:1; stop-color:white"/>
   <stop offset="0.2" style="stop-opacity:0.501961; stop-color:white"/>
   <stop offset="1" style="stop-opacity:0; stop-color:white"/>
  </linearGradient>
       <rect style="fill:url(#id8)" x="947.06" y="405.39" width="134.74" height="36.68"/>
      </mask>
      <mask id="id9">
  <linearGradient id="id10" gradientUnits="userSpaceOnUse" x1="1102.86" y1="460.96" x2="1006.69" y2="460.97">
   <stop offset="0" style="stop-opacity:1; stop-color:white"/>
   <stop offset="0.2" style="stop-opacity:0.501961; stop-color:white"/>
   <stop offset="1" style="stop-opacity:0; stop-color:white"/>
  </linearGradient>
       <rect style="fill:url(#id10)" x="947.06" y="445.28" width="134.74" height="37.98"/>
      </mask>
      <mask id="id11">
  <linearGradient id="id12" gradientUnits="userSpaceOnUse" x1="260.32" y1="512.61" x2="117.11" y2="512.63">
   <stop offset="0" style="stop-opacity:1; stop-color:white"/>
   <stop offset="0.2" style="stop-opacity:0.501961; stop-color:white"/>
   <stop offset="1" style="stop-opacity:0; stop-color:white"/>
  </linearGradient>
       <rect style="fill:url(#id12)" x="29.56" y="496.56" width="198.16" height="38.9"/>
      </mask>
      <mask id="id13">
  <linearGradient id="id14" gradientUnits="userSpaceOnUse" x1="259.2" y1="326.11" x2="115.99" y2="326.12">
   <stop offset="0" style="stop-opacity:1; stop-color:white"/>
   <stop offset="0.2" style="stop-opacity:0.501961; stop-color:white"/>
   <stop offset="1" style="stop-opacity:0; stop-color:white"/>
  </linearGradient>
       <rect style="fill:url(#id14)" x="28.44" y="310.97" width="198.16" height="36.63"/>
      </mask>
      <mask id="id15">
  <linearGradient id="id16" gradientUnits="userSpaceOnUse" x1="1338.17" y1="324.57" x2="1221.49" y2="324.58">
   <stop offset="0" style="stop-opacity:1; stop-color:white"/>
   <stop offset="0.2" style="stop-opacity:0.501961; stop-color:white"/>
   <stop offset="1" style="stop-opacity:0; stop-color:white"/>
  </linearGradient>
       <rect style="fill:url(#id16)" x="1149.68" y="309.94" width="162.4" height="35.36"/>
      </mask>
      <mask id="id17">
  <linearGradient id="id18" gradientUnits="userSpaceOnUse" x1="731.03" y1="278.37" x2="731.04" y2="421.58">
   <stop offset="0" style="stop-opacity:1; stop-color:white"/>
   <stop offset="0.2" style="stop-opacity:0.501961; stop-color:white"/>
   <stop offset="1" style="stop-opacity:0; stop-color:white"/>
  </linearGradient>
       <rect style="fill:url(#id18)" x="715.73" y="310.97" width="37.04" height="198.16"/>
      </mask>
      <mask id="id19">
  <linearGradient id="id20" gradientUnits="userSpaceOnUse" x1="728.4" y1="514.22" x2="687.2" y2="514.22">
   <stop offset="0" style="stop-opacity:1; stop-color:white"/>
   <stop offset="0.2" style="stop-opacity:0.501961; stop-color:white"/>
   <stop offset="1" style="stop-opacity:0; stop-color:white"/>
  </linearGradient>
       <rect style="fill:url(#id20)" x="660.19" y="498.81" width="60.65" height="37.28"/>
      </mask>
      <mask id="id21">
  <linearGradient id="id22" gradientUnits="userSpaceOnUse" x1="502.43" y1="515.93" x2="461.23" y2="515.93">
   <stop offset="0" style="stop-opacity:1; stop-color:white"/>
   <stop offset="0.2" style="stop-opacity:0.501961; stop-color:white"/>
   <stop offset="1" style="stop-opacity:0; stop-color:white"/>
  </linearGradient>
       <rect style="fill:url(#id22)" x="434.23" y="500.52" width="60.65" height="37.28"/>
      </mask>
 </defs>
 <g id="Camada_x0020_1">
  <metadata id="CorelCorpID_0Corel-Layer"/>
  <path class="fil0" d="M95.26 0l1148.1 0c52.39,0 95.25,42.87 95.25,95.26l0 723.91c0,52.39 -42.86,95.25 -95.25,95.25l-1148.1 0c-52.39,0 -95.26,-42.86 -95.26,-95.25l0 -723.91c0,-52.39 42.86,-95.26 95.26,-95.26z"/>
  <g style="clip-path:url(#id0)">
   <g id="_105553212407840">
    <g>
     <polygon id="_1" class="fil1" points="984.03,574.97 984.03,576.64 974,576.64 972.49,576.64 972.49,578.3 972.49,604.71 972.49,606.37 974,606.37 1000.58,606.37 1000.58,599.72 979.01,599.72 979.01,594.73 995.56,594.73 995.56,588.28 979.01,588.28 979.01,583.29 1000.58,583.29 1000.58,576.64 987.04,576.64 987.04,574.97 989.04,566.87 985.53,566.87 "/>
     <path class="fil1" d="M96.29 583.29l15.05 0 0 16.42 -15.05 0 0 -16.42zm5.01 -7.9l0 1.25 -9.03 0 -3.01 3.54 0 22.66 5.51 3.54 18.06 0 5.02 -3.33 0 -23.08 -3.51 -3.33 -10.03 0 3.51 -9.77 -5.01 0.42 -1.51 8.11z"/>
     <path class="fil1" d="M808.99 583.29l14.55 0 0 16.42 -14.55 0 0 -16.42zm-7.02 -6.65l0 29.73 0 0 23.07 0 3.51 -1.66 1.5 -1.66 0 -23.08 -1.5 -1.66 -2.01 -1.67 -24.58 0 0 0z"/>
     <polygon class="fil1" points="294.4,578.51 293.4,583.29 293.4,588.28 294.4,593.06 297.91,594.73 315.97,594.73 315.97,599.72 299.42,599.72 299.42,596.39 294.4,596.39 294.4,603.04 299.42,606.37 317.47,606.37 322.49,603.04 322.49,591.4 318.98,588.28 299.42,588.28 299.42,583.29 315.97,583.29 315.97,584.95 322.49,584.95 322.49,579.97 320.48,578.3 318.98,576.64 297.91,576.64 "/>
     <polygon class="fil1" points="1028.16,578.51 1027.16,583.29 1027.16,588.28 1028.16,593.06 1031.67,594.73 1049.73,594.73 1049.73,599.72 1033.18,599.72 1033.18,596.39 1028.16,596.39 1028.16,603.04 1033.18,606.37 1051.23,606.37 1056.25,603.04 1056.25,591.4 1052.74,588.28 1033.18,588.28 1033.18,583.29 1049.73,583.29 1049.73,584.95 1056.25,584.95 1056.25,579.97 1054.24,578.3 1052.74,576.64 1031.67,576.64 "/>
     <polygon class="fil1" points="1281.44,578.51 1280.44,583.29 1280.44,588.28 1281.44,593.06 1284.96,594.73 1303.01,594.73 1303.01,599.72 1286.46,599.72 1286.46,596.39 1281.44,596.39 1281.44,603.04 1286.46,606.37 1304.51,606.37 1309.53,603.04 1309.53,591.4 1306.02,588.28 1286.46,588.28 1286.46,583.29 1303.01,583.29 1303.01,584.95 1309.53,584.95 1309.53,579.97 1307.52,578.3 1306.02,576.64 1284.96,576.64 "/>
     <path class="fil1" d="M695.64 583.29l14.54 0 0 6.45 -14.54 0 0 -6.45zm-6.52 23.08l6.52 0 0 -9.98 11.03 0 5.02 9.98 8.02 0 -6.02 -11.64 3.51 -3.33 0 -9.77 -0.5 -3.12 -3.01 -1.66 -24.57 -0.21 0 29.73z"/>
     <polygon class="fil1" points="29.08,606.37 35.6,606.37 35.6,588.28 44.13,598.05 47.14,598.05 55.16,588.28 55.16,606.37 62.19,606.37 62.19,576.64 55.16,576.64 45.63,588.91 45.63,588.91 35.6,576.64 29.08,576.64 "/>
     <polygon class="fil1" points="911.81,606.37 918.33,606.37 918.33,588.28 926.85,598.05 929.86,598.05 937.89,588.28 937.89,606.37 944.91,606.37 944.91,576.64 937.89,576.64 928.36,588.91 928.36,588.91 918.33,576.64 911.81,576.64 "/>
     <polygon class="fil1" points="474.46,576.64 474.46,578.3 474.46,604.71 474.46,606.37 476.46,606.37 502.54,606.37 502.54,599.72 480.98,599.72 480.98,594.73 497.53,594.73 497.53,588.28 480.98,588.28 480.98,583.29 502.54,583.29 502.54,576.64 476.46,576.64 "/>
     <polygon class="fil1" points="207.63,606.37 233.71,606.37 233.71,599.72 214.15,599.72 214.15,594.73 230.7,594.73 230.7,588.28 214.15,588.28 214.15,583.29 233.71,583.29 233.71,576.64 207.63,576.64 "/>
     <polygon class="fil1" points="582.79,606.37 608.87,606.37 608.87,599.72 589.31,599.72 589.31,594.73 605.86,594.73 605.86,588.28 589.31,588.28 589.31,583.29 608.87,583.29 608.87,576.64 582.79,576.64 "/>
     <path class="fil1" d="M864.66 583.29l14.54 0 0 16.42 -14.54 0 0 -16.42zm-7.02 -3.53l0 23.28 5.01 3.33 18.06 0 5.02 -3.33 0 -23.49 -3.51 -2.91 -21.06 0 -3.51 3.12z"/>
     <path class="fil1" d="M1231.54 583.29l14.54 0 0 16.42 -14.54 0 0 -16.42zm-7.02 -3.53l0 23.28 5.02 3.33 18.05 0 5.02 -3.33 0 -23.49 -3.51 -2.91 -21.06 0 -3.51 3.12z"/>
     <polygon class="fil1" points="386.18,606.37 412.26,606.37 412.26,599.72 392.7,599.72 392.7,594.73 407.75,594.73 409.26,594.73 409.26,588.28 407.75,588.28 392.7,588.28 392.7,583.29 412.26,583.29 412.26,576.64 386.18,576.64 "/>
     <path class="fil1" d="M751.31 583.29l16.55 0 0 16.42 -16.55 0 0 -16.42zm-6.52 -1.66l0 19.75 5.02 4.99 19.56 0 5.01 -4.99 0 -19.75 -5.01 -4.99 -19.56 0 -5.02 4.99z"/>
     <polygon class="fil1" points="1170.6,578.09 1169.1,579.97 1169.1,603.04 1170.6,604.91 1174.11,606.37 1196.68,606.37 1196.68,599.72 1175.62,599.72 1175.62,583.29 1196.68,583.29 1196.68,576.64 1172.11,576.64 "/>
     <polygon class="fil1" points="159.99,606.37 165,606.37 181.55,576.64 175.03,576.64 162.99,597.22 151.96,576.64 143.94,576.64 "/>
     <polygon class="fil1" points="528.62,606.37 558.21,606.37 558.21,599.72 535.14,599.72 535.14,576.64 528.62,576.64 "/>
     <polygon class="fil1" points="1080.82,583.29 1091.86,583.29 1091.86,606.37 1098.38,606.37 1098.38,583.29 1109.92,583.29 1109.92,576.64 1080.82,576.64 "/>
     <polygon class="fil1" points="634.95,583.29 646.48,583.29 646.48,606.37 653,606.37 653,583.29 663.04,583.29 664.54,583.29 664.54,581.63 664.54,578.3 664.54,576.64 663.04,576.64 634.95,576.64 "/>
     <polygon class="fil1" points="261.8,606.37 268.32,606.37 268.32,604.71 268.32,578.3 268.32,576.64 266.82,576.64 261.8,576.64 "/>
     <polygon class="fil1" points="1136.5,606.37 1141.01,606.37 1143.01,606.37 1143.01,604.71 1143.01,578.3 1143.01,576.64 1141.01,576.64 1136.5,576.64 "/>
     <polygon class="fil2" points="29.08,499.12 257.39,499.12 257.39,532.91 29.08,532.91 "/>
     <polygon class="fil2" points="60.1,313.37 60.1,508.32 29.08,508.32 29.08,313.37 "/>
     <polygon class="fil2" points="360.86,332.05 247.85,447.08 225.17,424.79 337.75,310.19 "/>
     <polygon class="fil2" points="257.39,424.78 257.39,532.04 225.16,532.04 225.16,424.78 "/>
     <polygon class="fil2" points="29.08,313.37 224.04,313.37 224.04,345.04 29.08,345.04 "/>
     <polygon class="fil2" points="492.75,313.37 684.65,313.37 684.65,343.61 492.75,343.61 "/>
     <polygon class="fil2" points="1152.24,312.49 1309.53,312.49 1309.53,342.74 1152.24,342.74 "/>
     <polygon class="fil2" points="1152.33,407.67 1309.33,407.67 1309.33,439.71 1152.33,439.71 "/>
     <polygon class="fil2" points="915.14,313.05 1107.04,313.05 1107.04,343.3 915.14,343.3 "/>
     <path class="fil2" d="M945.56 367.91l140.22 0 0 31.56 -140.22 0 0 -31.56zm70.11 10.38c3.24,0 5.85,2.51 5.85,5.59 0,3.08 -2.62,5.59 -5.85,5.59 -3.24,0 -5.86,-2.51 -5.86,-5.59 0,-3.09 2.62,-5.59 5.86,-5.59z"/>
     <path class="fil2" d="M947.87 407.95l140.22 0 0 31.56 -140.22 0 0 -31.56zm67.81 11.96c3.24,0 5.85,2.5 5.85,5.59 0,3.08 -2.62,5.59 -5.85,5.59 -3.24,0 -5.86,-2.51 -5.86,-5.59 0,-3.09 2.62,-5.59 5.86,-5.59z"/>
     <path class="fil2" d="M946.35 447.84l140.21 0 0 32.86 -140.21 0 0 -32.86zm69.32 10.75c3.24,0 5.85,2.51 5.85,5.59 0,3.08 -2.62,5.59 -5.85,5.59 -3.24,0 -5.86,-2.5 -5.86,-5.59 0,-3.09 2.62,-5.59 5.86,-5.59z"/>
     <polygon class="fil2" points="555.21,408.11 684.65,408.11 684.65,439.5 567.07,439.5 555.22,427.27 "/>
     <polygon class="fil2" points="421.82,503.08 519.29,503.08 519.29,535.25 421.82,535.25 "/>
     <polygon class="fil2" points="684.65,326.36 684.65,438.73 651.96,438.73 651.96,326.36 "/>
     <polygon class="fil2" points="522.99,313.37 522.99,535.25 492.31,535.25 492.31,313.37 "/>
     <polygon class="fil2" points="1309.32,411.39 1309.32,530.57 1281.53,530.57 1281.53,411.39 "/>
     <polygon class="fil2" points="1182.83,312.49 1182.83,439.71 1152.24,439.71 1152.24,312.49 "/>
     <polygon class="fil2" points="455.35,426.23 455.35,534.08 421.82,534.08 421.82,426.23 "/>
     <polygon class="fil2" points="750.21,313.53 750.21,511.6 718.28,511.6 718.28,313.53 "/>
     <polygon class="fil2" points="949.62,313.29 949.62,506.85 915.14,506.85 915.14,313.29 "/>
     <polygon class="fil2" points="1116.31,313.05 1116.31,502.09 1079.25,502.09 1079.25,313.05 "/>
     <polygon class="fil2" points="317.53,330.76 434.73,448.69 455.35,426.19 339.81,308.05 "/>
     <polygon class="fil2" points="567.07,439.5 606.56,434.5 675.61,504.76 662.76,533.54 "/>
     <polygon class="fil2" points="662.75,533.54 1309.35,533.54 1309.35,501.37 662.75,501.37 "/>
     <polygon class="fil3" style="mask:url(#id1)" points="1116.3,501.37 1309.35,501.37 1309.35,533.54 1116.3,533.54 "/>
     <polygon class="fil3" style="mask:url(#id3)" points="915.14,501.37 722.09,501.37 722.09,533.54 915.14,533.54 "/>
     <polygon class="fil3" style="mask:url(#id5)" points="1079.25,367.91 949.62,367.91 949.62,399.47 1079.25,399.47 "/>
     <polygon class="fil3" style="mask:url(#id7)" points="949.62,407.95 1079.25,407.95 1079.25,439.51 949.62,439.51 "/>
     <polygon class="fil3" style="mask:url(#id9)" points="1079.25,447.84 949.62,447.84 949.62,480.7 1079.25,480.7 "/>
     <polygon class="fil3" style="mask:url(#id11)" points="225.17,499.12 32.12,499.12 32.12,532.91 225.17,532.91 "/>
     <polygon class="fil3" style="mask:url(#id13)" points="224.04,313.53 30.99,313.53 30.99,345.04 224.04,345.04 "/>
     <polygon class="fil3" style="mask:url(#id15)" points="1309.53,312.49 1152.24,312.49 1152.24,342.74 1309.53,342.74 "/>
     <polygon class="fil3" style="mask:url(#id17)" points="718.28,313.53 718.28,506.58 750.21,506.58 750.21,313.53 "/>
     <polygon class="fil3" style="mask:url(#id19)" points="718.28,501.37 662.75,501.37 662.75,533.54 718.28,533.54 "/>
     <polygon class="fil3" style="mask:url(#id21)" points="492.31,503.08 436.78,503.08 436.78,535.25 492.31,535.25 "/>
    </g>
   </g>
  </g>
  <path class="fil4" d="M95.26 0l1148.1 0c52.39,0 95.25,42.87 95.25,95.26l0 723.91c0,52.39 -42.86,95.25 -95.25,95.25l-1148.1 0c-52.39,0 -95.26,-42.86 -95.26,-95.25l0 -723.91c0,-52.39 42.86,-95.26 95.26,-95.26z"/>
 </g>
</svg>
