<?xml version="1.0" encoding="UTF-8"?>
<!DOCTYPE svg PUBLIC "-//W3C//DTD SVG 1.1//EN" "http://www.w3.org/Graphics/SVG/1.1/DTD/svg11.dtd">
<!-- Creator: CorelDRAW (Evaluation Version) -->
<svg xmlns="http://www.w3.org/2000/svg" xml:space="preserve" width="52.3314mm" height="35.7481mm" version="1.1" style="shape-rendering:geometricPrecision; text-rendering:geometricPrecision; image-rendering:optimizeQuality; fill-rule:evenodd; clip-rule:evenodd"
viewBox="0 0 874.52 597.39"
 xmlns:xlink="http://www.w3.org/1999/xlink"
 xmlns:xodm="http://www.corel.com/coreldraw/odm/2003">
 <defs>
  <style type="text/css">
   <![CDATA[
    .fil3 {fill:none}
    .fil0 {fill:white}
    .fil1 {fill:#00B0F0}
    .fil2 {fill:#363870;fill-rule:nonzero}
   ]]>
  </style>
   <clipPath id="id0">
    <path d="M62.23 0l750.06 0c34.23,0 62.23,28 62.23,62.23l0 472.93c0,34.23 -28,62.23 -62.23,62.23l-750.06 0c-34.23,0 -62.23,-28 -62.23,-62.23l0 -472.93c0,-34.23 28,-62.23 62.23,-62.23z"/>
   </clipPath>
 </defs>
 <g id="Camada_x0020_1">
  <metadata id="CorelCorpID_0Corel-Layer"/>
  <path class="fil0" d="M62.23 0l750.06 0c34.23,0 62.23,28 62.23,62.23l0 472.93c0,34.23 -28,62.23 -62.23,62.23l-750.06 0c-34.23,0 -62.23,-28 -62.23,-62.23l0 -472.93c0,-34.23 28,-62.23 62.23,-62.23z"/>
  <g style="clip-path:url(#id0)">
   <g id="_105553210932864">
    <g>
     <path id="_1" class="fil1" d="M430.29 163.1c1.29,1.64 2.57,3.29 3.84,4.94 -16.81,1.35 -38.77,6.27 -63.09,20.84 -1.06,-4.52 -2.07,-9.1 -3.02,-13.76 0.3,5.05 0.7,10 1.2,14.86 -15.68,9.66 -32.31,23.35 -49.17,42.68 17.18,-50.04 61.89,-86.44 126.35,-89.76 -100.26,-13.91 -152.94,80.52 -143.02,163.88 7.66,64.36 63.61,148.52 135.18,149.07 -35.25,-7.69 -71.37,-42.53 -95.72,-80.75 7.35,-7.76 15.59,-15.67 24.74,-23.47 16.27,19.65 31.84,27.98 34.58,29.29 -11.37,-11.72 -20.8,-22.97 -28.77,-34.12 11.84,-9.62 25.09,-18.98 39.81,-27.6 16.95,26.84 35.94,47.39 52.05,62.89 -16.44,11.74 -33.7,28.08 -51.02,50.73 19.56,-18.33 37.49,-33.58 56.33,-45.69 16.46,15.38 28.99,25.18 31.56,30.92 -9.69,-11.26 -18.99,-22.29 -27.87,-33.24 16.71,-10.31 34.25,-18.17 54.34,-23.54 5.27,18.59 9.82,37.47 13.75,56.6 -0.85,-20.86 -3.02,-40.33 -6.21,-58.47 11.17,-2.57 23.16,-4.4 36.21,-5.51 -4.57,0.18 -18.11,-2.32 -37.22,-0.02 -5.18,-27.26 -12.63,-51.4 -21.21,-72.56 12.17,-2.38 24.89,-4.17 38.17,-5.26 -2.36,-0.66 -18.04,-2.57 -40.65,-0.7 -10.11,-23.67 -21.56,-43.41 -32.63,-59.39 9.85,-1.81 20.16,-3.3 31.05,-4.47 -2.64,-0.74 -15.4,-3.62 -35.74,-2.13 -12.87,-17.59 -24.85,-30 -33.1,-37.55 7.91,-1.41 16.22,-2.49 25.03,-3.24 -3.93,0.16 -14.49,-1.67 -29.53,-0.73 -3.14,-2.66 -5.32,-4.24 -6.22,-4.77zm-111.92 74.82c17.6,-15.9 34.2,-29.17 51.79,-39.75 1.97,15.34 4.92,29.7 8.63,43.14 -13.36,7.79 -27.43,17.39 -42.06,29.16 -3.32,-10.71 -6.36,-21.97 -9.42,-34.03 0.69,13.8 2.35,26.39 4.72,37.87 -6.03,5 -12.15,10.36 -18.35,16.14 6.54,-4.31 12.9,-8.46 19.14,-12.44 6.82,30.38 18.7,52.66 30.74,68.57 -7.44,8.28 -14.57,17.48 -21.25,27.72 -14.58,-23.08 -24.85,-47.32 -28.03,-67.51 -3.82,-24.27 -2.27,-47.69 4.08,-68.87zm151.25 141.16c-17.3,-21.64 -32.94,-43.05 -46.68,-65.35 22.86,-12.33 48.99,-22.78 78.52,-29.74 9.87,23.14 18.24,46.88 25.35,71.13 -16.4,3.01 -36.04,9.74 -57.19,23.95zm-100.52 -38.45c-14.15,-21.13 -23.4,-42.21 -31.04,-65.93 14.79,-9.3 28.96,-17.63 43.16,-24.99 6.94,22.55 16.02,42.37 26.09,59.77 -13.11,8.32 -26.02,18.57 -38.21,31.15zm47.85 -36.91c-10.71,-18.38 -20.14,-37.46 -28.16,-57.84 24.83,-12.24 50.1,-21.51 79.28,-27.78 11.35,19.05 21.39,38.64 30.26,58.7 -23.74,3.26 -52.71,10.79 -81.39,26.92zm20.55 -131.23c9.31,12.41 17.94,25.09 25.95,38.02 -20.68,2.84 -47.27,10.2 -77.87,26.97 -4.8,-13.05 -9.04,-26.64 -12.68,-40.93 19.35,-11.26 40.01,-19.3 64.59,-24.06z"/>
     <path class="fil2" d="M87.44 316.82l-0.33 14.64c-10,4.19 -19.25,6.29 -27.73,6.29 -10.15,0 -18.96,-3.05 -26.42,-9.13 -10,-8.16 -15.01,-19.35 -15.01,-33.6 0,-14.02 4.67,-25.25 14.03,-33.71 8.84,-7.91 20.05,-11.88 33.6,-11.88 6.02,0 12.65,0.95 19.9,2.84l-0.11 15.12c-6.45,-4.88 -14.06,-7.32 -22.84,-7.32 -9.5,0 -16.93,3.32 -22.29,9.93 -5.08,6.26 -7.61,14.44 -7.61,24.56 0,9.67 2.54,17.43 7.61,23.3 5.22,6.08 12.4,9.13 21.53,9.13 8.7,0 17.25,-3.39 25.66,-10.18zm45.11 20.14l-13.7 0 0 -8.58c-3.86,2.97 -6.98,5.61 -9.39,7.91 -1.16,0.44 -2.39,0.67 -3.72,0.67 -4.15,0 -7.72,-1.39 -10.75,-4.16 -3.03,-2.76 -4.53,-6.29 -4.53,-10.54 0,-4.86 2.39,-9.04 7.18,-12.53 3.12,-2.27 10.15,-5.72 21.09,-10.35 0,-0.23 0.04,-0.57 0.11,-1.03 0,-0.46 0,-0.8 0,-1.03 0,-8.12 -3.62,-12.18 -10.88,-12.18 -3.55,0 -7.58,1.41 -12.07,4.23l2.83 -10.98c4.71,-1.53 9.06,-2.29 13.05,-2.29 11.82,0 17.73,6.14 17.73,18.42l0 27.34c0,5.8 1.01,10.83 3.04,15.1zm-13.7 -9.61l0 -17.05 -14.55 0c-1.32,3.28 -1.98,6.29 -1.98,9.04 0,5.72 3.46,8.58 10.4,8.58 1.52,0 3.57,-0.19 6.13,-0.57zm54.57 -7.21c0,6.03 -2.46,10.64 -7.39,13.84 -4.06,2.59 -9.13,3.89 -15.22,3.89 -3.84,0 -8.3,-0.73 -13.38,-2.17l0.76 -16.36c4.35,7.32 9.39,10.98 15.12,10.98 2.17,0 3.99,-0.69 5.44,-2.06 1.45,-1.37 2.18,-3.2 2.18,-5.49 0,-2.59 -1.05,-4.84 -3.15,-6.75 -2.1,-1.37 -4.82,-3.17 -8.16,-5.38 -7.1,-4.73 -10.66,-10.3 -10.66,-16.7 0,-5.87 2.28,-10.45 6.85,-13.73 3.99,-2.82 8.88,-4.23 14.68,-4.23 3.7,0 7.5,0.8 11.42,2.4l-0.11 11.56c-3.77,-3.97 -7.79,-5.95 -12.07,-5.95 -2.39,0 -4.37,0.67 -5.93,2 -1.56,1.33 -2.34,3.26 -2.34,5.78 0,2.52 1.02,4.73 3.04,6.64 0.29,0.31 2.86,1.95 7.72,4.92 7.47,4.65 11.2,10.26 11.2,16.82zm43.92 16.82l-13.7 0 0 -8.58c-3.86,2.97 -6.98,5.61 -9.39,7.91 -1.16,0.44 -2.39,0.67 -3.71,0.67 -4.15,0 -7.72,-1.39 -10.75,-4.16 -3.03,-2.76 -4.53,-6.29 -4.53,-10.54 0,-4.86 2.39,-9.04 7.18,-12.53 3.12,-2.27 10.15,-5.72 21.1,-10.35 0,-0.23 0.04,-0.57 0.11,-1.03 0,-0.46 0,-0.8 0,-1.03 0,-8.12 -3.62,-12.18 -10.87,-12.18 -3.55,0 -7.58,1.41 -12.07,4.23l2.83 -10.98c4.71,-1.53 9.06,-2.29 13.05,-2.29 11.82,0 17.73,6.14 17.73,18.42l0 27.34c0,5.8 1.01,10.83 3.04,15.1zm-13.7 -9.61l0 -17.05 -14.55 0c-1.32,3.28 -1.98,6.29 -1.98,9.04 0,5.72 3.46,8.58 10.4,8.58 1.52,0 3.57,-0.19 6.12,-0.57zm120.15 9.61l-19.68 0c2.39,-6.41 3.59,-13.92 3.59,-22.54l0 -15.9 -34.91 0 0 15.9c0,8.62 1.23,16.13 3.7,22.54l-19.68 0c2.39,-6.41 3.59,-13.92 3.59,-22.54l0 -41.53c0,-8.62 -1.2,-16.13 -3.59,-22.54l19.68 0c-2.46,6.41 -3.7,13.92 -3.7,22.54l0 14.76 34.91 0 0 -14.76c0,-8.62 -1.19,-16.13 -3.59,-22.54l19.68 0c-2.32,6.18 -3.48,13.69 -3.48,22.54l0 41.53c0,8.85 1.16,16.36 3.48,22.54zm47.51 -16.48l-3.26 13.73c-3.7,2.36 -8.77,3.55 -15.22,3.55 -8.26,0 -14.35,-3.09 -18.27,-9.27 -3.33,-5.26 -5,-12.43 -5,-21.51 0,-9.54 2.14,-17.09 6.42,-22.65 4.28,-5.57 10.66,-8.35 19.14,-8.35 6.96,0 12.25,1.03 15.88,3.09 -0.36,0.69 -0.54,1.94 -0.54,3.78 0,0.61 0.04,1.58 0.11,2.92 0.07,1.33 0.11,2.34 0.11,3.03 0,0.46 -0.04,0.73 -0.11,0.8 -2.81,-3.36 -7.59,-5.03 -14.35,-5.03 -4.46,0 -7.96,1.62 -10.48,4.84 -2.23,2.99 -3.48,6.94 -3.77,11.86l25.23 0 -3.03 8.58 -22.2 0 0 0.46c-0.07,4.77 1.01,8.75 3.24,11.94 2.54,3.49 5.96,5.23 10.3,5.23 7.16,0 12.43,-2.33 15.82,-6.98zm21.3 16.48l-17.29 0c2.1,-4.27 3.15,-9.3 3.15,-15.1l0 -52.63c0,-5.8 -1.05,-10.83 -3.15,-15.1l16.97 -3.78c-1.74,6.03 -2.61,13.65 -2.61,22.88l0 48.62c0,5.95 0.98,10.98 2.94,15.1zm22.71 0l-17.29 0c2.1,-4.27 3.15,-9.3 3.15,-15.1l0 -52.63c0,-5.8 -1.05,-10.83 -3.15,-15.1l16.96 -3.78c-1.74,6.03 -2.61,13.65 -2.61,22.88l0 48.62c0,5.95 0.98,10.98 2.94,15.1zm46.42 -16.48l-3.26 13.73c-3.7,2.36 -8.77,3.55 -15.22,3.55 -8.27,0 -14.35,-3.09 -18.27,-9.27 -3.34,-5.26 -5,-12.43 -5,-21.51 0,-9.54 2.14,-17.09 6.42,-22.65 4.28,-5.57 10.66,-8.35 19.14,-8.35 6.96,0 12.25,1.03 15.88,3.09 -0.36,0.69 -0.54,1.94 -0.54,3.78 0,0.61 0.04,1.58 0.11,2.92 0.07,1.33 0.11,2.34 0.11,3.03 0,0.46 -0.04,0.73 -0.11,0.8 -2.81,-3.36 -7.59,-5.03 -14.35,-5.03 -4.46,0 -7.96,1.62 -10.48,4.84 -2.23,2.99 -3.48,6.94 -3.77,11.86l25.23 0 -3.03 8.58 -22.2 0 0 0.46c-0.07,4.77 1.02,8.75 3.24,11.94 2.54,3.49 5.96,5.23 10.3,5.23 7.16,0 12.43,-2.33 15.82,-6.98zm52.94 16.48l-17.4 0c2.1,-4.27 3.15,-9.29 3.15,-15.06l0 -25.91c0,-6.62 -3.55,-9.93 -10.66,-9.93 -3.01,0 -6.23,1.03 -9.68,3.09l0 32.76c0,5.78 1.05,10.79 3.15,15.06l-17.4 0c2.03,-4.27 3.04,-9.3 3.04,-15.1l0 -29.97c0,-5.72 -1.02,-10.72 -3.04,-14.99l14.24 0 0 9.84c1.67,-1.45 3.68,-3.43 6,-5.95 0.51,-0.61 1.23,-1.41 2.19,-2.4 1.74,-1.53 4.5,-2.29 8.28,-2.29 4.59,0 8.25,1.41 10.96,4.23 2.74,2.82 4.1,6.64 4.1,11.44l0 30.09c0,5.8 1.01,10.83 3.04,15.1zm131.56 -86.61c-5.22,4.5 -7.83,11.82 -7.83,21.97l0 42.1c0,8.85 1.16,16.36 3.48,22.54l-19.68 0c2.39,-6.41 3.59,-13.92 3.59,-22.54l0 -39.47 -27.62 35.92 -27.19 -36.04 0 39.59c0,8.85 1.16,16.36 3.48,22.54l-19.57 0c2.32,-6.18 3.48,-13.69 3.48,-22.54l0 -54.92 -8.59 -9.15 19.27 0c0.07,2.06 1.34,4.73 3.81,7.99l25.54 34.42 25.75 -34.42c2.39,-3.18 3.66,-5.85 3.81,-7.99l18.29 0zm55.55 55.15c0,11.21 -3.52,19.53 -10.55,24.94 -6.31,4.88 -12.36,7.32 -18.16,7.32 -5.07,0 -9.89,-1.71 -14.46,-5.15 -7.11,-5.34 -10.66,-13.31 -10.66,-23.91 0,-8.85 2.36,-16.25 7.07,-22.2 4.06,-5.11 9.43,-8.43 16.09,-9.95 1.6,-0.38 2.57,-0.57 2.94,-0.57 8.41,0 15.22,2.75 20.44,8.24 4.86,5.26 7.28,12.35 7.28,21.28zm-10.55 2.12c0,-6.69 -1.7,-12.2 -5.11,-16.55 -3.41,-4.33 -7.43,-6.5 -12.07,-6.5 -4.64,0 -8.23,2.29 -10.77,6.84 -2.18,3.81 -3.26,8.3 -3.26,13.46 0,7 1.85,12.7 5.54,17.12 3.7,4.41 8.85,6.62 15.44,6.62 3.26,-2.06 5.84,-5.05 7.72,-9.02 1.67,-3.72 2.5,-7.72 2.5,-11.98zm-1.52 -57.26l-15.66 19.45 -6.96 0 10.88 -19.45 11.74 0zm63.28 26.54c-3.12,5.19 -5.55,10.83 -7.29,16.93l-12.29 43.13 -12.18 0 -13.48 -45.08c-1.96,-6.56 -4.31,-11.56 -7.07,-14.99l17.83 0c-0.65,2.29 -0.98,4.35 -0.98,6.2 0,1.75 0.4,4.12 1.21,7.09l9.7 33.14 9.66 -33.96c0.85,-3.05 1.29,-6.02 1.29,-8.92 0,-0.69 -0.07,-1.87 -0.22,-3.55l13.81 0zm40.54 43.59l-3.26 13.73c-3.7,2.36 -8.77,3.55 -15.22,3.55 -8.26,0 -14.35,-3.09 -18.27,-9.27 -3.34,-5.26 -5,-12.43 -5,-21.51 0,-9.54 2.14,-17.09 6.42,-22.65 4.28,-5.57 10.66,-8.35 19.14,-8.35 6.96,0 12.25,1.03 15.88,3.09 -0.36,0.69 -0.54,1.94 -0.54,3.78 0,0.61 0.04,1.58 0.11,2.92 0.07,1.33 0.11,2.34 0.11,3.03 0,0.46 -0.04,0.73 -0.11,0.8 -2.81,-3.36 -7.59,-5.03 -14.35,-5.03 -4.46,0 -7.96,1.62 -10.47,4.84 -2.23,2.99 -3.48,6.94 -3.77,11.86l25.23 0 -3.03 8.58 -22.2 0 0 0.46c-0.07,4.77 1.01,8.75 3.24,11.94 2.54,3.49 5.96,5.23 10.3,5.23 7.16,0 12.43,-2.33 15.82,-6.98zm21.52 16.48l-17.4 0c2.03,-4.27 3.04,-9.3 3.04,-15.1l0 -29.97c0,-5.72 -1.01,-10.72 -3.04,-14.99l17.4 0c-2.1,4.27 -3.15,9.27 -3.15,14.99l0 29.97c0,5.8 1.05,10.83 3.15,15.1zm41.52 -16.82c0,6.03 -2.46,10.64 -7.39,13.84 -4.06,2.59 -9.13,3.89 -15.23,3.89 -3.84,0 -8.3,-0.73 -13.37,-2.17l0.76 -16.36c4.35,7.32 9.39,10.98 15.12,10.98 2.17,0 3.99,-0.69 5.44,-2.06 1.45,-1.37 2.17,-3.2 2.17,-5.49 0,-2.59 -1.05,-4.84 -3.15,-6.75 -2.1,-1.37 -4.82,-3.17 -8.16,-5.38 -7.11,-4.73 -10.66,-10.3 -10.66,-16.7 0,-5.87 2.28,-10.45 6.85,-13.73 3.99,-2.82 8.88,-4.23 14.68,-4.23 3.7,0 7.5,0.8 11.42,2.4l-0.11 11.56c-3.77,-3.97 -7.79,-5.95 -12.07,-5.95 -2.39,0 -4.37,0.67 -5.93,2 -1.56,1.33 -2.34,3.26 -2.34,5.78 0,2.52 1.01,4.73 3.04,6.64 0.29,0.31 2.86,1.95 7.72,4.92 7.47,4.65 11.2,10.26 11.2,16.82z"/>
    </g>
   </g>
  </g>
  <path class="fil3" d="M62.23 0l750.06 0c34.23,0 62.23,28 62.23,62.23l0 472.93c0,34.23 -28,62.23 -62.23,62.23l-750.06 0c-34.23,0 -62.23,-28 -62.23,-62.23l0 -472.93c0,-34.23 28,-62.23 62.23,-62.23z"/>
 </g>
</svg>
