<?xml version="1.0" encoding="UTF-8"?>
<!DOCTYPE svg PUBLIC "-//W3C//DTD SVG 1.1//EN" "http://www.w3.org/Graphics/SVG/1.1/DTD/svg11.dtd">
<!-- Creator: CorelDRAW (Evaluation Version) -->
<svg xmlns="http://www.w3.org/2000/svg" xml:space="preserve" width="52.3315mm" height="35.7481mm" version="1.1" style="shape-rendering:geometricPrecision; text-rendering:geometricPrecision; image-rendering:optimizeQuality; fill-rule:evenodd; clip-rule:evenodd"
viewBox="0 0 2852.22 1948.37"
 xmlns:xlink="http://www.w3.org/1999/xlink"
 xmlns:xodm="http://www.corel.com/coreldraw/odm/2003">
 <defs>
  <style type="text/css">
   <![CDATA[
    .fil8 {fill:none}
    .fil2 {fill:white}
    .fil0 {fill:white}
    .fil4 {fill:#F58750}
    .fil5 {fill:#F58735}
    .fil3 {fill:#201F1F}
    .fil1 {fill:#C3DB6B}
    .fil6 {fill:#373535;fill-rule:nonzero}
    .fil7 {fill:#F58735;fill-rule:nonzero}
   ]]>
  </style>
   <clipPath id="id0">
    <path d="M202.96 0l2446.29 0c111.63,0 202.96,91.34 202.96,202.96l0 1542.45c0,111.63 -91.34,202.96 -202.96,202.96l-2446.29 0c-111.63,0 -202.96,-91.33 -202.96,-202.96l0 -1542.45c0,-111.63 91.33,-202.96 202.96,-202.96z"/>
   </clipPath>
 </defs>
 <g id="Camada_x0020_1">
  <metadata id="CorelCorpID_0Corel-Layer"/>
  <path class="fil0" d="M202.96 0l2446.29 0c111.63,0 202.96,91.34 202.96,202.96l0 1542.45c0,111.63 -91.34,202.96 -202.96,202.96l-2446.29 0c-111.63,0 -202.96,-91.33 -202.96,-202.96l0 -1542.45c0,-111.63 91.33,-202.96 202.96,-202.96z"/>
  <g style="clip-path:url(#id0)">
   <g id="_105553210662144">
    <g>
     <path id="_1" class="fil1" d="M1482.17 75.58c502.35,0 912.07,403.67 912.07,898.61 0,494.94 -409.72,898.61 -912.07,898.61 -502.36,0 -912.08,-403.67 -912.08,-898.61 0,-494.94 409.72,-898.61 912.08,-898.61z"/>
     <g>
      <path class="fil2" d="M652.88 1162.73l249.86 0c189.05,0 336.21,-8.91 475.03,-90.3 85.36,-49.79 153.96,-117.09 201.42,-195.55l-48.42 248.41c-21.33,109.37 -28.93,195.86 2.63,264.53 50.32,108.1 174.63,175.72 345.17,175.72 170.54,0 320.96,-66.35 413.67,-175.72 58.33,-68.67 85.77,-155.16 107.09,-264.53l96.2 -493.46 -339.77 0 -96.69 496c-18.59,95.39 -46.69,151.35 -124.69,151.35 -79.32,0 -82.95,-55.96 -64.36,-151.35l96.69 -496 -218.49 0c11.16,-19.43 17.64,-42.47 22.98,-69.81l31.9 -163.66 -112.68 0 -32.07 164.5c-1.79,9.17 -3.85,17.25 -6.5,24.08 -3.8,-46.63 -15.81,-90.05 -35.71,-129.19l11.58 -59.39 -50.6 0c-19.26,-23.28 -42.1,-44.3 -68.41,-62.76 -10.32,-17.86 -25.86,-32.78 -46.36,-43.76 -23.83,-12.66 -58.89,-17.98 -105.9,-18.85 -67.93,-13.91 -151.47,-19.6 -251.33,-19.6l-274.98 0 -177.27 909.34zm539.12 -588.29l79.82 0c30.11,28.9 39.34,73.31 27.46,134.26 -24.05,123.37 -104.04,174.23 -255.24,176.77l68.67 -352.28 14.54 0c26.9,0 50.73,2.16 71.51,6.5l-6.77 34.75zm400.85 278.45c0.23,-0.41 0.45,-0.83 0.66,-1.24 -0.22,0.41 -0.44,0.83 -0.66,1.24zm12.74 -25.43c0.14,-0.29 0.27,-0.59 0.41,-0.88 -0.14,0.29 -0.27,0.59 -0.41,0.88zm2.57 -5.59c0.04,-0.08 0.07,-0.15 0.1,-0.22 -0.03,0.08 -0.07,0.15 -0.1,0.22zm8.39 -19.6c0.38,-0.94 0.76,-1.88 1.13,-2.82 -0.37,0.94 -0.75,1.89 -1.13,2.82zm9.84 -26.43c0.35,-1.03 0.7,-2.05 1.04,-3.08 -0.34,1.03 -0.69,2.05 -1.04,3.08zm6.36 -19.97c0.41,-1.38 0.81,-2.76 1.2,-4.14 -0.39,1.38 -0.8,2.76 -1.2,4.14zm1.96 -6.79c0.36,-1.28 0.71,-2.55 1.06,-3.83 -0.35,1.28 -0.7,2.56 -1.06,3.83zm3.38 -12.61c0.56,-2.18 1.08,-4.35 1.61,-6.55 -0.53,2.19 -1.06,4.37 -1.61,6.55zm1.61 -6.55c0.01,-0.08 0.03,-0.14 0.05,-0.22 0.13,-0.5 0.24,-1 0.35,-1.5 0.35,-1.49 0.7,-2.98 1.04,-4.47l-1.44 6.19zm1.84 -8c0.98,-4.39 1.91,-8.8 2.77,-13.22 -0.86,4.42 -1.79,8.83 -2.77,13.22zm3.02 -14.6c0.29,-1.55 0.57,-3.05 0.86,-4.59 -0.29,1.53 -0.57,3.05 -0.86,4.59z"/>
     </g>
     <path class="fil3" d="M698.73 1074.97l55.53 0c38.99,0 70.01,-5.75 100.81,-25.74 29.88,-19.44 53.18,-49.56 64.06,-82.42 11.6,-35.05 5.61,-62.43 -17.2,-77.76 -10.97,-7.12 -30.3,-9.86 -58.19,-9.86l-47.62 0 -97.39 195.79zm93.28 -58.87l38.66 -78.04 1.24 0c19.99,0 27.82,12.87 21.11,33.13 -9.06,27.39 -31.4,44.91 -60.27,44.91l-0.74 0zm94.73 58.87l58.78 0 30.51 -61.61c9.04,-18.35 16.62,-27.11 31.93,-27.11 5.43,0 11.55,1.64 18.44,4.65l28.05 -56.41c-5.22,-1.37 -9.64,-2.19 -13.59,-2.19 -14.56,0 -28.21,7.67 -41.76,23.28l10.45 -18.9 -53.8 0 -69.01 138.28zm141.28 -59.15c-12.33,37.24 4.59,64.4 41.12,64.4 24.18,0 49.39,-11.27 70.04,-30.45 15.66,-14.51 27.48,-32.31 33.73,-51.2 13.23,-39.98 -3.08,-65.99 -41.57,-65.99 -21.23,0 -43.38,8.76 -63.71,25.46 -18.31,15.06 -32.08,35.05 -39.61,57.78zm81.15 -28.21c8.15,0 11.18,5.75 8.01,15.33 -4.35,13.15 -14.35,22.46 -24.47,22.46 -7.89,0 -11.08,-6.02 -8,-15.34 4.17,-12.6 14.83,-22.45 24.46,-22.45zm198.49 -50.93l-8.93 20.26c-2.7,-16.43 -11.52,-24.1 -27.31,-24.1 -17.52,0 -36.15,9.31 -54.56,27.65 -16.2,16.15 -29.51,36.96 -36.04,56.68 -10.97,33.13 0.2,55.31 28.09,55.31 14.56,0 29.93,-7.67 45.62,-23.01l-6.86 11.78c-10.96,18.94 -25.08,28.79 -39.89,28.79 -11.35,0 -19.95,-3.83 -27.94,-11.77l-32.88 39.71c15.96,10.68 32.66,16.15 52.4,16.15 43.43,0 78.98,-24.64 102.91,-72.34l62.65 -125.14 -57.26 0zm-41.27 50.11c8.15,0 11.74,6.3 8.48,16.15 -4.08,12.32 -14.3,20.81 -24.41,20.81 -8.14,0 -11.02,-5.48 -7.76,-15.34 4.17,-12.6 14.07,-21.63 23.69,-21.63zm209.82 -50.11l-8.84 19.99c-2.7,-16.43 -11.42,-24.37 -27.22,-24.37 -17.52,0 -36.24,9.58 -54.66,27.93 -16.2,16.15 -29.6,37.24 -36.58,58.32 -12.24,36.97 -0.57,61.39 25.58,61.39 15.05,0 29.7,-7.72 45.32,-23.59l-10.61 18.62 55.28 0 68.97 -138.28 -57.26 0zm-42.31 51.76c8.14,0 11.83,6.02 8.38,16.43 -4.17,12.6 -14.23,21.36 -24.35,21.36 -8.14,0 -11.02,-5.48 -7.66,-15.61 4.35,-13.15 14.25,-22.18 23.63,-22.18zm55.47 86.53l58.78 0 30.51 -61.61c9.03,-18.35 16.62,-27.11 31.92,-27.11 5.43,0 11.55,1.64 18.45,4.65l28.05 -56.41c-5.23,-1.37 -9.64,-2.19 -13.59,-2.19 -14.56,0 -28.2,7.67 -41.76,23.28l10.45 -18.9 -53.8 0 -69.01 138.28zm118.21 0l58.78 0 68.72 -138.28 -58.73 0 -68.77 138.28zm103.95 -145.4c19.74,0 40.97,-16.43 47.13,-35.05 5.89,-17.8 -2.75,-31.22 -20.51,-31.22 -19.74,0 -40.98,16.43 -47.14,35.05 -5.8,17.53 2.75,31.22 20.52,31.22zm133.86 7.12l-8.84 19.99c-2.7,-16.43 -11.43,-24.37 -27.22,-24.37 -17.52,0 -36.24,9.58 -54.66,27.93 -16.21,16.15 -29.6,37.24 -36.58,58.32 -12.24,36.97 -0.58,61.39 25.58,61.39 15.05,0 29.7,-7.72 45.32,-23.59l-10.61 18.62 55.28 0 68.97 -138.28 -57.25 0zm-42.31 51.76c8.14,0 11.83,6.02 8.38,16.43 -4.17,12.6 -14.23,21.36 -24.35,21.36 -8.14,0 -11.02,-5.48 -7.66,-15.61 4.35,-13.15 14.25,-22.18 23.63,-22.18z"/>
     <path class="fil4" d="M1467.03 213.89c125.84,0 234.12,76.37 279.6,184.48l-56.2 0 -32.07 164.5c-6.17,31.63 -15.48,50.19 -41.35,50.19 -26.31,0 -27.51,-18.56 -21.35,-50.19l32.07 -164.5 -104.04 0c1.31,-46.09 -19.92,-84.35 -61.32,-106.52 -26.22,-13.93 -66.01,-18.98 -120.38,-18.98l-55.25 0c50.4,-37.03 112.82,-58.97 180.28,-58.97zm267 437.76c-50.97,94.03 -151.61,158.28 -267,158.28 -166.6,0 -302.48,-133.88 -302.48,-298.03 0,-76.89 29.82,-147.15 78.66,-200.11l-51.2 262.64 82.86 0c62.7,0 111.5,-2.96 157.54,-29.95 28.31,-16.51 51.06,-38.84 66.8,-64.86l-16.06 82.39c-7.07,36.27 -9.59,64.96 0.87,87.73 16.69,35.86 57.91,58.28 114.48,58.28 55.56,0 104.67,-21.23 135.53,-56.38zm-412.3 -169.16l22.78 -116.84 4.82 0c45.6,0 64.78,18.56 57.05,58.21 -7.97,40.92 -34.5,57.78 -84.65,58.63z"/>
     <path class="fil5" d="M2377.34 1438.66c29.32,40.66 70.37,61.55 118.79,61.55 78.96,0 152.18,-54.93 175.12,-123.97 16.02,-48.23 2.97,-73.29 -35.02,-95.52 -20.5,-11.82 -34.36,-16.08 -29.8,-29.79 2.82,-8.51 11.41,-14.66 22.32,-14.66 17.45,0 34.03,11.82 51.04,35.47l71.12 -82.75c-21.54,-28.37 -53.91,-42.56 -98.42,-42.56 -78.97,0 -145.67,51.07 -168.45,119.63 -15.39,46.34 0.17,75.66 43.52,98.82 17.8,9.46 28.48,12.76 24.86,23.64 -2.51,7.57 -11.82,13.24 -24.9,13.24 -27.49,0 -50.91,-17.5 -64.9,-51.54l-85.29 88.42zm-2060.28 -562.15l-135.74 260.35c-31.5,60.41 -55.57,108.06 -68.78,142.09 -53.51,137.83 -15.07,222.21 105.04,222.21 69.34,0 143.87,-39.4 207.92,-108.2 38.93,-41.8 75.48,-101.18 115.46,-177.82l176.65 -338.63 -161.58 0 -159.77 306.3c-42.85,81.68 -64.56,121.67 -98.61,121.67 -21.67,0 -26.49,-17.87 -14.28,-49.35 5.95,-15.32 20.31,-42.52 41.66,-83.38l154.24 -295.24 -162.21 0zm130.48 615.58l114.3 0 47.56 -94.57c14.54,-29.32 27.54,-55.33 36.58,-79.91l-0.38 174.48 114.31 0 169.91 -338.08 -113 0 -88.54 175.9c4.38,-30.26 3.6,-52.52 3.59,-68.56l-0.12 -107.33 -114.3 0 -169.91 338.08zm642.49 0l105.65 0 71.47 -120.57c11.83,-19.86 21.29,-37.83 29.13,-54.85l-40.83 175.42 64.13 0 96.05 -126.25c13.23,-17.5 26.33,-35.94 38.13,-54.38l-73.53 180.63 103.83 0 127.16 -338.08 -113.87 0 -135.71 183.93c9.89,-29.79 16.75,-54.37 21.6,-74.23l25.98 -109.7 -113.43 0 -205.75 338.08zm432.86 0l114.74 0 169.91 -338.08 -114.74 0 -169.91 338.08zm174.51 0l114.3 0 47.56 -94.57c14.54,-29.32 27.55,-55.33 36.58,-79.91l-0.38 174.48 114.3 0 169.91 -338.08 -113 0 -88.55 175.9c4.38,-30.26 3.48,-52.49 3.59,-68.56l-0.11 -107.33 -114.3 0 -169.91 338.08zm339.35 0l121.8 0 31.94 -44.92 75.03 0 -12.74 44.92 110.81 0 71.75 -338.08 -123.47 0 -275.13 338.08zm211.26 -124.83l40.51 -56.27c6.63,-9.46 17.8,-26.01 31.89,-48.7 -3.26,8.51 -5.94,16.55 -8.3,23.64 -5.97,17.97 -10.12,33.09 -13.61,44.92l-10.79 36.41 -39.7 0z"/>
     <path class="fil3" d="M2389.71 1462.86c29.32,40.67 70.37,61.55 118.79,61.55 78.97,0 152.19,-54.93 175.12,-123.97 11.09,-33.36 8.24,-55.63 -7.13,-73.54 3.02,13.46 1.38,29.4 -5.24,49.34 -22.93,69.04 -96.16,123.96 -175.12,123.96 -39.85,0 -74.7,-14.13 -102.13,-41.79l-4.29 4.45zm230.52 -190.97c3.72,-6.77 11.45,-11.41 20.9,-11.41 17.46,0 34.03,11.83 51.04,35.47l71.12 -82.75c-5.22,-6.87 -11.1,-12.9 -17.6,-18.11l-65.89 76.66c-17.02,-23.64 -33.6,-35.47 -51.04,-35.47 -10.91,0 -19.5,6.15 -22.32,14.66 -3.22,9.7 2.75,14.69 13.79,20.95zm-127.74 66.08c5.2,20.89 21.26,37.13 47.46,51.12 3.36,1.79 6.46,3.37 9.27,4.81 1.47,-1.62 2.57,-3.43 3.22,-5.37 3.61,-10.87 -7.06,-14.18 -24.86,-23.64 -15.11,-8.08 -26.86,-16.89 -35.08,-26.92zm-2384.04 118.36c15.59,44.39 56.62,69.02 121.51,69.02 69.34,0 143.88,-39.42 207.92,-108.19 38.94,-41.83 75.45,-101.13 115.46,-177.82l176.65 -338.64 -25 0 -164.03 314.43c-40.25,76.57 -76.53,136 -115.47,177.82 -64.04,68.78 -138.58,108.2 -207.92,108.2 -51.93,0 -88.57,-15.77 -109.14,-44.82zm180.97 -152.93c0.66,-6.78 2.76,-14.85 6.34,-24.08 5.94,-15.31 20.3,-42.51 41.66,-83.38l154.23 -295.24 -25.01 0 -141.6 271.04c-21.43,40.84 -35.71,68.07 -41.65,83.38 -10.47,26.98 -8.41,43.97 6.03,48.28zm170.51 212.89l114.3 0 47.56 -94.57c8.75,-17.66 16.98,-34.11 24.08,-49.78l0.12 -54.33c-9.04,24.58 -21.88,50.69 -36.58,79.91l-47.57 94.57 -89.76 0 -12.17 24.2zm198.12 -24.2l-0.05 24.2 114.3 0 169.91 -338.09 -24.54 0 -157.75 313.88 -101.88 0zm86.22 -193.92c-0.01,-4.57 -0.02,-8.78 -0.02,-12.62l-0.11 -107.34 -12.35 0 0.09 83.13c-0.11,16.08 0.8,38.3 -3.59,68.56l15.97 -31.74zm358.14 218.13l105.65 0 68.76 -116 19.46 -83.63c-7.84,17.03 -17.29,35 -29.13,54.85l-71.47 120.58 -78.54 0 -14.73 24.2zm171.05 -24.2l-5.63 24.2 64.13 0 82.64 -108.63 39.16 -96.2c-11.8,18.44 -24.9,36.88 -38.13,54.38l-96.04 126.25 -46.13 0zm129 0l-9.85 24.2 103.83 0 127.16 -338.09 -21.48 0 -118.05 313.88 -81.61 0zm-8.3 -198.22c0.51,-2.03 1,-4.02 1.47,-5.96l25.97 -109.7 -18.11 0 -20.25 85.5c-4.86,19.86 -11.71,44.45 -21.6,74.23l32.52 -44.07zm141.11 222.43l114.74 0 169.91 -338.09 -24.53 0 -157.75 313.88 -90.2 0 -12.17 24.2zm174.51 0l114.3 0 47.56 -94.57c8.75,-17.66 16.97,-34.11 24.08,-49.78l0.12 -54.33c-9.04,24.58 -22.04,50.6 -36.58,79.91l-47.56 94.57 -89.76 0 -12.17 24.2zm198.12 -24.2l-0.05 24.2 114.31 0 169.91 -338.09 -24.53 0 -157.75 313.88 -101.88 0zm86.22 -193.92c-0.01,-4.57 -0.04,-8.78 -0.02,-12.62l-0.11 -107.34 -12.36 0 0.09 83.13c-0.11,16.08 0.8,38.3 -3.59,68.56l15.97 -31.74zm55 218.13l121.8 0 31.94 -44.93 55.79 0 6.86 -24.19 -75.04 0 -31.94 44.92 -89.72 0 -19.69 24.2zm222.9 -24.2l-6.86 24.2 110.81 0 13.34 -62.85c-4.17,-4.59 -8.17,-9.52 -11.96,-14.78l19.35 -20.06 51.01 -240.39 -17.51 0 -66.62 313.88 -91.57 0zm5.78 -124.83l16.83 -23.37 3.86 -13.04c3.49,-11.82 7.65,-26.95 13.62,-44.92 2.35,-7.09 5.03,-15.13 8.29,-23.64 -14.08,22.7 -25.26,39.25 -31.89,48.7l-40.51 56.26 29.8 0z"/>
     <path class="fil6" d="M885.88 1516.06l80.55 -149.38 4.39 -188.71 119.2 0 -10.89 65.58c-0.82,5.68 -2.76,14.19 -5.75,25.38 -0.33,1.11 -0.59,1.97 -0.75,2.52 4.32,-5.36 11.07,-13.24 20.32,-23.73 1.7,-1.9 2.85,-3.16 3.55,-3.95l59.5 -65.82 118.39 0 -202.66 188.71 -80.55 149.38 -105.31 0z"/>
     <path class="fil7" d="M869.8 1492.1l80.55 -149.38 4.39 -188.71 119.2 0 -10.88 65.58c-0.82,5.67 -2.77,14.19 -5.76,25.38 -0.32,1.1 -0.59,1.97 -0.75,2.52 4.32,-5.36 11.07,-13.24 20.32,-23.73 1.7,-1.89 2.85,-3.15 3.55,-3.94l59.5 -65.82 118.4 0 -202.66 188.71 -80.55 149.38 -105.3 0z"/>
    </g>
   </g>
  </g>
  <path class="fil8" d="M202.96 0l2446.29 0c111.63,0 202.96,91.34 202.96,202.96l0 1542.45c0,111.63 -91.34,202.96 -202.96,202.96l-2446.29 0c-111.63,0 -202.96,-91.33 -202.96,-202.96l0 -1542.45c0,-111.63 91.33,-202.96 202.96,-202.96z"/>
 </g>
</svg>
