<?xml version="1.0" encoding="UTF-8"?>
<!DOCTYPE svg PUBLIC "-//W3C//DTD SVG 1.1//EN" "http://www.w3.org/Graphics/SVG/1.1/DTD/svg11.dtd">
<!-- Creator: CorelDRAW (Evaluation Version) -->
<svg xmlns="http://www.w3.org/2000/svg" xml:space="preserve" width="52.3314mm" height="35.7481mm" version="1.1" style="shape-rendering:geometricPrecision; text-rendering:geometricPrecision; image-rendering:optimizeQuality; fill-rule:evenodd; clip-rule:evenodd"
viewBox="0 0 21818.54 14904.46"
 xmlns:xlink="http://www.w3.org/1999/xlink"
 xmlns:xodm="http://www.corel.com/coreldraw/odm/2003">
 <defs>
  <style type="text/css">
   <![CDATA[
    .str1 {stroke:white;stroke-width:31.77;stroke-miterlimit:22.9256}
    .str0 {stroke:#373535;stroke-width:31.77;stroke-miterlimit:22.9256}
    .fil2 {fill:none}
    .fil6 {fill:white}
    .fil1 {fill:white}
    .fil0 {fill:white}
    .fil3 {fill:#EE3338}
    .fil4 {fill:#EC564E}
    .fil5 {fill:white;fill-rule:nonzero}
    .fil7 {fill:#FFF215;fill-rule:nonzero}
   ]]>
  </style>
   <clipPath id="id0">
    <path d="M1552.61 0l18713.32 0c853.91,0 1552.61,698.69 1552.61,1552.61l0 11799.29c0,853.91 -698.69,1552.56 -1552.61,1552.56l-18713.32 0c-854,0 -1552.61,-698.65 -1552.61,-1552.56l0 -11799.29c0,-853.91 698.61,-1552.61 1552.61,-1552.61z"/>
   </clipPath>
    <clipPath id="id1">
     <path d="M1552.61 0l18713.32 0c853.91,0 1552.61,698.69 1552.61,1552.61l0 11799.29c0,853.91 -698.69,1552.56 -1552.61,1552.56l-18713.32 0c-854,0 -1552.61,-698.65 -1552.61,-1552.56l0 -11799.29c0,-853.91 698.61,-1552.61 1552.61,-1552.61z"/>
    </clipPath>
    <clipPath id="id2">
     <path d="M1552.61 0l18713.32 0c853.91,0 1552.61,698.69 1552.61,1552.61l0 11799.29c0,853.91 -698.69,1552.56 -1552.61,1552.56l-18713.32 0c-854,0 -1552.61,-698.65 -1552.61,-1552.56l0 -11799.29c0,-853.91 698.61,-1552.61 1552.61,-1552.61z"/>
    </clipPath>
 </defs>
 <g id="Camada_x0020_1">
  <metadata id="CorelCorpID_0Corel-Layer"/>
  <path class="fil0" d="M1552.61 0l18713.32 0c853.91,0 1552.61,698.69 1552.61,1552.61l0 11799.29c0,853.91 -698.69,1552.56 -1552.61,1552.56l-18713.32 0c-854,0 -1552.61,-698.65 -1552.61,-1552.56l0 -11799.29c0,-853.91 698.61,-1552.61 1552.61,-1552.61z"/>
  <g style="clip-path:url(#id0)">
   <g id="_105553211255744">
    <path id="_1" class="fil1" d="M738.38 0l20341.73 0c624.64,0 1135.76,478.26 1135.76,1062.84l0 12778.78c0,584.58 -511.11,1062.88 -1135.76,1062.88l-20341.73 0c-624.64,0 -1135.76,-478.3 -1135.76,-1062.88l0 -12778.78c0,-584.58 511.11,-1062.84 1135.76,-1062.84z"/>
   </g>
   <g style="clip-path:url(#id1)">
    <g>
     <polygon id="_2" class="fil2 str0" points="-1096.23,-130.5 22914.77,-130.5 22914.77,18595.12 -1096.23,18595.12 "/>
     <polygon class="fil3 str1" points="-2494.66,-130.5 -2494.66,18595.12 24313.15,18595.12 24313.15,-130.5 "/>
     <path class="fil4" d="M22914.77 5092.34l-2411.36 2009.85c7.55,-32.69 20.39,-76.38 41.4,-138.71l-191.83 50.16c100.48,-386.37 -62.54,-888.31 245.74,-1122.63 127.04,-96.56 331.38,-194.25 495.02,-306.07 709.03,-484.51 715.37,-428.48 1353.61,-967.44l467.42 -351.76 0 -271.96c-802.38,305.28 -2173.25,1266.84 -2409.06,1279.93 -292.14,16.26 -198.46,-100.98 -444.99,-147.05 -896.98,492.48 117.95,391.16 -1511.91,1488.11l-940.43 598.71c-369.69,181.41 -567.69,408.67 -891.4,636.65 -626.06,440.86 -1276.97,894.06 -1774.37,1285.06l-1718.04 1384.21c-264.17,216.93 -556.14,453.24 -843.57,675.59 -246.32,190.54 -604.09,512.07 -817.77,700.69l-1646 1443.25c-301.48,281.01 -463.67,466.21 -747.26,755.06 -285.39,290.77 -451.49,438.36 -736.13,766.94l-735.67 767.94c-341.17,378.24 -737.51,577.36 -806.93,763.86 289.68,147.09 327.54,115.7 1042.16,-129.71 361.14,-124 708.32,-299.69 952.35,-477.55 553.85,-403.67 1995.97,-1993.93 2720.14,-2699.83 603.59,-588.41 2250.26,-1937.64 2971.88,-2548.65 532.5,-450.95 929.05,-767.11 1549.31,-1247.87 464.04,-359.69 2824.53,-2249.42 3188.89,-2358.2 5.21,216.09 -54.49,406.72 -62.5,651.45 -12.59,385.74 90.27,423.14 -266.92,590.5 -46.57,156.47 -2900.87,2502.87 -3036.29,2619.95 -705.2,609.72 -8212.4,6830.15 -9122.93,7708.91l-87.22 72.71 15.84 0c-7.55,8.55 -13.22,15.72 -16.39,20.68l9194.98 -9.09c0.13,-3.84 0.29,-7.75 0.5,-11.59l103.69 0c9.8,-92.6 22.01,-184.49 37.07,-275.76l0.04 -0.42c55.28,-336.96 145.47,-664.75 267.54,-980.74 105.9,-25.14 311.86,-10.63 807.01,-30.1 2020.53,-79.47 1568.24,-195.87 1934.81,935.84l208.42 -487.14c64.29,78.3 54.37,372.44 56.74,411.18 17.05,279.64 19.51,195.75 -145.47,439.07 481.72,-17.8 163.73,-24.18 277.05,-241.99 146.22,-280.76 -26.89,59.16 219.76,-130.96 -140.42,-93.1 -46.7,43.32 -92.64,-200.04 82.34,135.09 65.37,369.11 94.06,569.36l412.68 7.05 87.68 -1306.78c611.05,-57.66 1662.43,-42.86 2711.3,-44.19l0 -663.04c-415.93,14.26 -826.44,33.98 -1204.14,37.07 -1534.55,12.47 -1539.01,803.97 -1422.73,-1386.5 23.85,-450.45 19.97,-1047.79 74.46,-1504.16 15.43,-6.67 30.14,-12.8 44.4,-18.6 7.05,-2.29 14.01,-4.63 20.93,-6.92 16.05,-5.34 32.31,-10.26 48.49,-15.47 34.36,-11.09 68.63,-22.22 103.32,-32.9 13.26,-4.09 26.81,-7.92 40.11,-11.92 37.36,-11.26 74.71,-22.56 112.4,-33.31 16.05,-4.59 32.31,-8.8 48.41,-13.26 35.52,-9.96 70.96,-19.97 106.65,-29.39 13.97,-3.71 28.02,-7.05 41.94,-10.72 37.73,-9.63 75.34,-19.47 113.32,-28.6 25.06,-6.13 50.24,-11.72 75.38,-17.59 27.48,-6.42 54.83,-13.01 82.39,-19.1 19.97,-4.46 40.28,-8.55 60.29,-12.84 33.23,-7.09 66.29,-14.3 99.6,-21.01 15.59,-3.13 31.27,-5.92 46.9,-9.01 37.61,-7.3 75.21,-14.76 113.11,-21.56 23.68,-4.29 47.7,-8.09 71.46,-12.22 30.14,-5.17 60.2,-10.55 90.52,-15.38 25.56,-4.09 51.24,-7.63 76.92,-11.59 28.77,-4.25 57.41,-8.8 86.35,-12.88 40.23,-5.63 80.8,-10.63 121.24,-15.76 14.26,-1.79 28.52,-3.79 42.78,-5.55 33.31,-3.96 66.83,-7.38 100.23,-11.01 22.18,-2.42 44.24,-4.96 66.42,-7.25l0.5 -0.04c55.08,-5.59 110.32,-10.38 165.77,-14.8l1.25 -0.13c55.58,-4.42 111.24,-8.3 167.19,-11.63 31.64,-1.88 63.5,-3.21 95.23,-4.75 24.72,-1.13 49.45,-2.63 74.26,-3.63l0.58 0c56.49,-2.42 113.24,-3.96 169.9,-5.13l0.38 -0.08c21.22,-0.42 42.49,-0.75 63.79,-1l0 -8194.8zm-3817.2 3181.68l0 0c-37.98,-5.46 -54.62,-8.3 -60.54,-10.88 5.92,2.63 22.56,5.42 60.54,10.88zm-52.16 -45.24c-0.25,-0.67 -0.63,-1.42 -0.96,-2.17 0.33,0.75 0.71,1.5 0.96,2.17zm-2516.67 8666.85c311.03,-630.44 752.31,-1205.51 1296.32,-1702.2l0.96 -0.83c70.92,-64.71 143.47,-127.96 217.72,-189.95l7.75 -6.34c34.77,-28.98 69.84,-57.62 105.36,-85.93l11.22 -8.8c34.69,-27.48 69.54,-54.78 104.86,-81.76l7.5 -5.59c75.76,-57.58 152.97,-113.78 231.73,-168.61l3.54 -2.42c39.36,-27.35 79.13,-54.41 119.28,-81.13l8.34 -5.38c80.3,-53.16 161.89,-104.94 244.95,-155.18l5.25 -3.13 0.38 -0.21c95.1,5.42 112.78,58.75 71.13,552.64 -206.88,2456.3 545.68,1605.81 -1888.78,1946.4 -223.64,31.14 -394.29,53.58 -547.51,-1.58z"/>
    </g>
   </g>
   <g style="clip-path:url(#id2)">
    <path class="fil2" d="M738.38 0l20341.73 0c624.64,0 1135.76,478.26 1135.76,1062.84l0 12778.78c0,584.58 -511.11,1062.88 -1135.76,1062.88l-20341.73 0c-624.64,0 -1135.76,-478.3 -1135.76,-1062.88l0 -12778.78c0,-584.58 511.11,-1062.84 1135.76,-1062.84z"/>
    <g>
     <g>
      <path class="fil5" d="M1227.11 8132.81l1057 0c321.41,0 570.28,23.39 746.6,71 177.24,46.78 325.08,154.06 445.41,320.24 120.28,166.19 179.99,371.86 179.99,617.93 0,236.36 -47.78,431.56 -145.09,586.45 -96.44,154.06 -230.52,265.38 -402.25,333.96 -170.82,68.54 -434.36,102.44 -789.75,102.44l-284.68 0 0 1193.88 -807.22 0 0 -3225.91zm807.22 521.91l0 955.1 249.78 0c221.31,0 362.73,-45.15 427.02,-134.71 63.37,-89.51 95.52,-206.51 95.52,-350.1 0,-120.99 -24.81,-219.39 -74.38,-293.6 -49.61,-75.05 -106.53,-123.45 -171.73,-144.42 -66.13,-20.97 -157.97,-32.27 -276.42,-32.27l-249.78 0z"/>
      <path class="fil5" d="M6381.07 9744.57c0,1109.16 -442.7,1664.18 -1326.3,1664.18 -439.99,0 -771.11,-142.01 -994.29,-424.31 -224.14,-283.18 -335.71,-696.19 -335.71,-1239.87 0,-1107.57 442.7,-1661.76 1327.26,-1661.76 431.73,0 761.94,138.71 988.79,416.22 226.85,277.51 340.26,692.15 340.26,1245.54zm-846.99 0c0,-434.82 -38.44,-724.42 -115.28,-868.8 -76.84,-143.59 -199.38,-216.22 -366.77,-216.22 -166.48,0 -288.14,72.63 -364.98,217.8 -76.84,145.22 -115.24,434.02 -115.24,867.21 0,425.1 38.4,713.08 114.32,862.34 75.92,150.01 197.58,225.06 365.9,225.06 165.56,0 288.14,-71.8 364.94,-215.39 77.76,-143.59 117.12,-433.98 117.12,-872.01z"/>
      <path class="fil5" d="M6501.36 8132.81l816.14 0 0 1843.25c0,259.79 13.01,441.28 40.86,543.72 26.93,102.44 83.55,179.91 169.9,233.15 86.35,52.41 191.29,79.05 316.62,79.05 136.5,0 244.2,-29.06 324.04,-87.93 79.84,-58.08 129.04,-135.54 146.72,-231.52 18.55,-95.98 26.89,-275.09 26.89,-536.46l0 -1843.25 683.39 0 0 1815.02c0,362.23 -24.14,632.44 -72.42,810.72 -48.28,178.28 -170.86,330.75 -366.77,458.21 -196.83,127.46 -467.96,192 -812.39,192 -323.12,0 -576.61,-47.61 -761.36,-141.17 -184.78,-93.6 -316.62,-225.06 -394.62,-394.46 -77.97,-169.44 -116.99,-468.71 -116.99,-897.07l0 -1843.25z"/>
      <path class="fil5" d="M9256.97 8132.81l1049.66 0c319.2,0 566.36,23.39 741.47,71 175.99,46.78 322.83,154.06 442.28,320.24 119.49,166.19 178.74,371.86 178.74,617.93 0,236.36 -47.4,431.56 -144.09,586.45 -95.73,154.06 -228.89,265.38 -399.42,333.96 -169.65,68.54 -431.36,102.44 -784.29,102.44l-282.72 0 0 1193.88 -801.63 0 0 -3225.91zm801.63 521.91l0 955.1 248.03 0c219.81,0 360.23,-45.15 424.06,-134.71 62.96,-89.51 94.85,-206.51 94.85,-350.1 0,-120.99 -24.6,-219.39 -73.84,-293.6 -49.28,-75.05 -105.82,-123.45 -170.57,-144.42 -65.67,-20.97 -156.85,-32.27 -274.51,-32.27l-248.03 0z"/>
      <polygon class="fil5" points="11856.99,8132.81 14165.53,8132.81 14165.53,8686.2 12691.35,8686.2 12691.35,9434.79 13837.08,9434.79 13837.08,9990.6 12691.35,9990.6 12691.35,10781.94 14165.53,10781.94 14165.53,11358.72 11856.99,11358.72 "/>
      <path class="fil5" d="M16011.49 8132.81l892.44 0 0 2140.94c0,272.67 -25.39,484.81 -76.13,637.28 -50.78,151.64 -155.35,272.67 -313.74,363.02 -158.39,89.51 -393.92,134.71 -704.57,134.71 -135.04,0 -316.78,-16.97 -544.22,-50.03l0 -592.92c142.13,21.81 261.96,33.1 359.44,33.1 156.35,0 260.91,-33.9 310.65,-100.86 50.78,-66.96 76.13,-208.13 76.13,-424.31l0 -2140.94z"/>
      <path class="fil5" d="M18512.95 8132.85l907.32 0 1170.86 3225.87 -921.71 0 -204.05 -666.3 -1153.4 0 -202 666.3 -828.4 0 1231.36 -3225.87zm781.24 2006.18l-412.18 -1316.5 -398.84 1316.5 811.01 0z"/>
      <polygon class="fil6" points="18847.53,7883.15 18969.28,8020.53 19472.76,7745.73 19278.6,7513.66 "/>
     </g>
     <path class="fil7" d="M1293.23 4007.03l750.93 0c325.46,0 590.54,43.69 794.54,131.04 204,88.14 366.73,249.32 488.98,485.18 123.04,235.86 184.16,555.1 184.16,956.1 0,285.89 -37.32,539.17 -111.95,759.94 -74.59,220.76 -172.23,395.46 -292.89,522.54 -120.66,127.04 -257.16,212.01 -409.59,255.7 -151.6,43.65 -341.3,65.08 -569.11,65.08l-835.07 0 0 -3175.59zm697.73 544.76l0 2084.48 118.28 0c161.14,0 286.56,-31.73 374.65,-93.68 88.1,-61.96 158.77,-169.94 211.93,-324 52.41,-154.85 78.59,-377.2 78.59,-669.42 0,-269.21 -28.56,-477.26 -87.31,-623.35 -57.95,-145.34 -130.96,-244.57 -218.3,-296.19 -87.31,-52.45 -207.17,-77.84 -359.56,-77.84l-118.28 0zm1978.88 -544.76l997.76 0c193.71,0 342.13,8.76 445.32,27.02 103.19,17.47 207.17,65.92 312.74,143.72 105.57,78.63 188.12,185.83 247.66,321.62 59.54,135.79 89.68,287.47 89.68,456.62 0,397.04 -149.22,676.55 -446.91,837.74l584.24 1388.88 -760.44 0 -423.89 -1256.25 -348.43 0 0 1256.25 -697.73 0 0 -3175.59zm697.73 513.78l0 890.98 307.19 0c272.26,0 408.76,-152.47 408.76,-458.21 0,-104.82 -19.85,-191.37 -60.33,-258.87 -40.48,-67.5 -87.31,-113.53 -140.46,-137.38 -53.99,-23.81 -132.58,-36.52 -236.57,-36.52l-278.59 0zm4070.41 1072.84c0,1091.86 -384.16,1638.2 -1150.94,1638.2 -381.82,0 -669.17,-139.75 -862.84,-417.68 -194.46,-278.72 -291.31,-685.31 -291.31,-1220.52 0,-1090.31 384.2,-1635.87 1151.77,-1635.87 374.65,0 661.21,136.59 858.04,409.76 196.87,273.17 295.27,681.35 295.27,1226.11zm-735.01 0c0,-428.02 -33.35,-713.12 -100.02,-855.25 -66.67,-141.34 -173.03,-212.84 -318.28,-212.84 -144.47,0 -250.03,71.5 -316.74,214.43 -66.67,142.92 -99.98,427.23 -99.98,853.66 0,418.47 33.31,701.99 99.19,848.87 65.92,147.72 171.48,221.56 317.53,221.56 143.67,0 250.03,-70.67 316.7,-212.01 67.46,-141.34 101.61,-427.23 101.61,-858.42zm2334.48 -104.82l1102.53 0 0 1693.78 -295.27 0 -90.47 -362.9c-170.69,274.76 -427.06,412.14 -767.61,412.14 -361.14,0 -647.7,-142.92 -859.63,-427.23 -211.13,-284.26 -317.49,-667.05 -317.49,-1148.27 0,-522.5 104.77,-936.22 312.74,-1241.16 208.76,-304.94 516.74,-457.41 924.71,-457.41 649.33,0 1013.64,362.9 1093.02,1089.52l-627.86 101.65c-43.65,-415.3 -193.71,-623.39 -450.87,-623.39 -157.14,0 -281.8,77.05 -376.24,230.31 -93.68,154.06 -140.51,444.7 -140.51,872.72 0,379.57 46.03,647.16 137.34,802.84 91.27,154.85 225.43,232.65 402.42,232.65 283.39,0 426.27,-209.63 427.85,-628.15l-474.67 0 0 -547.1zm2317.01 -1481.81l702.49 0 906.49 3175.59 -713.62 0 -157.93 -655.91 -892.98 0 -156.39 655.91 -641.36 0 953.31 -3175.59zm604.84 1974.91l-319.08 -1295.94 -308.78 1295.94 627.86 0zm1269.26 -1974.91l997.76 0c193.66,0 342.09,8.76 445.28,27.02 103.19,17.47 207.17,65.92 312.78,143.72 105.57,78.63 188.12,185.83 247.66,321.62 59.5,135.79 89.68,287.47 89.68,456.62 0,397.04 -149.22,676.55 -446.91,837.74l584.24 1388.88 -760.44 0 -423.89 -1256.25 -348.43 0 0 1256.25 -697.73 0 0 -3175.59zm697.73 513.78l0 890.98 307.15 0c272.26,0 408.8,-152.47 408.8,-458.21 0,-104.82 -19.85,-191.37 -60.33,-258.87 -40.48,-67.5 -87.31,-113.53 -140.51,-137.38 -53.95,-23.81 -132.54,-36.52 -236.52,-36.52l-278.59 0zm1897.87 -513.78l697.73 0 0 3175.59 -697.73 0 0 -3175.59zm1858.22 0l702.49 0 906.49 3175.59 -713.62 0 -157.93 -655.91 -892.98 0 -156.39 655.91 -641.36 0 953.31 -3175.59zm604.84 1974.91l-319.08 -1295.94 -308.78 1295.94 627.86 0z"/>
    </g>
   </g>
  </g>
  <path class="fil2" d="M1552.61 0l18713.32 0c853.91,0 1552.61,698.69 1552.61,1552.61l0 11799.29c0,853.91 -698.69,1552.56 -1552.61,1552.56l-18713.32 0c-854,0 -1552.61,-698.65 -1552.61,-1552.56l0 -11799.29c0,-853.91 698.61,-1552.61 1552.61,-1552.61z"/>
 </g>
</svg>
