<?xml version="1.0" encoding="UTF-8"?>
<!DOCTYPE svg PUBLIC "-//W3C//DTD SVG 1.1//EN" "http://www.w3.org/Graphics/SVG/1.1/DTD/svg11.dtd">
<!-- Creator: CorelDRAW (Evaluation Version) -->
<svg xmlns="http://www.w3.org/2000/svg" xml:space="preserve" width="52.3314mm" height="35.7481mm" version="1.1" style="shape-rendering:geometricPrecision; text-rendering:geometricPrecision; image-rendering:optimizeQuality; fill-rule:evenodd; clip-rule:evenodd"
viewBox="0 0 874.52 597.39"
 xmlns:xlink="http://www.w3.org/1999/xlink"
 xmlns:xodm="http://www.corel.com/coreldraw/odm/2003">
 <defs>
  <style type="text/css">
   <![CDATA[
    .fil12 {fill:none}
    .fil0 {fill:white}
    .fil5 {fill:#03234B}
    .fil8 {fill:#54647A}
    .fil9 {fill:#62ACDD}
    .fil3 {fill:#8B98AD}
    .fil7 {fill:#90AFCC}
    .fil4 {fill:#CE6F70}
    .fil6 {fill:#E99396}
    .fil2 {fill:url(#id1)}
    .fil1 {fill:url(#id2);fill-rule:nonzero}
    .fil10 {fill:url(#id3);fill-rule:nonzero}
    .fil11 {fill:url(#id4);fill-rule:nonzero}
   ]]>
  </style>
   <clipPath id="id0">
    <path d="M62.23 0l750.06 0c34.23,0 62.23,28 62.23,62.23l0 472.93c0,34.23 -28,62.23 -62.23,62.23l-750.06 0c-34.23,0 -62.23,-28 -62.23,-62.23l0 -472.93c0,-34.23 28,-62.23 62.23,-62.23z"/>
   </clipPath>
  <linearGradient id="id1" gradientUnits="userSpaceOnUse" x1="445.99" y1="-32.53" x2="446.03" y2="225.77">
   <stop offset="0" style="stop-opacity:1; stop-color:#00CCFF"/>
   <stop offset="1" style="stop-opacity:1; stop-color:#000454"/>
  </linearGradient>
  <linearGradient id="id2" gradientUnits="userSpaceOnUse" x1="436.21" y1="271.15" x2="436.29" y2="135.96">
   <stop offset="0" style="stop-opacity:1; stop-color:#990000"/>
   <stop offset="1" style="stop-opacity:1; stop-color:red"/>
  </linearGradient>
  <linearGradient id="id3" gradientUnits="userSpaceOnUse" xlink:href="#id1" x1="466.13" y1="345.76" x2="466.14" y2="449.37">
  </linearGradient>
  <linearGradient id="id4" gradientUnits="userSpaceOnUse" xlink:href="#id2" x1="450.21" y1="572.61" x2="450.22" y2="540.98">
  </linearGradient>
 </defs>
 <g id="Camada_x0020_1">
  <metadata id="CorelCorpID_0Corel-Layer"/>
  <path class="fil0" d="M62.23 0l750.06 0c34.23,0 62.23,28 62.23,62.23l0 472.93c0,34.23 -28,62.23 -62.23,62.23l-750.06 0c-34.23,0 -62.23,-28 -62.23,-62.23l0 -472.93c0,-34.23 28,-62.23 62.23,-62.23z"/>
  <g style="clip-path:url(#id0)">
   <g id="_105553212478592">
    <g>
     <path id="_1" class="fil1" d="M543.74 202.23l-149.4 0c1.38,14.22 4.56,24.87 9.74,31.86 7.18,10.05 16.6,15.04 28.21,15.04 7.36,0 14.35,-2.16 20.9,-6.48 4.06,-2.76 8.43,-7.59 13.04,-14.52l73.39 8.04c-11.23,23.23 -24.77,39.97 -40.62,50.02 -15.85,10.13 -38.63,15.19 -68.27,15.19 -25.77,0 -46,-4.31 -60.78,-13.03 -14.73,-8.64 -26.96,-22.41 -36.69,-41.24 -9.68,-18.9 -14.54,-41.09 -14.54,-66.55 0,-36.25 9.73,-65.65 29.2,-88.06 19.41,-22.41 46.31,-33.65 80.57,-33.65 27.83,0 49.73,5.06 65.84,15.11 16.1,10.05 28.39,24.56 36.82,43.7 8.42,19.06 12.6,43.92 12.6,74.52l0 10.05zm-75.63 -42.43c-1.43,-17.27 -5.36,-29.63 -11.67,-37.08 -6.3,-7.44 -14.53,-11.16 -24.83,-11.16 -11.86,0 -21.34,5.66 -28.46,16.9 -4.49,7 -7.36,17.42 -8.62,31.35l73.58 0z"/>
     <path class="fil2" d="M438.75 64.58c-7.54,4.2 -4.22,4.95 -9.8,1.17l-5.06 -3c-73.87,-47.54 -215.65,-87.07 -149.87,64.81 0.04,0.07 0.1,0.16 0.14,0.23 3.08,5.22 32.29,49.55 34.64,51.16l-5.33 7.5c-5.47,8.59 -12.38,16.22 -18.05,25.94 -69.42,101.74 -18.78,158.05 112.93,98.33 0.05,-0.02 0.16,-0.04 0.21,-0.05l5.12 -2.85c0.76,-0.29 0.93,-0.21 1.63,-0.55 0.72,-0.35 0.37,-0.21 0.67,-0.42l1.29 -0.91c0.07,-0.04 0.16,-0.1 0.22,-0.14l5.4 -3c1.16,-0.44 1.84,-1.17 2.8,-1.9 -0.4,-1.06 -0.58,-0.97 -3.92,-1.02 -1.78,-0.03 -3.15,-0.16 -4.73,-0.36 -3.2,-0.41 -5.44,-0.62 -9.05,-0.88 -1.51,1.18 -4.35,1.94 -6.02,2.79 -83.32,32.07 -156.18,4.39 -75.65,-113.74 1.31,-1.11 0.33,-0.49 1.16,-0.2 0.04,0.01 0.14,0.05 0.18,0.07 0.04,0.02 0.14,0.07 0.19,0.09l0.8 0.55c1.05,-2.57 -0.74,-3.22 1.47,-6.21 0.65,-0.88 1.11,-1.5 1.8,-2.23 1.21,-1.29 0.77,-0.64 1.42,-2.45 22.72,-26.45 37.42,-43.03 64.8,-67.14 5.11,-4.5 10.35,-8.7 15.94,-12.56l5.52 -4.01c5.72,-4.52 10.69,-7.55 17.02,-11.5 4.3,-2.54 4.33,-4.7 9.9,-1.57 24.09,15.64 39.86,29.82 61.3,47.66 12.12,11.94 24.13,23.85 34.66,37.09 1.42,1.42 6.29,7.53 7.38,9.54 1.05,1.93 1.18,0.33 1.33,2.66 1.01,0.25 0.54,-0.04 1.07,0.75 1.31,1.97 3.13,2.1 1.32,3.28l0.02 15.52c0.72,-0.17 0.2,0.1 0.83,-0.28 0.92,-0.57 0.55,-0.73 1.47,-1.62 0.98,-0.96 -0.47,0.6 0.42,-0.35 0.2,-0.21 0.11,-0.13 0.39,-0.51 0.45,-0.62 0.5,-0.71 0.95,-1.25l1.5 -4.45c16.86,13.37 43.56,63.63 37.27,97.71 -5.6,30.39 -38.39,47.92 -112.67,15 -1.78,-0.88 -2.89,-0.95 -6.33,-2.78 -1.12,-0.6 -0.08,-0.41 -1.64,-0.54 -2.22,-0.19 -2.85,-0.27 -4.75,0.29l-8.21 1.22c-3.62,0.54 -3.7,-0.17 -3.77,1.08 1,1.22 0.21,0.22 1.28,0.97 1.33,0.93 2.56,1.15 3.99,2.21 94.87,72.86 237.44,19.7 103.72,-122.54 -0.06,-0.07 -1.05,-0.63 -0.74,-2.59 19.22,-14.43 146.63,-261.7 -118.55,-114zm111.99 104.54c-0.35,0.54 -0.5,0.31 -0.87,1.33l-1.09 0c-29.58,-37.72 -68.13,-70.56 -107.81,-96.46 0.48,-1.6 3.21,-2.25 4.86,-3.33 1.7,-1.12 3.66,-1.75 5.56,-2.81 0.95,-0.53 1.83,-0.93 2.86,-1.52l5.57 -2.83c0.83,-0.38 2.34,-0.93 3.05,-1 0.88,-1.15 0.74,-0.49 2.21,-1.04 1.11,-0.41 1.12,-0.72 2.08,-1.2 7.68,-3.17 18.25,-7.93 26.46,-10 116.03,-35.26 97.67,53.74 57.11,118.85zm-229.51 -4.12c-0.88,0.97 -0.88,1.23 -1.91,2.03 -1.06,0.43 -1.09,0.86 -1.71,1.68 -0.85,1.13 -0.81,0.99 -1.91,1.74 -79.56,-125.29 -6.33,-150.24 108.05,-97.51 1.1,0.51 0.85,-0.75 0.85,1.01 -29.17,11.79 -79.35,66.15 -103.36,91.05zm178.07 63.67l-0.57 0.67c-0.05,0.06 -0.12,0.17 -0.2,0.24 -0.24,1.12 -0.63,1.21 0.65,1.66 0.41,0.15 2.61,0.17 3.21,0.2 2.06,0.1 3.56,0.4 5.79,0.45 0.74,-2.12 24.4,-22.8 28.61,-29.66 -0.85,-0.53 -1.55,-0.43 -2.86,-0.44 -0.97,-0.01 -1.94,0.01 -2.91,0.02 -2.07,0.01 -4.1,-0.04 -6.16,0.12 -7.03,10.6 -17.38,17.68 -25.55,26.74z"/>
     <polygon class="fil3" points="565.62,143.84 565.62,143.47 565.2,143.77 "/>
     <polygon class="fil4" points="413.01,242.88 413.37,242.88 413.07,242.45 "/>
     <polygon class="fil5" points="295.92,196.31 295.92,195.94 295.5,196.25 "/>
     <polygon class="fil6" points="376.04,70.29 376.04,69.92 375.61,70.23 "/>
     <polygon class="fil7" points="416.64,58.47 417,58.47 416.7,58.04 "/>
     <polygon class="fil8" points="508.71,219.6 508.71,219.23 508.29,219.53 "/>
     <path class="fil9" d="M447.45 58.47c0.04,0.04 0.11,-0.16 0.11,-0.11l0 0c-0.01,0.01 -0.14,0.07 -0.11,0.11z"/>
     <path class="fil10" d="M26.22 381.64l74.59 0 0 21.98 -46.61 0 0 16.38 43.21 0 0 20.98 -43.21 0 0 20.26 48 0 0 23.28 -75.98 0 0 -102.88zm84.82 0l30.74 0 15.98 31.66 15.52 -31.66 30.36 0 -28.03 49.83 30.68 53.05 -31.38 0 -17.7 -33.05 -17.82 33.05 -31.12 0 31.1 -53.62 -28.32 -49.26zm97.86 0l84.79 0 -0 25.43 -28.48 0 0 77.45 -27.84 0 0 -77.45 -28.48 0 0 -25.43zm97.67 102.88l0 -102.88 46.45 0c8.62,0 15.21,0.84 19.74,2.54 4.55,1.67 8.23,4.81 11.02,9.36 2.8,4.57 4.18,10.15 4.18,16.71 0,5.7 -1.07,10.63 -3.22,14.78 -2.12,4.17 -5.06,7.52 -8.82,10.11 -2.37,1.63 -5.64,2.99 -9.78,4.07 3.32,1.27 5.73,2.52 7.25,3.79 1,0.84 2.5,2.66 4.44,5.41 1.94,2.76 3.24,4.89 3.89,6.4l13.55 29.72 -31.5 0 -14.89 -31.38c-1.89,-4.07 -3.57,-6.7 -5.04,-7.92 -2.01,-1.58 -4.3,-2.37 -6.85,-2.37l-2.45 0 0 41.67 -27.97 0zm27.97 -61.07l11.78 0c1.26,0 3.74,-0.48 7.39,-1.41 1.85,-0.41 3.36,-1.49 4.52,-3.24 1.18,-1.74 1.76,-3.73 1.76,-5.99 0,-3.33 -0.93,-5.89 -2.77,-7.66 -1.85,-1.8 -5.31,-2.69 -10.42,-2.69l-12.26 0 0 20.98zm125.14 44.11l-31.58 0 -4.53 16.96 -28.44 0 33.95 -102.88 30.51 0 33.81 102.88 -29.19 0 -4.51 -16.96zm-5.9 -22.27l-9.84 -36.98 -9.89 36.98 19.73 0zm90.54 -63.65l52.22 0c8.69,0 15.37,2.46 20.03,7.37 4.66,4.91 6.99,10.99 6.99,18.25 0,6.08 -1.66,11.3 -5,15.64 -2.2,2.92 -5.46,5.19 -9.72,6.9 6.49,1.77 11.23,4.81 14.3,9.15 3.04,4.33 4.58,9.77 4.58,16.3 0,5.34 -1.09,10.13 -3.25,14.4 -2.18,4.26 -5.16,7.61 -8.92,10.1 -2.35,1.53 -5.88,2.66 -10.61,3.36 -6.27,0.93 -10.43,1.41 -12.49,1.41l-48.13 -0 0 -102.88zm28.1 40.38l12.15 0c4.35,0 7.39,-0.87 9.09,-2.56 1.7,-1.73 2.57,-4.19 2.57,-7.42 0,-3 -0.87,-5.34 -2.57,-7.02 -1.7,-1.7 -4.68,-2.54 -8.9,-2.54l-12.35 0 0 19.55zm0 40.38l14.22 0c4.8,0 8.19,-0.98 10.16,-2.92 1.98,-1.94 2.96,-4.53 2.96,-7.81 0,-3.04 -0.96,-5.49 -2.92,-7.33 -1.95,-1.84 -5.37,-2.78 -10.27,-2.78l-14.15 0 0 20.84zm66.24 -29.24c0,-16.79 4.09,-29.87 12.31,-39.21 8.21,-9.36 19.63,-14.03 34.29,-14.03 15.01,0 26.58,4.6 34.71,13.77 8.13,9.2 12.18,22.08 12.18,38.63 0,12.02 -1.77,21.86 -5.31,29.55 -3.55,7.69 -8.69,13.68 -15.39,17.96 -6.72,4.28 -15.08,6.42 -25.09,6.42 -10.16,0 -18.58,-1.84 -25.26,-5.53 -6.66,-3.71 -12.08,-9.55 -16.21,-17.56 -4.14,-7.97 -6.22,-17.98 -6.22,-30.01zm27.85 0.07c0,10.37 1.7,17.84 5.08,22.36 3.4,4.53 8.02,6.81 13.86,6.81 5.98,0 10.64,-2.23 13.92,-6.66 3.3,-4.46 4.94,-12.4 4.94,-23.93 0,-9.67 -1.73,-16.74 -5.14,-21.19 -3.45,-4.48 -8.08,-6.71 -13.96,-6.71 -5.63,0 -10.17,2.28 -13.57,6.81 -3.42,4.52 -5.12,12.04 -5.12,22.51zm80.38 -51.59l36.77 0 14 62.6 14.05 -62.6 36.6 0 -0 102.88 -22.8 0 0 -78.43 -17.6 78.43 -20.67 0 -17.55 -78.43 0 78.43 -22.8 0 0 -102.88z"/>
     <path class="fil11" d="M138.29 560.6l13.5 -1.01c0.29,2.61 0.89,4.6 1.79,5.96 1.47,2.21 3.56,3.32 6.28,3.32 2.03,0 3.59,-0.56 4.68,-1.7 1.11,-1.14 1.65,-2.45 1.65,-3.95 0,-1.42 -0.51,-2.7 -1.56,-3.82 -1.04,-1.13 -3.46,-2.17 -7.26,-3.19 -6.24,-1.66 -10.67,-3.88 -13.33,-6.66 -2.68,-2.76 -4.02,-6.29 -4.02,-10.58 0,-2.81 0.68,-5.47 2.06,-7.97 1.37,-2.52 3.43,-4.49 6.18,-5.92 2.75,-1.43 6.53,-2.15 11.32,-2.15 5.88,0 10.35,1.31 13.44,3.93 3.09,2.61 4.92,6.76 5.51,12.46l-13.37 0.95c-0.35,-2.49 -1.1,-4.31 -2.24,-5.43 -1.14,-1.14 -2.72,-1.7 -4.72,-1.7 -1.65,0 -2.9,0.43 -3.74,1.26 -0.84,0.83 -1.25,1.85 -1.25,3.05 0,0.87 0.34,1.65 1.02,2.35 0.65,0.73 2.23,1.4 4.74,2.02 6.22,1.6 10.67,3.22 13.34,4.86 2.69,1.64 4.65,3.66 5.87,6.09 1.22,2.41 1.84,5.12 1.84,8.12 0,3.52 -0.82,6.76 -2.45,9.74 -1.64,2.97 -3.91,5.23 -6.85,6.76 -2.92,1.53 -6.61,2.3 -11.07,2.3 -7.82,0 -13.25,-1.8 -16.25,-5.4 -3.01,-3.59 -4.72,-8.16 -5.11,-13.69zm78.83 -36.75l14.21 0 0 32.71c0,3.24 -0.43,6.3 -1.28,9.17 -0.85,2.89 -2.18,5.41 -3.99,7.57 -1.81,2.16 -3.7,3.67 -5.68,4.55 -2.77,1.21 -6.09,1.83 -9.96,1.83 -2.24,0 -4.69,-0.2 -7.33,-0.56 -2.65,-0.37 -4.87,-1.12 -6.64,-2.23 -1.78,-1.11 -3.41,-2.68 -4.88,-4.73 -1.48,-2.05 -2.49,-4.15 -3.03,-6.32 -0.88,-3.49 -1.32,-6.58 -1.32,-9.28l0 -32.71 14.2 0 0 33.49c0,2.99 0.7,5.34 2.09,7.01 1.39,1.68 3.32,2.53 5.78,2.53 2.43,0 4.36,-0.84 5.75,-2.5 1.38,-1.65 2.07,-4 2.07,-7.05l0 -33.49zm23.53 0l23.65 0c5.16,0 9.01,1.46 11.59,4.38 2.56,2.93 3.85,7.1 3.85,12.5 0,5.55 -1.41,9.89 -4.2,13.01 -2.8,3.13 -7.07,4.69 -12.82,4.69l-7.8 0 0 20.32 -14.27 0 0 -54.91zm14.27 23.47l3.51 0c2.76,0 4.7,-0.57 5.82,-1.71 1.11,-1.13 1.67,-2.59 1.67,-4.37 0,-1.73 -0.48,-3.18 -1.46,-4.38 -0.96,-1.2 -2.78,-1.8 -5.46,-1.8l-4.08 0 0 12.27zm32.22 -23.47l38.06 0 0 11.73 -23.79 -0 0 8.75 22.06 0 0 11.19 -22.06 0 0 10.82 24.5 0 0 12.42 -38.77 0 0 -54.91zm46.62 54.91l0 -54.91 23.7 0c4.39,0 7.76,0.45 10.07,1.36 2.33,0.9 4.2,2.57 5.63,5 1.42,2.44 2.13,5.42 2.13,8.92 0,3.04 -0.55,5.67 -1.64,7.89 -1.09,2.22 -2.58,4.01 -4.5,5.39 -1.21,0.87 -2.88,1.6 -4.98,2.17 1.68,0.68 2.92,1.34 3.69,2.02 0.51,0.44 1.28,1.42 2.27,2.89 0.99,1.47 1.65,2.61 1.98,3.41l6.91 15.87 -16.07 0 -7.6 -16.74c-0.96,-2.17 -1.82,-3.58 -2.57,-4.23 -1.02,-0.84 -2.2,-1.27 -3.49,-1.27l-1.26 0 0 22.24 -14.27 0zm14.27 -32.6l6.02 0c0.64,0 1.9,-0.26 3.77,-0.75 0.94,-0.22 1.71,-0.79 2.3,-1.73 0.6,-0.93 0.9,-2 0.9,-3.19 0,-1.78 -0.47,-3.15 -1.42,-4.1 -0.95,-0.96 -2.71,-1.43 -5.31,-1.43l-6.26 0 0 11.19zm35.41 -22.32l18.77 0 7.14 33.41 7.17 -33.41 18.68 0 0 54.91 -11.64 0 0 -41.86 -8.98 41.86 -10.54 0 -8.96 -41.86 0 41.86 -11.64 0 0 -54.91zm60.81 0l38.06 0 0 11.73 -23.79 0 0 8.75 22.05 0 0 11.19 -22.05 0 0 10.82 24.49 0 0 12.42 -38.76 0 0 -54.91zm46.62 54.91l0 -54.91 23.7 0c4.39,0 7.76,0.44 10.07,1.35 2.33,0.9 4.2,2.57 5.63,5 1.42,2.44 2.13,5.42 2.13,8.92 0,3.04 -0.55,5.67 -1.63,7.89 -1.09,2.22 -2.59,4.01 -4.5,5.39 -1.21,0.87 -2.88,1.6 -4.99,2.17 1.69,0.68 2.92,1.34 3.7,2.02 0.51,0.45 1.27,1.42 2.27,2.89 0.99,1.47 1.65,2.61 1.98,3.41l6.91 15.86 -16.08 0 -7.6 -16.74c-0.96,-2.17 -1.82,-3.58 -2.57,-4.23 -1.03,-0.84 -2.2,-1.27 -3.5,-1.27l-1.25 0 0 22.24 -14.27 0zm14.27 -32.6l6.01 0c0.64,0 1.91,-0.26 3.77,-0.75 0.95,-0.22 1.71,-0.79 2.31,-1.73 0.6,-0.93 0.9,-2 0.9,-3.19 0,-1.78 -0.47,-3.15 -1.41,-4.1 -0.95,-0.96 -2.72,-1.43 -5.32,-1.43l-6.26 0 0 11.19zm65.05 10.13l12.48 4.49c-0.84,4.16 -2.15,7.66 -3.97,10.44 -1.8,2.8 -4.03,4.91 -6.71,6.32 -2.67,1.42 -6.06,2.14 -10.19,2.14 -5.02,0 -9.1,-0.87 -12.28,-2.6 -3.17,-1.74 -5.91,-4.8 -8.21,-9.16 -2.3,-4.36 -3.46,-9.95 -3.46,-16.75 0,-9.08 2.02,-16.05 6.07,-20.94 4.06,-4.87 9.8,-7.31 17.21,-7.31 5.8,0 10.36,1.4 13.68,4.19 3.31,2.8 5.79,7.09 7.39,12.9l-12.54 3.31c-0.44,-1.66 -0.9,-2.87 -1.38,-3.64 -0.8,-1.29 -1.78,-2.29 -2.93,-2.98 -1.15,-0.7 -2.45,-1.05 -3.87,-1.05 -3.23,0 -5.71,1.54 -7.42,4.63 -1.3,2.29 -1.95,5.89 -1.95,10.79 0,6.08 0.77,10.24 2.32,12.5 1.56,2.25 3.73,3.38 6.53,3.38 2.72,0 4.78,-0.91 6.17,-2.73 1.39,-1.81 2.4,-4.46 3.03,-7.92zm47.67 13.42l-16.11 0 -2.31 9.05 -14.52 0 17.33 -54.91 15.56 0 17.25 54.91 -14.89 0 -2.31 -9.05zm-3.01 -11.88l-5.02 -19.73 -5.05 19.73 10.07 0zm24.89 -33.98l21.14 0c4.16,0 7.53,0.68 10.09,2.02 2.56,1.36 4.69,3.28 6.37,5.81 1.66,2.53 2.88,5.46 3.63,8.8 0.76,3.35 1.13,6.89 1.13,10.64 0,5.87 -0.55,10.41 -1.68,13.65 -1.12,3.24 -2.67,5.95 -4.66,8.13 -2,2.19 -4.12,3.64 -6.41,4.37 -3.12,0.99 -5.94,1.49 -8.47,1.49l-21.14 0 0 -54.91zm14.21 12.43l0 29.98 3.49 0c2.98,0 5.1,-0.4 6.36,-1.18 1.26,-0.79 2.25,-2.16 2.96,-4.11 0.72,-1.97 1.07,-5.14 1.07,-9.54 0,-5.82 -0.79,-9.79 -2.38,-11.94 -1.6,-2.15 -4.24,-3.22 -7.94,-3.22l-3.56 0zm33.8 15.07c0,-8.96 2.09,-15.94 6.28,-20.93 4.19,-4.99 10.02,-7.49 17.5,-7.49 7.66,0 13.57,2.45 17.71,7.35 4.15,4.91 6.22,11.79 6.22,20.62 0,6.42 -0.9,11.67 -2.72,15.77 -1.81,4.1 -4.44,7.3 -7.85,9.59 -3.43,2.28 -7.69,3.42 -12.8,3.42 -5.19,0 -9.48,-0.98 -12.89,-2.95 -3.4,-1.98 -6.16,-5.1 -8.27,-9.37 -2.11,-4.25 -3.17,-9.6 -3.17,-16.02zm14.21 0.04c0,5.53 0.87,9.52 2.59,11.93 1.74,2.42 4.09,3.63 7.07,3.63 3.06,0 5.43,-1.19 7.1,-3.55 1.68,-2.37 2.52,-6.62 2.52,-12.77 0,-5.16 -0.87,-8.94 -2.62,-11.31 -1.76,-2.39 -4.12,-3.58 -7.13,-3.58 -2.87,0 -5.19,1.21 -6.92,3.63 -1.74,2.42 -2.62,6.43 -2.62,12.02z"/>
    </g>
   </g>
  </g>
  <path class="fil12" d="M62.23 0l750.06 0c34.23,0 62.23,28 62.23,62.23l0 472.93c0,34.23 -28,62.23 -62.23,62.23l-750.06 0c-34.23,0 -62.23,-28 -62.23,-62.23l0 -472.93c0,-34.23 28,-62.23 62.23,-62.23z"/>
 </g>
</svg>
