<?xml version="1.0" encoding="UTF-8"?>
<!DOCTYPE svg PUBLIC "-//W3C//DTD SVG 1.1//EN" "http://www.w3.org/Graphics/SVG/1.1/DTD/svg11.dtd">
<!-- Creator: CorelDRAW (Evaluation Version) -->
<svg xmlns="http://www.w3.org/2000/svg" xml:space="preserve" width="52.3315mm" height="35.7481mm" version="1.1" style="shape-rendering:geometricPrecision; text-rendering:geometricPrecision; image-rendering:optimizeQuality; fill-rule:evenodd; clip-rule:evenodd"
viewBox="0 0 2852.22 1948.37"
 xmlns:xlink="http://www.w3.org/1999/xlink"
 xmlns:xodm="http://www.corel.com/coreldraw/odm/2003">
 <defs>
  <style type="text/css">
   <![CDATA[
    .fil5 {fill:none}
    .fil0 {fill:white}
    .fil3 {fill:white;fill-rule:nonzero}
    .fil4 {fill:#A9D046;fill-rule:nonzero}
    .fil1 {fill:#333756;fill-rule:nonzero}
    .fil2 {fill:#364E9E;fill-rule:nonzero}
   ]]>
  </style>
   <clipPath id="id0">
    <path d="M202.96 0l2446.29 0c111.63,0 202.96,91.33 202.96,202.96l0 1542.45c0,111.63 -91.34,202.96 -202.96,202.96l-2446.29 0c-111.63,0 -202.96,-91.33 -202.96,-202.96l0 -1542.45c0,-111.63 91.33,-202.96 202.96,-202.96z"/>
   </clipPath>
 </defs>
 <g id="Camada_x0020_1">
  <metadata id="CorelCorpID_0Corel-Layer"/>
  <path class="fil0" d="M202.96 0l2446.29 0c111.63,0 202.96,91.33 202.96,202.96l0 1542.45c0,111.63 -91.34,202.96 -202.96,202.96l-2446.29 0c-111.63,0 -202.96,-91.33 -202.96,-202.96l0 -1542.45c0,-111.63 91.33,-202.96 202.96,-202.96z"/>
  <g style="clip-path:url(#id0)">
   <g id="_105553212518560">
    <g>
     <polygon id="_1" class="fil1" points="-871.42,-36.18 3620.21,-36.18 3620.21,1965.69 -871.42,1965.69 "/>
     <path class="fil2" d="M2467.86 -36.18l1152.35 1159.33 0 -34.68 -1128.3 -1124.65 -24.05 0zm-1036.3 0l19.24 0 2008.37 2001.87 -37.8 0 -1989.81 -2001.87zm51.82 0l19.47 0 2008.36 2001.87 -38.02 0 -1989.81 -2001.87zm51.81 0l19.71 0 2008.37 2001.87 -38.28 0 -1989.8 -2001.87zm51.82 0l19.94 0 2008.37 2001.87 -38.48 0 -1989.82 -2001.87zm51.82 0l20.19 0 1961.2 1954.84 0 38.55 -1981.39 -1993.39zm51.83 0l20.42 0 1909.14 1902.97 0 38.29 -1929.56 -1941.26zm51.82 0l20.66 0 1857.09 1851.08 0 38.05 -1877.74 -1889.13zm51.81 0l20.92 0 1805.02 1799.17 0 37.84 -1825.94 -1837.01zm51.81 0l21.16 0 1752.97 1747.3 0 37.6 -1774.13 -1784.9zm51.82 0l21.41 0 1700.91 1695.41 0 37.35 -1722.32 -1732.76zm51.81 0l21.65 0 1648.87 1643.52 0 37.1 -1670.51 -1680.62zm51.82 0l21.89 0 1596.8 1591.63 0 36.88 -1618.69 -1628.51zm51.83 0l22.11 0 1544.75 1539.76 0 36.6 -1566.87 -1576.36zm51.82 0l22.36 0 1492.69 1487.85 0 36.39 -1515.05 -1524.24zm51.81 0l22.62 0 1440.63 1435.98 0 36.13 -1463.24 -1472.11zm51.82 0l22.85 0 1388.58 1384.08 0 35.88 -1411.42 -1419.97zm51.82 0l23.09 0 1336.51 1332.19 0 35.64 -1359.6 -1367.84zm51.82 0l23.32 0 1284.46 1280.32 0 35.39 -1307.78 -1315.71zm51.81 0l23.58 0 1232.4 1228.41 0 35.17 -1255.98 -1263.58zm51.82 0l23.81 0 1180.35 1176.54 0 34.93 -1204.16 -1211.47z"/>
     <path class="fil2" d="M-871.42 961.05l998.59 1004.64 22.48 0 -1021.06 -1017.77 0 13.13zm969.02 1004.64l-22.25 0 -946.77 -952.53 0 -13.35 969.02 965.88zm-52.07 0l-21.99 0 -894.96 -900.39 0 -13.6 916.95 913.99zm-52.05 0l-21.76 0 -843.14 -848.25 0 -13.85 864.9 862.1zm-52.06 0l-21.52 0 -791.32 -796.12 0 -14.09 812.84 810.21zm-52.05 0l-21.27 0 -739.52 -744 0 -14.33 760.79 758.34zm-52.06 0l-21.02 0 -687.71 -691.87 0 -14.58 708.73 706.44zm-52.05 0l-20.78 0 -635.9 -639.75 0 -14.8 656.68 654.55zm-52.06 0l-20.54 0 -584.07 -587.62 0 -15.04 604.62 602.66zm-52.04 0l-20.32 0 -532.25 -535.48 0 -15.31 552.57 550.79zm-52.07 0l-20.06 0 -480.44 -483.35 0 -15.53 500.5 498.88zm-52.04 0l-19.83 0 -428.63 -431.23 0 -15.78 448.46 447.01zm-52.06 0l-19.59 0 -376.82 -379.09 0 -16.02 396.41 395.12zm-52.07 0l-19.34 0 -324.99 -326.96 0 -16.26 344.33 343.23zm-52.05 0l-19.1 0 -273.18 -274.83 0 -16.5 292.28 291.33zm-52.06 0l-18.85 0 -221.37 -222.71 0 -16.74 240.23 239.45zm-52.05 0l-18.61 0 -169.56 -170.59 0 -16.98 188.18 187.57zm-52.07 0l-18.36 0 -117.75 -118.46 0 -17.2 136.11 135.66zm-52.04 0l-18.14 0 -65.93 -66.32 0 -17.47 84.07 83.79zm-52.08 0l-17.88 0 -14.11 -14.19 0 -17.69 31.99 31.88z"/>
     <path class="fil2" d="M-801.36 -36.18l2008.37 2001.87 18.95 0 -1989.81 -2001.87 -37.5 0zm-70.06 0l3.96 0 1989.82 2001.87 -19.45 0 -1974.32 -1967.93 0 -33.94zm18.01 0l37.75 0 1989.82 2001.87 -19.21 0 -2008.36 -2001.87zm1923.94 2001.87l-19.68 0 -1922.27 -1916.05 0 -37.65 1941.95 1953.71zm-51.82 0l-19.93 0 -1870.21 -1864.15 0 -37.44 1890.14 1901.58zm-51.83 0l-20.15 0 -1818.16 -1812.26 0 -37.17 1838.31 1849.43zm-51.82 0l-20.39 0 -1766.1 -1760.38 0 -36.94 1786.49 1797.32zm-51.8 0l-20.66 0 -1714.03 -1708.48 0 -36.72 1734.69 1745.2zm-51.82 0l-20.89 0 -1661.98 -1656.6 0 -36.47 1682.87 1693.08zm-51.81 0l-21.14 0 -1609.92 -1604.71 0 -36.23 1631.06 1640.95zm-51.82 0l-21.37 0 -1557.87 -1552.84 0 -35.97 1579.24 1588.81zm-51.82 0l-21.62 0 -1505.81 -1500.93 0 -35.75 1527.42 1536.68zm-51.81 0l-21.84 0 -1453.78 -1449.06 0 -35.49 1475.62 1484.54zm-51.82 0l-22.1 0 -1401.7 -1397.15 0 -35.28 1423.8 1432.43zm-51.82 0l-22.33 0 -1349.65 -1345.28 0 -35.01 1371.98 1380.29zm-51.81 0l-22.59 0 -1297.58 -1293.39 0 -34.79 1320.17 1328.18zm-51.82 0l-22.81 0 -1245.54 -1241.49 0 -34.55 1268.35 1276.04zm-51.81 0l-23.06 0 -1193.49 -1189.62 0 -34.28 1216.55 1223.91zm-51.82 0l-23.31 0 -1141.42 -1137.72 0 -34.08 1164.73 1171.79zm-51.83 0l-23.53 0 -1089.38 -1085.84 0 -33.8 1112.91 1119.64zm-51.82 0l-23.79 0 -1037.3 -1033.94 0 -33.58 1061.09 1067.52z"/>
     <path class="fil2" d="M302.61 -36.18l1989.81 2001.87 32.54 0 -2008.37 -2001.87 -13.99 0zm-1036.27 0l9.16 0 2008.36 2001.87 -27.73 0 -1989.79 -2001.87zm51.81 0l9.4 0 2008.36 2001.87 -27.97 0 -1989.79 -2001.87zm51.82 0l9.64 0 2008.36 2001.87 -28.2 0 -1989.8 -2001.87zm51.81 0l9.89 0 2008.37 2001.87 -28.45 0 -1989.81 -2001.87zm51.81 0l10.14 0 2008.36 2001.87 -28.7 0 -1989.8 -2001.87zm51.82 0l10.38 0 2008.36 2001.87 -28.93 0 -1989.81 -2001.87zm51.82 0l10.61 0 2008.37 2001.87 -29.18 0 -1989.8 -2001.87zm51.83 0l10.85 0 2008.37 2001.87 -29.41 0 -1989.8 -2001.87zm51.8 0l11.1 0 2008.37 2001.87 -29.64 0 -1989.82 -2001.87zm51.82 0l11.32 0 2008.38 2001.87 -29.89 0 -1989.81 -2001.87zm51.81 0l11.58 0 2008.38 2001.87 -30.15 0 -1989.81 -2001.87zm51.82 0l11.81 0 2008.37 2001.87 -30.36 0 -1989.81 -2001.87zm51.83 0l12.05 0 2008.37 2001.87 -30.61 0 -1989.81 -2001.87zm51.8 0l12.3 0 2008.36 2001.87 -30.85 0 -1989.81 -2001.87zm51.82 0l12.54 0 2008.36 2001.87 -31.09 0 -1989.81 -2001.87zm51.82 0l12.79 0 2008.38 2001.87 -31.36 0 -1989.81 -2001.87zm51.81 0l13.03 0 2008.38 2001.87 -31.58 0 -1989.82 -2001.87zm51.82 0l13.26 0 2008.36 2001.87 -31.81 0 -1989.81 -2001.87zm51.8 0l13.52 0 2008.37 2001.87 -32.07 0 -1989.81 -2001.87zm51.84 0l13.74 0 2008.37 2001.87 -32.3 0 -1989.8 -2001.87z"/>
     <path class="fil2" d="M1373.95 -36.18l2008.37 2001.87 8.88 0 -1989.79 -2001.87 -27.46 0zm-1041.12 0l32.28 0 1989.81 2001.87 -13.73 0 -2008.37 -2001.87zm52.06 0l32.05 0 1989.8 2001.87 -13.48 0 -2008.37 -2001.87zm52.06 0l31.78 0 1989.82 2001.87 -13.22 0 -2008.38 -2001.87zm52.06 0l31.55 0 1989.81 2001.87 -12.99 0 -2008.37 -2001.87zm52.07 0l31.29 0 1989.81 2001.87 -12.75 0 -2008.35 -2001.87zm52.05 0l31.04 0 1989.81 2001.87 -12.49 0 -2008.36 -2001.87zm52.04 0l30.82 0 1989.8 2001.87 -12.26 0 -2008.37 -2001.87zm52.06 0l30.58 0 1989.81 2001.87 -12.02 0 -2008.37 -2001.87zm52.05 0l30.33 0 1989.82 2001.87 -11.79 0 -2008.37 -2001.87zm52.07 0l30.09 0 1989.81 2001.87 -11.55 0 -2008.34 -2001.87zm52.04 0l29.86 0 1989.81 2001.87 -11.3 0 -2008.37 -2001.87zm52.07 0l29.62 0 1989.81 2001.87 -11.06 0 -2008.36 -2001.87zm52.04 0l29.39 0 1989.8 2001.87 -10.82 0 -2008.37 -2001.87zm52.07 0l29.13 0 1989.81 2001.87 -10.6 0 -2008.34 -2001.87zm52.04 0l28.89 0 1989.81 2001.87 -10.33 0 -2008.37 -2001.87zm52.05 0l28.66 0 1989.79 2001.87 -10.08 0 -2008.37 -2001.87zm52.07 0l28.41 0 1989.81 2001.87 -9.84 0 -2008.38 -2001.87zm52.05 0l28.18 0 1989.81 2001.87 -9.62 0 -2008.37 -2001.87zm52.06 0l27.93 0 1989.81 2001.87 -9.37 0 -2008.36 -2001.87zm52.06 0l27.68 0 1989.81 2001.87 -9.15 0 -2008.35 -2001.87z"/>
     <path class="fil2" d="M3549.26 -36.18l70.95 70.72 0 -16.83 -53.57 -53.89 -17.38 0zm-1041.11 0l22.22 0 1089.85 1096.46 0 12 -1112.06 -1108.45zm52.07 0l21.95 0 1038.04 1044.32 0 12.24 -1059.99 -1056.56zm52.06 0l21.72 0 986.21 992.19 0 12.49 -1007.93 -1004.67zm52.05 0l21.49 0 934.4 940.07 0 12.72 -955.88 -952.79zm52.06 0l21.24 0 882.58 887.93 0 12.97 -903.82 -900.91zm52.05 0l21 0 830.77 835.8 0 13.22 -851.77 -849.02zm52.04 0l20.76 0 778.97 783.69 0 13.46 -799.73 -797.14zm52.06 0l20.51 0 727.15 731.55 0 13.71 -747.67 -745.26zm52.06 0l20.28 0 675.33 679.44 0 13.93 -695.61 -693.36zm52.06 0l20.02 0 623.52 627.3 0 14.18 -643.55 -641.47zm52.04 0l19.8 0 571.71 575.19 0 14.42 -591.5 -589.6zm52.07 0l19.56 0 519.88 523.03 0 14.67 -539.44 -537.7zm52.06 0l19.32 0 468.06 470.9 0 14.91 -487.38 -485.81zm52.06 0l19.07 0 416.25 418.78 0 15.14 -435.32 -433.91zm52.06 0l18.83 0 364.43 366.65 0 15.38 -383.26 -382.02zm52.04 0l18.6 0 312.62 314.51 0 15.64 -331.21 -330.15zm52.05 0l18.35 0 260.81 262.39 0 15.87 -279.16 -278.26zm52.07 0l18.1 0 209 210.26 0 16.11 -227.1 -226.37zm52.04 0l17.89 0 157.17 158.12 0 16.37 -175.06 -174.49zm52.06 0l17.63 0 105.37 106.01 0 16.6 -123 -122.6z"/>
     <polygon class="fil2" points="3596.82,-36.18 3620.21,-36.18 3620.21,-12.64 "/>
     <path class="fil3" d="M485.71 1495.39c-49.55,0 -84.2,29.71 -84.2,73.28 0,33.69 22.79,57.95 61.41,57.95l9.88 0c48.07,0 81.77,-30.22 81.77,-72.77 0,-35.67 -27.27,-58.47 -68.86,-58.47zm124.32 166.93c-11.88,50.07 -26.77,78.73 -51.99,99.52 -27.79,22.34 -67.92,33.7 -120.4,33.7 -92.6,0 -144.13,-31.19 -150.12,-91.12l88.17 0c5.98,22.77 26.78,34.19 63.94,34.19 59.93,0 84.19,-22.33 95.6,-88.17 -12.88,11.88 -18.34,15.85 -32.73,21.75 -20.28,8.93 -40.62,12.91 -65.84,12.91 -76.29,0 -121.42,-38.11 -121.42,-102.55 0,-85.67 64.95,-145.1 159.02,-145.1 31.21,0 57,5.91 77.29,18.29 9.43,5.46 13.85,8.91 24.33,19.31l6.92 -29.18 77.73 0 -50.5 216.46z"/>
     <path class="fil3" d="M884.87 1579.07c-26.77,0 -51.53,1.05 -73.81,2.5 -12.37,0.97 -21.29,2.44 -31.18,5.46 -19.33,5.89 -28.76,16.29 -28.76,32.14 0,18.87 14.82,27.81 47.03,27.81 51.55,0 97.11,-26.25 106.05,-60.46l1.98 -7.45 -21.31 0zm108.46 -23.31l-23.23 100.57c-3.02,11.94 -3.46,16.37 -3.46,20.36 0,5.46 0.95,9.35 5.89,17.32l-88.61 0c-0.53,-4.43 -0.53,-6.4 -0.53,-8.91 0,-5.97 0.53,-9.89 1.99,-17.32 -12.88,10.38 -18.34,13.85 -27.28,18.26 -19.82,9.96 -51.01,15.93 -84.18,15.93 -70.35,0 -108.46,-25.81 -108.46,-73.34 0,-27.22 13.35,-52.5 36.11,-67.38 24.25,-16.31 62.9,-23.23 125.34,-23.23l88.7 0 1.47 -6.5c0.97,-3.46 0.97,-7.46 0.97,-10.91 0,-19.75 -18.29,-28.24 -64.38,-28.24 -24.77,0 -40.62,2.51 -52.04,7.47 -7.45,3.46 -10.91,6.48 -16.82,15.85l-82.27 -0.97c16.88,-53.01 67.89,-78.29 159.02,-78.29 95.11,0 138.68,23.28 138.68,75.34 0,12.83 -0.95,19.31 -6.92,44.01z"/>
     <path class="fil3" d="M1540.1 1574.64l-27.2 119.37 -81.77 0 28.76 -123.87c1.98,-8.4 2.95,-17.83 2.95,-24.77 0,-29.71 -17.33,-46.53 -47.55,-46.53 -18.36,0 -32.22,3.99 -44.1,11.36 -19.31,11.94 -28.74,28.23 -37.14,64.43l-27.22 119.37 -81.75 0 28.23 -123.87c1.99,-8.4 2.95,-17.83 2.95,-24.77 0,-29.71 -16.8,-46.53 -47.03,-46.53 -44.62,0 -68.86,21.76 -80.21,70.86l-28.24 124.31 -80.81 0 57.5 -248.17 80.72 0 -8.4 35.68c11.36,-12.91 16.29,-17.39 26.76,-24.34 18.8,-12.39 42.54,-19.31 69.32,-19.31 44.08,0 72.84,15.85 89.2,49.1 26.24,-32.22 63.84,-49.1 111.91,-49.1 63.41,0 101.09,31.7 101.09,84.7 0,12.91 -2.51,28.25 -7.96,52.06z"/>
     <path class="fil3" d="M2092.54 1574.64l-27.2 119.37 -81.77 0 28.76 -123.87c1.98,-8.4 2.95,-17.83 2.95,-24.77 0,-29.71 -17.33,-46.53 -47.56,-46.53 -18.36,0 -32.22,3.99 -44.1,11.36 -19.31,11.94 -28.74,28.23 -37.14,64.43l-27.22 119.37 -81.78 0 28.25 -123.87c1.99,-8.4 2.95,-17.83 2.95,-24.77 0,-29.71 -16.8,-46.53 -47.05,-46.53 -44.59,0 -68.84,21.76 -80.21,70.86l-28.23 124.31 -80.82 0 57.52 -248.17 80.73 0 -8.4 35.68c11.37,-12.91 16.29,-17.39 26.77,-24.34 18.8,-12.39 42.54,-19.31 69.32,-19.31 44.08,0 72.84,15.85 89.2,49.1 26.25,-32.22 63.85,-49.1 111.92,-49.1 63.4,0 101.08,31.7 101.08,84.7 0,12.91 -2.51,28.25 -7.97,52.06z"/>
     <path class="fil3" d="M2345.8 1579.07c-26.76,0 -51.53,1.05 -73.81,2.5 -12.37,0.97 -21.29,2.44 -31.17,5.46 -19.33,5.89 -28.76,16.29 -28.76,32.14 0,18.87 14.82,27.81 47.03,27.81 51.55,0 97.11,-26.25 106.05,-60.46l1.97 -7.45 -21.31 0zm108.46 -23.31l-23.23 100.57c-3.02,11.94 -3.46,16.37 -3.46,20.36 0,5.46 0.95,9.35 5.89,17.32l-88.62 0c-0.53,-4.43 -0.53,-6.4 -0.53,-8.91 0,-5.97 0.53,-9.89 1.99,-17.32 -12.89,10.38 -18.34,13.85 -27.27,18.26 -19.83,9.96 -51.02,15.93 -84.19,15.93 -70.35,0 -108.46,-25.81 -108.46,-73.34 0,-27.22 13.34,-52.5 36.11,-67.38 24.25,-16.31 62.9,-23.23 125.34,-23.23l88.71 0 1.46 -6.5c0.97,-3.46 0.97,-7.46 0.97,-10.91 0,-19.75 -18.29,-28.24 -64.38,-28.24 -24.77,0 -40.62,2.51 -52.04,7.47 -7.45,3.46 -10.91,6.48 -16.82,15.85l-82.27 -0.97c16.88,-53.01 67.9,-78.29 159.02,-78.29 95.12,0 138.7,23.28 138.7,75.34 0,12.83 -0.97,19.31 -6.94,44.01z"/>
     <path class="fil4" d="M1377.75 570.62l-39.46 147.25c-5.85,21.9 10.64,43.42 33.32,43.42l178.68 0c22.6,0 39.06,21.44 33.21,43.28l-22.32 83.32c-4.01,14.98 -17.58,25.37 -33.07,25.37l-127.67 0c-140.81,0 -260.92,-109.29 -266.22,-250.01 -5.59,-147.93 113.14,-270.06 259.84,-270.06l273.69 0c15.6,0 29.27,-10.5 33.3,-25.57l50.94 -190.1c5.87,-21.89 -10.63,-43.4 -33.31,-43.4l-352.42 0c-290.48,0 -533.21,237.69 -528.25,528.11 4.85,282.1 235.81,510.07 519.04,510.07l369.68 0c15.59,0 29.24,-10.47 33.26,-25.52l149.57 -558.2c5.88,-21.91 -10.64,-43.43 -33.32,-43.43l-465.29 0c-15.57,0 -29.18,10.43 -33.21,25.47z"/>
    </g>
   </g>
  </g>
  <path class="fil5" d="M202.96 0l2446.29 0c111.63,0 202.96,91.33 202.96,202.96l0 1542.45c0,111.63 -91.34,202.96 -202.96,202.96l-2446.29 0c-111.63,0 -202.96,-91.33 -202.96,-202.96l0 -1542.45c0,-111.63 91.33,-202.96 202.96,-202.96z"/>
 </g>
</svg>
