<?xml version="1.0" encoding="UTF-8"?>
<!DOCTYPE svg PUBLIC "-//W3C//DTD SVG 1.1//EN" "http://www.w3.org/Graphics/SVG/1.1/DTD/svg11.dtd">
<!-- Creator: CorelDRAW (Evaluation Version) -->
<svg xmlns="http://www.w3.org/2000/svg" xml:space="preserve" width="52.3314mm" height="35.7481mm" version="1.1" style="shape-rendering:geometricPrecision; text-rendering:geometricPrecision; image-rendering:optimizeQuality; fill-rule:evenodd; clip-rule:evenodd"
viewBox="0 0 649.38 443.6"
 xmlns:xlink="http://www.w3.org/1999/xlink"
 xmlns:xodm="http://www.corel.com/coreldraw/odm/2003">
 <defs>
  <style type="text/css">
   <![CDATA[
    .fil1 {fill:none}
    .fil0 {fill:white}
    .fil4 {fill:#00B0F0}
    .fil5 {fill:url(#id1);fill-rule:nonzero}
    .fil2 {fill:url(#id2);fill-rule:nonzero}
    .fil3 {fill:url(#id3);fill-rule:nonzero}
   ]]>
  </style>
   <clipPath id="id0">
    <path d="M46.21 0l556.96 0c25.41,0 46.21,20.79 46.21,46.21l0 351.18c0,25.42 -20.8,46.21 -46.21,46.21l-556.96 0c-25.42,0 -46.21,-20.79 -46.21,-46.21l0 -351.18c0,-25.42 20.79,-46.21 46.21,-46.21z"/>
   </clipPath>
  <linearGradient id="id1" gradientUnits="userSpaceOnUse" x1="295.22" y1="276.99" x2="295.22" y2="308.87">
   <stop offset="0" style="stop-opacity:1; stop-color:#EE3338"/>
   <stop offset="1" style="stop-opacity:1; stop-color:#AB3D41"/>
  </linearGradient>
  <linearGradient id="id2" gradientUnits="userSpaceOnUse" x1="343.8" y1="160.24" x2="343.8" y2="87.31">
   <stop offset="0" style="stop-opacity:1; stop-color:#3F4096"/>
   <stop offset="1" style="stop-opacity:1; stop-color:#0098DB"/>
  </linearGradient>
  <linearGradient id="id3" gradientUnits="userSpaceOnUse" xlink:href="#id2" x1="351.49" y1="231.22" x2="351.49" y2="152.55">
  </linearGradient>
 </defs>
 <g id="Camada_x0020_1">
  <metadata id="CorelCorpID_0Corel-Layer"/>
  <path class="fil0" d="M46.21 0l556.96 0c25.41,0 46.21,20.79 46.21,46.21l0 351.18c0,25.42 -20.8,46.21 -46.21,46.21l-556.96 0c-25.42,0 -46.21,-20.79 -46.21,-46.21l0 -351.18c0,-25.42 20.79,-46.21 46.21,-46.21z"/>
  <g style="clip-path:url(#id0)">
   <g id="_105553212393184">
    <g>
     <rect class="fil1" x="-0" y="59.68" width="649.38" height="361.15"/>
     <g>
      <path class="fil2" d="M39.42 179.63l18.91 -66.82 23.69 0 -6.29 22.22 14.42 0 6.29 -22.22 23.64 0 -18.91 66.82 -23.64 0 6.67 -23.55 -14.42 0 -6.67 23.55 -23.69 0zm74.67 0l18.91 -66.82 24.04 0 -18.91 66.82 -24.04 0zm66.04 -20.41c5.35,-0.03 9.55,-1.09 12.61,-3.18 3.04,-2.07 5.19,-5.34 6.45,-9.78 1.23,-4.35 0.97,-7.59 -0.78,-9.72 -1.76,-2.13 -5.06,-3.19 -9.93,-3.19l-1.03 0 -7.32 25.88zm-29.23 20.41l18.91 -66.82 19.15 0c6.07,0 11.18,0.34 15.28,1.03 4.1,0.69 7.32,1.74 9.59,3.18 4.85,3.04 8.06,7.07 9.7,12.09 1.62,5.02 1.52,10.73 -0.3,17.15 -1.81,6.4 -4.94,12.09 -9.37,17.07 -4.43,4.99 -9.95,9.02 -16.55,12.09 -3.19,1.46 -7.04,2.54 -11.51,3.21 -4.47,0.67 -10.32,1 -17.5,1l-17.4 0zm110.05 -49.62l-3.7 13.06 3.68 0c2.26,0 4.13,-0.56 5.66,-1.67 1.53,-1.11 2.59,-2.7 3.18,-4.77 0.6,-2.13 0.45,-3.77 -0.44,-4.91 -0.89,-1.14 -2.45,-1.71 -4.7,-1.71l-3.68 0zm-37.24 49.62l18.91 -66.82 29.76 0c8.62,0 14.67,1.93 18.13,5.8 3.46,3.86 4.15,9.44 2.1,16.7 -1.34,4.75 -3.6,8.66 -6.76,11.73 -3.17,3.08 -6.77,4.88 -10.81,5.39l9.87 27.2 -26.51 0 -5.27 -22.04 -6.24 22.04 -23.2 0zm104.6 -20.67c3.33,0 6.32,-1.15 9,-3.44 2.68,-2.31 4.55,-5.34 5.63,-9.16 1.09,-3.83 0.94,-6.9 -0.42,-9.24 -1.37,-2.32 -3.71,-3.49 -7.04,-3.49 -3.33,0 -6.34,1.17 -9.05,3.52 -2.7,2.34 -4.58,5.41 -5.66,9.21 -1.08,3.82 -0.93,6.86 0.46,9.16 1.39,2.29 3.75,3.44 7.08,3.44zm38.76 -12.6c-1.38,4.89 -3.54,9.46 -6.43,13.66 -2.9,4.22 -6.47,7.99 -10.7,11.31 -4.22,3.26 -8.73,5.75 -13.51,7.48 -4.78,1.73 -9.62,2.6 -14.47,2.6 -4.91,0 -9.26,-0.87 -13.06,-2.6 -3.81,-1.73 -6.9,-4.25 -9.29,-7.57 -2.34,-3.22 -3.77,-6.95 -4.26,-11.14 -0.48,-4.21 -0.03,-8.79 1.37,-13.74 1.4,-4.95 3.55,-9.55 6.42,-13.79 2.87,-4.22 6.41,-7.96 10.57,-11.19 4.22,-3.27 8.72,-5.78 13.5,-7.49 4.77,-1.73 9.63,-2.59 14.57,-2.59 4.94,0 9.31,0.86 13.11,2.59 3.81,1.71 6.91,4.22 9.31,7.49 2.3,3.26 3.71,7.01 4.2,11.23 0.5,4.24 0.05,8.82 -1.34,13.74z"/>
      <path class="fil3" d="M331.49 255.8l19.28 -66.82 28.83 0c10.14,0 16.99,1.95 20.56,5.84 3.57,3.9 4.13,10.06 1.69,18.52 -2.28,7.88 -6.05,13.65 -11.31,17.28 -5.27,3.63 -12.49,5.45 -21.66,5.45l-7.56 0 -5.69 19.72 -24.15 0zm38.17 -48.25l-3.22 11.14 3.75 0c2.28,0 4.19,-0.48 5.69,-1.43 1.5,-0.97 2.5,-2.32 3.01,-4.1 0.51,-1.76 0.28,-3.13 -0.68,-4.13 -0.97,-0.98 -2.56,-1.48 -4.8,-1.48l-3.75 0zm67.76 27.58c3.4,0 6.45,-1.15 9.18,-3.44 2.73,-2.31 4.64,-5.34 5.74,-9.16 1.11,-3.83 0.96,-6.9 -0.43,-9.24 -1.39,-2.32 -3.78,-3.49 -7.17,-3.49 -3.4,0 -6.47,1.17 -9.23,3.52 -2.76,2.34 -4.67,5.41 -5.77,9.21 -1.1,3.82 -0.95,6.85 0.47,9.16 1.42,2.29 3.82,3.44 7.22,3.44zm39.53 -12.6c-1.41,4.89 -3.6,9.46 -6.56,13.66 -2.95,4.22 -6.59,7.99 -10.91,11.31 -4.3,3.26 -8.9,5.75 -13.78,7.48 -4.88,1.73 -9.81,2.6 -14.75,2.6 -5.01,0 -9.45,-0.87 -13.31,-2.6 -3.88,-1.73 -7.03,-4.25 -9.47,-7.57 -2.39,-3.23 -3.85,-6.95 -4.34,-11.14 -0.49,-4.21 -0.03,-8.79 1.4,-13.74 1.43,-4.95 3.62,-9.55 6.55,-13.79 2.92,-4.22 6.54,-7.96 10.78,-11.19 4.31,-3.27 8.9,-5.78 13.77,-7.49 4.86,-1.73 9.82,-2.59 14.86,-2.59 5.04,0 9.5,0.86 13.36,2.59 3.89,1.71 7.04,4.22 9.49,7.49 2.35,3.26 3.78,7.01 4.28,11.23 0.51,4.24 0.05,8.82 -1.37,13.74zm38.49 -16.34l-3.77 13.06 3.75 0c2.3,0 4.21,-0.56 5.77,-1.67 1.56,-1.11 2.64,-2.7 3.24,-4.77 0.62,-2.13 0.46,-3.77 -0.45,-4.91 -0.91,-1.14 -2.49,-1.71 -4.79,-1.71l-3.75 0zm-37.97 49.62l19.28 -66.82 30.35 0c8.79,0 14.96,1.93 18.49,5.8 3.53,3.86 4.24,9.44 2.14,16.7 -1.37,4.75 -3.67,8.66 -6.89,11.73 -3.24,3.08 -6.9,4.88 -11.02,5.39l10.06 27.2 -27.03 0 -5.37 -22.04 -6.36 22.04 -23.65 0zm75.86 0l12.98 -44.96 -13.42 0 6.31 -21.86 50.95 0 -6.31 21.86 -13.42 0 -12.98 44.96 -24.11 0z"/>
      <path class="fil4" d="M35.64 193.19c23,-1.02 45.29,-9.43 68.96,-9.43 30.62,0 59.62,9.53 89.88,9.53 26.26,0 51.46,-9.44 78.24,-9.44 24.33,0 47.33,7.44 71.02,9.11l-1.94 6.6c-7.43,-0.61 -14.77,-1.73 -22.06,-2.99 -15.65,-2.7 -31.12,-5.99 -47.02,-5.99 -15.05,0 -29.76,3.1 -44.6,5.75 -11.06,1.97 -22.2,3.7 -33.64,3.7 -13.43,0 -26.54,-1.83 -39.58,-3.89 -16.71,-2.63 -33.3,-5.64 -50.29,-5.64 -13.4,0 -26.52,2.83 -39.76,5.4 -10.24,1.99 -20.55,3.83 -31.12,4.09l1.92 -6.81zm-15.11 53.66c18.44,-2.64 36.68,-8.14 55.82,-8.14 30.62,0 59.62,9.53 89.88,9.53 26.27,0 51.46,-9.44 78.24,-9.44 27.41,0 53.12,9.44 80.04,9.44l2.97 0 -1.98 6.74 -0.99 0c-11.23,0 -22.17,-1.59 -33.02,-3.46 -15.65,-2.7 -31.12,-5.99 -47.02,-5.99 -15.05,0 -29.76,3.1 -44.6,5.75 -11.07,1.97 -22.2,3.7 -33.64,3.7 -13.42,0 -26.54,-1.83 -39.58,-3.89 -16.71,-2.63 -33.3,-5.64 -50.3,-5.64 -13.4,0 -26.52,2.83 -39.76,5.4 -5.98,1.16 -11.98,2.27 -18.04,3.05l1.99 -7.05zm3.74 -13.3c19.58,-2.41 38.85,-8.58 59.14,-8.58 30.62,0 59.62,9.53 89.88,9.53 26.27,0 51.46,-9.44 78.24,-9.44 27.39,0 53.08,9.43 79.99,9.44l-1.98 6.72c-10.52,-0.18 -20.8,-1.68 -30.99,-3.44 -15.65,-2.7 -31.12,-5.99 -47.02,-5.99 -15.05,0 -29.76,3.1 -44.6,5.75 -11.07,1.97 -22.2,3.7 -33.64,3.7 -13.42,0 -26.54,-1.83 -39.58,-3.89 -16.71,-2.63 -33.3,-5.64 -50.3,-5.64 -13.4,0 -26.52,2.83 -39.76,5.4 -7.06,1.37 -14.15,2.67 -21.35,3.43l1.97 -7zm3.76 -13.37c20.71,-2.06 41.01,-8.95 62.44,-8.95 30.62,0 59.62,9.53 89.88,9.53 26.26,0 51.46,-9.44 78.24,-9.44 26.37,0 51.16,8.74 76.98,9.4l-1.97 6.68c-9.48,-0.38 -18.77,-1.76 -28,-3.35 -15.65,-2.7 -31.12,-5.99 -47.02,-5.99 -15.05,0 -29.76,3.1 -44.6,5.75 -11.06,1.97 -22.2,3.7 -33.63,3.7 -13.43,0 -26.54,-1.83 -39.58,-3.89 -16.71,-2.64 -33.3,-5.64 -50.3,-5.64 -13.4,0 -26.52,2.83 -39.76,5.4 -8.13,1.58 -16.31,3.07 -24.63,3.74l1.95 -6.94zm3.79 -13.45c21.85,-1.6 43.16,-9.23 65.71,-9.23 30.62,0 59.62,9.53 89.88,9.53 26.26,0 51.46,-9.44 78.24,-9.44 25.35,0 49.24,8.08 73.99,9.29l-1.95 6.64c-8.45,-0.52 -16.76,-1.78 -25.02,-3.2 -15.65,-2.7 -31.12,-5.99 -47.02,-5.99 -15.05,0 -29.76,3.1 -44.6,5.75 -11.06,1.97 -22.2,3.7 -33.63,3.7 -13.43,0 -26.54,-1.83 -39.58,-3.89 -16.71,-2.63 -33.3,-5.64 -50.29,-5.64 -13.4,0 -26.52,2.83 -39.76,5.4 -9.19,1.79 -18.44,3.45 -27.89,3.96l1.94 -6.87z"/>
      <path class="fil4" d="M370.22 119.37c18.27,-2.67 36.37,-8.07 55.34,-8.07 30.62,0 59.62,9.53 89.88,9.53 26.26,0 51.46,-9.44 78.24,-9.44 12.66,0 24.95,2.02 37.16,4.18l-1.82 6.48c-11.71,-2.06 -23.4,-3.92 -35.34,-3.92 -15.05,0 -29.76,3.1 -44.6,5.75 -11.06,1.97 -22.2,3.7 -33.64,3.7 -13.43,0 -26.54,-1.83 -39.58,-3.89 -16.71,-2.63 -33.3,-5.64 -50.29,-5.64 -13.4,0 -26.52,2.83 -39.76,5.4 -4.11,0.8 -8.24,1.57 -12.39,2.23 -0.77,-2.17 -1.82,-4.28 -3.19,-6.3zm-11.52 51.96c12.68,-2.48 25.42,-5.09 38.6,-5.09 30.62,0 59.62,9.53 89.88,9.53 26.26,0 51.46,-9.44 78.24,-9.44 16.87,0 33.09,3.57 49.34,6.32l-1.83 6.49 -0.5 -0.08c-15.65,-2.7 -31.12,-5.99 -47.02,-5.99 -15.05,0 -29.76,3.1 -44.6,5.75 -11.06,1.97 -22.2,3.7 -33.64,3.7 -13.43,0 -26.54,-1.83 -39.58,-3.89 -16.71,-2.63 -33.3,-5.64 -50.29,-5.64 -13.4,0 -26.52,2.83 -39.76,5.4 -3.92,0.76 -7.86,1.5 -11.81,2.14 3.17,-1.63 6.11,-3.53 8.82,-5.62 1.46,-1.14 2.85,-2.34 4.16,-3.57zm11.03 -14.51c11.37,-2.22 22.83,-4.31 34.63,-4.31 30.62,0 59.62,9.53 89.88,9.53 26.27,0 51.47,-9.44 78.24,-9.44 15.81,0 31.05,3.14 46.3,5.8l-1.83 6.48c-14.78,-2.6 -29.43,-5.54 -44.47,-5.54 -15.05,0 -29.76,3.1 -44.6,5.75 -11.06,1.97 -22.2,3.7 -33.64,3.7 -13.42,0 -26.54,-1.83 -39.58,-3.89 -16.71,-2.63 -33.3,-5.64 -50.29,-5.64 -13.34,0 -26.4,2.8 -39.59,5.37 0.56,-0.73 1.1,-1.47 1.62,-2.22 1.25,-1.81 2.36,-3.67 3.34,-5.58zm4.64 -13.26c12.17,-2.39 24.42,-4.78 37.06,-4.78 30.62,0 59.62,9.53 89.88,9.53 26.26,0 51.46,-9.44 78.24,-9.44 14.76,0 29.02,2.74 43.25,5.26l-1.83 6.48c-13.75,-2.45 -27.42,-5 -41.43,-5 -15.05,0 -29.76,3.1 -44.6,5.75 -11.06,1.97 -22.2,3.7 -33.64,3.7 -13.43,0 -26.54,-1.83 -39.58,-3.89 -16.71,-2.64 -33.3,-5.64 -50.29,-5.64 -13.16,0 -26.06,2.73 -39.07,5.26 0.4,-1.1 0.76,-2.22 1.08,-3.34 0.36,-1.28 0.67,-2.58 0.93,-3.88zm0.4 -12.45c14.37,-2.73 28.78,-6.07 43.73,-6.07 30.62,0 59.62,9.53 89.88,9.53 26.26,0 51.46,-9.44 78.24,-9.44 13.71,0 26.99,2.36 40.21,4.72l-1.83 6.48c-12.73,-2.27 -25.41,-4.46 -38.38,-4.46 -15.05,0 -29.76,3.1 -44.6,5.75 -11.06,1.97 -22.2,3.7 -33.64,3.7 -13.43,0 -26.54,-1.83 -39.58,-3.89 -16.71,-2.64 -33.3,-5.64 -50.29,-5.64 -13.4,0 -26.52,2.83 -39.76,5.4 -1.22,0.24 -2.43,0.47 -3.65,0.7 0.1,-1.91 0.05,-3.82 -0.18,-5.73 -0.04,-0.35 -0.09,-0.69 -0.14,-1.04z"/>
     </g>
     <path class="fil5" d="M16.24 281.58l9.98 0 0 30.67 -9.98 0 0 -30.67zm17.26 30.67l0 -30.67 16.6 0c3.08,0 5.43,0.25 7.05,0.76 1.63,0.5 2.94,1.43 3.94,2.79 1,1.36 1.49,3.01 1.49,4.96 0,1.71 -0.38,3.17 -1.14,4.41 -0.76,1.23 -1.82,2.23 -3.14,3.01 -0.86,0.49 -2.02,0.89 -3.5,1.21 1.19,0.38 2.05,0.76 2.6,1.13 0.36,0.25 0.89,0.79 1.59,1.61 0.7,0.83 1.16,1.46 1.4,1.91l4.82 8.89 -11.26 0 -5.32 -9.38c-0.68,-1.21 -1.28,-2 -1.81,-2.36 -0.71,-0.47 -1.53,-0.71 -2.44,-0.71l-0.88 0 0 12.45 -10 0zm10 -18.25l4.2 0c0.45,0 1.33,-0.14 2.63,-0.41 0.66,-0.13 1.2,-0.45 1.62,-0.96 0.41,-0.51 0.62,-1.11 0.62,-1.78 0,-0.99 -0.33,-1.75 -0.99,-2.28 -0.66,-0.53 -1.9,-0.8 -3.71,-0.8l-4.37 0 0 6.23zm25.02 18.25l0 -30.67 16.6 0c3.08,0 5.43,0.25 7.05,0.76 1.63,0.5 2.94,1.43 3.94,2.79 1,1.36 1.49,3.01 1.49,4.96 0,1.71 -0.38,3.17 -1.14,4.41 -0.77,1.23 -1.82,2.23 -3.14,3.01 -0.85,0.49 -2.02,0.89 -3.5,1.21 1.19,0.38 2.05,0.76 2.6,1.13 0.36,0.25 0.89,0.79 1.59,1.61 0.7,0.83 1.16,1.46 1.4,1.91l4.82 8.89 -11.26 0 -5.32 -9.38c-0.68,-1.21 -1.28,-2 -1.81,-2.36 -0.71,-0.47 -1.53,-0.71 -2.44,-0.71l-0.88 0 0 12.45 -10 0zm10 -18.25l4.2 0c0.45,0 1.33,-0.14 2.63,-0.41 0.66,-0.13 1.2,-0.45 1.62,-0.96 0.41,-0.51 0.62,-1.11 0.62,-1.78 0,-0.99 -0.33,-1.75 -0.99,-2.28 -0.66,-0.53 -1.9,-0.8 -3.71,-0.8l-4.37 0 0 6.23zm25.28 -12.42l9.98 0 0 30.67 -9.98 0 0 -30.67zm33.33 19.56l0 -6.38 15.38 0 0 13.08c-2.94,1.91 -5.54,3.21 -7.81,3.9 -2.27,0.69 -4.95,1.03 -8.06,1.03 -3.83,0 -6.94,-0.62 -9.35,-1.86 -2.42,-1.23 -4.28,-3.08 -5.61,-5.54 -1.33,-2.46 -2,-5.27 -2,-8.45 0,-3.35 0.73,-6.26 2.18,-8.74 1.46,-2.47 3.58,-4.35 6.38,-5.63 2.18,-0.99 5.12,-1.48 8.82,-1.48 3.56,0 6.22,0.31 7.99,0.92 1.76,0.61 3.23,1.56 4.4,2.86 1.16,1.29 2.04,2.92 2.63,4.91l-9.6 1.63c-0.4,-1.16 -1.07,-2.04 -2.02,-2.66 -0.94,-0.61 -2.15,-0.92 -3.61,-0.92 -2.18,0 -3.92,0.72 -5.22,2.16 -1.3,1.45 -1.95,3.73 -1.95,6.85 0,3.32 0.66,5.69 1.97,7.11 1.31,1.42 3.14,2.14 5.48,2.14 1.11,0 2.18,-0.16 3.18,-0.46 1.01,-0.31 2.18,-0.83 3.47,-1.56l0 -2.89 -6.66 0zm41.13 6.05l-11.35 0 -1.56 5.06 -10.17 0 12.11 -30.67 10.86 0 12.12 30.67 -10.42 0 -1.58 -5.06zm-2.09 -6.63l-3.57 -11.03 -3.54 11.03 7.11 0zm38.73 -0.84l8.73 2.51c-0.59,2.33 -1.51,4.27 -2.77,5.83 -1.26,1.56 -2.83,2.74 -4.7,3.53 -1.87,0.8 -4.25,1.19 -7.13,1.19 -3.5,0 -6.37,-0.49 -8.58,-1.45 -2.22,-0.97 -4.14,-2.68 -5.76,-5.12 -1.61,-2.44 -2.42,-5.56 -2.42,-9.37 0,-5.08 1.42,-8.98 4.26,-11.7 2.84,-2.73 6.85,-4.09 12.04,-4.09 4.06,0 7.25,0.78 9.57,2.34 2.33,1.56 4.05,3.96 5.18,7.2l-8.79 1.86c-0.31,-0.93 -0.63,-1.62 -0.97,-2.06 -0.55,-0.72 -1.24,-1.28 -2.04,-1.67 -0.81,-0.39 -1.71,-0.59 -2.71,-0.59 -2.25,0 -3.98,0.86 -5.18,2.59 -0.91,1.28 -1.37,3.3 -1.37,6.05 0,3.41 0.55,5.73 1.63,7 1.09,1.26 2.61,1.89 4.57,1.89 1.91,0 3.35,-0.51 4.32,-1.53 0.98,-1.01 1.68,-2.49 2.12,-4.43zm-12.18 15.98l0.66 -2.46c1.37,-0.32 2.66,-0.49 3.87,-0.49 2.51,0 4.24,0.41 5.19,1.21 0.95,0.81 1.43,1.76 1.43,2.87 0,0.67 -0.22,1.36 -0.65,2.07 -0.44,0.71 -1.21,1.28 -2.32,1.71 -1.12,0.43 -2.6,0.65 -4.44,0.65 -1.67,0 -3.63,-0.19 -5.89,-0.54l0 -2.58c1.52,0.28 3.14,0.42 4.85,0.42 1.26,0 2.12,-0.17 2.57,-0.49 0.44,-0.32 0.67,-0.73 0.67,-1.25 0,-0.41 -0.19,-0.76 -0.55,-1.05 -0.37,-0.29 -0.94,-0.44 -1.72,-0.44 -1.04,0 -2.27,0.11 -3.67,0.35zm45.57 -8.51l-11.34 0 -1.56 5.06 -10.17 0 12.11 -30.67 10.86 0 12.12 30.67 -10.42 0 -1.58 -5.06zm-2.08 -6.63l-3.57 -11.03 -3.54 11.03 7.11 0zm0.92 -26.56l3.47 0c0.01,0.36 0.02,0.68 0.02,0.94 0,1.55 -0.41,2.75 -1.23,3.6 -0.83,0.85 -1.88,1.28 -3.17,1.28 -0.94,0 -2.36,-0.37 -4.27,-1.11 -1.16,-0.44 -1.95,-0.67 -2.39,-0.67 -0.43,0 -0.76,0.13 -0.99,0.38 -0.23,0.25 -0.36,0.7 -0.37,1.34l-3.43 0c-0.01,-0.34 -0.02,-0.63 -0.02,-0.88 0,-1.49 0.44,-2.68 1.3,-3.56 0.86,-0.88 1.89,-1.32 3.08,-1.32 0.52,0 1,0.06 1.46,0.17 0.45,0.11 1.29,0.41 2.51,0.89 1.22,0.49 2.12,0.74 2.67,0.74 0.4,0 0.71,-0.13 0.96,-0.39 0.24,-0.26 0.37,-0.73 0.4,-1.41zm15.1 22.94c0,-5.01 1.47,-8.9 4.4,-11.69 2.93,-2.79 7.01,-4.18 12.25,-4.18 5.37,0 9.5,1.37 12.4,4.11 2.9,2.73 4.35,6.58 4.35,11.51 0,3.58 -0.64,6.53 -1.91,8.82 -1.27,2.29 -3.1,4.08 -5.49,5.36 -2.4,1.28 -5.38,1.91 -8.96,1.91 -3.63,0 -6.64,-0.55 -9.03,-1.65 -2.38,-1.11 -4.31,-2.85 -5.79,-5.23 -1.48,-2.39 -2.22,-5.37 -2.22,-8.95zm9.97 0.04c0,3.1 0.6,5.32 1.81,6.68 1.21,1.35 2.86,2.03 4.94,2.03 2.14,0 3.8,-0.66 4.97,-1.99 1.17,-1.33 1.76,-3.71 1.76,-7.13 0,-2.89 -0.62,-5 -1.84,-6.33 -1.22,-1.33 -2.88,-1.99 -4.98,-1.99 -2,0 -3.62,0.67 -4.83,2.03 -1.22,1.35 -1.82,3.59 -1.82,6.71zm43.79 -15.39l26.68 0 0 6.55 -16.7 0 0 4.88 15.49 0 0 6.26 -15.49 0 0 6.04 17.19 0 0 6.95 -27.17 0 0 -30.67zm47.44 0l13.1 0 5.06 18.66 5.04 -18.66 13.06 0 0 30.67 -8.13 0 0 -23.39 -6.31 23.39 -7.36 0 -6.29 -23.39 0 23.39 -8.16 0 0 -30.67zm62.43 25.61l-11.34 0 -1.56 5.06 -10.17 0 12.11 -30.67 10.86 0 12.12 30.67 -10.42 0 -1.58 -5.06zm-2.09 -6.63l-3.56 -11.03 -3.54 11.03 7.11 0zm-3.74 -27.08l7.69 0 -7.1 6.26 -4.28 0 3.69 -6.26zm49.64 34.3c1.25,0.82 2.06,1.34 2.44,1.55 0.57,0.31 1.34,0.66 2.31,1.06l-2.77 5.31c-1.4,-0.64 -2.78,-1.4 -4.13,-2.28 -1.36,-0.89 -2.32,-1.56 -2.86,-2 -2.2,0.91 -4.95,1.36 -8.27,1.36 -4.89,0 -8.76,-1.21 -11.59,-3.64 -3.34,-2.87 -5.01,-6.9 -5.01,-12.11 0,-5.05 1.46,-8.97 4.39,-11.77 2.93,-2.79 7.01,-4.19 12.25,-4.19 5.35,0 9.48,1.36 12.39,4.1 2.91,2.73 4.37,6.65 4.37,11.74 0,4.53 -1.18,8.16 -3.52,10.88zm-7.63 -4.86c0.8,-1.35 1.19,-3.37 1.19,-6.06 0,-3.1 -0.61,-5.3 -1.82,-6.63 -1.21,-1.33 -2.87,-1.99 -5,-1.99 -1.97,0 -3.58,0.67 -4.81,2.03 -1.23,1.35 -1.85,3.46 -1.85,6.34 0,3.34 0.6,5.69 1.8,7.05 1.2,1.35 2.85,2.03 4.95,2.03 0.68,0 1.31,-0.06 1.91,-0.19 -0.83,-0.77 -2.15,-1.49 -3.95,-2.18l1.56 -3.41c0.88,0.16 1.56,0.34 2.06,0.57 0.49,0.22 1.44,0.81 2.87,1.76 0.34,0.22 0.7,0.45 1.1,0.69zm37.48 -21.34l9.94 0 0 18.29c0,1.81 -0.3,3.52 -0.89,5.13 -0.59,1.61 -1.52,3.02 -2.79,4.23 -1.27,1.21 -2.6,2.05 -3.99,2.54 -1.94,0.68 -4.26,1.02 -6.97,1.02 -1.57,0 -3.28,-0.1 -5.13,-0.31 -1.85,-0.21 -3.4,-0.62 -4.65,-1.24 -1.24,-0.62 -2.39,-1.51 -3.42,-2.65 -1.03,-1.14 -1.74,-2.32 -2.12,-3.53 -0.62,-1.95 -0.92,-3.68 -0.92,-5.18l0 -18.29 9.94 0 0 18.72c0,1.68 0.49,2.98 1.46,3.92 0.98,0.94 2.33,1.41 4.06,1.41 1.71,0 3.06,-0.46 4.04,-1.39 0.97,-0.92 1.46,-2.24 1.46,-3.94l0 -18.72zm16.93 0l9.98 0 0 30.67 -9.98 0 0 -30.67zm17.19 0l9.3 0 12.13 16.97 0 -16.97 9.39 0 0 30.67 -9.39 0 -12.07 -16.84 0 16.84 -9.36 0 0 -30.67zm56.82 25.61l-11.35 0 -1.56 5.06 -10.17 0 12.11 -30.67 10.86 0 12.12 30.67 -10.42 0 -1.58 -5.06zm-2.09 -6.63l-3.56 -11.03 -3.54 11.03 7.11 0zm15.54 1.55l9.48 -0.56c0.2,1.46 0.62,2.58 1.25,3.35 1.02,1.24 2.49,1.86 4.4,1.86 1.42,0 2.51,-0.31 3.29,-0.95 0.76,-0.64 1.15,-1.37 1.15,-2.21 0,-0.79 -0.36,-1.51 -1.1,-2.14 -0.74,-0.63 -2.43,-1.22 -5.1,-1.78 -4.37,-0.94 -7.48,-2.17 -9.34,-3.72 -1.88,-1.55 -2.81,-3.52 -2.81,-5.92 0,-1.58 0.48,-3.07 1.44,-4.47 0.96,-1.4 2.4,-2.5 4.33,-3.31 1.93,-0.8 4.57,-1.2 7.92,-1.2 4.12,0 7.26,0.73 9.42,2.18 2.16,1.46 3.44,3.78 3.86,6.96l-9.39 0.52c-0.25,-1.38 -0.77,-2.39 -1.58,-3.01 -0.8,-0.62 -1.9,-0.94 -3.3,-0.94 -1.16,0 -2.03,0.23 -2.62,0.7 -0.58,0.46 -0.88,1.04 -0.88,1.71 0,0.49 0.24,0.92 0.72,1.31 0.47,0.41 1.58,0.78 3.35,1.13 4.35,0.89 7.47,1.8 9.35,2.71 1.88,0.91 3.26,2.04 4.11,3.4 0.85,1.35 1.29,2.86 1.29,4.54 0,1.96 -0.58,3.78 -1.72,5.43 -1.14,1.66 -2.74,2.92 -4.79,3.78 -2.05,0.86 -4.64,1.29 -7.76,1.29 -5.48,0 -9.27,-1 -11.38,-3.01 -2.12,-2.01 -3.31,-4.56 -3.59,-7.66z"/>
    </g>
   </g>
  </g>
  <path class="fil1" d="M46.21 0l556.96 0c25.41,0 46.21,20.79 46.21,46.21l0 351.18c0,25.42 -20.8,46.21 -46.21,46.21l-556.96 0c-25.42,0 -46.21,-20.79 -46.21,-46.21l0 -351.18c0,-25.42 20.79,-46.21 46.21,-46.21z"/>
 </g>
</svg>
