<?xml version="1.0" encoding="UTF-8"?>
<!DOCTYPE svg PUBLIC "-//W3C//DTD SVG 1.1//EN" "http://www.w3.org/Graphics/SVG/1.1/DTD/svg11.dtd">
<!-- Creator: CorelDRAW (Evaluation Version) -->
<svg xmlns="http://www.w3.org/2000/svg" xml:space="preserve" width="52.3314mm" height="35.7481mm" version="1.1" style="shape-rendering:geometricPrecision; text-rendering:geometricPrecision; image-rendering:optimizeQuality; fill-rule:evenodd; clip-rule:evenodd"
viewBox="0 0 2261.05 1544.55"
 xmlns:xlink="http://www.w3.org/1999/xlink"
 xmlns:xodm="http://www.corel.com/coreldraw/odm/2003">
 <defs>
  <style type="text/css">
   <![CDATA[
    .fil3 {fill:none}
    .fil0 {fill:white}
    .fil1 {fill:#EE3338}
    .fil2 {fill:#EE3338;fill-rule:nonzero}
   ]]>
  </style>
   <clipPath id="id0">
    <path d="M160.9 0l1939.26 0c88.5,0 160.9,72.4 160.9,160.9l0 1222.76c0,88.49 -72.4,160.89 -160.9,160.89l-1939.26 0c-88.5,0 -160.9,-72.4 -160.9,-160.89l0 -1222.76c0,-88.5 72.4,-160.9 160.9,-160.9z"/>
   </clipPath>
 </defs>
 <g id="Camada_x0020_1">
  <metadata id="CorelCorpID_0Corel-Layer"/>
  <path class="fil0" d="M160.9 0l1939.26 0c88.5,0 160.9,72.4 160.9,160.9l0 1222.76c0,88.49 -72.4,160.89 -160.9,160.89l-1939.26 0c-88.5,0 -160.9,-72.4 -160.9,-160.89l0 -1222.76c0,-88.5 72.4,-160.9 160.9,-160.9z"/>
  <g style="clip-path:url(#id0)">
   <g id="_105553211278496">
    <g>
     <path id="_1" class="fil1" d="M1718.24 1099.03l-5.31 -8.25 -94.87 0 -7.94 11.67 0 0c-0.83,1.3 -1.33,2.84 -1.33,4.51 0,4.82 4.88,7.15 10.04,7.15l0 0 13.29 1.07 0 19.84 -98.71 0 0 -19.84 0 0c0,0 9.83,-0.62 18.02,-1.21 8.68,-0.61 12.39,-2.8 16.34,-8.76l0 0 51.21 -77.56 0 0c1.32,-1.88 2.72,-4.62 2.72,-7.02 0,-5.72 -4.42,-6.69 -10.54,-7.46 -7.86,-1.01 -24.01,-2.81 -24.01,-2.81l0 0 0 -18.86 116.42 0.02 0 0c7.86,0 12.03,2.04 16.02,7.79l0 0 5.08 6.54 68.43 98.23 0 0c3.97,5.79 10.02,9.9 17.88,9.9l0 0 10.27 1.21 0 19.84 -129.25 0 0 -19.84 20.44 -1.07 0 0c0,0 7.84,-0.95 8.69,-4.79 1.34,-5.95 -2.88,-10.29 -2.88,-10.29l0 0 0 0zm-23.49 -33.36l-30.84 -44.72 -29.22 44.72 60.07 0 0 0zm-310.46 41.69l55.19 0 0 0c15.57,0 35.46,-3.83 35.46,-43.85 0,-40.07 -19.89,-44.94 -35.46,-44.94l0 0 -55.19 0 0 88.79 0 0zm-91.6 27.51l0 -19.84 18.06 -1.21 0 0c8.33,-0.81 12.92,-4.28 12.92,-11.5l0 0 0 -78.97 0 0c0,-7.2 -4.83,-10.43 -11.9,-11.16 -6.08,-0.66 -17.27,-1.94 -17.27,-1.94l0 0 0 -18.81 161.19 0.09 0.33 0 0 0c50.56,0 91.99,24.77 91.99,71.63 0,48.74 -44.09,71.69 -91.99,71.69l0 0 -0.33 0 -163 0 0 0zm-156.2 -134.09l78.72 97.6 -0.05 -74.86 0 0c0,-7.22 -5.71,-11.29 -13.37,-11.29l0 0 -16.89 -1.95 0 -18.81 95.23 0 0 18.81 -14.83 1.95 0 0c-7.69,0 -13.29,4.29 -13.29,11.47l0 0 0.07 111.18 -77.68 0.05 0 0c-7.23,0 -11.17,-3.29 -15.27,-8.35l0 0 -79.52 -98.36 0.13 74.43 0 0c0,7.19 6.14,11.43 13.85,11.43l0 0 15.87 1.3 0 19.48 -97.41 0 0 -19.39 18.57 -1.68 0 0c8.69,-0.96 12.34,-5.54 12.34,-12.74l0 0 0 -76.91 0 0c0,-7.17 -4.66,-11.16 -13.03,-11.65l0 0 -17.72 -2.23 0 -18.81 107.77 -0 0 0c8.86,0 11.26,3.05 15.34,7.81l0 0 1.2 1.51 0 0zm-246.92 12.61c27.46,0 48.49,16.64 48.49,43.56l0 0 0 12.6 0 0c0,28.17 -21.3,42.79 -46.42,42.79l0 0 -19.84 0 0 0c-25.18,0 -44.22,-17.11 -44.22,-42.79l0 0 0 -12.6 0 0c0,-24.76 18.85,-43.56 46.27,-43.56l0 0 15.71 0 0 0zm119.11 51.62c-1.44,49.6 -48.42,76 -125.89,74.75 -78.65,1.27 -126.54,-25.95 -126.54,-77.07 0.79,-50.27 47.87,-77.85 125.87,-76.59 78.68,-1.28 126.53,26.98 126.53,78.11l0 0 0.03 0.79 0 0zm-350.6 -40.52c0,-7.18 -6.17,-12.26 -13.86,-12.26l0 0 -17.34 -1.95 0 -18.81 123.19 0 0 18.81 -17.15 1.95 0 0c-7.69,0 -13.87,4.57 -13.87,13.01l0 0 0 75.44 0 0c0,7.19 3.87,13.05 13.86,13.08l0 0 17.34 1.8 0 19.33 -123.52 0 0 -19.33 17.88 -1.88 0 0c7.7,0 13.47,-5.08 13.47,-12.26l0 0 0 -23.73 -95.81 0 0 24.21 0 0c0,7.19 3.89,11.15 12.41,11.96l0 0 18.36 1.91 0 19.13 -123.11 0 0 -19.13 18.46 -1.91 0 0c7.65,0 12.68,-4.96 12.68,-12.13l0 0 -0.03 -76.47 0 0c0,-7.18 -4.81,-12.53 -12.51,-12.53l0 0 -18.52 -2.42 0 -18.81 123.21 0 0 18.81 -18.54 2.09 0 0c-7.67,0 -12.44,5.11 -12.44,12.27l0 0 0 24.23 95.84 0 0 -24.38 0 0zm647.5 -72.09l-186.74 -111.64 -381.61 42.22 77.49 69.42 490.86 0 0 0zm-582.62 -82.46l-71.37 -64.29 812.74 -146.19 0 0c0,0 -36.98,40.52 -64.67,67.43 -25.76,25.06 -46.61,35.42 -89.13,44.21 0,0 -208.61,30.03 -217.6,33.1 -9.02,3.12 -10.18,15.33 -1.75,18.44l0 0 -368.21 47.3 0 0zm-145.35 -130.59l1014.88 -252.69 -59.41 83.86 0 0c-13.8,18.19 -32.63,41.92 -106.02,55.51 0,0 -472.29,86.87 -481.27,89.96 -9,3.1 -7.29,17 -1.71,18.27l0 0 -305.89 59.5 -60.58 -54.41 0 0zm262.47 -101.14l697.08 -184.4 0 0c93.46,-18.98 108.41,-65.77 128.32,-99.08l0 0 39.84 -69.63 -1145.2 369.26 0 0c-44.87,14.74 -25.93,46.52 -13.69,56.95l0 0 17.36 15.33 256.75 -64.91 0 0c-5.56,-1.27 -7.27,-15.16 1.73,-18.27 9,-3.1 17.81,-5.26 17.81,-5.26l0 0 0 0zm-176.83 314.2c0,0 -4.07,-26.65 -48.95,-68.01 -16.81,-15.49 -133.98,-129.17 -133.98,-129.17 -44.28,-36.27 -78.08,-137.12 43.09,-184.7 334.23,-131.27 886.83,-346.98 960.16,-377.34 200.32,-82.96 321.01,-143.35 321.01,-143.35 -42.9,117.81 -65.84,172.81 -150.89,202.27 -431.72,149.57 -1108.28,379.9 -1108.28,379.9 -36.75,15.42 -59,51.32 -13.83,96.02l0 0 249.37 224.56 -117.69 -0.17 0 0z"/>
     <path class="fil2" d="M91.74 1424.97l43.08 0 -1.05 9.86c-0.22,1.71 -0.36,3.26 -0.47,4.67 -0.11,1.42 -0.18,2.69 -0.18,3.74 0,4.46 0.91,7.76 2.68,9.93 1.74,2.14 4.49,3.22 8.15,3.22 3.99,0 6.92,-1.19 8.81,-3.55 1.92,-2.39 3.4,-7.21 4.45,-14.5l15.61 -104.14 49.35 0 -15.8 105.96c-1.99,12.94 -4.6,22.62 -7.86,29 -3.26,6.38 -7.98,11.71 -14.13,16.03 -4.24,2.97 -9.86,5.33 -16.81,7.03 -7,1.71 -14.5,2.54 -22.58,2.54 -17.46,0 -31.06,-4.35 -40.69,-13.05 -9.67,-8.74 -14.5,-20.92 -14.5,-36.54 0,-2.75 0.15,-5.83 0.47,-9.24 0.33,-3.41 0.8,-7.07 1.45,-10.95zm102.99 65.65l76.53 -156.42 50.01 0 31.31 156.42 -47.14 0 -2.43 -18.7 -49.79 0 -7.82 18.7 -50.66 0zm70.91 -50.24l32.17 0 -8.3 -57.85 -23.88 57.85zm80.42 50.24l23.26 -156.42 60.8 0 10.51 84.53c0.22,1.92 0.36,3.88 0.47,5.95 0.11,2.03 0.18,4.1 0.18,6.16 0,1.85 -0.04,3.23 -0.07,4.17 -0.03,0.98 -0.07,1.88 -0.14,2.72 0.58,-3.95 1.27,-7.5 2.07,-10.62 0.79,-3.12 1.77,-5.87 2.93,-8.27l37.36 -84.64 61.34 0 -22.83 156.42 -44.35 0 21.02 -115.75c-1.23,4.32 -2.46,8.38 -3.73,12.15 -1.27,3.81 -2.46,7.07 -3.59,9.83l-39.82 93.78 -34.39 0 -12.1 -94.61c-0.29,-2.29 -0.51,-5.26 -0.65,-8.99 -0.15,-3.7 -0.22,-7.76 -0.22,-12.15l-13.26 115.75 -44.79 0zm187.53 0l23.88 -156.42 120.91 0 -5.72 37.27 -72.11 0 -3.48 21.46 64.1 0 -5.62 34.83 -63.92 0 -3.26 25.05 76.74 0 -5.44 37.81 -126.1 0zm127.45 -49.8l48.52 0 0 0.43c0,5.73 1.99,10.15 5.98,13.23 4.02,3.08 9.75,4.6 17.25,4.6 5.54,0 9.75,-1.09 12.65,-3.23 2.89,-2.17 4.35,-5.29 4.35,-9.42 0,-5.08 -6.52,-10.4 -19.53,-15.91 -3.19,-1.34 -5.65,-2.43 -7.43,-3.19 -18.33,-8.08 -30.76,-15.73 -37.32,-22.98 -6.56,-7.28 -9.82,-16.2 -9.82,-26.82 0,-14.86 5.51,-26.5 16.52,-34.84 10.98,-8.37 26.38,-12.54 46.13,-12.54 19.75,0 35.36,4.42 46.92,13.27 11.52,8.84 17.9,21.31 19.1,37.41l-46.71 0c-0.73,-5.33 -2.72,-9.28 -6.05,-11.85 -3.33,-2.58 -8.08,-3.88 -14.2,-3.88 -4.13,0 -7.5,1.02 -10.14,3.08 -2.64,2.07 -3.99,4.61 -3.99,7.65 0,4.61 7.86,10.15 23.55,16.68 6.23,2.61 11.23,4.75 14.97,6.38 12.61,5.51 21.88,11.96 27.83,19.36 5.94,7.39 8.91,16.17 8.91,26.28 0,15.88 -5.87,28.21 -17.61,37.01 -11.78,8.81 -28.3,13.23 -49.61,13.23 -22.14,0 -39.39,-4.75 -51.74,-14.21 -12.36,-9.5 -18.51,-22.73 -18.51,-39.73zm208.76 49.8l23.26 -156.42 60.8 0 10.51 84.53c0.22,1.92 0.36,3.88 0.47,5.95 0.11,2.03 0.18,4.1 0.18,6.16 0,1.85 -0.04,3.23 -0.07,4.17 -0.03,0.98 -0.07,1.88 -0.15,2.72 0.58,-3.95 1.27,-7.5 2.07,-10.62 0.79,-3.12 1.77,-5.87 2.93,-8.27l37.36 -84.64 61.34 0 -22.83 156.42 -44.35 0 21.02 -115.75c-1.23,4.32 -2.46,8.38 -3.73,12.15 -1.27,3.81 -2.46,7.07 -3.59,9.83l-39.82 93.78 -34.39 0 -12.1 -94.61c-0.29,-2.29 -0.51,-5.26 -0.65,-8.99 -0.15,-3.7 -0.22,-7.76 -0.22,-12.15l-13.26 115.75 -44.79 0zm277.97 -122.05c-10.84,0 -19.64,4.97 -26.38,14.94 -6.77,9.93 -10.14,22.95 -10.14,39.04 0,10.77 2.29,18.96 6.89,24.58 4.6,5.62 11.3,8.44 20.07,8.44 10.91,0 19.71,-5.18 26.45,-15.52 6.7,-10.33 10.07,-24.07 10.07,-41.21 0,-9.42 -2.39,-16.82 -7.21,-22.19 -4.82,-5.4 -11.42,-8.08 -19.75,-8.08zm-86.09 53.11c0,-13.01 1.99,-25.05 5.94,-36.1 3.95,-11.02 9.75,-20.7 17.32,-29 8.11,-8.77 17.57,-15.4 28.33,-19.9 10.76,-4.49 22.54,-6.74 35.33,-6.74 23.59,0 42.07,6.52 55.51,19.61 13.44,13.05 20.18,31.03 20.18,53.87 0,12.83 -1.88,24.65 -5.69,35.42 -3.77,10.8 -9.28,20.19 -16.49,28.09 -8.37,9.21 -17.97,16.17 -28.88,20.85 -10.91,4.67 -22.9,7 -35.98,7 -23.3,0 -41.71,-6.56 -55.26,-19.68 -13.55,-13.16 -20.32,-30.96 -20.32,-53.39zm181.15 68.94l17.21 -116.58 -44.39 0 6.6 -39.84 136.49 0 -6.77 39.84 -42.36 0 -16.99 116.58 -49.79 0zm180.64 -122.05c-10.83,0 -19.64,4.97 -26.38,14.94 -6.77,9.93 -10.14,22.95 -10.14,39.04 0,10.77 2.28,18.96 6.89,24.58 4.6,5.62 11.3,8.44 20.07,8.44 10.91,0 19.72,-5.18 26.46,-15.52 6.7,-10.33 10.07,-24.07 10.07,-41.21 0,-9.42 -2.39,-16.82 -7.21,-22.19 -4.82,-5.4 -11.42,-8.08 -19.75,-8.08zm-86.09 53.11c0,-13.01 1.99,-25.05 5.94,-36.1 3.95,-11.02 9.75,-20.7 17.32,-29 8.11,-8.77 17.57,-15.4 28.33,-19.9 10.76,-4.49 22.54,-6.74 35.33,-6.74 23.59,0 42.07,6.52 55.51,19.61 13.45,13.05 20.19,31.03 20.19,53.87 0,12.83 -1.89,24.65 -5.69,35.42 -3.77,10.8 -9.28,20.19 -16.49,28.09 -8.37,9.21 -17.97,16.17 -28.88,20.85 -10.91,4.67 -22.9,7 -35.98,7 -23.3,0 -41.7,-6.56 -55.26,-19.68 -13.55,-13.16 -20.32,-30.96 -20.32,-53.39zm226.19 19.14l48.52 0 0 0.43c0,5.73 2,10.15 5.98,13.23 4.02,3.08 9.75,4.6 17.25,4.6 5.54,0 9.75,-1.09 12.65,-3.23 2.9,-2.17 4.35,-5.29 4.35,-9.42 0,-5.08 -6.52,-10.4 -19.53,-15.91 -3.19,-1.34 -5.65,-2.43 -7.43,-3.19 -18.34,-8.08 -30.76,-15.73 -37.32,-22.98 -6.56,-7.28 -9.82,-16.2 -9.82,-26.82 0,-14.86 5.51,-26.5 16.52,-34.84 10.98,-8.37 26.38,-12.54 46.13,-12.54 19.75,0 35.37,4.42 46.93,13.27 11.52,8.84 17.9,21.31 19.09,37.41l-46.71 0c-0.72,-5.33 -2.72,-9.28 -6.05,-11.85 -3.34,-2.58 -8.08,-3.88 -14.21,-3.88 -4.13,0 -7.5,1.02 -10.14,3.08 -2.64,2.07 -3.98,4.61 -3.98,7.65 0,4.61 7.86,10.15 23.55,16.68 6.23,2.61 11.23,4.75 14.96,6.38 12.61,5.51 21.89,11.96 27.83,19.36 5.95,7.39 8.91,16.17 8.91,26.28 0,15.88 -5.87,28.21 -17.61,37.01 -11.77,8.81 -28.3,13.23 -49.61,13.23 -22.14,0 -39.39,-4.75 -51.74,-14.21 -12.35,-9.5 -18.51,-22.73 -18.51,-39.73zm137.2 49.8l23.44 -156.42 50.01 0 -8.7 53.76 46.09 0 8.26 -53.76 49.79 0 -23.05 156.42 -50.4 0 8.91 -61.04 -45.87 0 -8.7 61.04 -49.79 0zm248.22 -122.05c-10.83,0 -19.64,4.97 -26.38,14.94 -6.77,9.93 -10.14,22.95 -10.14,39.04 0,10.77 2.28,18.96 6.89,24.58 4.6,5.62 11.3,8.44 20.07,8.44 10.91,0 19.72,-5.18 26.46,-15.52 6.7,-10.33 10.07,-24.07 10.07,-41.21 0,-9.42 -2.39,-16.82 -7.21,-22.19 -4.82,-5.4 -11.42,-8.08 -19.75,-8.08zm-86.09 53.11c0,-13.01 1.99,-25.05 5.94,-36.1 3.95,-11.02 9.75,-20.7 17.32,-29 8.11,-8.77 17.57,-15.4 28.33,-19.9 10.76,-4.49 22.54,-6.74 35.33,-6.74 23.59,0 42.07,6.52 55.51,19.61 13.45,13.05 20.19,31.03 20.19,53.87 0,12.83 -1.89,24.65 -5.69,35.42 -3.77,10.8 -9.28,20.19 -16.49,28.09 -8.37,9.21 -17.97,16.17 -28.88,20.85 -10.91,4.67 -22.9,7 -35.98,7 -23.3,0 -41.7,-6.56 -55.26,-19.68 -13.55,-13.16 -20.32,-30.96 -20.32,-53.39zm217.24 -18.45l17.39 0c9.57,0 16.31,-1.38 20.22,-4.1 3.95,-2.72 5.91,-7.21 5.91,-13.52 0,-5.08 -1.7,-8.78 -5.11,-11.1 -3.37,-2.28 -8.81,-3.44 -16.23,-3.44l-16.96 0 -5.22 32.15zm-61.24 87.4l23.44 -156.42 64.32 0c22.1,0 38.38,3.99 48.84,11.96 10.47,7.94 15.73,20.22 15.73,36.79 0,19.18 -5.69,33.53 -17.03,42.99 -11.38,9.5 -28.52,14.25 -51.45,14.25l-27.39 0 -7.1 50.42 -49.35 0z"/>
    </g>
   </g>
  </g>
  <path class="fil3" d="M160.9 0l1939.26 0c88.5,0 160.9,72.4 160.9,160.9l0 1222.76c0,88.49 -72.4,160.89 -160.9,160.89l-1939.26 0c-88.5,0 -160.9,-72.4 -160.9,-160.89l0 -1222.76c0,-88.5 72.4,-160.9 160.9,-160.9z"/>
 </g>
</svg>
