<?xml version="1.0" encoding="UTF-8"?>
<!DOCTYPE svg PUBLIC "-//W3C//DTD SVG 1.1//EN" "http://www.w3.org/Graphics/SVG/1.1/DTD/svg11.dtd">
<!-- Creator: CorelDRAW (Evaluation Version) -->
<svg xmlns="http://www.w3.org/2000/svg" xml:space="preserve" width="52.3314mm" height="35.7481mm" version="1.1" style="shape-rendering:geometricPrecision; text-rendering:geometricPrecision; image-rendering:optimizeQuality; fill-rule:evenodd; clip-rule:evenodd"
viewBox="0 0 21818.54 14904.46"
 xmlns:xlink="http://www.w3.org/1999/xlink"
 xmlns:xodm="http://www.corel.com/coreldraw/odm/2003">
 <defs>
  <style type="text/css">
   <![CDATA[
    .fil4 {fill:none}
    .fil0 {fill:white}
    .fil1 {fill:white}
    .fil2 {fill:#201F1F;fill-rule:nonzero}
    .fil3 {fill:#201F1F;fill-rule:nonzero}
   ]]>
  </style>
   <clipPath id="id0">
    <path d="M1552.61 0l18713.32 0c853.91,0 1552.61,698.65 1552.61,1552.61l0 11799.29c0,853.91 -698.69,1552.56 -1552.61,1552.56l-18713.32 0c-854,0 -1552.61,-698.65 -1552.61,-1552.56l0 -11799.29c0,-853.96 698.61,-1552.61 1552.61,-1552.61z"/>
   </clipPath>
 </defs>
 <g id="Camada_x0020_1">
  <metadata id="CorelCorpID_0Corel-Layer"/>
  <path class="fil0" d="M1552.61 0l18713.32 0c853.91,0 1552.61,698.65 1552.61,1552.61l0 11799.29c0,853.91 -698.69,1552.56 -1552.61,1552.56l-18713.32 0c-854,0 -1552.61,-698.65 -1552.61,-1552.56l0 -11799.29c0,-853.96 698.61,-1552.61 1552.61,-1552.61z"/>
  <g style="clip-path:url(#id0)">
   <g id="_105553211332576">
    <g>
     <path id="_1" class="fil1" d="M18850.62 2273.94c50.28,-137.84 128,-263.54 234.82,-374.32 223.72,-231.94 519.16,-314.45 824.35,-314.45 294.1,0 571.24,83.68 794.04,293.85 221.51,208.97 319.95,485.1 319.95,798.17 0,319.74 -97.48,604.42 -320.37,821.98 -222.93,217.64 -500.32,306.4 -799.63,306.4 -297.48,0 -576.66,-85.26 -801.46,-298.31 -116.66,-110.57 -199.29,-239.69 -251.7,-382.83l0 478.05c0,96.85 -74.09,175.86 -164.9,175.86l-618.02 0c-63.37,0 -118.57,-38.48 -146.13,-94.6 -1.96,3.92 -4.09,7.88 -6.34,11.72 -30.98,53.03 -81.3,82.89 -139.92,82.89l-683.89 0c-66.17,0 -122.66,-38.82 -150.05,-102.98l-171.02 -400.92 0 328.04c0,96.85 -74.09,175.86 -164.85,175.86l-618.06 0c-90.81,0 -164.85,-79.01 -164.85,-175.86l0 -492.69c-52.03,144.97 -134.04,276.22 -249.91,389.37 -222.89,217.64 -500.4,306.4 -799.67,306.4 -297.44,0 -576.66,-85.18 -801.46,-298.31 -223.93,-212.34 -322.58,-492.98 -322.58,-810.1 0,-103.61 10.92,-203.21 33.4,-297.94l-204.67 0 0 1203.26c0,96.85 -74.05,175.86 -164.85,175.86l-584.87 0c-69.96,0 -129.92,-46.86 -153.85,-112.61 -4.75,12.72 -11.01,25.18 -18.8,37.15 -31.77,48.74 -79.63,75.46 -135.38,75.46l-629.61 0c-72.3,0 -133.71,-47.28 -156.52,-120.41l-73.46 -235.9 -311.82 0 -79.68 239.32c-23.81,71.42 -84.26,116.99 -155.35,116.99l-500.4 0c-22.47,0 -43.65,-4.38 -63.12,-12.76 -19.39,8.38 -40.61,12.76 -63.04,12.76l-683.89 0c-66.13,0 -122.66,-38.82 -150.09,-103.07l-170.94 -400.75 0 327.96c0,96.85 -74.05,175.86 -164.85,175.86l-618.02 0c-90.81,0 -164.85,-79.01 -164.85,-175.86l0 -492.81c-52.03,145.01 -134,276.34 -249.95,389.5 -222.93,217.68 -500.36,306.4 -799.67,306.4 -297.44,0 -576.61,-85.26 -801.42,-298.31 -73.3,-69.42 -133.08,-146.22 -180.49,-229.14 -29.1,104.73 -81.84,199.96 -155.18,284.64 -165.19,190.62 -482.89,215.59 -710.53,215.59l-958.19 0c-33.27,0 -64.33,-10.63 -90.35,-28.93 -26.31,18.93 -57.41,28.93 -91.52,28.93l-629.65 0c-72.25,0 -133.67,-47.28 -156.39,-120.37l-73.55 -235.94 -311.86 0 -79.63 239.32c-23.81,71.42 -84.3,116.99 -155.39,116.99l-500.44 0c-8.05,0 -15.89,-0.58 -23.6,-1.71 -7.38,1.13 -14.97,1.71 -22.6,1.71l-1410.97 0c-90.81,0 -164.85,-79.01 -164.85,-175.86l0 -1814.35c0,-96.85 74.05,-175.82 164.85,-175.82l618.06 0c90.81,0 164.85,78.97 164.85,175.82l0 1192.38 628.06 0c27.73,0 53.91,7.42 76.92,20.43l436.48 -1273.22c24.22,-70.63 84.3,-115.41 154.85,-115.41l652.25 0c70.25,0 130.04,44.36 154.51,114.57l495.1 1419.98 0 -1358.73c0,-96.85 74.05,-175.82 164.85,-175.82l1021.02 0c202.46,0 423.02,39.32 576.61,191.79 104.9,104.23 174.57,231.35 193.21,378.49 48.61,-102.4 113.91,-197.17 196.67,-282.97 223.72,-231.94 519.12,-314.45 824.31,-314.45 294.1,0 571.19,83.68 794,293.85 115.49,108.94 197.5,236.02 249.62,377.2l0 -468.09c0,-96.85 74.05,-175.82 164.85,-175.82l1050.21 0c219.93,0 453.04,40.36 635.57,179.82 168.19,128.46 260.83,309.2 260.83,530.54 0,132.29 -29.94,258.58 -96.02,370.94 -49.45,84.01 -123.79,148.93 -205.46,200.04l192.75 418.72 543.22 -1584.67c24.22,-70.63 84.3,-115.41 154.85,-115.41l652.25 0c70.25,0 130.04,44.36 154.51,114.57l621.27 1781.79 0 -1109.45 -251.2 0c-90.81,0 -164.85,-79.01 -164.85,-175.86l0 -435.23c0,-96.85 74.05,-175.82 164.85,-175.82l1416.94 0c90.81,0 164.9,78.97 164.9,175.82l0 180.07c19.1,-23.43 39.4,-46.28 60.91,-68.59 128.12,-132.88 279.72,-216.64 443.28,-264.04l-47.2 -112.45c-18.89,-45.03 -19.8,-91.02 -2.71,-136.88 17.14,-45.78 47.45,-78.55 90.18,-97.39l673.3 -296.98c82.55,-36.44 177.53,4.17 213.72,91.31l107.48 258.91c19.93,47.95 19.55,97.6 -1.17,145.22 -20.76,47.61 -56.08,79.97 -103.27,94.68l-175.86 54.87c152.97,45.86 295.35,124 420.64,242.15 115.41,108.86 197.46,235.98 249.53,376.99l0 -467.88c0,-96.85 74.05,-175.82 164.85,-175.82l1050.25 0c219.93,0 453.08,40.32 635.61,179.82 111.2,84.97 189.41,192.87 229.56,320.2l0 -324.2c0,-96.85 74.05,-175.82 164.85,-175.82l618.02 0c90.81,0 164.9,78.97 164.9,175.82l0 485.81zm-947.77 270.67c-15.43,51.74 -36.86,101.56 -64.75,148.97 -49.41,84.05 -123.7,148.97 -205.5,200.08l270.25 586.95 0 -936.01zm-11639.31 60.75c-3.42,4.79 -7,9.51 -10.55,14.13 -5.17,6.75 -10.42,13.3 -15.89,19.72 8.17,6.96 16.14,14.05 23.93,21.43 0.46,-18.55 1.29,-36.98 2.5,-55.28zm1118.54 437.78c34.27,0 65.46,-4.09 84.01,-37.27 41.03,-73.63 45.61,-277.05 45.61,-360.39 0,-87.93 3.96,-297.94 -118.03,-297.94 -142.84,0 -140.13,264.38 -140.13,364.61 0,93.14 -3.09,331 128.54,331zm7388.38 0c34.27,0 65.46,-4.17 83.93,-37.36 41.11,-73.71 45.7,-276.88 45.7,-360.31 0,-87.85 3.96,-297.94 -118.03,-297.94 -142.97,0 -140.17,264.29 -140.17,364.61 0,93.27 -3.13,331 128.58,331zm5130.78 0c34.27,0 65.46,-4.17 83.93,-37.36 41.07,-73.71 45.7,-276.88 45.7,-360.31 0,-87.85 3.96,-297.94 -118.03,-297.94 -142.97,0 -140.21,264.29 -140.21,364.61 0,93.27 -3.09,331 128.62,331zm-16675.29 1179.87l0 4874.66c0,96.85 -74.05,175.86 -164.85,175.86l-1922.55 0c-90.81,0 -164.85,-79.01 -164.85,-175.86l0 -4874.66c0,-96.85 74.05,-175.86 164.85,-175.86l1922.55 0c90.81,0 164.85,79.01 164.85,175.86zm3037 3281.87l0 1592.8c0,96.85 -74.09,175.86 -164.9,175.86l-1950.69 0c-90.77,0 -164.85,-79.01 -164.85,-175.86l0 -4874.66c0,-96.85 74.09,-175.86 164.85,-175.86l2669.69 0c493.06,0 1097.9,24.85 1569.99,187.58 343.05,118.24 656.08,307.44 896.52,597.88 221.89,268.04 346.09,582.37 346.09,941.01 0,557.39 -265.29,975.74 -697.23,1274.22 -511.99,353.89 -1150.14,457.04 -1749.65,457.04l-919.83 0zm-28.18 -1396.76l472.88 0c195.75,0 679.18,-6.13 679.18,-317.41 0,-283.6 -436.28,-288.31 -615.06,-288.31l-537.01 0 0 605.72zm6536.8 2208.02l-1478.43 0 -326.87 848.37c-25.89,67.38 -84.22,109.03 -152.47,109.03l-1556.86 0c-56.99,0 -105.98,-28.06 -137.42,-78.72 -31.48,-50.66 -36.61,-109.74 -14.38,-165.69l1935.14 -4874.71c26.35,-66.42 84.14,-107.28 151.8,-107.28l2028.82 0c67.33,0 124.83,40.4 151.39,106.28l1967.87 4874.71c22.6,55.99 17.72,115.36 -13.72,166.19 -31.39,50.95 -80.51,79.22 -137.71,79.22l-1958.45 0c-69.59,0 -128.87,-43.49 -153.85,-112.7l-304.86 -844.7zm-1002.09 -1418.73l523.37 0 -262.5 -738.42 -260.87 738.42zm7237.2 168.23l1753.82 81.68c48.32,2.25 89.14,23.97 119.95,63.79 30.77,39.82 43.03,86.64 35.94,137.71 -90.31,648.53 -402.34,1149.81 -925.29,1494.03 -562.61,370.4 -1214.23,503.78 -1868.39,503.78 -771.49,0 -1538.47,-176.28 -2155.82,-694.15 -585.24,-491.02 -846.08,-1162.48 -846.08,-1950.73 0,-780.99 246.16,-1458.05 796.21,-1980.29 599.84,-569.57 1394.63,-747.35 2177.54,-747.35 685.22,0 1444.04,117.87 2006.02,568.86 478.89,384.37 754.06,901.69 816.64,1537.51 4.96,50.16 -8.3,95.31 -39.23,133.42 -30.98,38.11 -70.96,58.66 -118.16,60.62l-1791.3 75.55c-46.49,1.96 -87.26,-14.55 -120.74,-48.95 -33.56,-34.4 -50.66,-77.09 -50.66,-126.75 0,-197.92 -31.31,-433.98 -181.2,-570.28 -131.96,-119.99 -284.3,-174.78 -457.33,-174.78 -650.2,0 -738.59,689.19 -738.59,1246.87 0,263.42 19.93,756.27 193.5,966.78 139.84,169.69 329.96,226.48 537.21,226.48 421.93,0 634.4,-203 685.1,-649.29 10.42,-91.43 84.64,-158.52 170.86,-154.51z"/>
     <path class="fil2" d="M2443.88 3156.37l0 446.12 -1410.97 0 0 -1814.31 618.02 0 0 1368.2 792.96 0zm1323.46 446.12l-111.03 -356.35 -547.22 0 -118.57 356.35 -500.44 0 622.06 -1814.31 652.16 0 632.57 1814.31 -629.52 0zm-546.18 -753.48l321.58 0 -161.31 -525.46 -160.27 525.46zm1357.61 753.48l0 -1814.31 1021.06 0c212.05,0 366.77,48.07 464.29,144.63 96.94,96.52 145.72,206.71 145.72,330.5 0,90.22 -28.14,171.82 -84.43,244.78 -55.79,73 -139.67,123.33 -250.74,151.01 259.79,56.62 389.41,197.62 389.41,422.93 0,135.13 -45.7,255.2 -137.67,361.31 -91.93,106.07 -288.39,159.14 -589.46,159.14l-958.19 0zm566.82 -1120.71l287.93 0c72.34,0 123.12,-16.3 152.76,-48.95 29.64,-32.6 44.69,-67.54 44.69,-104.73 0,-100.61 -69.34,-150.93 -208.01,-150.93l-277.38 0 0 304.61zm0 718.12l302.98 0c75.38,0 130.62,-16.76 165.81,-50.28 35.15,-33.15 52.74,-71.25 52.74,-112.9 0,-42.19 -17.05,-80.72 -51.2,-115.66 -34.19,-35.36 -97.02,-52.99 -187.99,-52.99l-282.35 0 0 331.83zm2238.96 429.77c-282.85,0 -513.49,-84.76 -691.85,-253.87 -178.4,-169.11 -267.34,-395.29 -267.34,-678.68 0,-270.67 85.43,-494.6 255.74,-671.42 170.32,-176.32 407.01,-264.71 709.49,-264.71 279.93,0 508.49,83.39 684.89,249.74 176.36,166.44 264.25,388.54 264.25,666.46 0,287.89 -88.89,518.62 -266.79,692.27 -177.86,173.65 -406.97,260.21 -688.39,260.21zm-2.5 -410.72c104.48,0 179.91,-41.23 225.64,-123.33 45.7,-82.05 68.79,-232.1 68.79,-450.16 0,-315.99 -94.48,-473.8 -282.85,-473.8 -203.55,0 -304.98,179.99 -304.98,540.42 0,337.76 97.94,506.86 293.39,506.86zm3004.77 383.53l-683.81 0 -295.98 -693.65 -190 0 0 693.65 -618.02 0 0 -1814.31 1050.25 0c231.6,0 411.43,48.95 539.59,146.88 128.12,97.94 191.95,227.14 191.95,387.62 0,104.73 -23.64,197.21 -70.92,277.47 -47.15,80.22 -142.63,150.93 -286.85,212.18l363.77 790.17zm-1169.78 -1079.89l263.83 0c77.42,0 139.67,-14.51 186.91,-43.94 47.24,-29.52 70.88,-72.59 70.88,-129.67 0,-116.53 -78.92,-174.57 -237.15,-174.57l-284.47 0 0 348.18zm2573.21 1079.89l-111.11 -356.35 -547.18 0 -118.53 356.35 -500.52 0 622.06 -1814.31 652.25 0 632.57 1814.31 -629.52 0zm-546.22 -753.48l321.58 0 -161.27 -525.46 -160.31 525.46zm2068.68 -625.6l0 1379.08 -584.87 0 0 -1379.08 -416.05 0 0 -435.23 1417.02 0 0 435.23 -416.1 0zm1460.17 1406.26c-282.89,0 -513.49,-84.76 -691.85,-253.87 -178.4,-169.11 -267.38,-395.29 -267.38,-678.68 0,-270.67 85.47,-494.6 255.79,-671.42 170.32,-176.32 407.01,-264.71 709.49,-264.71 279.89,0 508.49,83.39 684.89,249.74 176.28,166.44 264.25,388.54 264.25,666.46 0,287.89 -88.89,518.62 -266.79,692.27 -177.9,173.65 -406.97,260.21 -688.39,260.21zm-2.5 -410.72c104.48,0 179.91,-41.23 225.56,-123.33 45.78,-82.05 68.88,-232.1 68.88,-450.16 0,-315.99 -94.48,-473.8 -282.85,-473.8 -203.55,0 -304.98,179.99 -304.98,540.42 0,337.76 97.94,506.86 293.39,506.86zm-269.38 -1767.62l673.34 -296.98 107.57 258.87 -704.49 219.89 -76.42 -181.78zm3274.11 2151.15l-683.85 0 -295.9 -693.65 -190 0 0 693.65 -618.02 0 0 -1814.31 1050.16 0c231.65,0 411.51,48.95 539.67,146.88 128.12,97.94 191.91,227.14 191.91,387.62 0,104.73 -23.64,197.21 -70.88,277.47 -47.2,80.22 -142.67,150.93 -286.85,212.18l363.73 790.17zm-1169.74 -1079.89l263.83 0c77.42,0 139.67,-14.51 186.91,-43.94 47.24,-29.52 70.84,-72.59 70.84,-129.67 0,-116.53 -78.88,-174.57 -237.11,-174.57l-284.47 0 0 348.18zm2080.19 -734.42l0 1814.31 -618.02 0 0 -1814.31 618.02 0zm1217.98 1841.5c-282.89,0 -513.49,-84.76 -691.85,-253.87 -178.4,-169.11 -267.34,-395.29 -267.34,-678.68 0,-270.67 85.43,-494.6 255.74,-671.42 170.32,-176.32 407.01,-264.71 709.49,-264.71 279.93,0 508.49,83.39 684.89,249.74 176.36,166.44 264.25,388.54 264.25,666.46 0,287.89 -88.89,518.62 -266.84,692.27 -177.86,173.65 -406.92,260.21 -688.35,260.21zm-2.5 -410.72c104.48,0 179.91,-41.23 225.64,-123.33 45.7,-82.05 68.79,-232.1 68.79,-450.16 0,-315.99 -94.48,-473.8 -282.89,-473.8 -203.5,0 -304.94,179.99 -304.94,540.42 0,337.76 97.94,506.86 293.39,506.86z"/>
     <path class="fil3" d="M3061.1 4223.04l0 4874.66 -1922.59 0 0 -4874.66 1922.59 0zm3036.96 3106.05l0 1768.62 -1950.65 0 0 -4874.66 2669.65 0c665.84,0 1172.32,59.66 1519.38,179.03 345.34,119.41 620.48,300.9 823.69,546.93 203.17,244.82 304.73,520.12 304.73,824.6 0,465.29 -207.88,840.45 -622.06,1126.71 -414.18,286.22 -967.53,428.77 -1659.92,428.77l-1084.81 0zm-28.1 -1045.12l637.69 0c562.73,0 844.08,-164.4 844.08,-493.31 0,-309.36 -259.5,-464.04 -779.95,-464.04l-701.82 0 0 957.35zm7160.23 2813.74l-345.43 -957.35 -1702.12 0 -368.94 957.35 -1556.73 0 1935.01 -4874.66 2028.82 0 1967.87 4874.66 -1958.49 0zm-1699.07 -2024.4l1000.38 0 -501.69 -1411.73 -498.69 1411.73zm7468.26 168.11l1753.77 81.59c-82.84,595.63 -365.73,1052.41 -848.74,1370.32 -482.97,317.91 -1076.93,477.43 -1781.83,477.43 -848.74,0 -1533.43,-219.22 -2053.88,-656.46 -522.04,-437.32 -783.12,-1042.7 -783.12,-1812.52 0,-763.69 246.95,-1380.04 740.97,-1849 493.9,-468.96 1183.21,-702.86 2067.85,-702.86 826.86,0 1463.01,177.86 1906.91,533.55 442.36,355.68 693.98,828.27 751.85,1415.39l-1791.26 75.51c0,-325.21 -79.68,-559.1 -239.11,-704.03 -159.43,-144.97 -348.6,-216.85 -564.31,-216.85 -601.8,0 -903.45,473.84 -903.45,1422.69 0,531.09 78.17,892.86 234.48,1082.89 157.89,191.2 378.2,286.26 661.13,286.26 504.9,0 787.83,-268 848.74,-803.92z"/>
     <path class="fil1" d="M18059.41 12648.03c21.05,-84.09 66.63,-156.52 135.63,-214.43 103.02,-86.51 229.52,-117.57 358.6,-117.57 228.89,0 422.23,90.89 503.32,330.83 8.71,25.85 6.67,51.78 -5.96,75.71 -12.67,23.93 -32.4,39.23 -57.66,44.69l-53.91 11.59c32.81,24.47 61.79,54.7 86.89,89.6 51.24,71.3 74.05,155.14 74.05,244.61 0,140.59 -53.2,257.91 -159.02,342.17 -113.03,90.06 -256.79,117.53 -395,117.53 -199.83,0 -370.4,-65.21 -471.55,-224.35 3.42,28.23 9.01,56.04 17.55,82.01 9.55,28.81 5.71,58.12 -10.84,83.05 -16.55,24.93 -41.15,38.52 -69.84,38.52l-338.34 0c-30.94,0 -58.12,-17.01 -73.17,-43.74 -66.54,43.4 -144.72,64.5 -231.65,64.5 -113.45,0 -225.02,-30.85 -303.86,-122.79 -29.81,-34.73 -53.45,-72.55 -70.5,-113.07 -21.18,34.61 -46.32,67.04 -75.76,96.85 -98.19,99.52 -223.18,139 -356.98,139 -155.85,0 -293.56,-55.41 -400.54,-177.53 -57.41,-65.5 -97.1,-139.63 -121.7,-219.85l0 285.35c0,50.28 -38.4,91.27 -85.55,91.27l-356.6 0c-47.15,0 -85.55,-40.98 -85.55,-91.27l0 -1032.65c0,-13.72 2.88,-26.73 8.01,-38.48 -5.13,-11.67 -8.01,-24.68 -8.01,-38.4l0 -319.99c0,-50.28 38.4,-91.27 85.55,-91.27l356.6 0c47.15,0 85.55,40.98 85.55,91.27l0 319.99c0,13.72 -2.88,26.73 -8.01,38.4 5.13,11.76 8.01,24.77 8.01,38.48l0 295.23c24.22,-80.97 63.21,-156.22 119.58,-223.22 105.69,-125.54 242.65,-184.07 399.63,-184.07 134.84,0 258.79,41.61 357.52,141.42 44.69,45.15 79.8,95.89 105.73,151.43 90.14,-216.09 295.19,-292.85 525.58,-292.85 74.84,0 149.89,8.09 222.52,27.81 66.96,18.14 131.42,48.49 182.53,99.1 42.07,41.65 76.8,91.18 94.93,149.76 5.17,16.64 9.17,35.44 12.22,55.33zm10.42 257.2l0 173.73c2.38,-0.63 4.88,-1.13 7.34,-1.46l92.43 -14.34c-13.47,-11.76 -25.56,-24.56 -35.94,-38.44 -27.6,-37.11 -49.07,-77.09 -63.83,-119.49zm-995 -81.93c-0.75,19.6 -7.34,37.44 -19.6,53.2 -15.13,19.51 -34.73,30.48 -58.37,32.73l-312.74 29.48c-45.78,4.34 -86.55,-30.73 -92.39,-79.34 -1.96,-16.51 -10.38,-74.63 -27.14,-84.64 -1.54,1.5 -2.71,5.21 -3.59,7.17 -16.72,37.69 -18.3,126 -18.3,167.02 0,40.78 2.13,111.2 18.55,148.89 0.67,1.54 2.38,5.25 3.67,6.42 2.08,1.21 8.26,1.42 10.51,1.42 21.6,0 27.43,-59.29 29.1,-73.75 5.67,-48.78 46.7,-84.05 92.64,-79.63l303.57 29.44c1.79,0.17 3.54,0.38 5.3,0.67 28.23,-55.95 69.54,-104.61 122.49,-145.51 3,-2.25 6,-4.54 9.05,-6.71l-62.75 -6.84zm-3122.56 -481.89c-6.3,-8.09 -11.26,-17.47 -14.8,-28.18l-46.28 -138.88c-14.43,-43.24 2.96,-90.35 41.07,-111.53l408.42 -226.81c22.76,-12.63 47.03,-14.01 70.96,-3.92 23.85,10.05 40.73,28.73 49.28,54.58l65.17 197.75c15.47,46.95 -7.34,98.65 -51.12,115.86l-347.39 136.54 208.13 0c47.11,0 85.51,40.98 85.51,91.27l0 1032.65c0,50.28 -38.4,91.27 -85.51,91.27l-356.68 0c-47.11,0 -85.55,-40.98 -85.55,-91.27l0 -1032.65c0,-40.32 24.68,-74.63 58.79,-86.68zm-597.34 837.49c-31.31,88.22 -79.01,168.48 -148.01,234.73 -113.95,109.32 -251.99,159.14 -404.76,159.14 -183.78,0 -343.22,-69.04 -464.96,-217.89 -130.75,-159.93 -173.78,-367.9 -173.78,-575.32 0,-207.55 41.44,-414.09 162.27,-581.37 117.24,-162.31 280.43,-235.36 471.05,-235.36 165.06,0 321.41,48.49 435.02,181.45 55.87,65.37 95.89,139.71 123.16,219.56l0 -289.02c0,-50.28 38.4,-91.22 85.51,-91.22l351.1 0c47.15,0 85.55,40.94 85.55,91.22l0 1385.92c0,50.28 -38.4,91.27 -85.55,91.27l-351.1 0c-47.11,0 -85.51,-40.98 -85.51,-91.27l0 -281.84zm0 -303.86l0 -185.74c-10.51,5.84 -22.14,9.21 -34.86,9.96l-349.26 21.43c-24.39,1.54 -45.9,-6.88 -63.67,-24.77 -17.76,-17.89 -26.81,-40.28 -26.81,-66.33 0,-38.77 -3.54,-110.9 -27.73,-142.92 -11.38,-15.05 -24.52,-27.6 -43.36,-27.6 -89.26,0 -90.68,257.58 -90.68,313.24 0,61.25 2.92,206.84 33.44,260.75 13.8,24.43 28.52,37.27 55.7,37.27 67.71,0 75.92,-89.35 80.22,-144.84 3.88,-49.53 44.24,-86.72 90.68,-83.55l342.01 23.18c12.51,0.88 23.97,4.17 34.31,9.92zm-2601.64 -222.89c20.64,-85.93 66.58,-159.68 136.67,-218.6 103.11,-86.47 229.56,-117.53 358.64,-117.53 228.89,0 422.23,90.89 503.28,330.83 8.71,25.85 6.67,51.78 -5.92,75.71 -12.67,23.93 -32.4,39.23 -57.66,44.69l-53.91 11.59c32.81,24.47 61.75,54.7 86.89,89.6 51.24,71.25 74.05,155.14 74.05,244.61 0,140.59 -53.28,257.91 -159.06,342.17 -113.07,90.06 -256.79,117.53 -395,117.53 -217.3,0 -400,-77.09 -496.52,-268.38 -30.35,52.07 -69.29,98.65 -115.61,139.84 -107.73,95.81 -244.28,128.54 -381.82,128.54 -163.39,0 -312.66,-51.78 -427.56,-178.45 -36.31,-39.98 -66.21,-83.18 -89.93,-129 -25.22,74.21 -70.29,138.25 -135.13,189.91 -113.07,90.1 -256.79,117.53 -395.04,117.53 -204.17,0 -377.7,-68.04 -478.01,-234.77l0 122.74c0,50.28 -38.4,91.27 -85.55,91.27l-356.6 0c-47.15,0 -85.55,-40.98 -85.55,-91.27l0 -1032.65c0,-13.72 2.88,-26.73 8.01,-38.48 -5.13,-11.67 -8.01,-24.68 -8.01,-38.4l0 -319.99c0,-50.28 38.4,-91.27 85.55,-91.27l356.6 0c47.15,0 85.55,40.98 85.55,91.27l0 319.99c0,13.72 -2.88,26.73 -8.01,38.4 5.13,11.76 8.01,24.77 8.01,38.48l0 189.37c23.72,-71.21 66.25,-133.08 126.75,-183.91 103.02,-86.47 229.48,-117.53 358.56,-117.53 228.89,0 422.27,90.89 503.32,330.83 2.38,7.17 4,14.3 4.79,21.43 24.85,-58.08 58.29,-112.57 100.9,-162.85 111.61,-131.71 258.2,-189.41 423.43,-189.41 159.73,0 302.77,54.08 413.93,178.24 42.86,47.91 75.67,101.02 99.98,157.89zm57.74 347.26c-0.17,9.09 -0.42,18.22 -0.63,27.35 -0.33,15.43 -4.34,29.81 -10.97,42.4 0.71,1.25 1.33,2.54 1.96,3.79l63.16 -9.8c-13.47,-11.76 -25.6,-24.56 -35.94,-38.44 -6.17,-8.34 -12.05,-16.76 -17.59,-25.31zm-1123.42 -254.08c-11.17,11.05 -24.93,18.51 -40.98,21.93l-53.91 11.59c27.02,20.14 51.45,44.15 73.21,71.46 4.71,-35.94 11.88,-70.96 21.68,-104.98zm-965.99 155.39l0 178.57c2.88,-0.71 5.84,-1.33 8.84,-1.79l92.48 -14.34c-13.47,-11.76 -25.56,-24.56 -35.9,-38.44 -28.64,-38.44 -50.62,-79.84 -65.42,-124zm1495.53 214.93c0.71,1.46 1.42,2.88 2.21,4.17 6.5,5.38 30.02,6.59 37.69,6.59 17.8,0 29.19,-3.21 36.86,-10.76l-76.76 0zm-2561.87 286.47l0 -1327.3c0,-50.28 38.4,-91.22 85.55,-91.22l351.14 0c47.15,0 85.55,40.94 85.55,91.22l0 1385.92c0,50.28 -38.4,91.27 -85.55,91.27l-351.14 0c-35.48,0 -66.08,-23.26 -79.01,-56.24 -2.42,6.05 -5.55,12.01 -9.34,17.68 -16.55,24.97 -41.19,38.57 -69.84,38.57l-338.34 0c-30.94,0 -58.12,-17.01 -73.21,-43.74 -66.5,43.4 -144.72,64.5 -231.65,64.5 -113.45,0 -225.02,-30.89 -303.82,-122.79 -29.31,-34.15 -52.7,-71.25 -69.67,-111.07l0 121.83c0,50.28 -38.4,91.27 -85.55,91.27l-356.64 0c-47.11,0 -85.55,-40.98 -85.55,-91.27l0 -650.04c0,-1.46 0,-3.09 -0.04,-4.96 -1.54,13.63 -1.96,27.73 -1.96,34.44l0 620.56c0,50.28 -38.4,91.27 -85.55,91.27l-356.6 0c-18.01,0 -34.73,-5.96 -48.53,-16.14 -14.01,10.55 -30.64,16.14 -48.99,16.14l-381.91 0c-39.36,0 -72.67,-27.35 -82.72,-67.92l-50.57 -204.25 -201.25 0 -54.41 205.71c-10.55,39.9 -43.44,66.46 -82.34,66.46l-303.57 0c-27.81,0 -51.7,-12.72 -68.42,-36.44 -16.72,-23.72 -21.51,-51.78 -13.76,-80.26l377.36 -1385.96c10.8,-39.52 43.53,-65.75 82.18,-65.75l395.62 0c38.48,0 71.13,25.97 82.05,65.42l313.7 1132.88 0 -753.81c0,-50.28 38.4,-91.27 85.55,-91.27l331.04 0c25.22,0 47.95,11.8 63.62,30.39 56.54,-34.44 123.37,-51.2 197.54,-51.2 74.01,0 146.68,15.47 210.92,55.99 57.83,36.48 103.9,86.8 131.83,152.3 21.18,49.57 30.35,114.32 34.27,176.53 48.86,-211.55 185.87,-320.45 359.06,-362.94 -5.13,-7.25 -9.17,-15.51 -12.26,-24.68l-46.32 -138.88c-14.43,-43.19 2.96,-90.35 41.07,-111.53l408.42 -226.81c22.76,-12.63 47.03,-14.01 70.96,-3.92 23.85,10.01 40.69,28.68 49.24,54.53l65.25 197.75c15.55,46.95 -7.25,98.69 -51.07,115.91l-295.85 116.32c63.62,2.13 127.12,10.46 188.87,27.23 66.96,18.14 131.42,48.49 182.49,99.1 42.11,41.65 76.8,91.14 94.98,149.72 22.01,71.09 22.6,180.49 22.6,255.16l0 412.05c0,46.4 3.38,96.31 14.55,142.26zm-1089.52 -634.48c0.17,11.22 0.21,22.01 0.21,32.35l0 206.13c27.89,-66 73.13,-122.7 133.46,-169.27 3,-2.25 6.05,-4.54 9.09,-6.71l-72.71 -7.92c-25.31,-2.71 -46.07,-15.55 -60.87,-37.57 -3.67,-5.5 -6.71,-11.13 -9.17,-17.01zm12481.55 -2205.35c84.01,-236.4 296.23,-319.45 535.84,-319.45 74.84,0 149.89,8.09 222.52,27.81 66.96,18.14 131.42,48.49 182.53,99.06 42.07,41.65 76.8,91.22 94.93,149.8 22.01,71.13 22.64,180.45 22.64,255.12l0 412.05c0,56.12 4.96,117.32 22.51,170.57 9.55,28.81 5.71,58.12 -10.84,83.05 -16.55,24.93 -41.15,38.52 -69.84,38.52l-338.34 0c-30.94,0 -58.12,-17.01 -73.17,-43.78 -66.54,43.44 -144.72,64.54 -231.65,64.54 -113.4,0 -225.02,-30.85 -303.86,-122.79 -27.81,-32.4 -50.24,-67.42 -66.96,-104.94 -25.02,41.15 -57.7,78.05 -97.98,110.19 -113.07,90.06 -256.79,117.53 -395,117.53 -204.17,0 -377.74,-68.04 -478.05,-234.77l0 122.74c0,50.28 -38.4,91.27 -85.55,91.27l-356.6 0c-47.11,0 -85.55,-40.98 -85.55,-91.27l0 -1032.65c0,-13.76 2.88,-26.77 8.01,-38.48 -5.13,-11.67 -8.01,-24.68 -8.01,-38.4l0 -319.99c0,-50.28 38.44,-91.27 85.55,-91.27l356.6 0c47.15,0 85.55,40.98 85.55,91.27l0 319.99c0,13.72 -2.84,26.73 -7.96,38.4 5.13,11.72 7.96,24.72 7.96,38.48l0 189.37c23.77,-71.21 66.29,-133.08 126.75,-183.91 103.07,-86.51 229.48,-117.53 358.6,-117.53 225.23,0 416.05,88.01 499.36,319.45zm-22.18 113.11c-10.46,9.26 -23.1,15.55 -37.48,18.64l-53.91 11.59c32.81,24.52 61.79,54.7 86.93,89.6 17.39,24.22 31.56,49.99 42.61,76.84 26.31,-40.61 60.29,-76.84 101.19,-108.4 3,-2.25 6,-4.54 9.05,-6.75l-72.71 -7.88c-25.27,-2.75 -46.07,-15.55 -60.87,-37.61 -7.55,-11.3 -12.51,-23.35 -14.8,-36.02zm-962.52 152.14l0 178.57c2.88,-0.71 5.84,-1.38 8.88,-1.83l92.48 -14.3c-13.47,-11.8 -25.6,-24.56 -35.94,-38.48 -28.6,-38.4 -50.62,-79.84 -65.42,-123.95zm-2683.07 -250.12c17.18,-47.32 39.32,-93.02 66.96,-136.38 87.68,-137.38 218.89,-198.21 372.9,-198.21 97.06,0 184.07,25.89 252.99,82.76 0.04,-0.17 0.13,-0.38 0.17,-0.54 12.17,-37.4 43.74,-61.41 80.84,-61.41l206.38 0c26.52,0 49.32,11.51 66.17,33.35 16.8,21.85 22.93,47.99 17.72,75.76 -6.96,37.36 -7.17,84.39 -7.17,122.37l0 1218.65c0,50.28 -38.4,91.27 -85.55,91.27l-351.14 0c-47.15,0 -85.55,-40.98 -85.55,-91.27l0 -236.73c-39.19,15.26 -82.51,22.56 -128.75,22.56 -143.13,0 -261.29,-62.62 -342.88,-188.66 -20.47,-31.69 -37.69,-64.87 -51.91,-99.27 -26.18,65.96 -68.88,123.37 -127.96,170.4 -113.07,90.06 -256.83,117.53 -395.04,117.53 -217.39,0 -400,-77.17 -496.52,-268.38 -30.35,52.07 -69.29,98.65 -115.61,139.84 -107.73,95.81 -244.28,128.54 -381.82,128.54 -163.39,0 -312.66,-51.78 -427.56,-178.45 -109.49,-120.66 -160.56,-269.67 -160.56,-437.11 0,-31.06 1.63,-61.54 4.92,-91.43 -10.26,12.59 -21.18,24.77 -32.9,36.52 -105.23,105.98 -239.78,146.84 -382.41,146.84l-126.04 0 0 411.59c0,50.28 -38.4,91.27 -85.55,91.27l-380.32 0c-47.15,0 -85.55,-40.98 -85.55,-91.27l0 -1385.92c0,-50.28 38.4,-91.27 85.55,-91.27l520.54 0c107.32,0 234.48,10.17 332.79,59.66 83.51,41.94 149.47,106.53 197.33,190.75 48.86,85.97 71.75,181.2 71.75,281.72 0,13.01 -0.33,25.85 -1,38.61 11.63,-16.68 24.14,-33.02 37.65,-48.91 111.57,-131.71 258.25,-189.37 423.43,-189.37 159.73,0 302.73,54.08 413.89,178.2 42.9,47.91 75.76,101.06 100.06,158.02 20.6,-85.97 66.5,-159.77 136.63,-218.68 103.11,-86.55 229.52,-117.53 358.64,-117.53 228.89,0 422.23,90.89 503.28,330.83 0.42,1.25 0.83,2.5 1.21,3.75zm-28.43 98.94c-10.3,8.76 -22.47,14.72 -36.4,17.68l-53.87 11.59c27.48,20.55 52.37,45.15 74.46,73.09 3.29,-34.61 8.51,-68.79 15.8,-102.36zm-913.62 249.87c-0.17,9.13 -0.38,18.26 -0.58,27.35 -0.33,15.38 -4.34,29.81 -10.97,42.4 0.71,1.25 1.33,2.5 1.92,3.75l63.16 -9.76c-13.47,-11.8 -25.6,-24.56 -35.94,-38.48 -6.17,-8.26 -12.01,-16.68 -17.59,-25.27zm-593.88 116.24c0.67,1.46 1.42,2.88 2.17,4.17 6.55,5.38 30.06,6.55 37.73,6.55 17.84,0 29.19,-3.17 36.86,-10.72l-76.76 0zm-3204.57 -380.45c25.43,-83.47 66.71,-160.6 125.29,-229.81 111.61,-131.71 258.29,-189.37 423.43,-189.37 159.77,0 302.77,54.08 413.89,178.2 115.45,128.96 158.14,296.1 158.14,471.3 0,20.39 -0.42,40.82 -0.96,61.25 -0.33,15.38 -4.29,29.81 -10.92,42.4 10.42,19.22 13.59,40.65 9.21,63.25 -24.1,126.04 -87.22,229.65 -179.61,311.82 -107.78,95.81 -244.24,128.54 -381.78,128.54 -163.39,0 -312.66,-51.78 -427.56,-178.45 -60.37,-66.58 -103.02,-141.76 -129.12,-223.93l0 290.35c0,50.28 -38.4,91.27 -85.55,91.27l-334.71 0c-23.81,0 -45.4,-10.51 -61,-27.39 -52.57,31.98 -114.16,48.16 -183.12,48.16 -133.79,0 -243.24,-61.83 -323.08,-175.9 -90.6,-129.46 -114.53,-302.15 -114.53,-459.75 0,-156.39 27.14,-318.08 114.16,-447.57 79.88,-118.95 191.25,-183.91 328.92,-183.91 49.11,0 94.77,9.21 136.63,27.06l0 -257.87c0,-50.28 38.44,-91.27 85.55,-91.27l351.18 0c47.15,0 85.55,40.98 85.55,91.27l0 660.38zm526.54 380.45c0.67,1.46 1.38,2.88 2.17,4.17 6.55,5.38 30.02,6.55 37.73,6.55 17.84,0 29.14,-3.17 36.86,-10.72l-76.76 0zm-3075.36 -535.96c18.14,-28.35 38.86,-55.58 62.16,-81.47 113.82,-126.54 259.58,-182.2 422.89,-182.2 162.1,0 308.7,53.53 422.14,180.28 110.19,123.12 159.89,275.13 159.89,444.61 0,171.15 -50.57,324.29 -161.6,448.7 -114.86,128.75 -263.54,183.16 -428.69,183.16 -165.19,0 -312.03,-57.41 -422.68,-190.33 -19.97,-23.93 -37.98,-48.74 -54.12,-74.42l0 142.34c0,43.82 -28.18,80.63 -68.5,89.39 -73.67,16.05 -148.76,24.68 -223.97,24.68 -107.82,0 -221.68,-23.1 -301.52,-106.28 -80.55,-83.93 -103.73,-206.13 -102.9,-321.91l0.92 -120.12 0 -235.02 -49.78 0c-1.08,0 -2.13,0 -3.17,-0.04l0 679.68c0,50.28 -38.44,91.27 -85.55,91.27l-329.17 0c-27.81,0 -52.57,-14.26 -68.17,-36.27 -60.45,38.4 -133.04,57.04 -214.39,57.04 -100.19,0 -193.87,-31.27 -263.25,-110.82 -15.89,-18.26 -29.39,-37.86 -40.78,-58.5l0 46.9c0,43.82 -28.18,80.63 -68.46,89.39 -73.71,16.05 -148.8,24.68 -224.02,24.68 -107.82,0 -221.72,-23.06 -301.57,-106.28 -80.47,-83.93 -103.73,-206.13 -102.81,-321.95l0.92 -120.08 0 -235.02 -49.82 0c-0.96,0 -1.88,0 -2.84,-0.04l0 679.68c0,50.28 -38.4,91.27 -85.55,91.27l-356.6 0c-25.35,0 -48.2,-11.88 -63.92,-30.73 -10.42,9.01 -22.97,15.43 -36.98,18.47 -73.71,16.05 -148.84,24.68 -224.06,24.68 -107.78,0 -221.68,-23.1 -301.52,-106.28 -74.42,-77.55 -99.85,-187.87 -102.61,-295.6 -11.22,118.7 -63.62,218.51 -156.72,292.68 -113.07,90.06 -256.83,117.53 -395.04,117.53 -204.59,0 -378.45,-68.38 -478.64,-235.86l0 123.83c0,50.28 -38.44,91.27 -85.55,91.27l-356.64 0c-47.11,0 -85.55,-40.98 -85.55,-91.27l0 -650.04c0,-1.46 0,-3.13 -0.04,-5 -1.5,13.63 -1.96,27.77 -1.96,34.48l0 620.56c0,50.28 -38.4,91.27 -85.55,91.27l-356.64 0c-47.15,0 -85.55,-40.98 -85.55,-91.27l0 -1032.65c0,-50.28 38.4,-91.27 85.55,-91.27l331.04 0c25.22,0 47.95,11.76 63.62,30.39 56.58,-34.44 123.37,-51.2 197.54,-51.2 74.01,0 146.68,15.47 210.92,55.99 57.83,36.48 103.9,86.8 131.83,152.26 14.93,35.02 23.93,77.59 29.31,121.41 21.26,-83.09 66.63,-154.72 135,-212.13 103.07,-86.55 229.52,-117.53 358.6,-117.53 164.44,0 310.53,46.9 409.8,162.23l0 -50.16c0,-50.28 38.4,-91.27 85.55,-91.27l51.24 0 4 -246.95c0.83,-49.16 37.98,-88.76 84.05,-89.64l338.38 -6.25c23.81,-0.42 44.49,8.34 61.46,26.18 16.97,17.8 25.56,39.65 25.56,65.04l0 251.62 95.52 0c11.47,0 22.43,2.42 32.44,6.8l0 -312.41c0,-50.28 38.4,-91.27 85.55,-91.27l356.6 0c47.15,0 85.55,40.98 85.55,91.27l0 305.65c0.96,-0.04 1.88,-0.04 2.84,-0.04l51.28 0 3.96 -246.91c0.83,-49.2 37.98,-88.81 84.05,-89.68l338.38 -6.25c23.81,-0.42 44.49,8.34 61.46,26.18 16.97,17.8 25.56,39.65 25.56,65.04l0 251.62 95.52 0c22.85,0 43.65,9.63 59,25.22 15.34,-15.59 36.15,-25.22 59,-25.22l356.6 0c47.15,0 85.55,40.98 85.55,91.27l0 649.66c0,1.79 0,3.92 0.04,6.34 3.67,-11.59 4.46,-27.98 4.46,-36.81l0 -619.18c0,-50.28 38.4,-91.27 85.55,-91.27l351.1 0c16.22,0 31.39,4.84 44.36,13.3 12.97,-8.46 28.14,-13.3 44.36,-13.3l51.24 0 4 -246.95c0.83,-49.16 37.98,-88.76 84.05,-89.64l338.34 -6.25c23.85,-0.42 44.49,8.34 61.5,26.18 16.97,17.8 25.56,39.65 25.56,65.04l0 251.62 95.52 0c47.15,0 85.55,40.98 85.55,91.27l0 151.6zm-83.09 201.38c-0.83,0.04 -1.63,0.04 -2.46,0.04l-95.52 0 0 289.35c0,4.04 0.04,10.13 0.33,16.34 24.31,-0.96 50.28,-6.96 73.34,-13.47 5.67,-1.63 11.34,-2.63 16.93,-3 -6.8,-39.94 -10.21,-81.09 -10.21,-123.54 0,-57.41 5.71,-112.82 17.59,-165.73zm-1720.25 -6.75c-10.01,4.38 -20.97,6.8 -32.44,6.8l-95.52 0 0 289.35c0,4.04 0.04,10.13 0.38,16.34 24.27,-0.96 50.24,-6.96 73.3,-13.47 18.89,-5.34 37.36,-4.09 54.28,3.54l0 -302.57zm-1223.19 0c-10.01,4.38 -20.97,6.8 -32.44,6.8l-95.52 0 0 289.35c0,4.04 0.04,10.13 0.38,16.34 24.27,-0.96 50.24,-6.96 73.3,-13.47 18.89,-5.34 37.36,-4.09 54.28,3.54l0 -302.57zm-740.72 -9.05c-2.5,0.75 -5,1.42 -7.59,1.96l-53.91 11.59c32.81,24.52 61.83,54.7 86.93,89.6 42.53,59.2 65.46,127 72.05,199.42l0.38 -51.7 0 -235.02 -49.78 0c-17.8,0 -34.4,-5.84 -48.07,-15.84zm-933.21 133.63l0 180.57c3.04,-0.79 6.21,-1.5 9.46,-2l92.43 -14.3c-13.47,-11.8 -25.56,-24.56 -35.9,-38.48 -29.02,-38.94 -51.2,-80.97 -66,-125.79zm-1085.44 -824.06l0 1385.92c0,50.28 -38.4,91.27 -85.55,91.27l-374.86 0c-47.15,0 -85.55,-40.98 -85.55,-91.27l0 -1385.92c0,-50.28 38.4,-91.27 85.55,-91.27l374.86 0c47.15,0 85.55,40.98 85.55,91.27zm14731.31 1440.91c-60.41,38.4 -133,57.04 -214.39,57.04 -100.19,0 -193.83,-31.27 -263.21,-110.82 -70.42,-80.84 -93.89,-188.29 -93.89,-295.94l0 -737.92c0,-50.28 38.4,-91.27 85.55,-91.27l356.6 0c47.15,0 85.55,40.98 85.55,91.27l0 649.66c0,1.79 0,3.92 0.04,6.34 3.67,-11.59 4.42,-28.06 4.42,-36.81l0 -619.18c0,-50.28 38.4,-91.27 85.51,-91.27l351.14 0c47.15,0 85.55,40.98 85.55,91.27l0 1032.65c0,50.28 -38.4,91.27 -85.55,91.27l-329.12 0c-27.81,0 -52.57,-14.26 -68.21,-36.27zm-13130.34 1626.61c10.46,19.22 13.63,40.65 9.26,63.25 -24.22,126.04 -87.22,229.69 -179.61,311.82 -107.73,95.81 -244.28,128.54 -381.82,128.54 -163.39,0 -312.66,-51.78 -427.56,-178.45 -109.49,-120.66 -160.56,-269.67 -160.56,-437.11 0,-170.77 49.03,-324.71 156.77,-451.79 111.57,-131.71 258.25,-189.41 423.43,-189.41 159.73,0 302.73,54.08 413.89,178.24 115.45,128.91 158.14,296.06 158.14,471.26 0,20.39 -0.46,40.86 -0.96,61.25 -0.33,15.43 -4.34,29.81 -10.97,42.4zm-582.33 46.49c0.71,1.46 1.42,2.88 2.17,4.17 6.55,5.38 30.06,6.59 37.73,6.59 17.84,0 29.19,-3.21 36.86,-10.76l-76.76 0zm11644.07 -309.9c-1.58,13.63 -2.04,27.73 -2.04,34.44l0 620.56c0,50.28 -38.4,91.27 -85.55,91.27l-356.6 0c-47.15,0 -85.55,-40.98 -85.55,-91.27l0 -1032.65c0,-50.28 38.4,-91.27 85.55,-91.27l331 0c25.22,0 47.99,11.8 63.62,30.39 56.62,-34.4 123.37,-51.2 197.58,-51.2 74.05,0 146.68,15.47 210.92,55.99 57.79,36.44 103.9,86.8 131.83,152.3 33.02,77.38 36.94,191.7 36.94,275.67l0 660.75c0,50.28 -38.44,91.27 -85.55,91.27l-356.64 0c-47.11,0 -85.51,-40.98 -85.51,-91.27l0 -650.04c0,-1.46 0,-3.09 0,-4.96zm-6394.46 -1733.85c2.17,0 6.92,0.13 9.01,-0.88 3.67,-4 6.59,-18.34 7.59,-23.47 11.34,-61.5 16.72,-124.08 16.72,-186.7 0,-45.53 -1.5,-130.71 -18.68,-173.07 -0.71,-1.83 -2.58,-6.34 -4.09,-7.75 -2.04,-1.08 -7.55,-1.17 -9.71,-1.17 -1.13,0 -3.38,0 -4.46,0.42 -2.5,1.92 -6.09,9.63 -7.34,12.47 -18.68,43.49 -20.6,132.04 -20.6,179.15 0,38.23 1.71,157.47 18.89,191.2 4,7.84 4.79,9.8 12.67,9.8zm1544.18 -347.51c0,-9.88 -0.08,-39.02 -6.09,-47.45 -2.29,-1 -4.84,-1.04 -10.88,-0.79 -3.5,3.88 -5.84,15.84 -7,20.8 -15.09,61.33 -18.89,129.87 -18.89,192.96 0,27.68 3.59,140.46 26.98,159.18 1.54,-0.88 3.84,-3.96 4.92,-5.42 9.26,-12.34 10.97,-48.95 10.97,-63.71l0 -255.58zm2626.99 -228.02l38.77 0c40.82,0 79.05,1 79.05,-49.03 0,-42.82 -31.35,-40.69 -66.54,-40.69l-51.28 0 0 89.72zm3170.5 237.02c0,-17.55 -1.83,-49.53 -12.51,-64.21 -1.54,-2.21 -4.84,-6.75 -5.42,-6.84 -3.13,2 -7.75,11.01 -9.34,14.26 -19.43,40.48 -21.1,152.14 -21.1,197 0,37.23 1.75,155.47 18.93,188.08 1.46,2.75 5.17,9.26 5.88,10.21 4.96,0 12.72,-7.17 15.55,-9.96 6.59,-8.63 8.01,-40.86 8.01,-51.16l0 -277.38zm3674.99 284.26c-28.85,11.17 -52.24,27.81 -52.24,52.7 0,0.42 0,0.92 0,1.46 1.67,0.08 3.21,0.08 4.34,0.08 15.55,0 28.02,-3.79 37.69,-12.67 4.96,-7.59 8.17,-23.81 10.21,-41.57zm-12465 2073.18c-28.89,11.17 -52.28,27.85 -52.28,52.7 0,0.42 0,0.92 0,1.46 1.71,0.08 3.25,0.08 4.42,0.08 15.47,0 28.02,-3.79 37.61,-12.67 4.96,-7.59 8.21,-23.81 10.26,-41.57zm10429.05 0c-28.85,11.17 -52.24,27.85 -52.24,52.7 0,0.42 0,0.92 0,1.46 1.67,0.08 3.21,0.08 4.34,0.08 15.55,0 28.02,-3.79 37.69,-12.67 4.96,-7.59 8.17,-23.81 10.21,-41.57z"/>
     <path class="fil2" d="M2218.78 10001.65l0 1385.92 -374.86 0 0 -1385.92 374.86 0zm1085.44 1385.92l-356.64 0 0 -650.04c0,-53.66 -7,-87.6 -21.64,-102.52 -14.63,-14.84 -32.65,-22.47 -54.53,-22.47 -64.67,0 -96.94,51.62 -96.94,154.47l0 620.56 -356.64 0 0 -1032.65 331.04 0 0 146.13c48.74,-111.2 135.92,-166.94 261.17,-166.94 66.17,0 121.66,14.55 167.4,43.28 45.4,28.77 78.01,65.79 97.52,111.53 19.51,45.7 29.27,125 29.27,237.9l0 660.75zm107.32 -292.98l281.64 -43.61c16.14,74.76 80.13,112.2 192.04,112.2 92.6,0 138.96,-20.47 138.96,-60.96 0,-17.68 -8.84,-31.19 -26.85,-41.23 -17.97,-9.71 -60.62,-19.72 -127.37,-29.77 -185.66,-29.06 -301.15,-74.46 -347.22,-136.46 -46.03,-61.62 -69.17,-130.54 -69.17,-206.38 0,-105.65 38.73,-191.16 116.45,-256.29 77.76,-65.42 179.53,-97.98 305.69,-97.98 221.01,0 361.85,90.06 422.81,270.5l-268.84 57.79c-25.31,-60.96 -78.67,-91.43 -159.73,-91.43 -38.4,0 -67.33,5.88 -86.26,17.68 -18.93,12.13 -28.35,23.51 -28.35,35.36 0,33.56 28.68,54.33 85.97,61.62 149.01,19.01 250.24,38.11 303.23,57.79 53.08,19.39 98.48,55.45 136,107.36 37.44,52.32 56.37,115.32 56.37,189.12 0,112.9 -41.44,202.59 -124.66,269.09 -83.22,66.13 -197.83,99.35 -343.84,99.35 -246.24,0 -398.38,-104.57 -456.87,-313.74zm1619.73 -739.68l0 261.79 -181.03 0 0 380.57c0,52.32 8.51,83.14 25.85,92.85 17.09,10.01 35.11,14.84 53.37,14.84 28.64,0 62.54,-5.5 101.81,-16.59l0 288.81c-70.09,15.22 -139.3,22.85 -206.96,22.85 -109.74,0 -190.25,-26.64 -241.74,-80.34 -51.2,-53.33 -77.09,-138.88 -77.09,-255.91l0.92 -120.83 0 -326.25 -135.34 0 0 -261.79 135.34 0 5.46 -336.63 338.38 -6.25 0 342.88 181.03 0zm474.59 -396.88l0 319.99 -356.6 0 0 -319.99 356.6 0zm0 396.88l0 1032.65 -356.6 0 0 -1032.65 356.6 0zm748.6 0l0 261.79 -181.03 0 0 380.57c0,52.32 8.51,83.14 25.89,92.85 17.09,10.01 35.06,14.84 53.33,14.84 28.68,0 62.54,-5.5 101.81,-16.59l0 288.81c-70.09,15.22 -139.25,22.85 -206.92,22.85 -109.78,0 -190.25,-26.64 -241.78,-80.34 -51.16,-53.33 -77.09,-138.88 -77.09,-255.91l0.96 -120.83 0 -326.25 -135.38 0 0 -261.79 135.38 0 5.42 -336.63 338.38 -6.25 0 342.88 181.03 0zm1001.3 0l0 1032.65 -329.17 0 0 -169.65c-48.16,127.04 -142.34,190.41 -282.55,190.41 -86.26,0 -153.01,-27.31 -200.59,-81.72 -47.24,-54.37 -71,-132.29 -71,-233.77l0 -737.92 356.6 0 0 649.66c0,40.82 4.88,69.25 14.63,85.85 10.09,16.68 29.27,24.97 57.91,24.97 30.48,0 55.2,-12.51 74.38,-37.07 19.22,-24.56 28.68,-59.58 28.68,-104.23l0 -619.18 351.1 0zm748.93 0l0 261.79 -181.07 0 0 380.57c0,52.32 8.51,83.14 25.93,92.85 17.05,10.01 35.02,14.84 53.28,14.84 28.68,0 62.54,-5.5 101.86,-16.59l0 288.81c-70.09,15.22 -139.3,22.85 -206.92,22.85 -109.78,0 -190.25,-26.64 -241.78,-80.34 -51.2,-53.33 -77.09,-138.88 -77.09,-255.91l0.92 -120.83 0 -326.25 -135.34 0 0 -261.79 135.34 0 5.46 -336.63 338.34 -6.25 0 342.88 181.07 0zm562.36 1053.42c-150.55,0 -270.05,-53.33 -358.73,-159.64 -88.68,-106.65 -133.21,-231.65 -133.21,-375.07 0,-154.06 46.32,-282.55 139,-385.41 92.35,-102.81 212.72,-154.1 361.19,-154.1 149.34,0 269.46,50.53 360.27,152.01 90.85,101.48 136.21,228.56 136.21,381.62 0,154.14 -45.95,282.6 -138,385.79 -92.1,103.19 -214.01,154.81 -366.73,154.81zm5.55 -245.15c54.83,0 88.64,-32.56 100.52,-98.02 12.22,-65.08 18.34,-133.29 18.34,-204.3 0,-96.98 -8.59,-166.61 -25.64,-209.17 -17.34,-42.61 -47.82,-64.08 -92.39,-64.08 -40.82,0 -70.71,22.14 -89.56,66.13 -18.93,43.99 -28.35,116.41 -28.35,217.18 0,118.41 9.71,196.67 29.23,234.77 19.51,38.44 48.78,57.49 87.85,57.49zm1980.92 224.39l-334.71 0 0 -137.13c-49.41,105.27 -130.71,157.89 -244.11,157.89 -104.57,0 -189.33,-46.4 -254.49,-139.21 -64.96,-93.14 -97.56,-228.19 -97.56,-405.17 0,-165.52 32.6,-297.15 98.15,-394.46 65.21,-97.31 151.76,-145.8 259.37,-145.8 89.93,0 163.98,38.82 222.18,116.74l0 -438.78 351.18 0 0 1385.92zm-351.18 -663.17c0,-92.48 -33.52,-138.88 -100.27,-138.88 -46.9,0 -77.42,29.44 -92.02,88.35 -14.34,58.83 -21.68,130.87 -21.68,216.05 0,166.94 37.23,250.37 111.86,250.37 28.35,0 52.45,-13.13 72.25,-39.44 19.85,-26.35 29.85,-66.83 29.85,-120.87l0 -255.58zm1140.05 291.27l331 25.27c-19.51,101.77 -69.84,188.37 -150.64,260.04 -80.47,71.71 -189.54,107.36 -327,107.36 -153.01,0 -274.92,-50.2 -366.06,-150.64 -91.14,-100.44 -136.54,-225.06 -136.54,-373.65 0,-154.43 44.78,-284.64 134.71,-390.62 89.89,-106.32 210.01,-159.31 359.94,-159.31 145.09,0 262.46,49.86 352.06,149.97 89.64,100.06 134.42,236.15 134.42,408.26 0,14.22 -0.29,33.94 -0.88,58.91l-607.18 0c1.21,65.42 11.26,113.91 30.48,145.76 18.89,31.52 55.16,47.45 108.82,47.45 77.72,0 123.12,-42.94 136.88,-128.79zm-25.64 -268.09c-0.58,-68.88 -12.84,-115.28 -36.56,-138.84 -23.77,-23.89 -53.33,-35.69 -88.72,-35.69 -83.51,0 -125.25,58.2 -125.25,174.53l250.53 0zm1346.93 137.13l0 502.86 -380.32 0 0 -1385.92 520.54 0c129.87,0 228.6,16.97 296.31,50.91 67.33,33.94 120.95,85.55 160.64,155.47 39.61,69.63 59.41,147.89 59.41,234.48 0,132.29 -40.57,238.94 -121.33,320.29 -80.8,81.43 -188.66,121.91 -323.66,121.91l-211.59 0zm-5.46 -297.1l124.33 0c109.78,0 164.6,-46.74 164.6,-140.26 0,-87.97 -50.57,-131.96 -152.1,-131.96l-136.84 0 0 272.21zm1362.15 428.06l331.04 25.27c-19.55,101.77 -69.79,188.37 -150.6,260.04 -80.47,71.71 -189.58,107.36 -327.04,107.36 -153.01,0 -274.92,-50.2 -366.11,-150.64 -91.1,-100.44 -136.5,-225.06 -136.5,-373.65 0,-154.43 44.78,-284.64 134.71,-390.62 89.93,-106.32 210.05,-159.31 359.98,-159.31 145.09,0 262.46,49.86 352.01,149.97 89.64,100.06 134.46,236.15 134.46,408.26 0,14.22 -0.33,33.94 -0.92,58.91l-607.13 0c1.21,65.42 11.22,113.91 30.44,145.76 18.89,31.52 55.2,47.45 108.82,47.45 77.72,0 123.12,-42.94 136.84,-128.79zm-25.6 -268.09c-0.63,-68.88 -12.8,-115.28 -36.56,-138.84 -23.81,-23.89 -53.33,-35.69 -88.68,-35.69 -83.55,0 -125.25,58.2 -125.25,174.53l250.49 0zm416.1 347.01l281.64 -43.61c16.18,74.76 80.18,112.2 192,112.2 92.68,0 139.05,-20.47 139.05,-60.96 0,-17.68 -8.88,-31.19 -26.89,-41.23 -17.93,-9.71 -60.58,-19.72 -127.37,-29.77 -185.62,-29.06 -301.11,-74.46 -347.18,-136.46 -46.03,-61.62 -69.17,-130.54 -69.17,-206.38 0,-105.65 38.69,-191.16 116.41,-256.29 77.76,-65.42 179.53,-97.98 305.73,-97.98 221.01,0 361.81,90.06 422.77,270.5l-268.84 57.79c-25.27,-60.96 -78.67,-91.43 -159.73,-91.43 -38.4,0 -67.38,5.88 -86.26,17.68 -18.93,12.13 -28.31,23.51 -28.31,35.36 0,33.56 28.64,54.33 85.93,61.62 149.01,19.01 250.28,38.11 303.27,57.79 53.03,19.39 98.48,55.45 135.96,107.36 37.44,52.32 56.37,115.32 56.37,189.12 0,112.9 -41.44,202.59 -124.66,269.09 -83.22,66.13 -197.83,99.35 -343.84,99.35 -246.24,0 -398.34,-104.57 -456.87,-313.74zm1940.1 619.18l-351.14 0 0 -437.03c-38.69,87.6 -110.07,131.58 -214.3,131.58 -117.32,0 -208.13,-49.86 -272.46,-149.22 -64.33,-99.44 -96.64,-227.52 -96.64,-384.41 0,-149.26 33.52,-276.72 100.86,-382.32 67.42,-105.65 167.98,-158.27 302.15,-158.27 131.04,0 222.77,53.7 275.22,161.02 24.35,-47.45 43.86,-94.18 58.79,-140.21l206.38 0c-5.8,31.14 -8.84,77.92 -8.84,140.21l0 1218.65zm-351.14 -980.37c0,-51.95 -10.05,-92.14 -30.48,-120.2 -20.43,-28.06 -43.9,-42.24 -70.71,-42.24 -38.11,0 -67.33,21.47 -87.81,64.04 -20.43,42.61 -30.48,122.29 -30.48,238.61 0,117.07 10.05,194.62 29.89,232.73 20.1,37.77 46.9,56.83 80.47,56.83 26.22,0 50.87,-11.42 74.05,-34.65 23.47,-22.85 35.06,-62.33 35.06,-117.74l0 -277.38zm1433.16 -378.49l0 1032.65 -329.12 0 0 -169.65c-48.24,127.04 -142.38,190.41 -282.6,190.41 -86.26,0 -152.97,-27.31 -200.54,-81.72 -47.24,-54.37 -71,-132.29 -71,-233.77l0 -737.92 356.6 0 0 649.66c0,40.82 4.88,69.25 14.63,85.85 10.05,16.68 29.27,24.97 57.87,24.97 30.48,0 55.16,-12.51 74.42,-37.07 19.22,-24.56 28.6,-59.58 28.6,-104.23l0 -619.18 351.14 0zm544.09 -396.88l0 319.99 -356.6 0 0 -319.99 356.6 0zm0 396.88l0 1032.65 -356.6 0 0 -1032.65 356.6 0zm106.69 739.68l281.68 -43.61c16.14,74.76 80.18,112.2 192.04,112.2 92.64,0 138.96,-20.47 138.96,-60.96 0,-17.68 -8.88,-31.19 -26.81,-41.23 -18.01,-9.71 -60.66,-19.72 -127.46,-29.77 -185.62,-29.06 -301.11,-74.46 -347.14,-136.46 -46.03,-61.62 -69.21,-130.54 -69.21,-206.38 0,-105.65 38.69,-191.16 116.45,-256.29 77.72,-65.42 179.53,-97.98 305.69,-97.98 221.01,0 361.85,90.06 422.81,270.5l-268.84 57.79c-25.31,-60.96 -78.67,-91.43 -159.77,-91.43 -38.36,0 -67.33,5.88 -86.22,17.68 -18.93,12.13 -28.35,23.51 -28.35,35.36 0,33.56 28.64,54.33 85.97,61.62 149.01,19.01 250.24,38.11 303.23,57.79 53.03,19.39 98.48,55.45 135.96,107.36 37.48,52.32 56.41,115.32 56.41,189.12 0,112.9 -41.48,202.59 -124.7,269.09 -83.22,66.13 -197.79,99.35 -343.8,99.35 -246.28,0 -398.38,-104.57 -456.91,-313.74zm1963.87 292.98l-338.34 0c-8.51,-43.99 -12.8,-92.1 -12.8,-144.38 -64.29,110.11 -161.56,165.15 -292.02,165.15 -107.23,0 -187.41,-31.14 -240.78,-93.1 -53.33,-62.37 -79.84,-133.38 -79.84,-213.72 0,-108.69 43.61,-196.67 130.75,-263.88 87.18,-67.21 241.74,-107.73 463.63,-121.2l0 -23.56c0,-45.74 -9.13,-76.17 -27.14,-91.06 -18.01,-14.93 -44.49,-22.56 -79.22,-22.56 -81.76,0 -127.41,38.11 -136.84,114.28l-325.58 -35.31c46.28,-216.09 204.21,-324.12 473.72,-324.12 73.09,0 140.17,8.3 201.42,24.93 61.29,16.64 109.74,42.28 145.43,77.55 35.65,35.31 59.75,72.38 71.92,111.53 12.17,39.48 18.3,114.95 18.3,226.52l0 412.05c0,78.3 9.09,145.47 27.39,200.88zm-369.4 -482.05c-151.18,18.01 -226.77,73.05 -226.77,164.85 0,62 29.85,92.81 89.89,92.81 37.82,0 70.13,-12.84 96.94,-38.44 26.52,-25.64 39.94,-82.05 39.94,-169.69l0 -49.53zm-16178.51 2183.34l331.04 25.27c-19.55,101.81 -69.79,188.37 -150.6,260.08 -80.47,71.71 -189.58,107.32 -327.04,107.32 -153.01,0 -274.92,-50.16 -366.11,-150.64 -91.1,-100.4 -136.46,-225.06 -136.46,-373.65 0,-154.43 44.74,-284.64 134.67,-390.62 89.93,-106.32 210.05,-159.31 359.98,-159.31 145.09,0 262.46,49.86 352.01,149.97 89.68,100.1 134.46,236.19 134.46,408.26 0,14.26 -0.33,33.94 -0.92,58.91l-607.13 0c1.21,65.42 11.22,113.91 30.44,145.76 18.89,31.52 55.2,47.45 108.82,47.45 77.72,0 123.12,-42.94 136.84,-128.79zm-25.6 -268.09c-0.63,-68.88 -12.8,-115.28 -36.56,-138.84 -23.77,-23.89 -53.33,-35.65 -88.68,-35.65 -83.55,0 -125.25,58.16 -125.25,174.49l250.49 0zm1640.54 639.99l-67.42 -272.17 -331.88 0 -72 272.17 -303.57 0 377.36 -1385.92 395.62 0 383.78 1385.92 -381.91 0zm-331.38 -575.57l195.04 0 -97.77 -401.34 -97.27 401.34zm1697.16 575.57l-356.64 0 0 -650.04c0,-53.62 -6.96,-87.6 -21.64,-102.48 -14.59,-14.88 -32.6,-22.51 -54.49,-22.51 -64.67,0 -96.98,51.62 -96.98,154.47l0 620.56 -356.6 0 0 -1032.65 331.04 0 0 146.13c48.74,-111.2 135.92,-166.94 261.17,-166.94 66.17,0 121.66,14.55 167.4,43.28 45.4,28.77 78.01,65.79 97.52,111.53 19.51,45.7 29.23,125 29.23,237.9l0 660.75zm1102.24 0l-338.34 0c-8.51,-43.94 -12.84,-92.1 -12.84,-144.38 -64.29,110.15 -161.56,165.15 -292.02,165.15 -107.23,0 -187.45,-31.14 -240.74,-93.1 -53.41,-62.37 -79.93,-133.38 -79.93,-213.72 0,-108.69 43.65,-196.67 130.79,-263.88 87.18,-67.21 241.69,-107.69 463.63,-121.2l0 -23.56c0,-45.7 -9.17,-76.17 -27.18,-91.06 -17.93,-14.93 -44.44,-22.56 -79.22,-22.56 -81.68,0 -127.37,38.11 -136.84,114.32l-325.54 -35.31c46.32,-216.14 204.21,-324.16 473.67,-324.16 73.13,0 140.17,8.3 201.5,24.93 61.25,16.64 109.69,42.28 145.38,77.59 35.65,35.31 59.75,72.34 71.88,111.49 12.26,39.52 18.3,114.99 18.3,226.52l0 412.05c0,78.3 9.13,145.47 27.48,200.88zm-369.44 -482.01c-151.18,18.01 -226.81,73 -226.81,164.81 0,62 29.89,92.81 89.97,92.81 37.77,0 70.09,-12.84 96.89,-38.44 26.52,-25.64 39.94,-82.05 39.94,-169.69l0 -49.49zm-268.84 -834.94l408.42 -226.85 65.25 197.71 -427.35 167.98 -46.32 -138.84zm1147.6 -68.96l0 1385.92 -351.14 0 0 -1385.92 351.14 0zm544.09 -43.61l0 319.99 -356.6 0 0 -319.99 356.6 0zm0 396.88l0 1032.65 -356.6 0 0 -1032.65 356.6 0zm106.69 739.68l281.68 -43.61c16.09,74.76 80.09,112.2 192,112.2 92.64,0 138.96,-20.43 138.96,-60.96 0,-17.68 -8.84,-31.19 -26.81,-41.19 -18.01,-9.71 -60.66,-19.76 -127.41,-29.81 -185.66,-29.06 -301.15,-74.46 -347.18,-136.46 -46.03,-61.62 -69.21,-130.5 -69.21,-206.38 0,-105.61 38.73,-191.16 116.49,-256.29 77.72,-65.42 179.53,-97.98 305.65,-97.98 221.01,0 361.85,90.06 422.81,270.5l-268.79 57.79c-25.35,-60.96 -78.72,-91.43 -159.77,-91.43 -38.36,0 -67.33,5.88 -86.22,17.68 -18.93,12.13 -28.39,23.51 -28.39,35.36 0,33.56 28.68,54.33 86.01,61.62 149.01,19.01 250.2,38.11 303.19,57.83 53.08,19.39 98.48,55.41 136,107.32 37.48,52.37 56.37,115.36 56.37,189.12 0,112.9 -41.44,202.63 -124.66,269.09 -83.22,66.17 -197.79,99.35 -343.84,99.35 -246.24,0 -398.38,-104.57 -456.87,-313.74zm1651.13 -78.92l331 25.27c-19.51,101.81 -69.75,188.37 -150.55,260.08 -80.47,71.71 -189.58,107.32 -327.04,107.32 -153.01,0 -274.92,-50.16 -366.11,-150.64 -91.1,-100.4 -136.5,-225.06 -136.5,-373.65 0,-154.43 44.78,-284.64 134.71,-390.62 89.93,-106.32 210.01,-159.31 359.98,-159.31 145.09,0 262.46,49.86 352.01,149.97 89.64,100.1 134.46,236.19 134.46,408.26 0,14.26 -0.33,33.94 -0.96,58.91l-607.13 0c1.21,65.42 11.26,113.91 30.48,145.76 18.89,31.52 55.2,47.45 108.82,47.45 77.72,0 123.12,-42.94 136.84,-128.79zm-25.6 -268.09c-0.58,-68.88 -12.8,-115.28 -36.56,-138.84 -23.81,-23.89 -53.37,-35.65 -88.72,-35.65 -83.51,0 -125.25,58.16 -125.25,174.49l250.53 0zm416.1 347.01l281.64 -43.61c16.14,74.76 80.18,112.2 192.04,112.2 92.64,0 138.96,-20.43 138.96,-60.96 0,-17.68 -8.8,-31.19 -26.81,-41.19 -17.97,-9.71 -60.62,-19.76 -127.46,-29.81 -185.58,-29.06 -301.07,-74.46 -347.14,-136.46 -46.03,-61.62 -69.21,-130.5 -69.21,-206.38 0,-105.61 38.69,-191.16 116.45,-256.29 77.76,-65.42 179.53,-97.98 305.73,-97.98 221.01,0 361.81,90.06 422.77,270.5l-268.84 57.79c-25.31,-60.96 -78.63,-91.43 -159.77,-91.43 -38.36,0 -67.29,5.88 -86.22,17.68 -18.89,12.13 -28.35,23.51 -28.35,35.36 0,33.56 28.68,54.33 85.97,61.62 149.01,19.01 250.24,38.11 303.27,57.83 53.03,19.39 98.44,55.41 135.92,107.32 37.48,52.37 56.41,115.36 56.41,189.12 0,112.9 -41.48,202.63 -124.7,269.09 -83.18,66.17 -197.79,99.35 -343.8,99.35 -246.28,0 -398.38,-104.57 -456.87,-313.74zm2188.8 -234.77l341.97 23.18c-16.09,169.36 -71.3,299.23 -165.48,389.62 -94.18,90.39 -209.97,135.71 -347.51,135.71 -165.44,0 -298.98,-62.29 -400.5,-186.62 -101.77,-124.33 -152.68,-296.48 -152.68,-515.33 0,-217.1 48.16,-392.37 144.47,-525.67 96.35,-133.33 230.73,-199.83 403.3,-199.83 161.23,0 285.26,50.57 371.82,151.68 86.26,101.11 135.38,235.48 146.59,402.42l-349.26 21.43c0,-92.43 -15.59,-158.93 -46.65,-200.13 -31.1,-41.19 -68,-61.66 -109.99,-61.66 -117.41,0 -176.24,134.75 -176.24,404.51 0,150.97 15.26,253.87 45.7,307.86 30.85,54.37 73.8,81.38 129,81.38 98.44,0 153.64,-76.17 165.48,-228.56zm818.35 -858.17l0 1385.92 -351.1 0 0 -1385.92 351.1 0zm544.18 353.26l0 1032.65 -356.68 0 0 -1032.65 356.68 0zm-363.94 -284.3l408.42 -226.85 65.17 197.71 -427.31 167.98 -46.28 -138.84zm1437.41 1316.96l-356.64 0 0 -650.04c0,-53.62 -6.96,-87.6 -21.64,-102.48 -14.63,-14.88 -32.56,-22.51 -54.53,-22.51 -64.62,0 -96.94,51.62 -96.94,154.47l0 620.56 -356.6 0 0 -1032.65 331 0 0 146.13c48.78,-111.2 135.96,-166.94 261.21,-166.94 66.17,0 121.62,14.55 167.4,43.28 45.36,28.77 78.01,65.79 97.52,111.53 19.51,45.7 29.23,125 29.23,237.9l0 660.75zm544.43 -1429.53l0 319.99 -356.6 0 0 -319.99 356.6 0zm0 396.88l0 1032.65 -356.6 0 0 -1032.65 356.6 0zm735.8 615.06l303.61 29.39c-14.34,120.87 -58.83,219.22 -133.5,295.06 -75.01,75.84 -174.07,113.91 -298.11,113.91 -138.67,0 -251.45,-49.49 -338.01,-148.55 -86.93,-99.02 -130.17,-226.14 -130.17,-380.95 0,-158.27 42.99,-288.47 129.21,-390.96 86.22,-102.48 198.13,-153.76 335.92,-153.76 122.2,0 221.56,38.77 298.69,116.37 76.84,77.92 120.99,175.94 132.25,294.69l-312.7 29.48c-13.09,-109.44 -49.7,-164.15 -109.11,-164.15 -38.44,0 -66.46,19.72 -83.8,59.2 -17.68,39.48 -26.56,108.03 -26.56,206.05 0,84.18 8.88,146.8 26.56,187.37 17.68,40.53 48.16,60.58 91.72,60.58 64,0 102.11,-51.28 113.99,-153.72zm1322.25 417.6l-338.34 0c-8.51,-43.94 -12.8,-92.1 -12.8,-144.38 -64.29,110.15 -161.56,165.15 -292.02,165.15 -107.23,0 -187.41,-31.14 -240.78,-93.1 -53.33,-62.37 -79.84,-133.38 -79.84,-213.72 0,-108.69 43.61,-196.67 130.75,-263.88 87.18,-67.21 241.74,-107.69 463.63,-121.2l0 -23.56c0,-45.7 -9.13,-76.17 -27.14,-91.06 -18.01,-14.93 -44.49,-22.56 -79.22,-22.56 -81.76,0 -127.41,38.11 -136.84,114.32l-325.58 -35.31c46.28,-216.14 204.21,-324.16 473.72,-324.16 73.09,0 140.17,8.3 201.42,24.93 61.29,16.64 109.74,42.28 145.43,77.59 35.65,35.31 59.75,72.34 71.92,111.49 12.17,39.52 18.3,114.99 18.3,226.52l0 412.05c0,78.3 9.09,145.47 27.39,200.88zm-369.4 -482.01c-151.18,18.01 -226.77,73 -226.77,164.81 0,62 29.85,92.81 89.89,92.81 37.82,0 70.13,-12.84 96.94,-38.44 26.52,-25.64 39.94,-82.05 39.94,-169.69l0 -49.49zm447.2 189.04l281.59 -43.61c16.18,74.76 80.18,112.2 192.04,112.2 92.64,0 138.96,-20.43 138.96,-60.96 0,-17.68 -8.8,-31.19 -26.81,-41.19 -17.97,-9.71 -60.62,-19.76 -127.37,-29.81 -185.66,-29.06 -301.15,-74.46 -347.22,-136.46 -46.03,-61.62 -69.17,-130.5 -69.17,-206.38 0,-105.61 38.73,-191.16 116.45,-256.29 77.72,-65.42 179.53,-97.98 305.69,-97.98 221.01,0 361.85,90.06 422.81,270.5l-268.84 57.79c-25.31,-60.96 -78.67,-91.43 -159.73,-91.43 -38.44,0 -67.38,5.88 -86.3,17.68 -18.89,12.13 -28.35,23.51 -28.35,35.36 0,33.56 28.73,54.33 85.97,61.62 149.05,19.01 250.28,38.11 303.27,57.83 53.03,19.39 98.48,55.41 135.96,107.32 37.44,52.37 56.37,115.36 56.37,189.12 0,112.9 -41.4,202.63 -124.66,269.09 -83.22,66.17 -197.83,99.35 -343.8,99.35 -246.32,0 -398.42,-104.57 -456.87,-313.74z"/>
    </g>
   </g>
  </g>
  <path class="fil4" d="M1552.61 0l18713.32 0c853.91,0 1552.61,698.65 1552.61,1552.61l0 11799.29c0,853.91 -698.69,1552.56 -1552.61,1552.56l-18713.32 0c-854,0 -1552.61,-698.65 -1552.61,-1552.56l0 -11799.29c0,-853.96 698.61,-1552.61 1552.61,-1552.61z"/>
 </g>
</svg>
