<?xml version="1.0" encoding="UTF-8"?>
<!DOCTYPE svg PUBLIC "-//W3C//DTD SVG 1.1//EN" "http://www.w3.org/Graphics/SVG/1.1/DTD/svg11.dtd">
<!-- Creator: CorelDRAW (Evaluation Version) -->
<svg xmlns="http://www.w3.org/2000/svg" xml:space="preserve" width="52.3314mm" height="35.7481mm" version="1.1" style="shape-rendering:geometricPrecision; text-rendering:geometricPrecision; image-rendering:optimizeQuality; fill-rule:evenodd; clip-rule:evenodd"
viewBox="0 0 1338.61 914.42"
 xmlns:xlink="http://www.w3.org/1999/xlink"
 xmlns:xodm="http://www.corel.com/coreldraw/odm/2003">
 <defs>
  <style type="text/css">
   <![CDATA[
    .fil3 {fill:none}
    .fil0 {fill:white}
    .fil1 {fill:#00A85A}
    .fil2 {fill:#00A85A;fill-rule:nonzero}
   ]]>
  </style>
   <clipPath id="id0">
    <path d="M95.26 0l1148.1 0c52.39,0 95.25,42.86 95.25,95.26l0 723.91c0,52.39 -42.86,95.25 -95.25,95.25l-1148.1 0c-52.39,0 -95.26,-42.86 -95.26,-95.25l0 -723.91c0,-52.39 42.86,-95.26 95.26,-95.26z"/>
   </clipPath>
 </defs>
 <g id="Camada_x0020_1">
  <metadata id="CorelCorpID_0Corel-Layer"/>
  <path class="fil0" d="M95.26 0l1148.1 0c52.39,0 95.25,42.86 95.25,95.26l0 723.91c0,52.39 -42.86,95.25 -95.25,95.25l-1148.1 0c-52.39,0 -95.26,-42.86 -95.26,-95.25l0 -723.91c0,-52.39 42.86,-95.26 95.26,-95.26z"/>
  <g style="clip-path:url(#id0)">
   <g id="_105553211967360">
    <g>
     <path id="_1" class="fil1" d="M381.7 369.24l-14.31 -18.25 67.9 0 25.22 33.12 27.78 -33.12 64.46 0 -69.31 80.41 0 65.23 -52.37 0 0 -64.4 -28.51 -36.37c3.59,8.62 5.37,18.05 5.37,27.99 -0.04,14.37 -3.85,27.21 -11.08,38.02 -7.79,11.64 -18.49,19.48 -29.44,24.94 -5.37,2.66 -10.92,4.73 -16.57,6.17 -5.67,1.44 -11.41,2.39 -17.18,2.92 -6.07,0.53 -12.16,0.76 -18.23,0.74l-46.52 0 0 -145.64 46.54 0c12.53,0.03 25.21,1.19 37.49,4.61 9.96,2.77 19.91,6.96 28.75,13.64 0,0 0.01,0 0.01,0.01zm656.3 -13.48l97.48 0 0 40.7 -53.21 0 0 5.81 45.58 0 0 40.53 -45.58 0 0 7.84 53.99 0 0 41.21 -98.26 0 0 -123.68 -67.17 128.26 -8.78 0 -73.67 -140.67 49.88 0 29.37 59.06 29.55 -59.06 40.83 0zm-965.1 94.37l53.99 0 0 41.72 -99.24 0 0 -136.09 45.25 0 0 94.37zm97.81 -94.37l0 73.98c0,6.38 0.91,13.43 4.76,17.89 4.15,4.89 11,5.89 16.34,5.89 5.32,0 11.84,-1 16.17,-5.52 3.68,-3.8 4.71,-9.5 4.73,-15.38l0 -76.86 41.73 0 0 76.9c-0.04,9.52 -1.43,18.84 -4.79,27.35 -3.23,8.15 -7.83,14.87 -13.57,20.14 -6.09,5.63 -13.09,9.35 -20.3,11.76 -8.31,2.77 -16.97,3.84 -25.54,3.84 -8.62,0 -17.35,-1.04 -25.72,-3.81 -7.23,-2.38 -14.22,-6.1 -20.37,-11.7 -5.73,-5.26 -10.33,-11.95 -13.55,-20.09 -3.36,-8.49 -4.72,-17.82 -4.76,-27.35l0 -77.05 44.86 0zm101.85 136.09l0 -136.09 42.88 0c12.24,0.03 24.75,1.17 36.73,4.5 9.56,2.66 19.2,6.7 27.69,13.11 7.17,5.39 13.51,12.41 18.04,21.57 4.27,8.75 6.37,18.49 6.37,28.89 -0.04,13.21 -3.52,24.94 -10.17,34.89 -7.37,11.02 -17.63,18.45 -27.99,23.62 -5.18,2.57 -10.52,4.56 -15.96,5.94 -5.52,1.4 -11.11,2.33 -16.73,2.85 -5.99,0.52 -11.99,0.75 -17.98,0.72l-42.87 0zm44.86 -41.72l1.13 0c7.71,-0.02 16,-0.87 23.39,-3.88 4.63,-1.89 9.61,-4.85 12.92,-9.63 2.56,-3.68 3.77,-7.84 3.77,-12.82 0,-4.99 -1.22,-9.18 -3.78,-12.89 -3.31,-4.8 -8.27,-7.78 -12.92,-9.67 -7.39,-3.04 -15.67,-3.91 -23.38,-3.93l-1.14 0 0 52.82zm117.3 -19.92l-58.36 -74.45 57.41 0 26.62 34.96 29.32 -34.96 53.42 0 -63.35 73.48 0 62.6 -45.06 0 0 -61.64zm228.96 -4.46l46.55 -73.89 9.94 0 32.66 139.99 -44.35 0 -9.83 -45.9 -31.57 50.31 -7.82 0 -34.35 -51.71 -10.3 47.3 -42.35 0 32.44 -139.99 9.64 0 49.32 73.89zm136.98 -69.78l28.85 -42.3 41.59 0 -37.75 38.44c4.3,0.33 8.58,0.98 12.81,1.99 6.18,1.44 12.24,3.61 18.09,6.58 5.61,2.85 11,6.46 16.01,10.87 6.9,6.11 12.96,13.72 17.18,23.18 3.99,8.96 6.04,18.7 6.04,29.07 0,8.6 -1.39,16.85 -4.25,24.59 -2.92,8.02 -7.21,14.88 -12.29,20.75 -5.13,5.93 -10.92,10.72 -17.12,14.56 -6.55,4.03 -13.42,6.98 -20.49,8.96 -7.41,2.08 -14.98,3.06 -22.57,3.09 -6.47,0 -12.93,-0.72 -19.28,-2.25 -6.14,-1.44 -12.16,-3.62 -17.98,-6.59 -5.57,-2.88 -10.91,-6.47 -15.88,-10.88 -6.89,-6.18 -13.06,-13.79 -17.36,-23.19 -4.12,-8.88 -6.19,-18.62 -6.22,-29.05 0.04,-10.42 2.11,-20.16 6.2,-29.06 4.3,-9.47 10.46,-17.12 17.39,-23.33 4.92,-4.36 10.21,-7.93 15.76,-10.76 3.67,-1.87 7.43,-3.41 11.26,-4.67zm-4.38 67.81c0.02,3.84 0.68,7.51 2.13,10.93 1.51,3.63 3.63,6.64 6.13,9.13 2.92,2.91 6.24,4.99 9.73,6.43 4.06,1.66 8.26,2.38 12.48,2.41 4.24,-0.02 8.45,-0.72 12.5,-2.38 3.49,-1.44 6.82,-3.5 9.74,-6.38 2.53,-2.52 4.63,-5.52 6.16,-9.15 1.43,-3.44 2.07,-7.08 2.09,-10.93 -0.03,-3.94 -0.67,-7.65 -2.09,-11.09 -1.54,-3.65 -3.64,-6.68 -6.17,-9.2 -2.92,-2.91 -6.25,-4.96 -9.74,-6.4 -4.05,-1.65 -8.26,-2.36 -12.48,-2.38 -4.24,0.02 -8.44,0.72 -12.49,2.4 -3.5,1.44 -6.82,3.52 -9.73,6.42 -2.52,2.53 -4.63,5.56 -6.15,9.24 -1.45,3.44 -2.1,7.12 -2.12,10.95zm353.41 68.07l0 -136.09 45.25 0 0 136.09 -45.25 0zm101.56 -99.51c1.31,1.39 3.51,2.57 5.03,3.29l16.21 7.8c4.84,2.27 9.62,4.75 14.32,7.5 4.15,2.45 8.25,5.32 11.95,8.8 3.5,3.3 6.56,7.31 8.78,12.18 2.31,5.07 3.36,10.75 3.4,16.67 0,7.13 -1.49,13.85 -4.38,19.87 -2.98,6.25 -7.16,11.14 -11.93,14.96 -5.39,4.4 -11.52,7.25 -17.68,9.19 -7.34,2.28 -15.02,3.13 -22.57,3.16 -6,0 -12.01,-0.59 -17.95,-1.56 -6.73,-1.06 -13.42,-2.59 -20.05,-4.37l-4.34 -1.17 -4.37 -51.15 9.5 5.07c4.28,2.28 8.62,4.41 13.02,6.28 3.91,1.67 7.91,3.02 11.97,3.98 3.9,0.92 7.85,1.37 11.8,1.37 2.83,-0.02 5.9,-0.29 8.64,-1.27 1.27,-0.46 3.05,-1.27 4.05,-2.45 0.04,-0.05 0.09,-0.12 0.15,-0.18 -0.75,-1.08 -1.94,-2.01 -2.89,-2.66 -2.15,-1.45 -4.38,-2.69 -6.64,-3.82 -3.18,-1.59 -6.36,-3.19 -9.52,-4.77l-9.4 -4.58c-7.82,-3.85 -16.3,-9.22 -22.34,-16.94 -5.27,-6.78 -8.45,-15.1 -8.41,-24.86 0.04,-6.37 1.51,-12.27 4.26,-17.57 2.85,-5.4 6.78,-9.6 11.11,-12.88 4.92,-3.71 10.42,-6.16 15.94,-7.83 6.53,-1.93 13.27,-2.69 19.96,-2.72 5.8,0 11.6,0.63 17.34,1.66 6.39,1.15 12.75,2.78 19.04,4.65l4.74 1.41 0 46.41 -8.42 -4.53c-6.1,-3.28 -12.48,-6.31 -18.91,-8.3 -4.06,-1.26 -8.78,-2.5 -12.97,-2.47 -2.51,0.02 -6.09,0.3 -8.39,1.79 -0.02,0.01 -0.03,0.02 -0.05,0.03zm-1128.23 53.02c-0.56,-4.11 -0.82,-8.31 -0.83,-12.54l0 -81.83 52.17 0 0 78.76c0,4.88 0.57,10.89 3.54,14.34 3.35,3.94 9.59,4.66 13.89,4.66 4.41,0 10.32,-0.75 13.89,-4.49 2.74,-2.83 3.33,-7.35 3.35,-11.65l0 -81.63 49.04 0 0 81.69c-0.04,10.28 -1.58,20.34 -5.19,29.52 -3.49,8.83 -8.5,16.15 -14.71,21.85 -6.46,5.97 -13.86,9.93 -21.5,12.49 -8.62,2.87 -17.56,3.99 -26.44,3.99 -8.93,0 -17.94,-1.08 -26.61,-3.95 -7.67,-2.52 -15.07,-6.48 -21.57,-12.42 -4.51,-4.14 -8.38,-9.12 -11.51,-14.92l0 27.39 -106.56 0 0 -145.64 52.57 0 0 94.37 46.47 0zm1008.48 -44.12l0 44.63 8.41 0 0 50.76 -105.57 0 0 -113.01 -61.59 117.59 -12.64 0 -78.67 -150.22 58.8 0 27.4 55.08 27.56 -55.08 143.94 0 0 50.25 -7.63 0zm-467.9 17.12l44.9 -71.27 14.37 0 34.89 149.54 -52.06 0 -8.68 -40.54 -28.21 44.95 -11.22 0 -31.01 -46.69 -9.21 42.27 -50.04 0 34.66 -149.54 14.02 0 47.58 71.27zm135.07 -66.65l29.2 -42.81 53.87 0 -38.94 39.66c1.34,0.25 2.68,0.53 4.01,0.85 6.41,1.49 12.7,3.75 18.77,6.83 5.87,2.98 11.51,6.76 16.73,11.36 7.36,6.51 13.79,14.65 18.29,24.74 4.31,9.68 6.54,20.26 6.54,31.47 0,9.3 -1.51,18.27 -4.6,26.65 -3.13,8.6 -7.72,15.97 -13.16,22.26 -5.39,6.23 -11.48,11.28 -17.98,15.3 -6.79,4.18 -13.95,7.26 -21.28,9.31 -7.66,2.15 -15.49,3.17 -23.33,3.2 -6.68,0 -13.37,-0.75 -19.93,-2.33 -6.37,-1.49 -12.63,-3.76 -18.67,-6.85 -5.82,-3.01 -11.41,-6.78 -16.6,-11.38 -7.32,-6.56 -13.85,-14.67 -18.42,-24.66 -4.47,-9.64 -6.71,-20.24 -6.75,-31.53 0.04,-11.25 2.28,-21.86 6.72,-31.49 4.58,-10.08 11.11,-18.23 18.48,-24.83 5.14,-4.56 10.69,-8.31 16.48,-11.27 3.46,-1.76 7,-3.25 10.6,-4.48zm347.36 144.92l0 -145.64 52.56 0 0 145.64 -52.56 0zm123.74 -99.6l3.97 1.91c4.93,2.32 9.79,4.84 14.58,7.64 4.39,2.59 8.67,5.6 12.58,9.28 3.91,3.68 7.31,8.18 9.79,13.61 2.65,5.81 3.87,12.34 3.91,19.1 0,8.02 -1.68,15.63 -4.94,22.41 -3.28,6.88 -7.85,12.28 -13.1,16.49 -5.74,4.68 -12.21,7.72 -18.77,9.78 -7.64,2.37 -15.57,3.26 -23.42,3.29 -6.15,0 -12.3,-0.6 -18.4,-1.59 -6.83,-1.08 -13.61,-2.63 -20.35,-4.44l-6.94 -1.86 -5.34 -62.59 15.2 8.12c4.2,2.24 8.45,4.33 12.77,6.16 3.75,1.61 7.59,2.9 11.48,3.82 3.68,0.87 7.41,1.3 11.14,1.3 1.23,-0.01 2.52,-0.06 3.79,-0.22 -0.59,-0.32 -1.18,-0.62 -1.78,-0.92 -3.17,-1.58 -6.34,-3.18 -9.5,-4.76l-9.4 -4.59c-8.36,-4.12 -17.17,-9.76 -23.61,-18 -5.98,-7.68 -9.55,-17.23 -9.5,-28.3 0.05,-7.33 1.75,-14.16 4.91,-20.23 3.16,-5.99 7.49,-10.67 12.29,-14.31 5.25,-3.95 11.07,-6.57 16.96,-8.35 6.8,-2.01 13.8,-2.81 20.77,-2.84 5.97,0 11.93,0.64 17.84,1.7 6.5,1.17 12.96,2.82 19.35,4.72l7.58 2.26 0 57.35 -13.47 -7.24c-5.96,-3.2 -12.09,-6.12 -18.36,-8.07 -0.67,-0.21 -1.35,-0.41 -2.04,-0.61zm-948.7 48.29c6.61,-0.18 13.51,-1.08 19.77,-3.62 3.97,-1.62 8.47,-4.19 11.3,-8.28 1.95,-2.8 2.82,-5.83 2.82,-9.61 0,-3.8 -0.89,-6.86 -2.84,-9.69 -2.84,-4.11 -7.32,-6.69 -11.3,-8.32 -6.25,-2.57 -13.15,-3.49 -19.76,-3.68l0 43.19zm478.86 -21.56c0.02,3.05 0.53,5.95 1.68,8.66 1.26,3.03 3.05,5.54 5.14,7.62 2.58,2.57 5.53,4.4 8.61,5.67 3.69,1.51 7.53,2.17 11.38,2.19 3.87,-0.02 7.71,-0.65 11.41,-2.16 3.08,-1.27 6.04,-3.08 8.63,-5.63 2.11,-2.1 3.89,-4.59 5.16,-7.64 1.13,-2.72 1.63,-5.58 1.65,-8.63 -0.02,-3.13 -0.5,-6.07 -1.64,-8.82 -1.29,-3.06 -3.06,-5.58 -5.18,-7.69 -2.58,-2.56 -5.54,-4.37 -8.61,-5.64 -3.69,-1.51 -7.53,-2.14 -11.38,-2.16 -3.86,0.02 -7.7,0.65 -11.4,2.18 -3.08,1.27 -6.03,3.1 -8.6,5.65 -2.11,2.12 -3.9,4.66 -5.17,7.74 -1.14,2.71 -1.66,5.62 -1.68,8.64z"/>
     <path class="fil2" d="M33.75 483.9l0 -120.17 33.06 0 0 94.37 53.99 0 0 25.8 -87.05 0zm131.13 -120.17l0 66.02c0,10.61 2.25,18.56 6.75,23.82 4.47,5.29 11.28,7.92 20.41,7.92 8.77,0 15.49,-2.46 20.08,-7.38 4.63,-4.89 6.94,-12.05 6.94,-21.44l0 -68.94 29.54 0 0 68.94c0,17.34 -5.12,30.89 -15.39,40.59 -10.24,9.7 -24.48,14.54 -42.71,14.54 -18.42,0 -32.73,-4.81 -42.97,-14.43 -10.2,-9.62 -15.32,-23.14 -15.32,-40.54l0 -69.11 32.67 0zm146.74 94.37l7.27 0c14.44,0 25.76,-3.03 33.91,-9.11 8.15,-6.08 12.22,-14.45 12.22,-25.18 0,-10.72 -4.08,-19.12 -12.22,-25.26 -8.15,-6.14 -19.46,-9.19 -33.91,-9.19l-7.27 0 0 68.74zm-32.67 25.8l0 -120.17 36.78 0c25.85,0 46.13,5.35 60.77,16.07 14.64,10.72 21.97,25.4 21.97,44.01 0,11.14 -2.9,21.07 -8.7,29.7 -5.77,8.66 -14.28,15.75 -25.5,21.36 -6.39,3.2 -13.3,5.49 -20.8,6.9 -7.47,1.41 -16.72,2.12 -27.74,2.12l-36.78 0zm162.42 0l0 -57.03 -49.49 -63.14 39.9 0 28.92 38.05 31.88 -38.05 35.05 0 -53.4 61.98 0 58.19 -32.86 0zm139.7 0l28.75 -124.07 2.38 0 52.26 78.24 49.29 -78.24 2.48 0 28.95 124.07 -31.43 0 -11.74 -54.88 -37.17 59.29 -2.22 0 -39.9 -60.11 -12.16 55.7 -29.51 0zm209.66 -60.08c0,10.44 3.52,19.21 10.56,26.25 7.04,7.04 15.72,10.58 26.02,10.58 10.37,0 19.07,-3.51 26.08,-10.52 7.01,-7.04 10.5,-15.81 10.5,-26.31 0,-10.55 -3.49,-19.38 -10.5,-26.42 -7.01,-7.04 -15.72,-10.58 -26.08,-10.58 -10.3,0 -18.97,3.54 -26.02,10.58 -7.04,7.04 -10.56,15.87 -10.56,26.42zm-34.04 0c0,-8.91 1.76,-17.23 5.32,-24.98 3.52,-7.78 8.74,-14.71 15.62,-20.85 6.49,-5.86 14.05,-10.35 22.66,-13.47 8.58,-3.14 17.61,-4.69 27.03,-4.69 9.42,0 18.45,1.58 27.09,4.72 8.64,3.14 16.3,7.69 22.98,13.61 6.75,5.91 11.87,12.73 15.32,20.51 3.49,7.75 5.22,16.15 5.22,25.15 0,7.53 -1.2,14.6 -3.62,21.22 -2.45,6.62 -6.03,12.67 -10.82,18.16 -6.75,7.78 -15.03,13.83 -24.88,18.13 -9.84,4.33 -20.28,6.48 -31.3,6.48 -9.35,0 -18.32,-1.58 -26.9,-4.72 -8.57,-3.14 -16.17,-7.69 -22.79,-13.61 -6.88,-6.11 -12.1,-13.04 -15.62,-20.76 -3.55,-7.69 -5.32,-16.01 -5.32,-24.89zm56.53 -73.49l19.5 -28.68 21.19 0 -28.17 28.68 -12.52 0zm154.86 138.15l-2.28 0 -65.37 -124.75 34.98 0 32.67 65.71 32.96 -65.71 32.41 0 -65.37 124.75zm76.49 -4.58l0 -120.17 85.28 0 0 24.78 -53.21 0 0 21.72 45.58 0 0 24.61 -45.58 0 0 23.76 53.99 0 0 25.29 -86.07 0zm111.66 0l0 -120.17 33.06 0 0 120.17 -33.06 0zm59.07 -33.94c8.51,4.53 15.75,7.67 21.71,9.5 5.93,1.81 11.74,2.72 17.41,2.72 5.71,0 10.3,-1.11 13.79,-3.28 3.45,-2.18 5.18,-4.98 5.18,-8.4 0,-4.9 -6.16,-10.44 -18.52,-16.55 -1.99,-0.99 -3.52,-1.78 -4.6,-2.32l-9.36 -4.58c-9.1,-4.47 -15.84,-9.53 -20.21,-15.16 -4.4,-5.63 -6.58,-12.02 -6.58,-19.15 0,-9.67 4.21,-17.59 12.62,-23.79 8.38,-6.2 19.23,-9.28 32.54,-9.28 4.92,0 10.24,0.51 15.94,1.5 5.74,0.99 12.1,2.55 19.11,4.64l0 28.15c-6.68,-3.62 -13.01,-6.42 -19.01,-8.4 -6,-1.98 -11.09,-2.97 -15.29,-2.97 -4.66,0 -8.32,0.87 -10.99,2.6 -2.67,1.73 -4.01,4.1 -4.01,7.07 0,2.09 0.78,4.04 2.38,5.86 1.6,1.84 3.98,3.48 7.17,4.98l16.24 7.78c13.6,6.53 22.72,12.56 27.42,18.07 4.69,5.54 7.04,12.08 7.04,19.66 0,11.71 -4.6,21.19 -13.79,28.4 -9.23,7.21 -21.42,10.8 -36.65,10.8 -5.15,0 -10.76,-0.48 -16.82,-1.41 -6.03,-0.93 -12.72,-2.4 -19.95,-4.38l-2.77 -32.05z"/>
     <g>
      <path class="fil2" d="M186.68 598.58c0,2.17 -0.41,3.75 -1.25,4.77 -0.83,1.01 -2.14,1.53 -3.93,1.53 -1.84,0 -3.17,-0.5 -4,-1.49 -0.84,-0.99 -1.25,-2.59 -1.25,-4.8l0 -38.42c0,-3.12 0.49,-5.25 1.46,-6.38 0.99,-1.13 2.75,-1.69 5.28,-1.69l3.9 0c2.19,0 3.79,0.41 4.78,1.2 0.99,0.8 1.94,2.96 2.86,6.45l8.86 32.19 8.53 -31.54c0.97,-3.56 1.96,-5.84 2.95,-6.83 0.99,-0.99 2.45,-1.48 4.41,-1.48l4.44 0c2.54,0 4.3,0.57 5.29,1.72 0.97,1.13 1.46,3.26 1.46,6.35l0 38.42c0,2.17 -0.43,3.75 -1.26,4.77 -0.85,1.01 -2.15,1.53 -3.91,1.53 -1.84,0 -3.17,-0.5 -4,-1.5 -0.84,-1 -1.25,-2.6 -1.25,-4.79l0 -35.83 -9.3 35.06c-0.72,2.63 -1.64,4.47 -2.73,5.51 -1.08,1.04 -2.62,1.55 -4.62,1.55 -1.95,0 -3.5,-0.54 -4.65,-1.62 -1.15,-1.08 -2.07,-2.9 -2.78,-5.44l-9.3 -35.06 0 35.83zm72.22 -25.1c-3,0 -5.31,1.02 -6.94,3.05 -1.62,2.04 -2.44,4.93 -2.44,8.68 0,3.77 0.81,6.68 2.44,8.73 1.62,2.05 3.94,3.07 6.94,3.07 2.95,0 5.24,-1.02 6.86,-3.07 1.62,-2.05 2.44,-4.96 2.44,-8.73 0,-3.74 -0.81,-6.64 -2.44,-8.68 -1.62,-2.04 -3.91,-3.05 -6.86,-3.05zm0 -8.58c6.25,0 11.18,1.8 14.77,5.41 3.6,3.61 5.4,8.57 5.4,14.87 0,6.34 -1.8,11.31 -5.4,14.92 -3.6,3.61 -8.52,5.41 -14.77,5.41 -6.27,0 -11.2,-1.8 -14.79,-5.41 -3.59,-3.61 -5.38,-8.58 -5.38,-14.92 0,-6.31 1.8,-11.26 5.38,-14.87 3.59,-3.61 8.51,-5.41 14.79,-5.41zm6.44 -10.74l-6.08 6.47c-0.45,0.47 -0.84,0.78 -1.2,0.91 -0.35,0.14 -0.8,0.21 -1.34,0.21 -0.85,0 -1.58,-0.28 -2.17,-0.81 -0.6,-0.54 -0.9,-1.16 -0.9,-1.89 0,-0.27 0.05,-0.57 0.16,-0.89 0.12,-0.31 0.3,-0.71 0.58,-1.2l4.72 -7.72c0.36,-0.58 0.81,-1.03 1.35,-1.34 0.54,-0.3 1.14,-0.45 1.8,-0.45 1.25,0 2.29,0.37 3.11,1.09 0.84,0.74 1.25,1.66 1.25,2.75 0,0.51 -0.11,1.01 -0.32,1.5 -0.23,0.49 -0.54,0.94 -0.96,1.36zm17.27 19c-0.2,-0.47 -0.34,-0.93 -0.42,-1.37 -0.09,-0.44 -0.13,-0.88 -0.13,-1.33 0,-1.39 0.51,-2.56 1.54,-3.5 1.03,-0.94 2.3,-1.42 3.81,-1.42 1.39,0 2.5,0.36 3.35,1.08 0.84,0.72 1.51,1.91 2.02,3.57l7.07 23.32 7.17 -23.54c0.47,-1.51 1.13,-2.65 1.99,-3.39 0.85,-0.75 1.93,-1.12 3.21,-1.12 1.61,0 2.89,0.41 3.82,1.2 0.94,0.81 1.41,1.91 1.41,3.3 0,0.37 -0.05,0.81 -0.15,1.3 -0.1,0.49 -0.24,1.01 -0.44,1.58l-10.06 26.75c-0.89,2.29 -1.75,3.74 -2.62,4.35 -0.86,0.62 -2.71,0.93 -5.54,0.93 -1.66,0 -2.89,-0.3 -3.69,-0.91 -0.79,-0.61 -1.61,-2.06 -2.46,-4.37l-9.89 -26.44zm48.8 14.77c0.12,2.98 0.92,5.26 2.4,6.82 1.47,1.56 3.55,2.34 6.21,2.34 1.23,0 2.35,-0.17 3.37,-0.49 1.03,-0.33 1.93,-0.81 2.71,-1.44 0.2,-0.16 0.45,-0.38 0.76,-0.65 1.81,-1.56 3.39,-2.35 4.74,-2.35 1.2,0 2.19,0.37 2.99,1.1 0.79,0.74 1.19,1.64 1.19,2.74 0,0.8 -0.21,1.59 -0.64,2.36 -0.42,0.78 -1.09,1.57 -1.96,2.4 -1.71,1.54 -3.78,2.72 -6.17,3.54 -2.41,0.82 -5.02,1.24 -7.86,1.24 -5.76,0 -10.34,-1.85 -13.7,-5.53 -3.37,-3.69 -5.06,-8.7 -5.06,-15 0,-6.22 1.66,-11.12 4.97,-14.71 3.33,-3.59 7.86,-5.38 13.63,-5.38 5.79,0 10.41,1.69 13.86,5.07 3.46,3.38 5.19,7.91 5.19,13.6 0,1.67 -0.31,2.83 -0.95,3.43 -0.63,0.62 -2.21,0.93 -4.75,0.93l-1.14 0 -19.79 0zm15.67 -6.65c-0.12,-2.56 -0.85,-4.52 -2.17,-5.85 -1.34,-1.35 -3.24,-2.01 -5.7,-2.01 -2.34,0 -4.17,0.67 -5.49,2.01 -1.33,1.34 -2.09,3.29 -2.31,5.85l15.67 0zm28.94 17.97c0,1.86 -0.45,3.27 -1.34,4.21 -0.89,0.94 -2.21,1.42 -3.96,1.42 -1.79,0 -3.13,-0.48 -4.01,-1.42 -0.89,-0.94 -1.34,-2.35 -1.34,-4.21l0 -27.99c0,-1.91 0.45,-3.34 1.34,-4.29 0.89,-0.95 2.23,-1.43 4.01,-1.43 1.75,0 3.07,0.48 3.96,1.43 0.89,0.95 1.34,2.38 1.34,4.29l0 27.99zm-10.95 -41.77c0,-1.47 0.55,-2.73 1.66,-3.79 1.11,-1.06 2.44,-1.59 3.99,-1.59 1.56,0 2.89,0.51 3.97,1.55 1.09,1.04 1.63,2.31 1.63,3.83 0,1.48 -0.55,2.73 -1.65,3.78 -1.1,1.05 -2.41,1.58 -3.95,1.58 -1.52,0 -2.84,-0.54 -3.96,-1.61 -1.13,-1.07 -1.69,-2.31 -1.69,-3.74zm33.21 31.51c-4.98,-1.13 -8.51,-2.59 -10.63,-4.36 -2.11,-1.76 -3.16,-4.14 -3.16,-7.09 0,-3.89 1.47,-6.96 4.41,-9.23 2.94,-2.28 6.92,-3.41 11.95,-3.41 4.41,0 8.1,0.8 11.06,2.41 2.96,1.61 4.45,3.54 4.45,5.8 0,1.19 -0.42,2.17 -1.26,2.93 -0.84,0.78 -1.9,1.16 -3.16,1.16 -1.23,0 -2.9,-0.79 -5.02,-2.37 -0.36,-0.29 -0.64,-0.49 -0.84,-0.63 -0.56,-0.42 -1.34,-0.78 -2.34,-1.06 -1,-0.3 -1.96,-0.44 -2.9,-0.44 -1.98,0 -3.45,0.3 -4.44,0.89 -0.99,0.59 -1.49,1.48 -1.49,2.67 0,0.93 0.45,1.64 1.35,2.16 0.91,0.51 2.99,1.11 6.22,1.79l3.3 0.69c5.05,1.07 8.6,2.47 10.65,4.2 2.05,1.72 3.07,4.12 3.07,7.2 0,4.3 -1.59,7.58 -4.78,9.85 -3.19,2.25 -7.81,3.39 -13.9,3.39 -4.74,0 -8.66,-0.92 -11.78,-2.74 -3.11,-1.83 -4.66,-4.04 -4.66,-6.63 0,-1.35 0.45,-2.46 1.35,-3.3 0.9,-0.84 2.05,-1.27 3.45,-1.27 1.54,0 3.14,0.87 4.79,2.62 0.46,0.49 0.83,0.85 1.06,1.08 0.86,0.81 1.84,1.39 2.95,1.76 1.12,0.36 2.51,0.54 4.2,0.54 2.1,0 3.71,-0.34 4.86,-0.99 1.15,-0.67 1.72,-1.61 1.72,-2.81 0,-1.61 -2.05,-2.88 -6.15,-3.81l-0.26 -0.07 -4.1 -0.9zm58.51 -1.06c0.13,2.98 0.92,5.26 2.4,6.82 1.48,1.56 3.55,2.34 6.21,2.34 1.23,0 2.35,-0.17 3.37,-0.49 1.03,-0.33 1.93,-0.81 2.71,-1.44 0.2,-0.16 0.45,-0.38 0.76,-0.65 1.82,-1.56 3.39,-2.35 4.74,-2.35 1.2,0 2.19,0.37 2.99,1.1 0.79,0.74 1.19,1.64 1.19,2.74 0,0.8 -0.21,1.59 -0.64,2.36 -0.42,0.78 -1.09,1.57 -1.96,2.4 -1.71,1.54 -3.77,2.72 -6.17,3.54 -2.41,0.82 -5.03,1.24 -7.86,1.24 -5.76,0 -10.34,-1.85 -13.7,-5.53 -3.37,-3.69 -5.06,-8.7 -5.06,-15 0,-6.22 1.66,-11.12 4.98,-14.71 3.32,-3.59 7.86,-5.38 13.62,-5.38 5.79,0 10.41,1.69 13.86,5.07 3.46,3.38 5.18,7.91 5.18,13.6 0,1.67 -0.31,2.83 -0.95,3.43 -0.63,0.62 -2.21,0.93 -4.75,0.93l-1.14 0 -19.79 0zm15.68 -6.65c-0.13,-2.56 -0.85,-4.52 -2.18,-5.85 -1.34,-1.35 -3.24,-2.01 -5.7,-2.01 -2.34,0 -4.17,0.67 -5.49,2.01 -1.33,1.34 -2.09,3.29 -2.31,5.85l15.68 0zm75.5 13.51c2.01,0 3.51,0.39 4.52,1.17 1,0.79 1.5,1.97 1.5,3.55 0,1.54 -0.51,2.71 -1.52,3.51 -1.01,0.8 -2.51,1.2 -4.5,1.2l-28.49 0c-2.54,0 -4.3,-0.56 -5.27,-1.69 -0.97,-1.13 -1.46,-3.26 -1.46,-6.39l0 -35.23c0,-3.15 0.49,-5.28 1.46,-6.41 0.97,-1.13 2.74,-1.69 5.27,-1.69l27.06 0c1.98,0 3.49,0.38 4.5,1.16 1.01,0.76 1.52,1.9 1.52,3.38 0,1.44 -0.51,2.54 -1.52,3.28 -1.01,0.75 -2.51,1.12 -4.5,1.12l-22.85 0 0 10.94 20.54 0c1.99,0 3.46,0.37 4.45,1.1 0.99,0.74 1.49,1.85 1.49,3.34 0,1.42 -0.51,2.5 -1.52,3.24 -1.01,0.75 -2.47,1.12 -4.41,1.12l-20.54 0 0 13.3 24.27 0zm13.21 -37.03c0,-1.89 0.45,-3.3 1.34,-4.24 0.89,-0.94 2.23,-1.42 4.01,-1.42 1.75,0 3.07,0.48 3.96,1.42 0.89,0.94 1.34,2.35 1.34,4.24l0 41.49c0,1.86 -0.45,3.27 -1.34,4.21 -0.89,0.94 -2.21,1.42 -3.96,1.42 -1.79,0 -3.13,-0.48 -4.01,-1.42 -0.89,-0.94 -1.34,-2.35 -1.34,-4.21l0 -41.49zm29.24 30.17c0.13,2.98 0.92,5.26 2.4,6.82 1.47,1.56 3.55,2.34 6.21,2.34 1.23,0 2.35,-0.17 3.38,-0.49 1.03,-0.33 1.93,-0.81 2.71,-1.44 0.2,-0.16 0.45,-0.38 0.76,-0.65 1.81,-1.56 3.39,-2.35 4.74,-2.35 1.2,0 2.19,0.37 2.99,1.1 0.79,0.74 1.19,1.64 1.19,2.74 0,0.8 -0.21,1.59 -0.64,2.36 -0.42,0.78 -1.09,1.57 -1.96,2.4 -1.71,1.54 -3.77,2.72 -6.17,3.54 -2.41,0.82 -5.02,1.24 -7.86,1.24 -5.76,0 -10.34,-1.85 -13.7,-5.53 -3.38,-3.69 -5.06,-8.7 -5.06,-15 0,-6.22 1.66,-11.12 4.97,-14.71 3.33,-3.59 7.86,-5.38 13.63,-5.38 5.79,0 10.41,1.69 13.86,5.07 3.46,3.38 5.19,7.91 5.19,13.6 0,1.67 -0.31,2.83 -0.95,3.43 -0.63,0.62 -2.21,0.93 -4.75,0.93l-1.14 0 -19.79 0zm15.67 -6.65c-0.12,-2.56 -0.85,-4.52 -2.17,-5.85 -1.34,-1.35 -3.24,-2.01 -5.7,-2.01 -2.34,0 -4.17,0.67 -5.49,2.01 -1.33,1.34 -2.09,3.29 -2.31,5.85l15.67 0zm19.86 -7.87l-1.73 0c-1.41,0 -2.47,-0.3 -3.2,-0.9 -0.71,-0.6 -1.08,-1.49 -1.08,-2.68 0,-1.19 0.36,-2.08 1.08,-2.68 0.72,-0.6 1.79,-0.89 3.2,-0.89l1.73 0 0 -5.16c0,-1.87 0.44,-3.29 1.3,-4.23 0.86,-0.94 2.18,-1.41 3.94,-1.41 1.78,0 3.11,0.47 4,1.41 0.9,0.94 1.36,2.37 1.41,4.27l0 5.13 2.71 0c1.45,0 2.51,0.3 3.21,0.88 0.7,0.58 1.05,1.48 1.05,2.69 0,1.19 -0.35,2.09 -1.06,2.68 -0.71,0.6 -1.78,0.9 -3.2,0.9l-2.71 0 0 21.01c0,0.93 0.16,1.56 0.5,1.89 0.32,0.32 0.93,0.49 1.81,0.49 0.14,0 0.41,-0.01 0.8,-0.04 0.39,-0.03 0.74,-0.04 1.03,-0.04 1.17,0 2.08,0.31 2.75,0.93 0.66,0.62 0.99,1.48 0.99,2.58 0,1.63 -0.59,2.81 -1.76,3.55 -1.16,0.73 -3.04,1.1 -5.6,1.1 -4.21,0 -7.14,-0.75 -8.75,-2.25 -1.61,-1.5 -2.41,-4.4 -2.41,-8.69l0 -20.52zm33.65 -0.01c1.06,-2.47 2.41,-4.39 4.02,-5.78 1.61,-1.38 3.31,-2.07 5.12,-2.07 1.76,0 3.14,0.47 4.14,1.39 1,0.93 1.5,2.22 1.5,3.84 0,0.82 -0.14,1.54 -0.42,2.17 -0.27,0.63 -0.71,1.19 -1.3,1.68 -0.68,0.56 -1.9,0.87 -3.66,0.94 -1.03,0.05 -1.8,0.12 -2.34,0.2 -2.07,0.38 -3.65,1.26 -4.71,2.67 -1.06,1.42 -1.59,3.31 -1.59,5.71l0 15.1c0,1.86 -0.45,3.27 -1.34,4.21 -0.89,0.94 -2.23,1.42 -4,1.42 -1.76,0 -3.09,-0.48 -3.98,-1.42 -0.89,-0.94 -1.34,-2.35 -1.34,-4.21l0 -27.99c0,-1.91 0.44,-3.34 1.3,-4.29 0.86,-0.95 2.15,-1.43 3.86,-1.43 1.49,0 2.65,0.39 3.48,1.19 0.82,0.79 1.25,1.9 1.25,3.31l0 0.15 0 3.21zm37.05 0.08c-3,0 -5.31,1.02 -6.94,3.05 -1.62,2.04 -2.44,4.93 -2.44,8.68 0,3.77 0.81,6.68 2.44,8.73 1.63,2.05 3.94,3.07 6.94,3.07 2.95,0 5.24,-1.02 6.86,-3.07 1.63,-2.05 2.44,-4.96 2.44,-8.73 0,-3.74 -0.81,-6.64 -2.44,-8.68 -1.62,-2.04 -3.91,-3.05 -6.86,-3.05zm0 -8.58c6.25,0 11.18,1.8 14.77,5.41 3.6,3.61 5.4,8.57 5.4,14.87 0,6.34 -1.8,11.31 -5.4,14.92 -3.6,3.61 -8.52,5.41 -14.77,5.41 -6.27,0 -11.2,-1.8 -14.79,-5.41 -3.59,-3.61 -5.38,-8.58 -5.38,-14.92 0,-6.31 1.8,-11.26 5.38,-14.87 3.59,-3.61 8.52,-5.41 14.79,-5.41zm60.52 -3.07l0 33.11 8.9 0c5.15,0 8.89,-1.29 11.19,-3.86 2.31,-2.58 3.46,-6.75 3.46,-12.51 0,-5.76 -1.08,-9.98 -3.23,-12.68 -2.15,-2.71 -5.5,-4.05 -10.08,-4.05l-10.25 0zm-4.14 42.41c-2.54,0 -4.3,-0.56 -5.27,-1.69 -0.97,-1.13 -1.46,-3.25 -1.46,-6.37l0 -35.28c0,-3.13 0.49,-5.25 1.46,-6.38 0.97,-1.13 2.74,-1.69 5.27,-1.69l14.39 0c8.29,0 14.46,2.13 18.52,6.39 4.06,4.26 6.1,10.72 6.1,19.37 0,4.71 -0.75,8.84 -2.25,12.43 -1.5,3.59 -3.69,6.47 -6.54,8.65 -2.15,1.63 -4.6,2.8 -7.34,3.51 -2.73,0.7 -6.56,1.06 -11.5,1.06l-11.39 0zm65.03 -30.75c-3,0 -5.31,1.02 -6.93,3.05 -1.63,2.04 -2.44,4.93 -2.44,8.68 0,3.77 0.81,6.68 2.44,8.73 1.62,2.05 3.94,3.07 6.93,3.07 2.95,0 5.24,-1.02 6.86,-3.07 1.63,-2.05 2.44,-4.96 2.44,-8.73 0,-3.74 -0.81,-6.64 -2.44,-8.68 -1.62,-2.04 -3.91,-3.05 -6.86,-3.05zm0 -8.58c6.25,0 11.18,1.8 14.78,5.41 3.6,3.61 5.4,8.57 5.4,14.87 0,6.34 -1.8,11.31 -5.4,14.92 -3.6,3.61 -8.53,5.41 -14.78,5.41 -6.27,0 -11.2,-1.8 -14.79,-5.41 -3.59,-3.61 -5.38,-8.58 -5.38,-14.92 0,-6.31 1.8,-11.26 5.38,-14.87 3.59,-3.61 8.52,-5.41 14.79,-5.41zm59.71 5.56c1.36,-1.81 3,-3.18 4.91,-4.1 1.9,-0.92 4.03,-1.38 6.4,-1.38 4.02,0 7.21,1.11 9.54,3.34 2.34,2.22 3.5,5.26 3.5,9.09l0 21.85c0,1.88 -0.44,3.3 -1.3,4.23 -0.86,0.93 -2.17,1.39 -3.92,1.39 -1.71,0 -3.02,-0.48 -3.92,-1.43 -0.9,-0.95 -1.35,-2.36 -1.35,-4.2l0 -19.79c0,-1.81 -0.52,-3.23 -1.56,-4.24 -1.04,-1.01 -2.47,-1.53 -4.34,-1.53 -2.07,0 -3.73,0.64 -4.94,1.92 -1.22,1.29 -1.84,3.05 -1.84,5.28l0 18.36c0,1.86 -0.44,3.27 -1.33,4.21 -0.87,0.94 -2.19,1.42 -3.92,1.42 -1.74,0 -3.04,-0.47 -3.89,-1.39 -0.86,-0.93 -1.29,-2.35 -1.29,-4.23l0 -19.71c0,-1.85 -0.5,-3.27 -1.5,-4.27 -1,-1 -2.42,-1.5 -4.29,-1.5 -2.07,0 -3.71,0.64 -4.92,1.92 -1.21,1.29 -1.81,3.04 -1.81,5.28l0 18.28c0,1.86 -0.44,3.27 -1.31,4.21 -0.89,0.94 -2.2,1.42 -3.95,1.42 -1.74,0 -3.04,-0.48 -3.92,-1.42 -0.88,-0.94 -1.31,-2.35 -1.31,-4.21l0 -27.99c0,-1.83 0.43,-3.25 1.3,-4.24 0.86,-0.99 2.1,-1.48 3.71,-1.48 1.51,0 2.7,0.4 3.55,1.22 0.85,0.82 1.36,2.03 1.54,3.62 1.41,-1.81 3.04,-3.18 4.88,-4.1 1.82,-0.92 3.9,-1.38 6.2,-1.38 2.51,0 4.66,0.45 6.45,1.35 1.78,0.9 3.34,2.3 4.65,4.21zm42.5 17.47c0.13,2.98 0.93,5.26 2.4,6.82 1.48,1.56 3.55,2.34 6.21,2.34 1.23,0 2.35,-0.17 3.37,-0.49 1.03,-0.33 1.93,-0.81 2.71,-1.44 0.2,-0.16 0.45,-0.38 0.76,-0.65 1.81,-1.56 3.39,-2.35 4.74,-2.35 1.2,0 2.19,0.37 2.99,1.1 0.79,0.74 1.19,1.64 1.19,2.74 0,0.8 -0.21,1.59 -0.64,2.36 -0.42,0.78 -1.09,1.57 -1.96,2.4 -1.71,1.54 -3.77,2.72 -6.17,3.54 -2.41,0.82 -5.03,1.24 -7.87,1.24 -5.76,0 -10.33,-1.85 -13.7,-5.53 -3.37,-3.69 -5.06,-8.7 -5.06,-15 0,-6.22 1.66,-11.12 4.98,-14.71 3.33,-3.59 7.86,-5.38 13.62,-5.38 5.79,0 10.41,1.69 13.86,5.07 3.46,3.38 5.19,7.91 5.19,13.6 0,1.67 -0.31,2.83 -0.95,3.43 -0.64,0.62 -2.21,0.93 -4.75,0.93l-1.14 0 -19.79 0zm15.68 -6.65c-0.13,-2.56 -0.85,-4.52 -2.18,-5.85 -1.34,-1.35 -3.24,-2.01 -5.7,-2.01 -2.34,0 -4.17,0.67 -5.49,2.01 -1.33,1.34 -2.09,3.29 -2.31,5.85l15.68 0zm-1.51 -27.12l-6.08 6.47c-0.45,0.47 -0.84,0.78 -1.2,0.91 -0.35,0.14 -0.8,0.21 -1.34,0.21 -0.85,0 -1.58,-0.28 -2.17,-0.81 -0.6,-0.54 -0.9,-1.16 -0.9,-1.89 0,-0.27 0.05,-0.57 0.16,-0.89 0.11,-0.31 0.3,-0.71 0.58,-1.2l4.72 -7.72c0.36,-0.58 0.81,-1.03 1.35,-1.34 0.54,-0.3 1.14,-0.45 1.8,-0.45 1.25,0 2.28,0.37 3.11,1.09 0.84,0.74 1.25,1.66 1.25,2.75 0,0.51 -0.11,1.01 -0.33,1.5 -0.22,0.49 -0.53,0.94 -0.96,1.36zm32.31 34.83c-4.98,-1.13 -8.51,-2.59 -10.63,-4.36 -2.11,-1.76 -3.16,-4.14 -3.16,-7.09 0,-3.89 1.47,-6.96 4.41,-9.23 2.94,-2.28 6.93,-3.41 11.95,-3.41 4.42,0 8.1,0.8 11.07,2.41 2.96,1.61 4.45,3.54 4.45,5.8 0,1.19 -0.42,2.17 -1.26,2.93 -0.84,0.78 -1.9,1.16 -3.16,1.16 -1.23,0 -2.9,-0.79 -5.02,-2.37 -0.36,-0.29 -0.64,-0.49 -0.84,-0.63 -0.56,-0.42 -1.34,-0.78 -2.34,-1.06 -1,-0.3 -1.96,-0.44 -2.9,-0.44 -1.97,0 -3.45,0.3 -4.44,0.89 -0.99,0.59 -1.49,1.48 -1.49,2.67 0,0.93 0.45,1.64 1.35,2.16 0.91,0.51 2.99,1.11 6.23,1.79l3.3 0.69c5.05,1.07 8.6,2.47 10.65,4.2 2.05,1.72 3.07,4.12 3.07,7.2 0,4.3 -1.59,7.58 -4.77,9.85 -3.19,2.25 -7.81,3.39 -13.9,3.39 -4.74,0 -8.66,-0.92 -11.78,-2.74 -3.11,-1.83 -4.66,-4.04 -4.66,-6.63 0,-1.35 0.45,-2.46 1.35,-3.3 0.9,-0.84 2.05,-1.27 3.45,-1.27 1.54,0 3.14,0.87 4.79,2.62 0.46,0.49 0.83,0.85 1.06,1.08 0.86,0.81 1.84,1.39 2.95,1.76 1.11,0.36 2.51,0.54 4.2,0.54 2.1,0 3.71,-0.34 4.86,-0.99 1.15,-0.67 1.73,-1.61 1.73,-2.81 0,-1.61 -2.05,-2.88 -6.15,-3.81l-0.26 -0.07 -4.1 -0.9zm30 -15.58l-1.72 0c-1.41,0 -2.47,-0.3 -3.2,-0.9 -0.71,-0.6 -1.08,-1.49 -1.08,-2.68 0,-1.19 0.36,-2.08 1.08,-2.68 0.72,-0.6 1.79,-0.89 3.2,-0.89l1.72 0 0 -5.16c0,-1.87 0.44,-3.29 1.3,-4.23 0.86,-0.94 2.17,-1.41 3.94,-1.41 1.78,0 3.11,0.47 4,1.41 0.9,0.94 1.36,2.37 1.41,4.27l0 5.13 2.71 0c1.45,0 2.51,0.3 3.21,0.88 0.7,0.58 1.05,1.48 1.05,2.69 0,1.19 -0.35,2.09 -1.06,2.68 -0.71,0.6 -1.78,0.9 -3.2,0.9l-2.71 0 0 21.01c0,0.93 0.16,1.56 0.5,1.89 0.32,0.32 0.93,0.49 1.81,0.49 0.14,0 0.41,-0.01 0.8,-0.04 0.39,-0.03 0.74,-0.04 1.03,-0.04 1.17,0 2.09,0.31 2.75,0.93 0.66,0.62 0.99,1.48 0.99,2.58 0,1.63 -0.59,2.81 -1.76,3.55 -1.16,0.73 -3.04,1.1 -5.6,1.1 -4.21,0 -7.13,-0.75 -8.75,-2.25 -1.61,-1.5 -2.41,-4.4 -2.41,-8.69l0 -20.52zm34.64 25.84c0,1.86 -0.45,3.27 -1.34,4.21 -0.89,0.94 -2.21,1.42 -3.96,1.42 -1.79,0 -3.13,-0.48 -4.01,-1.42 -0.89,-0.94 -1.34,-2.35 -1.34,-4.21l0 -27.99c0,-1.91 0.45,-3.34 1.34,-4.29 0.89,-0.95 2.23,-1.43 4.01,-1.43 1.75,0 3.07,0.48 3.96,1.43 0.89,0.95 1.34,2.38 1.34,4.29l0 27.99zm-10.95 -41.77c0,-1.47 0.55,-2.73 1.66,-3.79 1.11,-1.06 2.44,-1.59 3.99,-1.59 1.56,0 2.89,0.51 3.97,1.55 1.09,1.04 1.63,2.31 1.63,3.83 0,1.48 -0.55,2.73 -1.65,3.78 -1.1,1.05 -2.41,1.58 -3.95,1.58 -1.52,0 -2.84,-0.54 -3.96,-1.61 -1.13,-1.07 -1.69,-2.31 -1.69,-3.74zm53.62 18.14c0,1.15 -0.46,2.12 -1.38,2.93 -0.91,0.82 -2.04,1.23 -3.35,1.23 -0.9,0 -1.73,-0.21 -2.49,-0.64 -0.76,-0.43 -1.62,-1.22 -2.61,-2.35 -1.13,-1.3 -2.15,-2.17 -3.09,-2.62 -0.95,-0.45 -2.06,-0.68 -3.36,-0.68 -2.61,0 -4.56,0.99 -5.86,2.97 -1.28,1.98 -1.94,4.95 -1.94,8.9 0,3.65 0.68,6.46 2.04,8.43 1.35,1.97 3.3,2.95 5.83,2.95 1.15,0 2.15,-0.19 2.99,-0.56 0.85,-0.37 1.65,-0.98 2.4,-1.81 0.28,-0.27 0.64,-0.73 1.1,-1.36 1.61,-2.13 3.25,-3.21 4.91,-3.21 1.35,0 2.47,0.44 3.41,1.31 0.93,0.87 1.39,1.93 1.39,3.19 0,1.16 -0.32,2.31 -0.97,3.45 -0.64,1.14 -1.61,2.26 -2.91,3.35 -1.8,1.51 -3.75,2.63 -5.82,3.35 -2.07,0.73 -4.36,1.09 -6.85,1.09 -5.84,0 -10.4,-1.8 -13.69,-5.4 -3.29,-3.6 -4.93,-8.57 -4.93,-14.93 0,-6.33 1.68,-11.29 5.04,-14.89 3.36,-3.6 7.99,-5.4 13.87,-5.4 4.49,0 8.33,1.08 11.5,3.27 3.18,2.18 4.76,4.66 4.76,7.45zm26.31 -2.13c-3,0 -5.31,1.02 -6.93,3.05 -1.62,2.04 -2.44,4.93 -2.44,8.68 0,3.77 0.81,6.68 2.44,8.73 1.62,2.05 3.94,3.07 6.93,3.07 2.95,0 5.24,-1.02 6.86,-3.07 1.63,-2.05 2.44,-4.96 2.44,-8.73 0,-3.74 -0.81,-6.64 -2.44,-8.68 -1.62,-2.04 -3.91,-3.05 -6.86,-3.05zm0 -8.58c6.25,0 11.18,1.8 14.78,5.41 3.6,3.61 5.4,8.57 5.4,14.87 0,6.34 -1.8,11.31 -5.4,14.92 -3.6,3.61 -8.53,5.41 -14.78,5.41 -6.27,0 -11.2,-1.8 -14.78,-5.41 -3.59,-3.61 -5.39,-8.58 -5.39,-14.92 0,-6.31 1.8,-11.26 5.39,-14.87 3.59,-3.61 8.51,-5.41 14.78,-5.41z"/>
      <path class="fil2" d="M1140.56 588.99c-4.98,-1.13 -8.52,-2.59 -10.63,-4.36 -2.11,-1.76 -3.16,-4.14 -3.16,-7.09 0,-3.89 1.48,-6.96 4.41,-9.23 2.94,-2.28 6.92,-3.41 11.95,-3.41 4.41,0 8.1,0.8 11.06,2.41 2.96,1.61 4.45,3.54 4.45,5.8 0,1.19 -0.42,2.17 -1.26,2.93 -0.84,0.78 -1.9,1.16 -3.16,1.16 -1.23,0 -2.9,-0.79 -5.02,-2.37 -0.36,-0.29 -0.64,-0.49 -0.84,-0.63 -0.56,-0.42 -1.34,-0.78 -2.34,-1.06 -1,-0.3 -1.96,-0.44 -2.9,-0.44 -1.97,0 -3.45,0.3 -4.44,0.89 -0.99,0.59 -1.49,1.48 -1.49,2.67 0,0.93 0.45,1.64 1.35,2.16 0.91,0.51 2.99,1.11 6.22,1.79l3.3 0.69c5.05,1.07 8.6,2.47 10.65,4.2 2.05,1.72 3.07,4.12 3.07,7.2 0,4.3 -1.59,7.58 -4.77,9.85 -3.19,2.25 -7.81,3.39 -13.9,3.39 -4.74,0 -8.66,-0.92 -11.78,-2.74 -3.11,-1.83 -4.66,-4.04 -4.66,-6.63 0,-1.35 0.45,-2.46 1.35,-3.3 0.9,-0.84 2.05,-1.27 3.45,-1.27 1.54,0 3.14,0.87 4.79,2.62 0.46,0.49 0.83,0.85 1.06,1.08 0.86,0.81 1.84,1.39 2.95,1.76 1.11,0.36 2.51,0.54 4.2,0.54 2.1,0 3.71,-0.34 4.86,-0.99 1.15,-0.67 1.73,-1.61 1.73,-2.81 0,-1.61 -2.05,-2.88 -6.15,-3.81l-0.26 -0.07 -4.1 -0.9z"/>
     </g>
    </g>
   </g>
  </g>
  <path class="fil3" d="M95.26 0l1148.1 0c52.39,0 95.25,42.86 95.25,95.26l0 723.91c0,52.39 -42.86,95.25 -95.25,95.25l-1148.1 0c-52.39,0 -95.26,-42.86 -95.26,-95.25l0 -723.91c0,-52.39 42.86,-95.26 95.26,-95.26z"/>
 </g>
</svg>
