<?xml version="1.0" encoding="UTF-8"?>
<!DOCTYPE svg PUBLIC "-//W3C//DTD SVG 1.1//EN" "http://www.w3.org/Graphics/SVG/1.1/DTD/svg11.dtd">
<!-- Creator: CorelDRAW (Evaluation Version) -->
<svg xmlns="http://www.w3.org/2000/svg" xml:space="preserve" width="52.3314mm" height="35.7481mm" version="1.1" style="shape-rendering:geometricPrecision; text-rendering:geometricPrecision; image-rendering:optimizeQuality; fill-rule:evenodd; clip-rule:evenodd"
viewBox="0 0 874.52 597.39"
 xmlns:xlink="http://www.w3.org/1999/xlink"
 xmlns:xodm="http://www.corel.com/coreldraw/odm/2003">
 <defs>
  <style type="text/css">
   <![CDATA[
    .fil6 {fill:none}
    .fil0 {fill:white}
    .fil1 {fill:#31714B}
    .fil4 {fill:#FF0002}
    .fil2 {fill:#FFFF02}
    .fil5 {fill:white}
    .fil3 {fill:url(#id1)}
   ]]>
  </style>
   <clipPath id="id0">
    <path d="M62.23 0l750.06 0c34.23,0 62.23,28 62.23,62.23l0 472.93c0,34.23 -28,62.23 -62.23,62.23l-750.06 0c-34.23,0 -62.23,-28 -62.23,-62.23l0 -472.93c0,-34.23 28,-62.23 62.23,-62.23z"/>
   </clipPath>
  <linearGradient id="id1" gradientUnits="userSpaceOnUse" x1="437.63" y1="651.33" x2="437.63" y2="403.3">
   <stop offset="0" style="stop-opacity:1; stop-color:#201F1F"/>
   <stop offset="1" style="stop-opacity:1; stop-color:#EE3338"/>
  </linearGradient>
 </defs>
 <g id="Camada_x0020_1">
  <metadata id="CorelCorpID_0Corel-Layer"/>
  <path class="fil0" d="M62.23 0l750.06 0c34.23,0 62.23,28 62.23,62.23l0 472.93c0,34.23 -28,62.23 -62.23,62.23l-750.06 0c-34.23,0 -62.23,-28 -62.23,-62.23l0 -472.93c0,-34.23 28,-62.23 62.23,-62.23z"/>
  <g style="clip-path:url(#id0)">
   <g id="_105553212433088">
    <g>
     <path id="_1" class="fil1" d="M154.88 421.36l0.08 -2.11 0.09 -2.19 0.46 -11.26 -55.99 0 -0.86 7.67 -0.08 0.63 -0.08 0.66 -0.09 0.69 -0.09 0.7 -0.1 0.72 -0.11 0.75 -0.12 0.78 -0.12 0.8 -0.13 0.82 -0.13 0.84 -0.14 0.87 -0.15 0.89 -0.15 0.91 -0.16 0.94 -0.17 0.99 -2.92 17.09 -2.04 -19.23 -0.04 -0.39 -0.04 -0.47 -0.04 -0.5 -0.04 -0.51 -0.03 -0.52 -0.03 -0.55 -0.03 -0.58 -0.03 -0.58 -0.03 -0.6 -0.03 -0.64 -0.05 -1.3 -0.03 -0.68 -0.03 -0.7 -0.03 -0.72 -0.3 -8.74 -55.4 0 -0.45 13.31 -0.18 5.2 -0.19 5.11 -0.2 5.02 -0.2 4.93 -0.21 4.84 -0.21 4.76 -0.22 4.66 -0.22 4.58 -0.22 4.49 -0.23 4.4 -0.23 4.31 -0.24 4.22 -0.24 4.13 -0.24 4.04 -0.25 3.96 -0.25 3.87 -0.25 3.78 -0.25 3.69 -0.25 3.6 -0.26 3.51 -0.26 3.42 -0.26 3.33 -0.26 3.24 -0.26 3.15 -0.26 3.06 -0.26 2.97 -0.26 2.88 -0.26 2.79 -0.26 2.7 -0.26 2.61 -1.27 12.27 40.5 0 0.26 -9.49 0.04 -1.38 0.04 -1.37 0.04 -1.35 0.04 -1.33 0.04 -1.32 0.04 -1.3 0.04 -1.28 0.04 -1.26 0.02 -0.59 0.02 0.17 0.07 0.83 0.07 0.85 0.08 0.87 0.07 0.88 0.07 0.88 0.07 0.9 0.08 0.93 0.07 0.93 0.07 0.94 0.07 0.96 0.08 0.98 0.08 0.99 0.07 0.99 0.61 8.54 38.62 0 1.26 -7.34 0.18 -1.01 0.18 -1.01 0.18 -1.01 0.18 -1.01 0.19 -1.02 0.19 -1.03 0.19 -1.03 0.19 -1.03 0.2 -1.04 0.2 -1.04 0.2 -1.05 0.2 -1.05 0.2 -1.06 0.2 -1.07 0.19 -1.04 1.55 -8 -0.01 0.5 -0.04 1.22 -0.05 1.27 -0.05 1.31 -0.06 1.35 -0.07 1.39 -0.08 1.43 -0.08 1.47 -0.09 1.51 -0.1 1.55 -0.11 1.59 -0.11 1.63 -0.13 1.67 -0.13 1.72 -0.92 11.24 25.99 0 15.35 0 35.62 0 1.54 -7.23 0.28 -1.29 0.27 -1.22 0.26 -1.15 0.25 -1.08 0.24 -1.02 0.23 -0.95 0.21 -0.87 0.2 -0.81 0.19 -0.74 0.18 -0.68 0.16 -0.59 0.14 -0.52 0.13 -0.45 0.11 -0.37 0.09 -0.3 2.86 -8.88 24.12 0 2.45 11.23 0.08 0.38 0.09 0.48 0.1 0.5 0.1 0.52 0.1 0.53 0.09 0.54 0.1 0.57 0.09 0.59 0.09 0.6 0.09 0.62 0.09 0.65 0.08 0.67 0.08 0.69 0.08 0.71 0.07 0.74 0.72 8.14 35.9 0 12.63 0 38.07 0 3.22 -0.07 3.17 -0.23 3.08 -0.37 3 -0.53 2.91 -0.68 2.82 -0.83 2.74 -0.99 2.65 -1.14 2.56 -1.3 2.47 -1.46 2.38 -1.62 2.29 -1.78 2.19 -1.94 2.09 -2.11 1.99 -2.26 1.88 -2.42 1.77 -2.57 1.66 -2.73 1.55 -2.87 1.43 -3.02 1.32 -3.15 1.19 -3.28 1.08 -3.41 0.96 -3.52 0.84 -3.64 0.72 -3.75 0.61 -3.86 0.49 -3.96 0.38 -4.06 0.27 -4.17 0.16 -4.26 0.05 -4.33 -0.02 -2.3 -0.05 -2.24 -0.08 -2.21 -0.11 -2.19 -0.15 -2.15 -0.18 -2.13 -0.21 -2.1 -0.25 -2.07 -0.28 -2.04 -0.31 -2.01 -0.35 -1.98 -0.38 -1.95 -0.41 -1.91 -0.45 -1.88 -0.48 -1.85 -0.52 -1.81 -0.55 -1.77 -0.59 -1.74 -0.62 -1.7 -0.66 -1.67 -0.69 -1.62 -0.72 -1.59 -0.76 -1.55 -0.79 -1.51 -0.82 -1.46 -0.85 -1.42 -0.89 -1.38 -0.92 -1.33 -0.95 -1.28 -0.98 -1.24 -1.01 -1.19 -1.03 -1.13 -0.87 -0.91 -0.9 -0.87 -0.91 -0.81 -0.91 -0.76 -0.92 -0.71 -0.93 -0.66 -0.94 -0.61 -0.95 -0.56 -0.95 -0.51 -0.96 -0.47 -0.96 -0.43 -0.96 -0.39 -0.97 -0.35 -0.97 -0.31 -0.97 -0.28 -0.98 -0.25 -0.98 -0.22 -0.98 -0.19 -0.98 -0.16 -0.99 -0.14 -0.99 -0.12 -0.99 -0.1 -1 -0.08 -1 -0.07 -1.01 -0.05 -1.01 -0.04 -1.02 -0.03 -1.02 -0.02 -1.03 -0.01 -1.04 -0.01 -1.04 -0 -1.05 -0 -53.09 0 -0.14 13.57 -0.06 5.17 -0.07 5.08 -0.08 4.99 -0.08 4.91 -0.09 4.82 -0.1 4.73 -0.1 4.65 -0.11 4.56 -0.12 4.47 -0.12 4.39 -0.13 4.3 -0.13 4.22 -0.14 4.13 -0.14 4.04 -0.15 3.96 -0.15 3.87 -0.16 3.78 -0.16 3.69 -0.16 3.61 -0.17 3.52 -0.12 2.38 -21.06 -84.4 -0.19 -0.77 -0.19 -0.78 -0.18 -0.77 -0.18 -0.76 -0.17 -0.75 -0.16 -0.74 -0.16 -0.72 -0.15 -0.72 -0.14 -0.71 -0.13 -0.7 -0.13 -0.71 -0.12 -0.7 -0.11 -0.69 -0.1 -0.68 -0.1 -0.68 -0.98 -7.58 -48.55 0 -1.82 5.92 -0.31 0.98 -0.31 0.96 -0.31 0.95 -0.31 0.93 -0.31 0.91 -0.31 0.9 -0.31 0.89 -0.31 0.88 -0.3 0.86 -0.31 0.85 -0.31 0.85 -0.3 0.84 -0.3 0.83 -0.3 0.83 -0.29 0.79 -31.4 83.9 1.65 -68.23 0.03 -0.93 0.03 -1.05 0.03 -1.13 0.03 -1.22 0.03 -1.31 0.03 -1.4 0.04 -1.48 0.04 -1.57 0.05 -1.66 0.05 -1.75 0.06 -1.84 0.06 -1.92 0.07 -2.01zm56.32 43.46l1.06 5.87 -2.92 0 1.86 -5.87zm109.85 2.77l0.21 2.29 0.13 2.58 0.05 2.87 -0.02 1.33 -0.05 1.29 -0.09 1.23 -0.12 1.19 -0.16 1.14 -0.19 1.09 -0.22 1.04 -0.24 1 -0.27 0.95 -0.3 0.9 -0.32 0.87 -0.35 0.83 -0.38 0.79 -0.4 0.75 -0.43 0.72 -0.46 0.69 -0.49 0.66 -0.52 0.62 -0.56 0.59 -0.6 0.56 -0.63 0.52 -0.66 0.49 -0.7 0.45 -0.74 0.42 -0.78 0.38 -0.82 0.33 -0.86 0.29 -0.9 0.24 -0.95 0.19 -0.28 0.04 0.01 -0.4 0.01 -0.47 0.02 -0.54 0.02 -0.6 0.02 -0.64 0.02 -0.69 0.02 -0.76 0.02 -0.81 0.02 -0.85 0.03 -0.9 0.02 -0.96 0.03 -1.01 0.02 -1.01 0.95 -30.34 3.64 0 1.42 0.08 1.14 0.21 0.96 0.32 0.79 0.41 0.66 0.48 0.55 0.54 0.49 0.63 0.45 0.75 0.43 0.94 0.41 1.16 0.38 1.43 0.34 1.71 0.28 2zm46.91 10.11l-0.14 4.02 -0.14 3.95 -0.15 3.88 -0.15 3.81 -0.16 3.74 -0.16 3.66 -0.17 3.6 -0.17 3.52 -0.18 3.45 -0.18 3.38 -0.19 3.32 -0.19 3.24 -0.19 3.17 -0.2 3.1 -0.2 3.03 -0.2 2.96 -0.21 2.89 -0.91 12.21 88.05 0 0.82 0 45 0 0 -10.61 0 -2.12 0 -2.05 0.01 -2 0.01 -1.94 0.01 -1.88 0.01 -1.82 0.01 -1.77 0.01 -1.71 0.01 -1.65 0.01 -1.59 0.01 -1.54 0.01 -1.48 0.01 -1.42 0.02 -1.36 0.02 -1.31 0.02 -1.25 0.02 -1.18 0.02 -1.12 0.02 -1.08 0.02 -1.01 0.02 -0.95 0.02 -0.89 0 -0.13 1.7 0.35 0.71 0.13 0.69 0.12 0.67 0.11 0.65 0.1 0.64 0.09 0.63 0.08 0.6 0.06 0.58 0.06 0.57 0.04 0.55 0.04 0.53 0.03 0.51 0.02 0.49 0.02 0.47 0.01 0.5 0 2.01 -0.06 2.02 -0.18 1.98 -0.3 1.94 -0.42 1.9 -0.53 1.86 -0.66 1.82 -0.77 1.77 -0.89 1.72 -1.01 1.68 -1.13 1.62 -1.24 1.57 -1.36 1.51 -1.47 1.45 -1.59 1.39 -1.7 1.32 -1.81 1.25 -1.91 1.18 -2.01 1.11 -2.11 1.03 -2.21 0.1 -0.24 0.02 1.34 0.19 3.99 0.32 3.9 0.45 3.82 0.58 3.73 0.71 3.63 0.84 3.53 0.97 3.42 1.09 3.32 1.22 3.2 1.34 3.08 1.46 2.95 1.58 2.82 1.69 2.68 1.8 2.54 1.91 2.39 2.01 2.25 2.12 2.11 2.21 1.96 2.31 1.81 2.4 1.67 2.49 1.52 2.58 1.38 2.66 1.23 2.74 1.09 2.83 0.94 2.91 0.8 2.99 0.65 3.07 0.51 3.15 0.36 3.23 0.22 3.31 0.07 3.48 -0.08 3.4 -0.25 3.31 -0.41 3.22 -0.58 3.13 -0.74 3.05 -0.91 2.95 -1.07 2.87 -1.23 2.77 -1.38 2.68 -1.54 2.58 -1.7 2.48 -1.86 2.38 -2.01 2.28 -2.17 2.18 -2.32 2.07 -2.47 1.96 -2.61 1.84 -2.76 1.73 -2.89 1.61 -3.03 1.48 -3.16 1.36 -3.28 1.23 -3.4 1.11 -3.51 0.98 -3.61 0.85 -3.71 0.72 -3.81 0.59 -3.9 0.45 -3.98 0.33 -4.06 0.19 -4.14 0.07 -4.21 -0.06 -4.04 -0.19 -3.96 -0.32 -3.88 -0.44 -3.8 -0.57 -3.71 -0.7 -3.62 -0.83 -3.52 -0.96 -3.42 -1.09 -3.31 -1.22 -3.19 -1.34 -3.07 -1.47 -2.95 -1.59 -2.81 -1.7 -2.68 -1.82 -2.54 -1.93 -2.39 -2.04 -2.25 -2.14 -2.1 -2.25 -1.95 -2.34 -1.81 -2.44 -1.66 -2.54 -1.52 -2.63 -1.37 -2.73 -1.22 -2.82 -1.08 -2.91 -0.94 -3 -0.79 -3.09 -0.65 -3.18 -0.5 -3.27 -0.36 -3.35 -0.22 -3.45 -0.07 -3.35 0.08 -3.27 0.25 -3.2 0.41 -3.12 0.57 -3.04 0.73 -2.96 0.89 -2.88 1.05 -2.79 1.21 -2.71 1.37 -2.62 1.53 -2.53 1.68 -2.44 1.83 -2.34 1.99 -2.25 2.14 -2.15 2.3 -2.04 2.44 -1.94 2.59 -1.83 2.74 -1.71 2.88 -1.6 3.01 -1.48 3.14 -1.36 3.27 -0.82 2.25 -0.06 -0.68 -0.14 -1.43 -0.17 -1.41 -0.2 -1.41 -0.22 -1.38 -0.25 -1.36 -0.27 -1.34 -0.3 -1.33 -0.33 -1.3 -0.35 -1.28 -0.37 -1.26 -0.4 -1.24 -0.43 -1.21 -0.45 -1.18 -0.47 -1.15 -0.5 -1.13 -0.52 -1.1 -0.54 -1.07 -0.57 -1.04 -0.59 -1.01 -0.62 -0.97 -0.64 -0.94 -0.66 -0.9 -0.68 -0.86 -0.7 -0.83 -0.72 -0.79 -0.75 -0.74 -0.76 -0.7 -0.76 -0.64 -0.75 -0.59 -0.76 -0.55 -0.76 -0.52 -0.77 -0.48 -0.77 -0.44 -0.77 -0.4 -0.78 -0.37 -0.78 -0.34 -0.78 -0.31 -0.78 -0.28 -0.78 -0.25 -0.79 -0.23 -0.79 -0.2 -0.79 -0.18 -0.79 -0.16 -0.8 -0.14 -0.8 -0.12 -0.8 -0.1 -0.8 -0.09 -0.81 -0.07 -0.81 -0.06 -0.81 -0.05 -0.82 -0.04 -0.82 -0.03 -0.82 -0.02 -0.83 -0.02 -0.84 -0.01 -0.84 -0.01 -0.84 -0.01 -0.86 0 -0.86 -0 -50.53 0 -0.42 0 -88.07 0 -0.14 13.31 -0.06 4.92 -0.07 4.86 -0.07 4.78 -0.08 4.72 -0.09 4.65 -0.09 4.58 -0.1 4.51 -0.1 4.44 -0.11 4.37 -0.12 4.3 -0.12 4.23 -0.13 4.16 -0.13 4.09zm85.47 53.68l0.95 -34.07 -6.61 0.83 0.2 -4.49 0.94 -32.92 0.22 -4.97 0.66 0.09 6.46 0.83 0.99 -30.92 -0.05 3.86 -0.08 4.99 -0.08 4.91 -0.09 4.82 -0.1 4.74 -0.1 4.65 -0.11 4.56 -0.12 4.48 -0.12 4.39 -0.13 4.3 -0.13 4.22 -0.14 4.13 -0.14 4.04 -0.15 3.95 -0.15 3.87 -0.16 3.78 -0.16 3.7 -0.16 3.61 -0.17 3.52 -0.17 3.43 -0.18 3.35 -0.18 3.26 -0.18 3.17 -0.18 3.08 -0.19 3 -0.19 2.91 -0.19 2.82 -0.01 0.11zm48.92 -75.78l-0.03 0.23 -0.02 0.08 -0.02 0.02 -0.12 0.08 -0.2 0.11 -0.29 0.11 -0.38 0.1 -0.48 0.07 -0.65 0.03 -0.27 0 -0.36 -0 -0.2 -0 0.05 -2.33 0.32 -0.01 0.81 0.03 0.7 0.07 0.57 0.11 0.43 0.13 0.17 0.07 0.01 0.28 -0.01 0.49 -0.03 0.35zm85.41 23.7l0.02 -1.67 0.05 -1.61 0.08 -1.53 0.11 -1.47 0.14 -1.4 0.17 -1.33 0.2 -1.25 0.22 -1.19 0.24 -1.11 0.27 -1.04 0.28 -0.98 0.31 -0.91 0.32 -0.85 0.34 -0.79 0.36 -0.74 0.37 -0.69 0.39 -0.64 0.41 -0.59 0.43 -0.55 0.46 -0.52 0.48 -0.48 0.51 -0.44 0.54 -0.41 0.58 -0.38 0.61 -0.34 0.65 -0.3 0.7 -0.26 0.74 -0.22 0.78 -0.18 0.82 -0.13 0.87 -0.08 0.92 -0.03 0.92 0.02 0.88 0.07 0.84 0.12 0.79 0.16 0.75 0.2 0.71 0.24 0.67 0.27 0.62 0.3 0.58 0.34 0.54 0.37 0.51 0.39 0.47 0.42 0.44 0.45 0.42 0.48 0.39 0.51 0.37 0.53 0.34 0.57 0.33 0.61 0.31 0.66 0.3 0.7 0.28 0.75 0.26 0.81 0.24 0.88 0.22 0.93 0.2 1 0.18 1.07 0.16 1.13 0.13 1.2 0.11 1.27 0.08 1.34 0.05 1.41 0.02 1.47 -0.02 1.62 -0.05 1.55 -0.09 1.48 -0.12 1.41 -0.15 1.35 -0.18 1.28 -0.2 1.21 -0.22 1.14 -0.25 1.08 -0.27 1.01 -0.29 0.94 -0.31 0.88 -0.33 0.83 -0.34 0.77 -0.36 0.72 -0.38 0.67 -0.4 0.62 -0.42 0.58 -0.44 0.54 -0.46 0.5 -0.48 0.47 -0.51 0.43 -0.54 0.4 -0.56 0.36 -0.6 0.33 -0.63 0.29 -0.67 0.25 -0.7 0.21 -0.74 0.17 -0.77 0.12 -0.81 0.08 -0.85 0.03 -0.95 -0.02 -0.91 -0.07 -0.86 -0.12 -0.82 -0.16 -0.78 -0.2 -0.73 -0.24 -0.69 -0.27 -0.65 -0.31 -0.6 -0.34 -0.56 -0.37 -0.52 -0.39 -0.48 -0.42 -0.45 -0.45 -0.42 -0.47 -0.4 -0.5 -0.37 -0.53 -0.35 -0.56 -0.33 -0.59 -0.31 -0.63 -0.29 -0.68 -0.28 -0.73 -0.26 -0.78 -0.24 -0.83 -0.22 -0.89 -0.2 -0.95 -0.18 -1.01 -0.16 -1.07 -0.13 -1.14 -0.1 -1.2 -0.08 -1.27 -0.05 -1.33 -0.02 -1.4zm126.04 -21.69l-0.02 0.22 -0.01 0.06 -0.03 0.05 -0.12 0.13 -0.23 0.19 -0.35 0.23 -0.48 0.24 -0.62 0.23 -0.75 0.2 -0.88 0.16 -1 0.1 -1.13 0.03 -0.41 -0.01 -0.47 -0.04 -0.52 -0.06 -0.59 -0.08 -0.5 -0.07 0.12 -3.83 0.26 -0.04 0.36 -0.04 0.33 -0.03 0.3 -0.03 0.28 -0.02 0.24 -0.01 0.19 -0 1.27 0.03 1.13 0.08 0.99 0.13 0.85 0.17 0.69 0.2 0.53 0.21 0.36 0.2 0.16 0.11 0.03 0.29 0.02 0.58 -0.02 0.39zm-9.71 63.74l0.14 0.93 0.33 2.19 0.33 2.19 0.33 2.19 0.32 2.19 0.32 2.19 0.32 2.19 0.32 2.19 0.32 2.18 1.27 8.84 48.24 0 -3.11 -13.26 -0.47 -2 -0.46 -1.98 -0.46 -1.96 -0.45 -1.94 -0.44 -1.92 -0.44 -1.9 -0.43 -1.89 -0.43 -1.86 -0.83 -3.64 -0.42 -1.84 -0.41 -1.79 -0.4 -1.77 -0.4 -1.75 -0.39 -1.74 -0.39 -1.71 -0.38 -1.69 -0.37 -1.67 -0.37 -1.66 -0.36 -1.64 -0.36 -1.62 -0.35 -1.59 -0.35 -1.58 -0.34 -1.56 -0.33 -1.54 -0.33 -1.52 -0.07 -0.33 0.88 -0.75 1.03 -0.95 1 -0.99 0.97 -1.04 0.94 -1.07 0.9 -1.12 0.87 -1.16 0.84 -1.21 0.8 -1.25 0.76 -1.29 0.73 -1.33 0.69 -1.37 0.65 -1.41 0.61 -1.44 0.57 -1.48 0.52 -1.51 0.48 -1.55 0.44 -1.58 0.4 -1.61 0.36 -1.64 0.31 -1.66 0.27 -1.68 0.23 -1.71 0.07 -0.68 1.25 -0.06 1.26 -0.06 1.19 -0.06 2.16 -0.1 0.96 -0.04 0.89 -0.04 0.81 -0.03 0.74 -0.03 0.67 -0.03 0.59 -0.02 0.51 -0.02 0.44 -0.01 0.35 -0.01 0.27 -0 0.72 0 0.73 0.01 0.73 0.01 0.74 0.01 1.44 0.03 0.72 0.02 0.8 0.02 -0.02 2.23 -0.02 2.32 -0.03 2.35 -0.04 2.38 -0.05 2.41 -0.05 2.44 -0.06 2.47 -0.07 2.5 -0.08 2.53 -0.08 2.56 -0.09 2.59 -0.1 2.62 -0.11 2.66 -0.11 2.68 -0.12 2.72 -0.13 2.75 -0.14 2.78 -0.14 2.81 -0.15 2.84 -0.16 2.87 -0.16 2.9 -0.17 2.93 -0.18 2.96 -0.19 2.99 -0.19 3.02 -0.2 3.05 -0.21 3.08 -0.22 3.11 -0.22 3.14 -0.92 12.54 46.87 0 0.18 -12.83 0.07 -4.46 0.07 -4.35 0.07 -4.24 0.07 -4.12 0.07 -4.01 0.08 -3.9 0.08 -3.79 0.08 -3.68 0.08 -3.56 0.08 -3.45 0.08 -3.34 0.08 -3.23 0.08 -3.11 0.08 -3 0.09 -2.89 0.08 -2.78 0.09 -2.66 0.09 -2.55 0.08 -2.44 0.08 -2.32 0.09 -2.21 0.08 -2.09 0.09 -1.98 0.08 -1.87 0.08 -1.75 0.04 -0.87 0.63 -0.04 0.71 -0.04 0.7 -0.03 0.69 -0.03 0.67 -0.02 0.65 -0.02 0.63 -0.02 0.62 -0.01 0.6 -0.01 0.57 -0 0.57 0.01 0.6 0.01 0.64 0.02 0.68 0.03 0.71 0.04 0.75 0.04 0.79 0.05 0.82 0.06 0.86 0.07 0.9 0.07 0.93 0.08 0.96 0.08 1 0.09 1.04 0.09 1.07 0.1 6.85 0.64 1.2 -52.59 -95.96 0 -0.27 14 -0.51 -0.83 -0.61 -0.92 -0.63 -0.89 -0.65 -0.86 -0.67 -0.82 -0.69 -0.79 -0.71 -0.76 -0.73 -0.73 -0.75 -0.69 -0.75 -0.64 -0.76 -0.6 -0.77 -0.56 -0.78 -0.52 -0.78 -0.48 -0.79 -0.44 -0.8 -0.41 -0.8 -0.37 -0.8 -0.34 -0.81 -0.31 -0.82 -0.28 -0.82 -0.25 -0.81 -0.22 -0.82 -0.2 -0.83 -0.18 -0.83 -0.16 -0.83 -0.14 -0.84 -0.12 -0.85 -0.1 -0.85 -0.09 -0.85 -0.07 -0.86 -0.06 -0.87 -0.05 -0.87 -0.04 -0.88 -0.03 -0.89 -0.02 -0.89 -0.02 -0.9 -0.01 -0.91 -0.01 -0.92 -0 -0.93 -0 -56.03 0 -0.14 13.57 -0.06 5.17 -0.07 5.08 -0.08 4.99 -0.08 4.91 -0.09 4.82 -0.1 4.74 -0.1 4.65 -0.11 4.56 -0.12 4.48 -0.12 4.39 -0.13 4.3 -0.13 4.22 -0.14 4.13 -0.14 4.04 -0.15 3.95 -0.15 3.87 -0.16 3.78 -0.16 3.7 -0.16 3.61 -0.17 3.52 -0.17 3.43 -0.18 3.35 -0.18 3.26 -0.18 3.17 -0.19 3.08 -0.19 3 -0.19 2.91 -0.19 2.82 -0.19 2.73 -0.2 2.64 -0.92 11.98 45.82 0 0 -10.56 0 -2.06 0 -2.01 0.01 -1.96 0.01 -1.9 0.01 -1.85 0.01 -1.79 0.01 -1.74 0.01 -1.68 0.01 -1.63 0 -0.08z"/>
     <path class="fil2" d="M154.88 413.08l0.08 -2.11 0.09 -2.19 0.46 -11.25 -55.99 0 -0.86 7.66 -0.08 0.63 -0.08 0.66 -0.09 0.69 -0.09 0.7 -0.1 0.72 -0.11 0.75 -0.12 0.78 -0.12 0.8 -0.13 0.81 -0.13 0.84 -0.14 0.87 -0.15 0.89 -0.15 0.91 -0.16 0.94 -0.17 0.99 -2.92 17.09 -2.04 -19.23 -0.04 -0.39 -0.04 -0.47 -0.04 -0.49 -0.04 -0.51 -0.03 -0.52 -0.03 -0.55 -0.03 -0.58 -0.03 -0.58 -0.03 -0.6 -0.03 -0.64 -0.05 -1.3 -0.03 -0.68 -0.03 -0.7 -0.03 -0.72 -0.3 -8.74 -55.4 0 -0.45 13.3 -0.18 5.2 -0.19 5.11 -0.2 5.02 -0.2 4.93 -0.21 4.84 -0.21 4.76 -0.22 4.67 -0.22 4.58 -0.22 4.49 -0.23 4.4 -0.23 4.31 -0.24 4.22 -0.24 4.13 -0.24 4.04 -0.25 3.96 -0.25 3.87 -0.25 3.78 -0.25 3.69 -0.25 3.6 -0.26 3.51 -0.26 3.42 -0.26 3.33 -0.26 3.24 -0.26 3.15 -0.26 3.06 -0.26 2.97 -0.26 2.88 -0.26 2.79 -0.26 2.7 -0.26 2.61 -1.27 12.27 40.5 0 0.26 -9.49 0.04 -1.38 0.04 -1.37 0.04 -1.35 0.04 -1.33 0.04 -1.32 0.04 -1.3 0.04 -1.28 0.04 -1.26 0.02 -0.59 0.02 0.17 0.07 0.83 0.07 0.85 0.08 0.87 0.07 0.88 0.07 0.88 0.07 0.91 0.08 0.93 0.07 0.93 0.07 0.94 0.07 0.96 0.08 0.98 0.08 0.99 0.07 0.99 0.61 8.54 38.62 0 1.26 -7.34 0.18 -1.01 0.18 -1.01 0.18 -1.01 0.18 -1.01 0.19 -1.02 0.19 -1.03 0.19 -1.02 0.19 -1.03 0.2 -1.04 0.2 -1.04 0.2 -1.05 0.2 -1.05 0.2 -1.06 0.2 -1.07 0.19 -1.04 1.55 -8 -0.01 0.5 -0.04 1.22 -0.05 1.27 -0.05 1.31 -0.06 1.35 -0.07 1.39 -0.08 1.43 -0.08 1.47 -0.09 1.51 -0.1 1.55 -0.11 1.59 -0.11 1.63 -0.13 1.67 -0.13 1.72 -0.92 11.24 25.99 0 15.35 0 35.62 0 1.54 -7.23 0.28 -1.29 0.27 -1.22 0.26 -1.15 0.25 -1.08 0.24 -1.02 0.23 -0.95 0.21 -0.87 0.2 -0.81 0.19 -0.74 0.18 -0.68 0.16 -0.59 0.14 -0.52 0.13 -0.45 0.11 -0.37 0.09 -0.3 2.86 -8.88 24.12 0 2.45 11.23 0.08 0.38 0.09 0.48 0.1 0.5 0.1 0.52 0.1 0.53 0.09 0.54 0.1 0.57 0.09 0.59 0.09 0.6 0.09 0.62 0.09 0.65 0.08 0.67 0.08 0.69 0.08 0.71 0.07 0.74 0.72 8.14 35.9 0 12.63 0 38.07 0 3.22 -0.07 3.17 -0.23 3.08 -0.37 3 -0.53 2.91 -0.68 2.82 -0.83 2.74 -0.99 2.65 -1.14 2.56 -1.3 2.47 -1.46 2.38 -1.62 2.29 -1.78 2.19 -1.94 2.09 -2.11 1.99 -2.26 1.88 -2.42 1.77 -2.57 1.66 -2.73 1.55 -2.87 1.43 -3.02 1.32 -3.15 1.19 -3.28 1.08 -3.41 0.96 -3.52 0.84 -3.64 0.72 -3.75 0.61 -3.86 0.49 -3.96 0.38 -4.06 0.27 -4.17 0.16 -4.26 0.05 -4.33 -0.02 -2.3 -0.05 -2.24 -0.08 -2.21 -0.11 -2.19 -0.15 -2.15 -0.18 -2.13 -0.21 -2.1 -0.25 -2.07 -0.28 -2.04 -0.31 -2.01 -0.35 -1.98 -0.38 -1.95 -0.41 -1.91 -0.45 -1.88 -0.48 -1.84 -0.52 -1.81 -0.55 -1.77 -0.59 -1.74 -0.62 -1.7 -0.66 -1.67 -0.69 -1.62 -0.72 -1.59 -0.76 -1.54 -0.79 -1.51 -0.82 -1.46 -0.85 -1.42 -0.89 -1.38 -0.92 -1.33 -0.95 -1.28 -0.98 -1.24 -1.01 -1.19 -1.03 -1.13 -0.87 -0.91 -0.9 -0.87 -0.91 -0.81 -0.91 -0.76 -0.92 -0.71 -0.93 -0.66 -0.94 -0.61 -0.95 -0.56 -0.95 -0.51 -0.96 -0.47 -0.96 -0.43 -0.96 -0.39 -0.97 -0.35 -0.97 -0.31 -0.97 -0.28 -0.98 -0.25 -0.98 -0.22 -0.98 -0.19 -0.98 -0.16 -0.99 -0.14 -0.99 -0.12 -0.99 -0.1 -1 -0.08 -1 -0.07 -1.01 -0.05 -1.01 -0.04 -1.02 -0.03 -1.02 -0.02 -1.03 -0.01 -1.04 -0.01 -1.04 -0 -1.05 -0 -53.09 0 -0.14 13.57 -0.06 5.16 -0.07 5.08 -0.08 4.99 -0.08 4.91 -0.09 4.82 -0.1 4.73 -0.1 4.65 -0.11 4.56 -0.12 4.48 -0.12 4.39 -0.13 4.3 -0.13 4.22 -0.14 4.13 -0.14 4.04 -0.15 3.96 -0.15 3.87 -0.16 3.78 -0.16 3.69 -0.16 3.61 -0.17 3.52 -0.12 2.38 -21.06 -84.4 -0.19 -0.77 -0.19 -0.78 -0.18 -0.77 -0.18 -0.76 -0.17 -0.75 -0.16 -0.74 -0.16 -0.72 -0.15 -0.72 -0.14 -0.71 -0.13 -0.7 -0.13 -0.71 -0.12 -0.7 -0.11 -0.69 -0.1 -0.68 -0.1 -0.68 -0.98 -7.58 -48.55 0 -1.82 5.92 -0.31 0.98 -0.31 0.96 -0.31 0.95 -0.31 0.93 -0.31 0.91 -0.31 0.9 -0.31 0.89 -0.31 0.88 -0.3 0.86 -0.31 0.85 -0.31 0.85 -0.3 0.84 -0.3 0.83 -0.3 0.82 -0.29 0.79 -31.4 83.9 1.65 -68.23 0.03 -0.93 0.03 -1.05 0.03 -1.13 0.03 -1.22 0.03 -1.31 0.03 -1.4 0.04 -1.48 0.04 -1.57 0.05 -1.66 0.05 -1.75 0.06 -1.84 0.06 -1.93 0.07 -2.01zm56.32 43.46l1.06 5.87 -2.92 0 1.86 -5.87zm109.85 2.77l0.21 2.29 0.13 2.58 0.05 2.87 -0.02 1.33 -0.05 1.29 -0.09 1.23 -0.12 1.19 -0.16 1.14 -0.19 1.09 -0.22 1.04 -0.24 1 -0.27 0.95 -0.3 0.9 -0.32 0.87 -0.35 0.83 -0.38 0.79 -0.4 0.75 -0.43 0.72 -0.46 0.69 -0.49 0.66 -0.52 0.62 -0.56 0.59 -0.6 0.56 -0.63 0.52 -0.66 0.49 -0.7 0.45 -0.74 0.42 -0.78 0.38 -0.82 0.33 -0.86 0.29 -0.9 0.24 -0.95 0.19 -0.28 0.04 0.01 -0.4 0.01 -0.47 0.02 -0.54 0.02 -0.6 0.02 -0.64 0.02 -0.69 0.02 -0.76 0.02 -0.81 0.02 -0.85 0.03 -0.9 0.02 -0.96 0.03 -1.01 0.02 -1.01 0.95 -30.34 3.64 0 1.42 0.08 1.14 0.21 0.96 0.33 0.79 0.41 0.66 0.48 0.55 0.54 0.49 0.63 0.45 0.76 0.43 0.93 0.41 1.16 0.38 1.43 0.34 1.71 0.28 2zm46.91 10.11l-0.14 4.02 -0.14 3.95 -0.15 3.88 -0.15 3.81 -0.16 3.74 -0.16 3.67 -0.17 3.6 -0.17 3.52 -0.18 3.45 -0.18 3.38 -0.19 3.32 -0.19 3.24 -0.19 3.17 -0.2 3.1 -0.2 3.03 -0.2 2.96 -0.21 2.89 -0.91 12.21 88.05 0 0.82 0 45 0 0 -10.61 0 -2.12 0 -2.05 0.01 -2 0.01 -1.94 0.01 -1.88 0.01 -1.82 0.01 -1.77 0.01 -1.71 0.01 -1.65 0.01 -1.59 0.01 -1.54 0.01 -1.48 0.01 -1.42 0.02 -1.36 0.02 -1.31 0.02 -1.25 0.02 -1.18 0.02 -1.12 0.02 -1.07 0.02 -1.01 0.02 -0.95 0.02 -0.89 0 -0.13 1.7 0.35 0.71 0.13 0.69 0.12 0.67 0.11 0.65 0.1 0.64 0.09 0.63 0.08 0.6 0.06 0.58 0.06 0.57 0.04 0.55 0.04 0.53 0.03 0.51 0.02 0.49 0.01 0.47 0.01 0.5 0 2.01 -0.06 2.02 -0.18 1.98 -0.3 1.94 -0.42 1.9 -0.53 1.86 -0.66 1.82 -0.77 1.77 -0.89 1.72 -1.01 1.68 -1.13 1.62 -1.24 1.57 -1.36 1.51 -1.47 1.45 -1.59 1.39 -1.7 1.32 -1.81 1.25 -1.91 1.18 -2.01 1.11 -2.11 1.03 -2.21 0.1 -0.24 0.02 1.34 0.19 3.99 0.32 3.91 0.45 3.82 0.58 3.73 0.71 3.63 0.84 3.53 0.97 3.42 1.09 3.32 1.22 3.2 1.34 3.08 1.46 2.95 1.58 2.82 1.69 2.68 1.8 2.54 1.91 2.39 2.01 2.25 2.12 2.11 2.21 1.96 2.31 1.81 2.4 1.67 2.49 1.52 2.58 1.38 2.66 1.23 2.74 1.09 2.83 0.94 2.91 0.8 2.99 0.65 3.07 0.51 3.15 0.36 3.23 0.22 3.31 0.07 3.48 -0.08 3.4 -0.25 3.31 -0.41 3.22 -0.58 3.13 -0.74 3.05 -0.91 2.95 -1.06 2.87 -1.23 2.77 -1.38 2.68 -1.54 2.58 -1.7 2.48 -1.86 2.38 -2.01 2.28 -2.17 2.18 -2.32 2.07 -2.47 1.96 -2.61 1.84 -2.76 1.73 -2.89 1.61 -3.03 1.48 -3.16 1.36 -3.28 1.23 -3.4 1.11 -3.51 0.98 -3.61 0.85 -3.71 0.72 -3.81 0.59 -3.9 0.45 -3.98 0.33 -4.06 0.19 -4.14 0.07 -4.21 -0.06 -4.04 -0.19 -3.96 -0.32 -3.88 -0.44 -3.8 -0.57 -3.71 -0.7 -3.62 -0.83 -3.52 -0.96 -3.42 -1.09 -3.31 -1.22 -3.19 -1.34 -3.07 -1.47 -2.95 -1.59 -2.81 -1.7 -2.68 -1.82 -2.54 -1.93 -2.39 -2.04 -2.25 -2.14 -2.1 -2.25 -1.95 -2.34 -1.81 -2.44 -1.66 -2.54 -1.52 -2.63 -1.37 -2.73 -1.22 -2.82 -1.08 -2.91 -0.93 -3 -0.79 -3.09 -0.65 -3.18 -0.5 -3.27 -0.36 -3.35 -0.22 -3.45 -0.07 -3.35 0.08 -3.27 0.25 -3.2 0.41 -3.12 0.57 -3.04 0.73 -2.96 0.89 -2.88 1.05 -2.79 1.21 -2.71 1.37 -2.62 1.52 -2.53 1.68 -2.44 1.83 -2.34 1.99 -2.25 2.14 -2.15 2.3 -2.04 2.44 -1.94 2.59 -1.83 2.74 -1.71 2.88 -1.6 3.01 -1.48 3.14 -1.36 3.27 -0.82 2.25 -0.06 -0.68 -0.14 -1.43 -0.17 -1.41 -0.2 -1.41 -0.22 -1.38 -0.25 -1.36 -0.27 -1.34 -0.3 -1.33 -0.33 -1.3 -0.35 -1.28 -0.37 -1.26 -0.4 -1.24 -0.43 -1.21 -0.45 -1.18 -0.47 -1.15 -0.5 -1.13 -0.52 -1.1 -0.54 -1.07 -0.57 -1.04 -0.59 -1.01 -0.62 -0.97 -0.64 -0.94 -0.66 -0.9 -0.68 -0.86 -0.7 -0.83 -0.72 -0.79 -0.75 -0.74 -0.76 -0.7 -0.76 -0.64 -0.75 -0.59 -0.76 -0.55 -0.76 -0.52 -0.77 -0.47 -0.77 -0.44 -0.77 -0.4 -0.78 -0.37 -0.78 -0.34 -0.78 -0.31 -0.78 -0.28 -0.78 -0.25 -0.79 -0.23 -0.79 -0.2 -0.79 -0.18 -0.79 -0.16 -0.8 -0.14 -0.8 -0.12 -0.8 -0.1 -0.8 -0.09 -0.81 -0.07 -0.81 -0.06 -0.81 -0.05 -0.82 -0.04 -0.82 -0.03 -0.82 -0.02 -0.83 -0.02 -0.84 -0.01 -0.84 -0.01 -0.84 -0 -0.86 -0 -0.86 0 -50.53 0 -0.42 0 -88.07 0 -0.14 13.3 -0.06 4.92 -0.07 4.86 -0.07 4.78 -0.08 4.72 -0.09 4.65 -0.09 4.58 -0.1 4.51 -0.1 4.44 -0.11 4.36 -0.12 4.3 -0.12 4.23 -0.13 4.16 -0.13 4.09zm85.47 53.68l0.95 -34.06 -6.61 0.83 0.2 -4.49 0.94 -32.91 0.22 -4.97 0.66 0.08 6.46 0.83 0.99 -30.92 -0.05 3.86 -0.08 4.99 -0.08 4.91 -0.09 4.82 -0.1 4.74 -0.1 4.65 -0.11 4.56 -0.12 4.48 -0.12 4.39 -0.13 4.3 -0.13 4.22 -0.14 4.13 -0.14 4.04 -0.15 3.95 -0.15 3.87 -0.16 3.78 -0.16 3.69 -0.16 3.61 -0.17 3.52 -0.17 3.43 -0.18 3.34 -0.18 3.26 -0.18 3.17 -0.18 3.08 -0.19 3 -0.19 2.91 -0.19 2.82 -0.01 0.11zm48.92 -75.78l-0.03 0.23 -0.02 0.08 -0.02 0.02 -0.12 0.08 -0.2 0.11 -0.29 0.11 -0.38 0.1 -0.48 0.07 -0.65 0.03 -0.27 0 -0.36 -0 -0.2 -0 0.05 -2.33 0.32 -0.01 0.81 0.03 0.7 0.07 0.57 0.11 0.43 0.13 0.17 0.07 0.01 0.28 -0.01 0.49 -0.03 0.36zm85.41 23.7l0.02 -1.67 0.05 -1.61 0.08 -1.53 0.11 -1.47 0.14 -1.4 0.17 -1.33 0.2 -1.25 0.22 -1.19 0.24 -1.11 0.27 -1.04 0.28 -0.98 0.31 -0.91 0.32 -0.85 0.34 -0.79 0.36 -0.74 0.37 -0.69 0.39 -0.64 0.41 -0.59 0.43 -0.55 0.46 -0.52 0.48 -0.48 0.51 -0.44 0.54 -0.41 0.58 -0.38 0.61 -0.34 0.65 -0.3 0.7 -0.26 0.74 -0.22 0.78 -0.18 0.82 -0.13 0.87 -0.08 0.92 -0.03 0.92 0.03 0.88 0.07 0.84 0.12 0.79 0.16 0.75 0.2 0.71 0.24 0.67 0.27 0.62 0.3 0.58 0.34 0.54 0.37 0.51 0.39 0.47 0.42 0.44 0.45 0.42 0.48 0.39 0.51 0.37 0.53 0.34 0.57 0.33 0.61 0.31 0.66 0.3 0.7 0.28 0.76 0.26 0.81 0.24 0.87 0.22 0.93 0.2 1 0.18 1.07 0.16 1.13 0.13 1.2 0.11 1.27 0.08 1.34 0.05 1.41 0.02 1.47 -0.02 1.62 -0.05 1.55 -0.09 1.48 -0.12 1.41 -0.15 1.35 -0.18 1.28 -0.2 1.21 -0.22 1.14 -0.25 1.08 -0.27 1.01 -0.29 0.94 -0.31 0.88 -0.33 0.83 -0.34 0.77 -0.36 0.72 -0.38 0.67 -0.4 0.62 -0.42 0.58 -0.44 0.54 -0.46 0.5 -0.48 0.47 -0.51 0.43 -0.54 0.4 -0.56 0.37 -0.6 0.33 -0.63 0.29 -0.67 0.25 -0.7 0.21 -0.74 0.17 -0.77 0.12 -0.81 0.08 -0.85 0.03 -0.95 -0.02 -0.91 -0.07 -0.86 -0.12 -0.82 -0.16 -0.78 -0.2 -0.73 -0.24 -0.69 -0.27 -0.65 -0.31 -0.6 -0.34 -0.56 -0.37 -0.52 -0.39 -0.48 -0.42 -0.45 -0.45 -0.42 -0.47 -0.4 -0.5 -0.37 -0.53 -0.35 -0.56 -0.33 -0.59 -0.31 -0.63 -0.29 -0.68 -0.28 -0.73 -0.26 -0.78 -0.24 -0.83 -0.22 -0.89 -0.2 -0.95 -0.18 -1.01 -0.16 -1.07 -0.13 -1.14 -0.1 -1.2 -0.08 -1.27 -0.05 -1.33 -0.02 -1.4zm126.04 -21.69l-0.02 0.22 -0.01 0.07 -0.03 0.05 -0.12 0.13 -0.23 0.19 -0.35 0.23 -0.48 0.24 -0.62 0.23 -0.75 0.2 -0.88 0.16 -1 0.1 -1.13 0.03 -0.41 -0.01 -0.47 -0.03 -0.52 -0.06 -0.59 -0.08 -0.5 -0.07 0.12 -3.83 0.26 -0.04 0.36 -0.04 0.33 -0.03 0.3 -0.02 0.28 -0.02 0.24 -0.01 0.19 -0 1.27 0.03 1.13 0.08 0.99 0.13 0.85 0.17 0.69 0.2 0.53 0.22 0.36 0.2 0.16 0.11 0.03 0.3 0.02 0.57 -0.02 0.39zm-9.71 63.74l0.14 0.93 0.33 2.19 0.33 2.19 0.33 2.19 0.32 2.19 0.32 2.19 0.32 2.19 0.32 2.19 0.32 2.18 1.27 8.84 48.24 0 -3.11 -13.26 -0.47 -2 -0.46 -1.98 -0.46 -1.96 -0.45 -1.94 -0.44 -1.92 -0.44 -1.9 -0.43 -1.89 -0.43 -1.87 -0.83 -3.64 -0.42 -1.84 -0.41 -1.79 -0.4 -1.77 -0.4 -1.75 -0.39 -1.74 -0.39 -1.71 -0.38 -1.69 -0.37 -1.67 -0.37 -1.66 -0.36 -1.64 -0.36 -1.61 -0.35 -1.59 -0.35 -1.58 -0.34 -1.56 -0.33 -1.54 -0.33 -1.52 -0.07 -0.33 0.88 -0.75 1.03 -0.95 1 -0.99 0.97 -1.03 0.94 -1.07 0.9 -1.12 0.87 -1.16 0.84 -1.21 0.8 -1.25 0.76 -1.29 0.73 -1.33 0.69 -1.37 0.65 -1.41 0.61 -1.44 0.57 -1.48 0.52 -1.51 0.48 -1.55 0.44 -1.58 0.4 -1.61 0.36 -1.64 0.31 -1.66 0.27 -1.68 0.23 -1.71 0.07 -0.68 1.25 -0.06 1.26 -0.06 1.19 -0.06 2.16 -0.1 0.96 -0.04 0.89 -0.04 0.81 -0.03 0.74 -0.03 0.67 -0.03 0.59 -0.02 0.51 -0.02 0.44 -0.01 0.35 -0.01 0.27 -0 0.72 0 0.73 0.01 0.73 0.01 0.74 0.01 1.44 0.03 0.72 0.02 0.8 0.02 -0.02 2.23 -0.02 2.32 -0.03 2.35 -0.04 2.38 -0.05 2.41 -0.05 2.44 -0.06 2.47 -0.07 2.5 -0.08 2.53 -0.08 2.56 -0.09 2.59 -0.1 2.62 -0.11 2.66 -0.11 2.68 -0.12 2.72 -0.13 2.75 -0.14 2.78 -0.14 2.81 -0.15 2.84 -0.16 2.87 -0.16 2.9 -0.17 2.93 -0.18 2.96 -0.19 2.99 -0.19 3.03 -0.2 3.05 -0.21 3.08 -0.22 3.11 -0.22 3.14 -0.92 12.54 46.87 0 0.18 -12.83 0.07 -4.46 0.07 -4.35 0.07 -4.24 0.07 -4.12 0.07 -4.01 0.08 -3.9 0.08 -3.79 0.08 -3.68 0.08 -3.56 0.08 -3.45 0.08 -3.34 0.08 -3.23 0.08 -3.11 0.08 -3 0.09 -2.89 0.08 -2.78 0.09 -2.66 0.09 -2.55 0.08 -2.44 0.08 -2.32 0.09 -2.21 0.08 -2.1 0.09 -1.98 0.08 -1.87 0.08 -1.75 0.04 -0.87 0.63 -0.04 0.71 -0.04 0.7 -0.03 0.69 -0.03 0.67 -0.02 0.65 -0.02 0.63 -0.02 0.62 -0.01 0.6 -0.01 0.57 -0 0.57 0.01 0.6 0.01 0.64 0.02 0.68 0.03 0.71 0.04 0.75 0.04 0.79 0.05 0.82 0.06 0.86 0.07 0.9 0.07 0.93 0.08 0.96 0.08 1 0.09 1.04 0.09 1.07 0.1 6.85 0.64 1.2 -52.59 -95.96 0 -0.27 14 -0.51 -0.83 -0.61 -0.92 -0.63 -0.89 -0.65 -0.86 -0.67 -0.82 -0.69 -0.79 -0.71 -0.76 -0.73 -0.73 -0.75 -0.69 -0.75 -0.64 -0.76 -0.6 -0.77 -0.56 -0.78 -0.52 -0.78 -0.48 -0.79 -0.44 -0.8 -0.41 -0.8 -0.37 -0.8 -0.34 -0.81 -0.31 -0.82 -0.28 -0.82 -0.25 -0.81 -0.23 -0.82 -0.2 -0.83 -0.18 -0.83 -0.16 -0.83 -0.14 -0.84 -0.12 -0.85 -0.1 -0.85 -0.09 -0.85 -0.07 -0.86 -0.06 -0.87 -0.05 -0.87 -0.04 -0.88 -0.03 -0.89 -0.02 -0.89 -0.02 -0.9 -0.01 -0.91 -0.01 -0.92 -0 -0.93 -0 -56.03 0 -0.14 13.57 -0.06 5.17 -0.07 5.08 -0.08 4.99 -0.08 4.91 -0.09 4.82 -0.1 4.74 -0.1 4.65 -0.11 4.56 -0.12 4.48 -0.12 4.39 -0.13 4.3 -0.13 4.22 -0.14 4.13 -0.14 4.04 -0.15 3.95 -0.15 3.87 -0.16 3.78 -0.16 3.69 -0.16 3.61 -0.17 3.52 -0.17 3.43 -0.18 3.34 -0.18 3.26 -0.18 3.17 -0.19 3.08 -0.19 3 -0.19 2.91 -0.19 2.82 -0.19 2.73 -0.2 2.65 -0.92 11.98 45.82 0 0 -10.56 0 -2.07 0 -2.01 0.01 -1.96 0.01 -1.9 0.01 -1.85 0.01 -1.79 0.01 -1.74 0.01 -1.68 0.01 -1.63 0 -0.08z"/>
     <path class="fil3" d="M118.15 531.91l29.14 0c-0.27,-7.61 -0.27,-15.41 -0.27,-23.21l0 -4.76 1.74 -71.92c0.14,-4.76 0.27,-13.51 0.8,-26.06l-45.31 0c-0.4,3.62 -1.07,7.99 -2.01,13.32l-9.62 56.31 -6.28 -59.36c-0.27,-2.85 -0.4,-6.28 -0.53,-10.27l-44.77 0c-1.87,57.08 -4.81,99.12 -7.62,125.95l28.6 0c0.4,-15.03 0.8,-27.21 1.34,-37.1l2.54 -47.56 7.48 69.82c0.4,4.38 0.8,9.32 1.2,14.84l29.27 0c0.94,-5.52 2,-11.03 3.07,-16.74l13.5 -69.82 -0.93 62.59c-0.13,6.28 -0.53,14.27 -1.34,23.97zm74.44 -28.16l31.67 0 3.74 17.12c0.53,2.66 1.2,6.28 1.6,11.03l35.55 0 -28.2 -113.01c-1.07,-4.37 -2,-8.56 -2.54,-12.94l-40.36 0c-1.74,5.71 -3.47,10.46 -5.08,14.84l-41.59 111.11 37.31 0c1.6,-7.61 2.81,-12.37 3.47,-14.46l4.41 -13.7zm20.05 -71.35l6.95 38.43 -19.11 0 12.16 -38.43zm89.68 64.69l0 -7.61c0,-1.52 0.13,-5.14 0.27,-10.84l1.2 -38.43 9.09 0c9.76,0 14.17,8.75 14.17,26.82 0,18.27 -8.15,30.25 -21.92,30.25 -0.94,0 -1.87,0 -2.81,-0.19zm-35.42 34.82l44.37 0c33.41,0 50.39,-24.16 50.39,-67.92 0,-22.45 -5.08,-39.19 -14.7,-49.47 -7.75,-8.37 -16.7,-8.56 -27.93,-8.56l-47.58 0c-0.53,56.7 -2.41,98.74 -4.54,125.95zm103.44 0l77.25 0 0.94 -33.67c-8.95,1.14 -16.84,1.33 -24.06,1.33l-18.71 0 0.67 -15.22 18.04 0c4.41,0 10.42,0 17.91,0.57l0.94 -32.91c-9.76,0.57 -16.17,0.95 -19.38,0.95l-16.44 0 0.67 -15.22 21.65 0c6.81,0 13.9,0.57 21.11,1.52l1.07 -33.3 -77.11 0c-0.53,53.84 -2.27,95.89 -4.54,125.95zm88.07 0l33.95 0c0,-23.59 0.27,-37.29 0.4,-41.09l1.2 -52.51c2.27,-0.57 4.28,-0.95 5.75,-0.95 5.88,0 8.29,2.85 8.29,9.13 0,6.47 -2.67,10.08 -7.75,10.08 -0.94,0 -2.14,0 -3.61,-0.19l-1.47 1.9 4.81 30.06c3.61,0.76 6.55,0.95 8.69,0.95 19.78,0 32.61,-18.27 32.61,-47.37 0,-13.7 -3.88,-24.92 -10.16,-30.44 -6.28,-5.52 -13.5,-5.52 -22.72,-5.52l-45.44 0c-0.53,56.7 -2.41,98.74 -4.54,125.95zm141.67 2.7c35.68,0 55.73,-27.24 55.73,-68.33 0,-39.38 -19.24,-62.97 -54.79,-62.97 -34.21,0 -54.53,26.63 -54.53,68.11 0,39.57 19.65,63.2 53.59,63.2zm-17.91 -63.58c0,-20.93 6.68,-32.53 18.98,-32.53 12.16,0 18.71,10.08 18.71,29.11 0,20.55 -7.08,31.77 -18.71,31.77 -12.43,0 -18.98,-10.08 -18.98,-28.35zm82.33 60.88l33.95 0c0,-23.02 0.27,-36.72 0.4,-41.09l1.6 -51.18c3.21,-0.76 5.75,-1.14 7.35,-1.14 7.89,0 11.63,2.47 11.63,10.46 0,7.04 -3.74,10.66 -11.23,10.66 -1.6,0 -3.34,-0.38 -5.21,-0.57l-1.34 2.47c3.88,23.4 7.62,46.99 10.96,70.39l35.82 0c-5.08,-21.69 -9.22,-40.14 -12.43,-55.36 11.23,-6.85 16.97,-18.84 16.97,-35.2 0,-12.94 -3.61,-23.4 -9.76,-29.3 -6.15,-5.9 -13.77,-6.09 -23.65,-6.09l-50.52 0c-0.53,56.7 -2.41,98.74 -4.54,125.95zm113.47 0l35.15 0c0.67,-49.47 1.74,-79.9 2.54,-91.13 4.54,-0.38 8.42,-0.57 11.63,-0.57 3.21,0 7.75,0.38 13.77,0.95l0.8 -35.2 -84.73 0 -0.67 35.2c7.75,-0.38 12.3,-0.57 13.77,-0.57 4.01,0 7.89,0.19 11.49,0.19l0 3.81c0,23.97 -1.2,53.08 -3.74,87.33z"/>
     <path class="fil1" d="M447.63 53.45c181.68,0 329.86,69.01 329.86,153.63 0,84.62 -148.18,153.63 -329.86,153.63 -181.68,0 -329.86,-69.01 -329.86,-153.63 0,-84.61 148.18,-153.63 329.86,-153.63z"/>
     <path class="fil2" d="M440.52 46.08c181.68,0 329.86,69.01 329.86,153.63 0,84.62 -148.18,153.63 -329.86,153.63 -181.68,0 -329.86,-69.01 -329.86,-153.63 0,-84.61 148.18,-153.63 329.86,-153.63z"/>
     <path class="fil4" d="M440.52 52.54c177.41,0 322.1,66.11 322.1,147.17 0,81.06 -144.69,147.17 -322.1,147.17 -177.41,0 -322.1,-66.11 -322.1,-147.17 0,-81.06 144.69,-147.17 322.1,-147.17z"/>
     <path class="fil5" d="M440.51 65.46c168.86,0 306.58,60.31 306.58,134.24 0,73.94 -137.72,134.24 -306.58,134.24 -168.86,0 -306.58,-60.31 -306.58,-134.24 0,-73.94 137.72,-134.24 306.58,-134.24z"/>
     <path class="fil1" d="M383.2 112.03c-0.48,1.2 -1.42,2.77 -2.82,4.71 -1.4,1.94 -2.13,2.99 -2.19,3.14 -0.54,1.35 -0.37,2.47 0.5,3.36l42.96 -6.28c-0.91,11.51 -1.16,23.36 -0.74,35.54 0.42,12.18 1.14,22.38 2.17,30.6 1.02,8.22 3.06,20.55 6.1,37 10.24,-7.03 19.22,-14.28 26.92,-21.75 7.7,-7.47 14.41,-15.55 20.12,-24.21 19.57,-17.94 39.3,-35.95 59.18,-54.04 1.23,-0.6 2.8,-1.12 4.71,-1.57 1.91,-0.45 4.23,-0.67 6.95,-0.67 1.98,0 4.93,0.19 8.87,0.56 3.93,0.37 6.51,0.56 7.75,0.56 2.72,0 5.27,-0.34 7.64,-1.01 2.37,-0.67 4.63,-1.83 6.77,-3.48 10.68,-1.35 22.46,-2.35 35.35,-3.03 12.88,-0.67 25.88,-1.01 38.99,-1.01 -2.4,5.98 -7.18,15.4 -14.32,28.25 -7.14,12.85 -12.07,22.65 -14.77,29.37 -3.18,7.92 -5.08,15.1 -5.68,21.52 4.56,-1.5 9.24,-2.99 14.04,-4.48 1.24,0 2.14,0.52 2.71,1.57l-2.79 6.95c0.77,-3.14 0.78,-5.01 0.03,-5.6 -2.9,0.45 -4.89,2.02 -5.97,4.71 -0.48,1.19 -0.53,2.24 -0.15,3.14l1.22 1.57c2.46,-1.2 3.53,-2.02 3.22,-2.47 -1.2,2.99 -4.3,6.24 -9.3,9.75 -5,3.51 -9.73,6.84 -14.21,9.98 -2.51,2.54 -4.74,5.34 -6.72,8.41 -1.97,3.06 -3.47,5.87 -4.49,8.41 -2.22,5.53 -3.75,13.19 -4.6,22.98 -0.84,9.79 -1.41,15.36 -1.7,16.7l-0.84 -0.67c-0.31,0.15 -0.64,0.37 -1.01,0.67 -0.37,0.3 -0.58,0.52 -0.64,0.67 -0.41,1.64 -0.86,3.06 -1.34,4.26 -0.78,1.94 -4.72,4.67 -11.82,8.18 -7.1,3.51 -17.94,5.27 -32.54,5.27 -5.44,0 -10.58,-0.45 -15.41,-1.35 -3.29,-1.05 -6.02,-2.09 -8.2,-3.14 -2.18,-1.05 -3.74,-2.54 -4.69,-4.49 2.46,-6.13 5.14,-16.03 8.04,-29.71 2.9,-13.68 5.43,-23.21 7.59,-28.59 1.98,-4.93 3.56,-8.41 4.75,-10.43 1.18,-2.02 3.08,-4.75 5.7,-8.18 0.7,-3.59 1.3,-6.61 1.79,-9.08 0.49,-2.47 0.15,-4.67 -1.05,-6.61 -4.25,1.35 -8.18,4.82 -11.79,10.43 -3.61,5.6 -7.98,8.93 -13.1,9.98 -8.9,11.06 -20.9,23.09 -36.02,36.1 -15.12,13 -29.78,25.49 -43.98,37.44 -3.44,1.79 -7.88,2.69 -13.32,2.69 -4.7,0 -9.06,-0.52 -13.09,-1.57 -6.21,2.54 -12.66,3.81 -19.34,3.81 -6.43,0 -12.52,-0.86 -18.26,-2.58 -5.74,-1.72 -10.47,-3.18 -14.19,-4.37 -2.26,-2.99 -3.46,-8.63 -3.58,-16.93 -0.13,-8.3 -1.33,-13.94 -3.59,-16.93 0.71,-2.99 -0.62,-11.7 -3.98,-26.12 -3.35,-14.42 -3.56,-25.3 -0.62,-32.62l-2.25 -1.79c-0.11,0.9 -0.35,1.79 -0.71,2.69 -0.36,0.9 -0.69,1.72 -0.99,2.47 -1.68,4.18 -5.26,10.31 -10.73,18.39 -5.47,8.07 -8.99,14.05 -10.55,17.94 -1.44,3.59 -2.26,6.39 -2.45,8.41 -0.19,2.02 0.22,4.52 1.25,7.51 -0.67,1.05 -1.32,2.21 -1.95,3.48 -0.63,1.27 -1.1,2.28 -1.4,3.03 -1.14,2.84 -2.38,6.69 -3.71,11.55 -1.33,4.86 -2.18,7.73 -2.54,8.63 -1.5,3.74 -3.46,6.91 -5.87,9.53 -2.41,2.62 -6.02,4.97 -10.82,7.06 -3.08,0.9 -6.35,1.35 -9.81,1.35 -1.98,0 -4.86,-0.23 -8.63,-0.67 -3.78,-0.45 -6.66,-0.67 -8.63,-0.67 -4.2,0 -8.06,0.67 -11.57,2.02 -4.21,0 -7.65,-0.82 -10.33,-2.47 -2.68,-1.64 -4.9,-3.96 -6.67,-6.95 5.83,-24.36 11.69,-48.81 17.59,-73.32 -0.97,-3.14 -1.92,-6.47 -2.86,-9.98 -0.94,-3.51 -0.81,-6.76 0.4,-9.75 0.3,-0.75 1,-1.87 2.09,-3.36 1.47,-1.2 3.14,-2.13 5.02,-2.8 1.88,-0.67 3.84,-0.79 5.88,-0.34l3.93 3.14c1.28,-1.35 2.19,-2.69 2.73,-4.04 0.84,-2.09 1.24,-5.23 1.19,-9.42 -0.05,-4.18 0.2,-6.95 0.74,-8.3 1.2,-2.99 3.61,-5.6 7.24,-7.85l15.13 -37.67c2.77,-1.35 5.97,-1.94 9.63,-1.79 -1.06,4.48 3.02,7.1 12.24,7.85 9.22,0.75 18.17,1.42 26.83,2.02 7.46,-1.35 14.93,-2.69 22.39,-4.03 4.81,-1.5 8.28,-3.66 10.4,-6.5 -4.2,0 -11.39,1.27 -21.56,3.81 -10.17,2.54 -17.73,3.81 -22.68,3.81 -2.72,0 -5.09,-0.26 -7.11,-0.78 -2.02,-0.52 -3.99,-1.46 -5.92,-2.8 0.98,-0.6 2.22,-0.9 3.7,-0.9 0.74,0 3.11,0.56 7.11,1.68 4,1.12 7.12,1.68 9.34,1.68 2.23,0 4.32,-0.3 6.3,-0.9 1.78,-1.35 4.67,-2.24 8.69,-2.69 4.01,-0.45 6.85,-1.2 8.51,-2.24 -2.47,0 -6.55,0.3 -12.23,0.9 -5.68,0.6 -9.26,0.9 -10.75,0.9 -4.2,0 -7.55,-0.6 -10.04,-1.79 1.09,-1.5 3.09,-2.32 6,-2.47 2.91,-0.15 4.76,-0.3 5.56,-0.45l15.21 0c8.65,0 17.03,-0.22 25.13,-0.67l1.33 2.24zm264.25 0.67c-2.23,0 -5.05,0.11 -8.48,0.34 -3.43,0.22 -5.26,0.34 -5.51,0.34 -1.3,0.15 -6.17,1.35 -14.61,3.59 -8.44,2.24 -14.27,3.36 -17.49,3.36 -4.21,0 -7.56,-0.9 -10.05,-2.69 -2.61,-0.9 -5.27,-1.35 -7.99,-1.35 -2.72,0 -4.88,0.45 -6.48,1.35l11.08 3.81c4.03,1.05 8.65,1.57 13.84,1.57 6.68,0 12.73,-0.6 18.16,-1.79 5.43,-1.19 14.37,-3.44 26.82,-6.73l0.72 -1.79zm-51.08 2.47l1.6 1.57c3.34,0.3 6.25,0.45 8.72,0.45 6.43,0 10.47,-1.12 12.11,-3.36 -1.23,0.6 -2.78,1.08 -4.67,1.46 -1.88,0.37 -4.3,0.56 -7.27,0.56 -1.73,0 -3.49,-0.08 -5.29,-0.22 -1.79,-0.15 -3.53,-0.3 -5.2,-0.45zm-297.31 3.14l-11.35 28.25c-2.26,1.94 -4.26,4.15 -6,6.61 -1.73,2.47 -2.99,4.67 -3.77,6.62 -1.62,4.04 -2.36,9.57 -2.22,16.59 0.15,7.03 0.11,11.44 -0.12,13.23 3.89,-5.98 7.93,-12.03 12.12,-18.16 5.43,-6.73 12.04,-12.11 19.84,-16.14l0.84 0.67c-4.42,2.99 -8.45,6.58 -12.12,10.76 -3.66,4.18 -7.86,10.02 -12.59,17.49 1.53,-1.35 4.81,-5.34 9.83,-12 5.02,-6.65 10.73,-11.47 17.13,-14.46 1.85,-0.3 3.98,-0.67 6.39,-1.12 2.41,-0.45 4.48,-0.67 6.21,-0.67 2.72,0 4.46,0.6 5.22,1.79l0.72 -1.79c-1.26,-1.79 -4.36,-2.69 -9.31,-2.69 -1.98,0 -3.37,0.08 -4.17,0.23 1.84,-0.9 3.49,-1.61 4.94,-2.13 1.45,-0.52 2.98,-0.64 4.59,-0.34l-5.6 -2.69c0.05,-0.75 0.41,-1.94 1.07,-3.59 0.42,-1.05 1.22,-2.73 2.4,-5.05 1.18,-2.32 1.98,-4 2.4,-5.05 1.14,-2.84 1.61,-5.08 1.4,-6.73 -0.2,-1.64 -1.58,-2.99 -4.13,-4.04 -1.98,0 -3.46,0 -4.45,0 -1.24,0 -2.32,0.22 -3.24,0.67l-11.08 27.58c-0.76,-1.2 -0.96,-2.84 -0.62,-4.93 0.35,-2.09 0.94,-4.19 1.78,-6.28 0.54,-1.35 1.1,-2.73 1.67,-4.15 0.57,-1.42 1.28,-2.88 2.13,-4.37 1.68,-4.19 2,-7.44 0.95,-9.75 -1.05,-2.32 -4.67,-3.77 -10.86,-4.37zm116.99 2.47c-7.61,4.78 -18.94,7.44 -33.99,7.96 -15.05,0.52 -24.95,1.46 -29.69,2.8l4.45 0c3.46,0 8.17,0.3 14.11,0.9 5.94,0.6 10.27,0.9 12.99,0.9 4.95,0 9.64,-0.6 14.08,-1.79 4.44,-1.19 8.56,-2.84 12.37,-4.93 3.81,-2.09 5.7,-4.04 5.68,-5.83zm158.52 0.67c-2.74,3.74 -5.18,7.66 -7.33,11.77 -2.15,4.11 -4.09,8.33 -5.83,12.67 -2.7,6.73 -5.93,16.14 -9.68,28.25 -3.75,12.11 -5.87,18.76 -6.35,19.95 -2.55,4.48 -4.96,8.97 -7.26,13.45 -2.3,4.48 -4.32,8.89 -6.06,13.23 -2.04,5.08 -3.44,9.49 -4.2,13.23 -0.76,3.74 -0.95,6.99 -0.58,9.75 0.37,2.77 0.31,5.08 -0.2,6.95 -0.5,1.87 -0.81,2.95 -0.93,3.25 -0.84,2.09 -2.51,5.01 -5,8.74 -2.49,3.74 -4.07,6.43 -4.73,8.07 -1.08,2.69 -1.21,5.01 -0.38,6.95 0.83,1.94 3.17,3.66 7.02,5.16 5.45,1.19 11.07,2.32 16.83,3.36 2.97,0 5.81,-0.6 8.51,-1.79 0.98,-1.2 1.55,-2.02 1.73,-2.47 0.42,-1.05 0.13,-2.46 -0.88,-4.26 -1.01,-1.79 -1.31,-3.21 -0.89,-4.26 0.3,-0.75 1.06,-1.72 2.28,-2.91l5.19 0c1.52,-2.54 1.73,-5.23 0.65,-8.07 -0.48,1.19 -1.02,2.24 -1.63,3.14 -0.61,0.9 -1.53,1.35 -2.77,1.35 -0.28,-2.99 0.48,-6.73 2.28,-11.21 1.74,-4.33 3.9,-7.85 6.46,-10.54 2.39,-1.64 4.32,-3.21 5.79,-4.71 1.47,-1.5 2.53,-3.06 3.19,-4.71 0.78,-1.94 0.63,-3.74 -0.44,-5.38 -2.04,0.15 -3.37,-0.22 -4,-1.12 -0.63,-0.9 -0.61,-1.87 0.06,-2.91 2.34,-0.9 4.25,-2.13 5.75,-3.7 1.5,-1.57 2.73,-3.55 3.69,-5.94 0.66,-1.64 1.18,-3.4 1.56,-5.27 0.38,-1.87 0.87,-3.85 1.46,-5.94 -3.83,5.23 -7.18,10.65 -10.06,16.25 -2.87,5.61 -5.96,12.52 -9.26,20.74 -1.5,3.74 -2.99,7.44 -4.46,11.1 -1.47,3.66 -2.77,7.21 -3.91,10.65 -0.25,0 -1.21,-0.37 -2.89,-1.12l14.37 -39.46c-9.76,11.36 -17.22,23.47 -22.38,36.32 -0.63,-0.9 -0.77,-1.94 -0.41,-3.14 0.36,-1.19 0.62,-2.02 0.81,-2.47 1.02,-2.54 1.59,-4.41 1.69,-5.6 0.11,-1.2 -1.07,-2.09 -3.55,-2.69 -1.05,-4.78 -0.46,-9.94 1.76,-15.47 2.7,-6.73 7.79,-13.23 15.26,-19.51 5.55,-1.5 9.65,-3.25 12.32,-5.27 2.67,-2.02 4.54,-4.37 5.62,-7.06 0.66,-1.64 1.21,-4.26 1.67,-7.85 0.45,-3.59 1.07,-6.35 1.85,-8.3 0.6,-1.49 1.17,-2.62 1.72,-3.36l-2.68 1.12 9.77 -28.92 -8.8 0.67c-2.47,0 -3.52,-0.94 -3.14,-2.8 0.38,-1.87 0.63,-3.25 0.74,-4.15 2.78,-0.75 4.93,-1.79 6.46,-3.14 1.53,-1.35 2.65,-2.91 3.38,-4.71 0.3,-0.75 0.69,-2.02 1.16,-3.81 0.47,-1.79 0.89,-3.14 1.25,-4.04 0.48,-1.19 0.93,-2.02 1.36,-2.46 0.78,-1.94 -0.99,-3.06 -5.33,-3.36 -4.33,-0.3 -6.88,-1.05 -7.63,-2.24zm-25.59 0.9l6.27 4.71c1.24,0.6 2.5,1.16 3.78,1.68 1.27,0.52 2.41,0.78 3.4,0.78 0.74,0 1.6,-0.3 2.59,-0.9 -2.66,-0.15 -5.64,-1.04 -8.94,-2.69 -3.3,-1.64 -5.66,-2.84 -7.09,-3.59zm10.39 0l2.07 2.24c1.79,-0.15 3.61,-0.37 5.47,-0.67 -0.43,-0.15 -0.47,-0.67 -0.11,-1.57l-7.42 0zm-177.66 3.59c3.4,0.15 6.46,0.23 9.18,0.23 2.72,0 4.83,-0.19 6.35,-0.56 1.51,-0.37 2.69,-1.31 3.54,-2.8 -4.57,0.3 -7.98,0.64 -10.24,1.01 -2.25,0.37 -5.2,1.08 -8.83,2.13zm153.56 -2.69c-6.99,5.08 -17.05,14.28 -30.19,27.58 -13.14,13.3 -20.65,20.78 -22.55,22.42 -1.9,1.64 -5.62,6.76 -11.18,15.36 -5.55,8.59 -12.27,14.39 -20.15,17.37 -1.02,2.54 -4.56,6.73 -10.61,12.56 -6.05,5.83 -9.44,9.64 -10.16,11.44 -0.78,1.94 -0.81,3.7 -0.08,5.27 0.73,1.57 2.52,3.1 5.39,4.6 0.69,0.75 1.62,0.9 2.79,0.45 1.17,-0.45 2.46,-0.9 3.88,-1.35l-2.52 6.28c1.49,0.6 2.86,0.9 4.09,0.9 1.98,0 3.92,-0.97 5.81,-2.91 1.9,-1.94 3.73,-3.89 5.5,-5.83l-3.52 -6.95c17.25,-15.84 34.65,-31.76 52.21,-47.76 6.31,-4.63 11.91,-8.86 16.77,-12.67 4.87,-3.81 8.99,-7.44 12.35,-10.87 1.06,0.45 0.97,1.12 -0.25,2.02 -1.23,0.9 -1.74,1.72 -1.55,2.46l3.53 0.45 -7.53 6.73c4.84,-3.44 8.03,-5.83 9.56,-7.18 1.53,-1.35 2.54,-2.62 3.01,-3.81 0.36,-0.9 0.51,-1.57 0.44,-2.02 0.78,-1.94 3.94,-5.34 9.48,-10.2 5.54,-4.86 8.52,-7.51 8.95,-7.96 -2.46,1.2 -6.46,4.37 -11.99,9.53 -5.53,5.16 -10,8.26 -13.39,9.31l8.58 -11.21c-2.39,1.64 -5.88,4.63 -10.47,8.97 -4.59,4.33 -8.23,7.1 -10.94,8.3 8.92,-9.27 17.99,-18.61 27.21,-28.03 -0.92,0.45 -1.83,0.86 -2.72,1.23 -0.89,0.37 -1.56,0.19 -2,-0.56 1.35,-0.9 2.39,-1.64 3.13,-2.24 0.74,-0.6 1.69,-1.12 2.86,-1.57 2.1,-0.3 4.06,-0.11 5.9,0.56 1.83,0.67 3.06,1.16 3.68,1.46 0.98,-0.6 1.83,-1.16 2.53,-1.68 0.71,-0.52 0.53,-1.01 -0.53,-1.46 -4.82,0.3 -9.32,-1.12 -13.5,-4.26 -4.18,-3.14 -8.12,-4.71 -11.83,-4.71zm60.13 2.69c-1.66,0.45 -3.02,1.05 -4.06,1.79 -1.04,0.75 -1.74,1.57 -2.1,2.47 -0.3,0.75 -0.56,2.02 -0.79,3.81 -0.23,1.79 -0.55,3.21 -0.97,4.26 -0.48,1.2 -0.96,2.09 -1.45,2.69l4.45 0 4.92 -15.02zm12.24 0c-1.67,-0.15 -2.75,0.38 -3.23,1.57 -0.42,1.05 -0.44,1.72 -0.07,2.02l3.3 -3.59zm-277.61 6.73l2.74 -4.04 -2.74 4.04zm3.19 3.14l3.26 -6.28 -3.26 6.28zm263.36 3.81l1.46 -10.09 -5.36 17.04 3.91 -6.95zm-249.82 -4.26c-0.37,5.23 0.34,16.22 2.15,32.96 1.8,16.74 0.79,29.9 -3.06,39.46 0.07,1.05 1.89,5.9 5.46,14.57 3.56,8.67 4.54,15.02 2.92,19.06 -0.72,1.79 -1.39,3.14 -1.99,4.04 2.57,2.84 4.57,8.63 6,17.37 1.43,8.74 2.43,13.64 3,14.69l18.97 4.48 3.63 -6.28 2.6 0c1.53,-1.35 2.69,-2.99 3.47,-4.93 0.78,-1.94 1.03,-3.96 0.76,-6.05 -0.27,-2.09 -0.77,-4.71 -1.48,-7.85l-7.28 4.26c1.63,2.09 1.53,3.59 -0.32,4.48l-3.98 -7.62c-1.22,1.2 -1.93,3.1 -2.11,5.72 -0.19,2.62 -0.68,4.3 -1.47,5.05 -1.06,-0.45 -1.85,-2.17 -2.38,-5.16 -0.53,-2.99 -2.96,-4.33 -7.28,-4.04 0.16,-1.64 0.43,-5.68 0.78,-12.11 0.36,-6.43 1.2,-11.29 2.52,-14.57l4.19 1.57c-3.16,-0.75 -4.56,-2.5 -4.19,-5.27 0.37,-2.77 0.61,-4.6 0.72,-5.49 1.72,-1.2 3.68,-2.54 5.89,-4.04 2.21,-1.5 4.55,-2.24 7.02,-2.24 -2.31,-22.57 -4.49,-45.14 -6.55,-67.71l0.43 51.57c-1.12,-0.9 -1.93,-1.35 -2.43,-1.35l-2.25 5.6c-2.29,-10.91 -3.8,-22.87 -4.51,-35.87 -0.71,-13 -1.18,-23.84 -1.4,-32.51l-17.83 -1.79zm23.56 0.45l-0.15 34.53c1.2,-2.99 1.55,-7.25 1.05,-12.78 -0.5,-5.53 -0.21,-9.64 0.88,-12.33 1.2,-2.99 3.27,-5.68 6.21,-8.07 -0.68,-0.15 -1.86,-0.45 -3.53,-0.9 -1.67,-0.45 -3.16,-0.6 -4.46,-0.45zm-39.62 6.28l2.18 -3.59 -2.18 3.59zm258.48 22.42l12.68 -26.01 -12.68 26.01zm12.4 -17.94l-15.89 36.77c1.98,0 2.98,0.75 2.99,2.24 0.02,1.5 0.12,2.32 0.31,2.47 0.98,-0.6 1.8,-1.72 2.46,-3.36 0.48,-1.19 0.53,-2.39 0.14,-3.59 -0.39,-1.2 -0.4,-2.54 -0.05,-4.04 0.35,-1.5 0.95,-3.29 1.79,-5.38 0.9,-2.24 1.96,-4.56 3.17,-6.95 1.21,-2.39 2.41,-4.78 3.62,-7.17 1.56,-3.89 2.04,-7.55 1.45,-10.99zm-221.14 5.61l-0.59 -3.14 -0.22 5.16 0.81 -2.02zm210.97 -2.47c-1.22,1.2 -2.04,2.32 -2.46,3.36 -0.48,1.19 -0.7,2.35 -0.66,3.47 0.05,1.12 0.1,2.2 0.18,3.25 1.1,-0.9 1.83,-1.79 2.19,-2.69 0.36,-0.9 0.5,-2.17 0.42,-3.81 -0.08,-1.64 0.03,-2.84 0.33,-3.59zm-199.89 6.28l0.92 -0.45 -1.35 -4.04 0.42 4.48zm-9.85 14.35l-1.26 -12.56 0.72 13.9 0.54 -1.35zm-67.2 -11.88c-3.33,0.9 -6.76,2.99 -10.31,6.28 -1.1,1.49 -2.19,2.99 -3.29,4.49l3.04 -2.02c2.61,0.9 3.43,2.54 2.47,4.93 -0.6,1.49 -1.17,2.91 -1.71,4.26 5.16,-2.39 9.44,-4.41 12.82,-6.05 3.38,-1.64 6.14,-3.59 8.28,-5.83 -1.24,-0.6 -2.24,-0.9 -2.98,-0.9 1.44,-3.59 -0.19,-5.38 -4.89,-5.38 -1.48,0 -2.63,0.08 -3.43,0.23zm71.43 1.35l-0.84 -0.67 0.12 2.47 0.72 -1.79zm1.15 10.99l-0.04 -3.59 0.04 3.59zm201.04 -3.59c-0.84,2.09 -2.3,5.42 -4.38,9.98 -2.08,4.56 -3.57,7.96 -4.47,10.2 -0.96,2.39 -1.92,4.93 -2.88,7.62 -0.96,2.69 -1.35,5.98 -1.18,9.87l12.91 -37.67zm-5.78 5.16l2.92 -4.48 -2.92 4.48zm-200.37 4.71l0.33 -3.59 -0.33 3.59zm-94.13 8.97c1.72,-1.19 3.11,-2.2 4.18,-3.03 1.07,-0.82 1.67,-1.68 1.78,-2.58 -1.98,0 -3.65,0.79 -5.03,2.35 -1.37,1.57 -1.68,2.65 -0.94,3.25zm14.97 -4.93l-4.13 3.81 3.71 0c-0.01,-0.6 0.16,-1.31 0.49,-2.13 0.33,-0.82 0.31,-1.38 -0.07,-1.68zm-44.42 0.67c-2.1,0.3 -3.52,1.08 -4.28,2.35 -0.76,1.27 -1.32,2.35 -1.68,3.25l3.34 0c1.71,-1.79 2.74,-3.14 3.1,-4.04 0.24,-0.6 0.08,-1.12 -0.48,-1.57zm39.47 4.26l-6.5 6.95c-2.12,3.44 -6.53,5.16 -13.2,5.16 -2.97,0 -4.52,-0.75 -4.67,-2.24 0.76,1.79 1.18,3.36 1.26,4.71 0.08,1.35 -0.15,2.69 -0.69,4.04 -0.36,0.9 -0.76,1.57 -1.18,2.02 -3.91,-1.35 -6.79,-4.48 -8.64,-9.42 -1.85,-4.93 -3.4,-8 -4.66,-9.19 -1.54,0.75 -3.03,1.53 -4.47,2.35 -1.44,0.82 -1.97,1.68 -1.59,2.58 6.35,13.75 9.64,28.33 9.89,43.72l-9.51 -4.04c-4.02,10.02 -6.92,17.53 -8.68,22.53 -1.76,5.01 -3.65,11.85 -5.65,20.51 1.64,2.69 3.73,4.86 6.29,6.5 2.55,1.64 6.06,2.46 10.51,2.46 2.72,0 5.31,-0.3 7.78,-0.9 0.47,-1.79 0.06,-4.15 -1.24,-7.06 -1.3,-2.91 -1.62,-5.19 -0.96,-6.84 0.18,-0.45 0.82,-1.42 1.91,-2.91l1.49 0 18.21 -44.39c1.17,-0.45 2.12,-1.42 2.84,-2.91 0.73,-1.5 1.95,-2.24 3.68,-2.24 -0.33,-2.24 0.19,-5.08 1.57,-8.52 0.66,-1.64 1.9,-4.11 3.71,-7.4 1.82,-3.29 2.99,-5.6 3.53,-6.95 0.6,-1.5 0.93,-2.62 0.98,-3.36l-4.7 2.47c0.55,-0.75 0.77,-1.76 0.66,-3.03 -0.11,-1.27 -0.07,-2.13 0.11,-2.58 0.24,-0.6 0.88,-1.27 1.92,-2.02zm7.79 0l-4.35 8.07 2.23 0c0.79,-1.35 1.27,-2.69 1.44,-4.04 0.17,-1.35 0.4,-2.69 0.69,-4.04zm76.53 0.67c0.37,5.23 0.85,10.65 1.45,16.26 0.59,5.6 2.45,10.05 5.58,13.34 -2.47,-9.86 -4.81,-19.73 -7.03,-29.6zm-90.05 0.67c-1.72,1.2 -3.31,2.39 -4.78,3.59 -1.6,0.9 -3.2,1.2 -4.81,0.9 -1.01,-1.79 -1.48,-2.77 -1.42,-2.92 -2.49,3.74 -1.69,6.05 2.4,6.95 1.48,-0.6 2.9,-1.68 4.27,-3.25 1.37,-1.57 2.82,-3.33 4.34,-5.27zm96.88 4.49c-0.67,0.45 -0.88,1.27 -0.62,2.46 0.62,0.3 1.24,0.6 1.86,0.9l-1.25 -3.36zm169.96 19.28l4.74 1.12 -5.43 3.36 4.08 0c-0.05,0.75 -0.49,1.68 -1.31,2.8 -0.82,1.12 -1.59,2.28 -2.32,3.48 3.32,-1.5 5.55,-3.66 6.69,-6.5 0.3,-0.75 0.63,-1.87 0.98,-3.36 0.35,-1.49 0.68,-2.62 0.98,-3.36 0.36,-0.9 0.75,-1.57 1.18,-2.02 -1.98,0 -3.74,0.52 -5.27,1.57 -1.53,1.05 -2.98,2.02 -4.32,2.92zm-259.72 -1.79l-4.83 -0.9 2.66 5.38 2.17 -4.49zm290.16 3.59c0.8,-0.15 1.26,-0.52 1.38,-1.12 0.12,-0.6 0.33,-0.97 0.63,-1.12l-2.01 2.24zm-7.89 -0.67l-2.05 -0.45 0.69 3.81 1.35 -3.36zm-208.35 12.56c2.01,-2.54 5.61,-3.81 10.81,-3.81 2.72,0 4.7,0.3 5.95,0.9 -1.44,-1.35 -3.76,-2.02 -6.98,-2.02 -2.47,0 -4.68,0.41 -6.62,1.23 -1.94,0.82 -2.99,2.06 -3.16,3.7zm12.98 0l-6.41 -0.67 -3 4.71c0.92,-0.45 1.91,-0.9 2.95,-1.35 1.05,-0.45 2.06,-0.67 3.05,-0.67 1.24,0 1.92,0.45 2.06,1.35l1.35 -3.36zm161.28 -0.67c-1.46,1.79 -2.55,3.59 -3.27,5.38 -0.9,2.24 -1.39,3.77 -1.48,4.6 -0.08,0.82 -0.13,3.4 -0.14,7.74 0.11,-1.5 1.24,-3.25 3.42,-5.27 2.17,-2.02 3.62,-3.33 4.36,-3.92l-2.96 0.9c-1.99,-0.6 -2.71,-1.57 -2.17,-2.91 1.46,-1.79 2.37,-3.14 2.73,-4.04 0.42,-1.05 0.26,-1.87 -0.49,-2.46zm-155.33 2.46l-9.54 16.37 10.36 -10.09 1.22 1.57c0.41,-2.24 0.69,-4.04 0.86,-5.38 0.17,-1.35 -0.8,-2.17 -2.91,-2.47zm-6.6 6.28l-0.39 -1.79 -0.24 3.36 0.63 -1.57zm4.01 9.42c-1.12,-0.3 -2.19,0.22 -3.23,1.57 0.19,0.15 0.5,0.3 0.93,0.45l1.48 0 0.81 -2.02zm-16.74 3.81c0.39,1.49 0.69,2.58 0.92,3.25 0.22,0.67 1.6,0.64 4.12,-0.11 -1.88,-2.09 -3.56,-3.14 -5.04,-3.14zm11.62 2.47l-0.12 -2.47 -0.42 3.81 0.54 -1.35zm175.36 5.83l0.05 -3.81 -0.5 4.93 0.45 -1.12zm-287.8 8.07l2.63 -4.71 -2.63 4.71zm123.66 2.46c-0.58,2.69 -1.05,4.93 -1.4,6.73 -0.35,1.79 1.21,2.69 4.67,2.69 -0.13,-0.3 -0.42,-1.72 -0.89,-4.26 -0.46,-2.54 -1.26,-4.26 -2.38,-5.16zm43.83 4.49l2.91 -4.49 -2.91 4.49zm-52.76 9.42c-0.35,2.09 1.21,3.14 4.67,3.14 2.54,-0.15 5.22,-0.37 8.06,-0.67 0.24,-0.6 0.45,-1.12 0.63,-1.57 0.18,-0.45 -0.07,-0.75 -0.75,-0.9 -1.18,-0.15 -2.05,0.19 -2.63,1.01 -0.58,0.82 -1.27,1.31 -2.07,1.46 -1.05,0.15 -2.58,0.11 -4.59,-0.11 -2.01,-0.22 -3.12,-1.01 -3.32,-2.35zm-25.87 -116.59c-0.91,-3.29 -1.78,-6.65 -2.63,-10.09 -1.7,-2.54 -4.77,-3.81 -9.23,-3.81 -1.2,-1.94 -1,-3.36 0.6,-4.26 0.3,-1.35 1.52,-2.24 3.68,-2.69 2.16,-0.45 3.98,-0.37 5.47,0.22 1.27,2.39 1.92,5.53 1.97,9.42 0.05,3.89 0.09,7.62 0.13,11.21zm-76.05 47.09l-7.18 20.63 7.18 -20.63zm36.98 -49.55c0.82,1.04 0.41,1.91 -1.22,2.58 -1.63,0.67 -3.71,1.38 -6.23,2.13l-3.71 0c1.78,-1.35 3.55,-2.69 5.33,-4.04 2.09,-0.9 4.03,-1.12 5.84,-0.67zm198.46 5.6l-1.08 2.69 -1.02 -0.22 2.11 -2.47zm-158.95 17.94l2.34 1.57 -0.64 0.67 -1.7 -2.24zm-48.04 -39.24l1.49 0 -1.26 3.14 -1.48 0 1.26 -3.14zm265.58 11.21l-10.78 29.6 10.78 -29.6zm-259.36 -26.68l1.48 0 -1.25 4.04 -0.23 -4.04zm44.31 100.23l1.79 2.02 -1.2 0.22 -0.58 -2.24zm200.22 -33.86l0.74 -8.3 1.48 0 -1.68 6.95 -0.54 1.35zm-289.82 40.81l-1.5 6.5 1.5 -6.5zm38.74 -65.02l2.76 -2.24 2.6 0 -5.35 2.24zm258.8 18.83l0.03 2.69 -0.03 -2.69zm-87.89 2.69c1.86,0.3 3.43,-0.37 4.71,-2.02 1.28,-1.64 2.35,-2.62 3.21,-2.91 -0.31,0.15 -1.56,1.42 -3.76,3.81 -2.2,2.39 -3.7,3.96 -4.49,4.71l-0.21 -2.24c-1.22,1.79 -3.76,3.51 -7.64,5.16 -3.88,1.64 -6.05,3.06 -6.53,4.26 -0.3,0.75 -0.26,1.57 0.12,2.47 -8.4,6.13 -16.77,12.18 -25.11,18.16 1.41,-1.05 7.22,-6.43 17.43,-16.14 10.21,-9.72 18.2,-16.22 23.98,-19.51 0.96,-2.39 2.28,-4.6 3.95,-6.61 1.68,-2.02 5.58,-5.72 11.7,-11.1 -2.02,1.94 -5.1,5.76 -9.23,11.44 -4.14,5.68 -6.84,9.19 -8.13,10.54zm-4.92 7.62l-26.46 28.92 26.46 -28.92zm-217.44 67.49l-2.6 0 3.08 -14.13c1,1.2 1.02,2.99 0.06,5.38l-1.44 3.59c-0.96,2.39 -0.66,4.11 0.9,5.16zm18.91 -63.68l-2.53 13.68 -1.48 0 4.01 -13.68zm106.8 66.59l0.21 -6.05 0.42 4.48 -0.63 1.57zm-23.23 -58.52c-1.17,-0.15 -1.53,-0.97 -1.05,-2.47 0.48,-1.49 0.4,-2.39 -0.22,-2.69 1.06,0.45 1.64,1.16 1.74,2.13 0.11,0.97 -0.05,1.98 -0.47,3.03zm156.78 -59.64c1.2,-2.99 4.05,-6.69 8.54,-11.1 4.49,-4.41 9.5,-8.56 15.02,-12.44l-23.56 23.54zm-154.01 121.08l-0.25 -5.83 1.06 3.81 -0.81 2.02zm165.21 2.46l-0.03 5.61 0.03 -5.61zm11.75 4.93l0.15 -3.14 0.3 2.02 -0.45 1.12zm-170.93 -62.11l-0.41 -10.99 0.86 9.86 -0.45 1.12z"/>
    </g>
   </g>
  </g>
  <path class="fil6" d="M62.23 0l750.06 0c34.23,0 62.23,28 62.23,62.23l0 472.93c0,34.23 -28,62.23 -62.23,62.23l-750.06 0c-34.23,0 -62.23,-28 -62.23,-62.23l0 -472.93c0,-34.23 28,-62.23 62.23,-62.23z"/>
 </g>
</svg>
