<?xml version="1.0" encoding="UTF-8"?>
<!DOCTYPE svg PUBLIC "-//W3C//DTD SVG 1.1//EN" "http://www.w3.org/Graphics/SVG/1.1/DTD/svg11.dtd">
<!-- Creator: CorelDRAW (Evaluation Version) -->
<svg xmlns="http://www.w3.org/2000/svg" xml:space="preserve" width="52.3314mm" height="35.7481mm" version="1.1" style="shape-rendering:geometricPrecision; text-rendering:geometricPrecision; image-rendering:optimizeQuality; fill-rule:evenodd; clip-rule:evenodd"
viewBox="0 0 1192.31 814.48"
 xmlns:xlink="http://www.w3.org/1999/xlink"
 xmlns:xodm="http://www.corel.com/coreldraw/odm/2003">
 <defs>
  <style type="text/css">
   <![CDATA[
    .fil5 {fill:none}
    .fil1 {fill:white}
    .fil0 {fill:white}
    .fil4 {fill:#000066}
    .fil2 {fill:#000066}
    .fil3 {fill:#DC0000}
   ]]>
  </style>
   <clipPath id="id0">
    <path d="M84.84 0l1022.62 0c46.67,0 84.84,38.18 84.84,84.84l0 644.79c0,46.66 -38.18,84.84 -84.84,84.84l-1022.62 0c-46.67,0 -84.84,-38.18 -84.84,-84.84l0 -644.79c0,-46.67 38.18,-84.84 84.84,-84.84z"/>
   </clipPath>
    <clipPath id="id1">
     <path d="M84.27 0.64l1023.77 0c46.29,0 84.17,40.48 84.27,89.99l0 633.23c-0.1,49.51 -37.98,89.99 -84.27,89.99l-1023.77 0c-46.35,0 -84.27,-40.58 -84.27,-90.18l0 -632.84c0,-49.6 37.92,-90.18 84.27,-90.18z"/>
    </clipPath>
    <clipPath id="id2">
     <path d="M84.84 0l1022.62 0c46.67,0 84.84,38.18 84.84,84.84l0 644.79c0,46.66 -38.18,84.84 -84.84,84.84l-1022.62 0c-46.67,0 -84.84,-38.18 -84.84,-84.84l0 -644.79c0,-46.67 38.18,-84.84 84.84,-84.84z"/>
    </clipPath>
 </defs>
 <g id="Camada_x0020_1">
  <metadata id="CorelCorpID_0Corel-Layer"/>
  <path class="fil0" d="M84.84 0l1022.62 0c46.67,0 84.84,38.18 84.84,84.84l0 644.79c0,46.66 -38.18,84.84 -84.84,84.84l-1022.62 0c-46.67,0 -84.84,-38.18 -84.84,-84.84l0 -644.79c0,-46.67 38.18,-84.84 84.84,-84.84z"/>
  <g style="clip-path:url(#id0)">
   <g id="_105553212320128">
    <path id="_1" class="fil1" d="M84.27 0.64l1023.77 0c46.35,0 84.27,40.58 84.27,90.18l0 632.84c0,49.6 -37.92,90.18 -84.27,90.18l-1023.77 0c-46.35,0 -84.27,-40.58 -84.27,-90.18l0 -632.84c0,-49.6 37.92,-90.18 84.27,-90.18z"/>
   </g>
   <g style="clip-path:url(#id1)">
    <g>
     <path id="_2" class="fil2" d="M206.36 674.45l-49.46 0 0 -81.84c0,-7.3 -1.56,-12.87 -4.63,-16.82 -3.13,-3.89 -7.49,-5.84 -13.15,-5.84 -8.14,0 -14.44,2.97 -19.02,8.87 -4.58,5.95 -6.84,14.33 -6.84,25.21l0 70.42 -49.46 0 0 -142.8 46.01 0 0 23.91c8.19,-9.68 16.32,-16.77 24.35,-21.15 8.03,-4.44 16.81,-6.65 26.29,-6.65 10.4,0 19.02,2.16 25.81,6.49 6.74,4.27 12.5,11.2 17.24,20.66 6.95,-9.03 14.55,-15.85 22.79,-20.39 8.3,-4.49 17.24,-6.76 26.94,-6.76 15.79,0 27.42,4.44 34.97,13.36 7.49,8.92 11.26,22.72 11.26,41.38l0 91.95 -49.46 0 0 -81.84c0,-7.3 -1.56,-12.87 -4.63,-16.82 -3.12,-3.89 -7.49,-5.84 -13.15,-5.84 -8.24,0 -14.55,2.97 -19.07,8.87 -4.52,5.95 -6.79,14.33 -6.79,25.21l0 70.42zm221.07 -106.56c-2.96,-1.68 -5.77,-2.92 -8.46,-3.62 -2.69,-0.76 -5.33,-1.14 -7.97,-1.14 -9.38,0 -17.3,3.95 -23.71,11.85 -6.41,7.84 -9.64,17.8 -9.64,29.75 0,11.2 2.8,20.55 8.46,28.02 5.66,7.47 12.5,11.2 20.64,11.2 3.23,0 6.57,-0.86 10.02,-2.6 3.45,-1.78 7,-4.44 10.67,-8.06l0 -65.39zm49.46 -36.24l0 89.25c0,11.2 0.21,20.61 0.65,28.24 0.43,7.57 1.02,14.06 1.88,19.47l-45.85 12.66 -4.42 -13.58c-6.19,4.6 -12.28,8.06 -18.26,10.28 -5.93,2.22 -12.18,3.3 -18.7,3.3 -18.37,0 -33.78,-7.36 -46.23,-22.02 -12.5,-14.71 -18.75,-32.99 -18.75,-54.85 0,-23.04 7,-42.08 21.01,-57.06 14.01,-14.98 31.74,-22.5 53.12,-22.5 4.9,0 10.08,0.7 15.46,2.06 5.39,1.35 11.32,3.46 17.84,6.33l42.24 -1.57zm87.66 142.8l-49.78 0 0 -142.8 46.34 0 0.92 25.04c5.66,-10.01 12.34,-17.25 19.94,-21.8 7.6,-4.54 17.08,-6.81 28.45,-6.81l3.93 0 0 53.23 -5.17 0 -5.55 0c-15.41,0 -25.81,1.78 -31.09,5.3 -5.33,3.57 -7.97,12.06 -7.97,25.59l0 62.26zm84.1 -47.92l0 -57.23 -20.69 0 0 -37.65 20.69 0 0 -42.84 50.43 -6.82 0 49.65 33.62 0 0 37.65 -33.62 0 0 60.63c0,12.87 1.72,22.23 5.23,27.96 3.5,5.73 10.07,11.09 19.67,15.9l-56.25 3.89c-7.06,-3.41 -11.96,-8.44 -14.82,-15.14 -2.85,-6.71 -4.26,-18.71 -4.26,-36.02zm102.8 -148.1c0,-7.63 2.64,-14.06 7.92,-19.31 5.22,-5.3 11.64,-7.95 19.23,-7.95 7.71,0 14.11,2.6 19.34,7.84 5.22,5.25 7.81,11.68 7.81,19.42 0,7.63 -2.64,14.11 -7.92,19.53 -5.22,5.35 -11.64,8.06 -19.23,8.06 -7.38,0 -13.74,-2.7 -19.13,-8.17 -5.33,-5.46 -8.03,-11.9 -8.03,-19.42zm52.37 196.02l-50.11 0 0 -142.8 50.11 -6.81 0 149.61zm86.69 0l-49.46 0 0 -142.8 45.69 0 0 23.91c7.54,-9.36 15.63,-16.34 24.14,-20.93 8.51,-4.6 17.78,-6.87 27.75,-6.87 15.09,0 26.51,4.33 34.27,12.98 7.81,8.65 11.69,21.26 11.69,37.91l0 95.79 -49.14 0 0 -81.84c0,-7.52 -1.51,-13.14 -4.58,-16.93 -3.02,-3.84 -7.54,-5.73 -13.58,-5.73 -8.57,0 -15.19,2.92 -19.83,8.71 -4.63,5.84 -6.95,14.28 -6.95,25.37l0 70.42zm129.69 -6.49l0 -39.27c12.5,8.01 22.25,13.47 29.2,16.23 6.9,2.81 13.36,4.22 19.24,4.22 5.17,0 9.32,-1.14 12.44,-3.41 3.18,-2.27 4.74,-5.25 4.74,-8.98 0,-3.14 -1.08,-5.79 -3.29,-7.9 -2.21,-2.11 -6.03,-4.11 -11.37,-6l-18.32 -6.55c-11.96,-4.11 -21.07,-9.9 -27.26,-17.36 -6.2,-7.41 -9.27,-16.23 -9.27,-26.39 0,-14.33 5.01,-25.91 14.98,-34.62 10.02,-8.71 23.33,-13.09 39.98,-13.09 7.65,0 15.79,1.08 24.36,3.24 8.57,2.16 18.15,5.57 28.66,10.12l-6.2 34.67c-6.3,-5.36 -13.2,-9.57 -20.69,-12.6 -7.49,-3.08 -14.49,-4.6 -21.01,-4.6 -4.85,0 -8.78,1.13 -11.85,3.41 -3.07,2.27 -4.58,5.14 -4.58,8.6 0,2.98 0.86,5.3 2.59,7.03 1.72,1.73 5.6,3.62 11.58,5.63l17.08 6.17c13.36,4.76 22.95,10.49 28.66,17.25 5.76,6.76 8.62,15.58 8.62,26.5 0,15.74 -5.17,28.18 -15.46,37.32 -10.34,9.14 -24.35,13.69 -42.13,13.69 -8.67,0 -17.13,-1.08 -25.54,-3.25 -8.35,-2.16 -16.76,-5.52 -25.16,-10.06z"/>
     <path class="fil3" d="M324.21 759.78c3.14,1.93 5.81,3.26 8.02,4.04 2.19,0.77 4.33,1.16 6.43,1.16 2.11,0 3.8,-0.47 5.09,-1.4 1.27,-0.93 1.91,-2.12 1.91,-3.57 0,-2.08 -2.27,-4.44 -6.84,-7.04 -0.73,-0.42 -1.3,-0.76 -1.7,-0.99l-3.45 -1.95c-3.36,-1.9 -5.85,-4.06 -7.46,-6.45 -1.62,-2.4 -2.43,-5.11 -2.43,-8.15 0,-4.12 1.55,-7.48 4.66,-10.12 3.09,-2.64 7.1,-3.95 12.01,-3.95 1.82,0 3.78,0.22 5.89,0.64 2.12,0.42 4.47,1.08 7.05,1.97l0 11.97c-2.47,-1.54 -4.8,-2.73 -7.02,-3.57 -2.21,-0.84 -4.09,-1.26 -5.64,-1.26 -1.72,0 -3.07,0.37 -4.06,1.11 -0.99,0.73 -1.48,1.75 -1.48,3.01 0,0.89 0.29,1.72 0.88,2.49 0.59,0.78 1.47,1.48 2.65,2.12l5.99 3.31c5.02,2.78 8.39,5.34 10.12,7.69 1.73,2.36 2.6,5.14 2.6,8.36 0,4.98 -1.7,9.02 -5.09,12.08 -3.41,3.07 -7.91,4.6 -13.53,4.6 -1.9,0 -3.97,-0.2 -6.21,-0.6 -2.22,-0.4 -4.69,-1.02 -7.36,-1.86l-1.02 -13.64zm74.51 -36.68l0 28.09c0,4.51 0.83,7.89 2.49,10.13 1.65,2.25 4.16,3.37 7.53,3.37 3.24,0 5.72,-1.05 7.41,-3.14 1.71,-2.08 2.56,-5.12 2.56,-9.12l0 -29.33 10.9 0 0 29.33c0,7.38 -1.89,13.14 -5.68,17.27 -3.78,4.13 -9.04,6.18 -15.76,6.18 -6.8,0 -12.08,-2.04 -15.86,-6.14 -3.77,-4.09 -5.65,-9.84 -5.65,-17.25l0 -29.4 12.06 0zm76.84 9.39l-1.66 0 0 13.65 2.21 0c3.08,0 5.43,-0.59 7.05,-1.78 1.62,-1.19 2.43,-2.9 2.43,-5.13 0,-2.34 -0.79,-4.03 -2.39,-5.11 -1.6,-1.08 -4.15,-1.62 -7.64,-1.62zm-13.86 41.73l0 -51.12 13.15 0c4.04,0 7.26,0.29 9.63,0.88 2.37,0.59 4.48,1.58 6.32,2.96 1.9,1.38 3.38,3.12 4.43,5.2 1.05,2.08 1.56,4.28 1.56,6.61 0,5.18 -1.84,9.27 -5.52,12.3 -3.67,3.03 -8.66,4.55 -14.97,4.55 -0.65,0 -1.14,0 -1.48,-0.01 -0.33,-0.01 -0.64,-0.04 -0.92,-0.06l0 18.7 -12.2 0zm63.53 0l0 -51.12 31.48 0 0 10.54 -19.64 0 0 9.24 16.82 0 0 10.47 -16.82 0 0 10.11 19.93 0 0 10.76 -31.77 0zm75.79 -41.8l-2.01 0 0 14.15 2.57 0c3.08,0 5.43,-0.63 7.05,-1.87 1.62,-1.24 2.43,-3.03 2.43,-5.36 0,-2.44 -0.78,-4.2 -2.36,-5.29 -1.57,-1.09 -4.14,-1.63 -7.69,-1.63zm-13.85 41.8l0 -51.12 13.14 0c4.21,0 7.47,0.28 9.79,0.83 2.32,0.55 4.37,1.47 6.16,2.77 1.9,1.36 3.38,3.04 4.43,5.05 1.05,2.01 1.56,4.13 1.56,6.35 0,3.23 -0.82,6.04 -2.45,8.46 -1.64,2.42 -4,4.31 -7.08,5.68l15.6 21.97 -13.94 0 -13.65 -20.07 -1.73 0 0 20.07 -11.84 0zm62.68 0l10.61 -52.78 0.88 0 19.29 33.29 18.2 -33.29 0.91 0 10.69 52.78 -11.6 0 -4.33 -23.34 -13.72 25.22 -0.82 0 -14.73 -25.57 -4.49 23.69 -10.89 0zm88.87 0l0 -51.12 31.48 0 0 10.54 -19.64 0 0 9.24 16.82 0 0 10.47 -16.82 0 0 10.11 19.93 0 0 10.76 -31.77 0zm75.79 -41.8l-2.01 0 0 14.15 2.57 0c3.08,0 5.43,-0.63 7.05,-1.87 1.62,-1.24 2.43,-3.03 2.43,-5.36 0,-2.44 -0.78,-4.2 -2.36,-5.29 -1.58,-1.09 -4.14,-1.63 -7.69,-1.63zm-13.85 41.8l0 -51.12 13.14 0c4.21,0 7.47,0.28 9.8,0.83 2.32,0.55 4.37,1.47 6.16,2.77 1.9,1.36 3.38,3.04 4.43,5.05 1.05,2.01 1.56,4.13 1.56,6.35 0,3.23 -0.82,6.04 -2.45,8.46 -1.64,2.42 -4,4.31 -7.08,5.68l15.6 21.97 -13.93 0 -13.65 -20.07 -1.73 0 0 20.07 -11.84 0zm104.64 -34.95c-2.21,-2.27 -4.45,-3.96 -6.72,-5.06 -2.27,-1.1 -4.66,-1.65 -7.15,-1.65 -4.32,0 -7.86,1.49 -10.6,4.47 -2.75,2.99 -4.13,6.82 -4.13,11.49 0,4.68 1.36,8.47 4.09,11.37 2.72,2.9 6.27,4.36 10.65,4.36 2.59,0 5.16,-0.54 7.74,-1.62 2.57,-1.08 5.14,-2.71 7.7,-4.87l-0.78 13.57c-2.19,1.48 -4.57,2.61 -7.17,3.38 -2.6,0.78 -5.29,1.17 -8.1,1.17 -3.01,0 -5.89,-0.47 -8.65,-1.41 -2.76,-0.94 -5.31,-2.33 -7.63,-4.16 -3.3,-2.59 -5.81,-5.74 -7.57,-9.47 -1.75,-3.72 -2.62,-7.79 -2.62,-12.18 0,-3.79 0.65,-7.34 1.94,-10.65 1.3,-3.31 3.18,-6.25 5.64,-8.78 2.49,-2.54 5.37,-4.48 8.64,-5.84 3.26,-1.35 6.7,-2.02 10.32,-2.02 2.88,0 5.61,0.4 8.22,1.2 2.61,0.8 5.1,2.01 7.47,3.64l-1.3 13.07zm41.51 18.7l13.43 0 -6.63 -16.01 -6.8 16.01zm-19.14 16.24l26.08 -52.71 0.77 0 25.5 52.71 -12.77 0 -3.24 -7.44 -20.74 0 -3.31 7.44 -12.29 0zm89.1 -10.97l2.68 0c5.33,0 9.51,-1.29 12.52,-3.88 3.01,-2.59 4.51,-6.15 4.51,-10.71 0,-4.56 -1.5,-8.13 -4.51,-10.75 -3.01,-2.61 -7.19,-3.91 -12.52,-3.91l-2.68 0 0 29.25zm-12.06 10.97l0 -51.12 13.57 0c9.54,0 17.03,2.27 22.43,6.84 5.4,4.56 8.11,10.81 8.11,18.73 0,4.74 -1.07,8.97 -3.21,12.64 -2.13,3.68 -5.27,6.7 -9.41,9.09 -2.36,1.36 -4.91,2.33 -7.68,2.93 -2.75,0.6 -6.17,0.9 -10.24,0.9l-13.57 0zm82.89 -25.56c0,4.44 1.3,8.17 3.9,11.17 2.6,3 5.8,4.5 9.6,4.5 3.83,0 7.04,-1.49 9.63,-4.48 2.59,-3 3.88,-6.73 3.88,-11.19 0,-4.49 -1.29,-8.24 -3.88,-11.24 -2.59,-3 -5.8,-4.5 -9.63,-4.5 -3.8,0 -7,1.5 -9.6,4.5 -2.6,3 -3.9,6.75 -3.9,11.24zm-12.56 0c0,-3.79 0.65,-7.33 1.96,-10.63 1.3,-3.31 3.23,-6.26 5.76,-8.87 2.39,-2.49 5.19,-4.4 8.37,-5.73 3.16,-1.34 6.5,-2 9.97,-2 3.48,0 6.81,0.67 10,2.01 3.19,1.34 6.02,3.27 8.48,5.79 2.49,2.52 4.38,5.42 5.65,8.72 1.29,3.3 1.93,6.87 1.93,10.7 0,3.2 -0.45,6.21 -1.34,9.02 -0.9,2.82 -2.23,5.39 -4,7.73 -2.49,3.31 -5.55,5.89 -9.18,7.71 -3.64,1.84 -7.49,2.75 -11.55,2.75 -3.45,0 -6.76,-0.67 -9.93,-2.01 -3.17,-1.34 -5.97,-3.27 -8.41,-5.79 -2.54,-2.6 -4.46,-5.55 -5.76,-8.83 -1.31,-3.27 -1.96,-6.81 -1.96,-10.59z"/>
     <polygon class="fil3" points="63.83,721.35 299.57,721.35 299.57,776.11 63.83,776.11 "/>
     <g>
      <path class="fil4" d="M329.9 81.25c64.8,-72.61 176.15,-32.69 178.16,56.52 0.3,57.04 0.59,114.08 0.89,171.12 -88.55,-6.56 -126.95,-63.36 -128.34,-99.82 0.45,-103.6 -1.69,-148.07 -50.7,-127.81zm354.05 0c64.8,-72.61 176.15,-32.69 178.16,56.52 0.3,57.04 0.59,222.94 0.89,279.98 -88.55,-6.56 -126.95,-63.36 -128.34,-99.82 0.45,-103.6 14.1,-268.93 -50.7,-236.67zm-176.85 0c64.8,-72.61 176.15,-32.69 178.16,56.52 0.3,57.04 0.59,183.31 0.89,240.35 -88.55,-6.56 -126.95,-63.36 -128.34,-99.82 0.45,-103.6 9.04,-226.14 -50.71,-197.04z"/>
      <polygon class="fil3" points="879,147.47 975.57,147.47 975.57,156.75 879,156.75 "/>
      <polygon class="fil3" points="879,180.87 975.57,180.87 975.57,190.15 879,190.15 "/>
      <polygon class="fil3" points="879,214.27 975.57,214.27 975.57,223.55 879,223.55 "/>
      <polygon class="fil3" points="218.78,147.47 315.36,147.47 315.36,156.75 218.78,156.75 "/>
      <polygon class="fil3" points="218.78,180.87 315.36,180.87 315.36,190.15 218.78,190.15 "/>
      <polygon class="fil3" points="218.78,214.27 315.36,214.27 315.36,223.55 218.78,223.55 "/>
     </g>
    </g>
   </g>
   <g style="clip-path:url(#id2)">
    <path class="fil5" d="M84.27 0.64l1023.77 0c46.35,0 84.27,40.58 84.27,90.18l0 632.84c0,49.6 -37.92,90.18 -84.27,90.18l-1023.77 0c-46.35,0 -84.27,-40.58 -84.27,-90.18l0 -632.84c0,-49.6 37.92,-90.18 84.27,-90.18z"/>
   </g>
  </g>
  <path class="fil5" d="M84.84 0l1022.62 0c46.67,0 84.84,38.18 84.84,84.84l0 644.79c0,46.66 -38.18,84.84 -84.84,84.84l-1022.62 0c-46.67,0 -84.84,-38.18 -84.84,-84.84l0 -644.79c0,-46.67 38.18,-84.84 84.84,-84.84z"/>
 </g>
</svg>
