<?xml version="1.0" encoding="UTF-8"?>
<!DOCTYPE svg PUBLIC "-//W3C//DTD SVG 1.1//EN" "http://www.w3.org/Graphics/SVG/1.1/DTD/svg11.dtd">
<!-- Creator: CorelDRAW (Evaluation Version) -->
<svg xmlns="http://www.w3.org/2000/svg" xml:space="preserve" width="52.3314mm" height="35.7481mm" version="1.1" style="shape-rendering:geometricPrecision; text-rendering:geometricPrecision; image-rendering:optimizeQuality; fill-rule:evenodd; clip-rule:evenodd"
viewBox="0 0 1338.61 914.42"
 xmlns:xlink="http://www.w3.org/1999/xlink"
 xmlns:xodm="http://www.corel.com/coreldraw/odm/2003">
 <defs>
  <style type="text/css">
   <![CDATA[
    .fil2 {fill:none}
    .fil0 {fill:white}
    .fil1 {fill:#292929;fill-rule:nonzero}
   ]]>
  </style>
   <clipPath id="id0">
    <path d="M95.26 0l1148.1 0c52.39,0 95.25,42.86 95.25,95.26l0 723.91c0,52.39 -42.86,95.25 -95.25,95.25l-1148.1 0c-52.39,0 -95.26,-42.86 -95.26,-95.25l0 -723.91c0,-52.39 42.86,-95.26 95.26,-95.26z"/>
   </clipPath>
 </defs>
 <g id="Camada_x0020_1">
  <metadata id="CorelCorpID_0Corel-Layer"/>
  <path class="fil0" d="M95.26 0l1148.1 0c52.39,0 95.25,42.86 95.25,95.26l0 723.91c0,52.39 -42.86,95.25 -95.25,95.25l-1148.1 0c-52.39,0 -95.26,-42.86 -95.26,-95.25l0 -723.91c0,-52.39 42.86,-95.26 95.26,-95.26z"/>
  <g style="clip-path:url(#id0)">
   <g id="_105553211468736">
    <g>
     <path id="_1" class="fil1" d="M404.74 559.57c-3.46,0 -7.38,-0.61 -11.78,-1.83 -11.95,-3.98 -20.35,-11.55 -25.22,-22.72 -4.87,-11.16 -7.3,-24.09 -7.3,-38.77 0,-19.89 2.67,-40.54 8.02,-61.95 5.34,-21.42 10.52,-39 15.55,-52.77 1.25,-3.98 4.4,-6.27 9.43,-6.88l0.47 0c7.55,0 15.17,4.59 22.86,13.76 7.7,9.18 11.55,17.44 11.55,24.79 0,2.14 -0.31,3.97 -0.95,5.51 -1.88,4.27 -4.94,12.46 -9.18,24.55 -4.25,12.08 -8.25,25.54 -12.02,40.38 -3.78,14.83 -5.66,28.06 -5.66,39.69 0,7.34 1.11,13.46 3.3,18.36 2.2,4.89 6.13,7.65 11.79,8.26 3.77,0 5.66,0.91 5.66,2.75 0,1.22 -1.5,2.67 -4.48,4.36 -2.99,1.68 -6.99,2.52 -12.02,2.52zm798.11 25.69c-5.97,0 -12.25,-0.76 -18.85,-2.29 0,0 -1.64,-0.69 -4.94,-2.07 -3.3,-1.37 -7.15,-3.51 -11.55,-6.42 -4.4,-2.9 -8.25,-6.65 -11.55,-11.24 -3.3,-4.59 -4.95,-10.09 -4.95,-16.52l0 -3.22c0.95,-7.34 2.91,-13.07 5.89,-17.2 2.99,-4.13 6.37,-7.27 10.14,-9.4 1.89,-0.92 3.77,-1.38 5.66,-1.38l2.83 0.46c3.14,0.92 5.34,2.9 6.6,5.96 4.08,9.49 9.27,16.37 15.55,20.65 6.28,4.28 12.25,6.42 17.91,6.42 4.71,0 8.64,-1.22 11.78,-3.67 3.14,-2.45 4.71,-5.5 4.71,-9.18l-0.94 -4.58c-3.46,-7.96 -10.21,-17.74 -20.27,-29.37 -8.49,-9.78 -16.51,-20.35 -24.04,-31.66 -7.54,-11.32 -11.31,-22.64 -11.31,-33.95 0,-3.98 0.63,-7.8 1.88,-11.47 5.03,-15.91 14.46,-31.43 28.28,-46.57 13.83,-15.15 30.8,-24.71 50.91,-28.68l1.88 0c1.57,0 3.3,0.46 5.19,1.37 4.4,2.75 8.56,6.73 12.49,11.94 3.93,5.19 5.89,10.24 5.89,15.14 0,3.98 -2.04,7.04 -6.13,9.18 -1.88,0.61 -3.93,1.37 -6.12,2.29 -10.38,3.67 -21.61,9.02 -33.71,16.06 -12.09,7.03 -19.25,16.05 -21.44,27.07l0 3.68c0,7.95 2.12,15.29 6.36,22.02 4.24,6.74 9.34,13.31 15.31,19.73 6.28,7.34 11.94,14.99 16.97,22.94 5.02,7.95 7.54,16.98 7.54,27.07 0,5.2 -0.79,10.56 -2.36,16.06 -3.45,11.32 -9.82,20.96 -19.09,28.91 -9.26,7.95 -21.44,11.93 -36.53,11.93zm-76.69 -25.69c-3.46,0 -7.38,-0.61 -11.79,-1.83 -11.94,-3.98 -20.35,-11.55 -25.21,-22.72 -4.88,-11.16 -7.31,-24.09 -7.31,-38.77 0,-19.89 2.67,-40.54 8.02,-61.95 5.34,-21.42 10.52,-39 15.55,-52.77 1.25,-3.98 4.4,-6.27 9.42,-6.88l0.48 0c7.54,0 15.16,4.59 22.86,13.76 7.7,9.18 11.55,17.44 11.55,24.79 0,2.14 -0.31,3.97 -0.94,5.51 -1.89,4.27 -4.95,12.46 -9.19,24.55 -4.24,12.08 -8.25,25.54 -12.02,40.38 -3.77,14.83 -5.65,28.06 -5.65,39.69 0,7.34 1.1,13.46 3.3,18.36 2.19,4.89 6.12,7.65 11.78,8.26 3.78,0 5.66,0.91 5.66,2.75 0,1.22 -1.49,2.67 -4.48,4.36 -2.99,1.68 -6.98,2.52 -12.02,2.52zm25.46 -182.17l-3.3 -0.46c-5.35,-1.84 -10.3,-4.43 -14.86,-7.8 -4.55,-3.36 -8.24,-6.27 -11.07,-8.71 -2.2,-2.14 -3.3,-4.59 -3.3,-7.34 0,-5.21 0.86,-13.23 2.59,-24.1 1.73,-10.85 5.89,-20.87 12.49,-30.05 5.03,-4.89 11.79,-7.34 20.27,-7.34 10.69,0 21.37,2.14 32.05,6.42 0.31,0 0.47,0 0.47,0 1.57,0.62 2.9,1.23 4.01,1.84 1.1,0.61 1.64,1.68 1.64,3.22 0,2.13 -1.72,5.96 -5.18,11.46 -5.03,7.96 -9.91,17.37 -14.62,28.22 -4.71,10.87 -8.48,20.11 -11.31,27.76 -0.94,2.14 -2.35,3.82 -4.25,5.04 -1.88,1.22 -3.77,1.84 -5.65,1.84zm-144.24 207.86c-5.98,0 -12.26,-0.76 -18.86,-2.29 0,0 -1.65,-0.69 -4.95,-2.07 -3.3,-1.37 -7.15,-3.51 -11.55,-6.42 -4.4,-2.9 -8.24,-6.65 -11.55,-11.24 -3.3,-4.59 -4.95,-10.09 -4.95,-16.52l0 -3.22c0.94,-7.34 2.91,-13.07 5.89,-17.2 2.99,-4.13 6.37,-7.27 10.14,-9.4 1.88,-0.92 3.77,-1.38 5.65,-1.38l2.83 0.46c3.14,0.92 5.35,2.9 6.6,5.96 4.09,9.49 9.27,16.37 15.55,20.65 6.28,4.28 12.26,6.42 17.92,6.42 4.71,0 8.64,-1.22 11.78,-3.67 3.14,-2.45 4.72,-5.5 4.72,-9.18l-0.94 -4.58c-3.47,-7.96 -10.22,-17.74 -20.27,-29.37 -8.48,-9.78 -16.5,-20.35 -24.04,-31.66 -7.54,-11.32 -11.32,-22.64 -11.32,-33.95 0,-3.98 0.63,-7.8 1.89,-11.47 5.03,-15.91 14.46,-31.43 28.29,-46.57 13.83,-15.15 30.79,-24.71 50.9,-28.68l1.88 0c1.58,0 3.31,0.46 5.19,1.37 4.4,2.75 8.57,6.73 12.49,11.94 3.93,5.19 5.89,10.24 5.89,15.14 0,3.98 -2.04,7.04 -6.13,9.18 -1.88,0.61 -3.93,1.37 -6.13,2.29 -10.37,3.67 -21.6,9.02 -33.7,16.06 -12.1,7.03 -19.25,16.05 -21.45,27.07l0 3.68c0,7.95 2.12,15.29 6.36,22.02 4.24,6.74 9.35,13.31 15.32,19.73 6.28,7.34 11.94,14.99 16.97,22.94 5.03,7.95 7.54,16.98 7.54,27.07 0,5.2 -0.79,10.56 -2.36,16.06 -3.45,11.32 -9.81,20.96 -19.08,28.91 -9.27,7.95 -21.45,11.93 -36.53,11.93zm-77.24 13.31c-3.14,0 -6.59,-0.46 -10.36,-1.37 -12.57,-3.98 -21.37,-12.31 -26.4,-25.01 -5.03,-12.7 -7.54,-27.15 -7.54,-43.36 0,-8.57 0.47,-17.13 1.41,-25.69 5.03,-40.69 13.67,-81.38 25.92,-122.07 8.17,-27.84 15.08,-55.67 20.74,-83.51 1.88,-11.63 2.83,-20.35 2.83,-26.15l0 -6.43c0,-4.58 2.51,-7.95 7.54,-10.1 2.51,-0.92 5.18,-1.38 8.01,-1.38 8.48,0 16.42,3.67 23.81,11.01 7.38,7.34 11.7,15.45 12.96,24.32l0 3.67c0,8.88 -2.44,22.71 -7.31,41.53 -4.87,18.81 -10.76,39.85 -17.68,63.1 -9.11,29.67 -17.44,59.19 -24.98,88.56 -7.54,29.37 -11.31,53.38 -11.31,72.04 0,8.87 1.26,15.91 3.77,21.11 2.52,5.2 6.6,7.95 12.26,8.26 4.09,0 5.97,0.91 5.66,2.75 0,1.84 -1.73,3.75 -5.18,5.73 -3.46,1.99 -8.17,2.98 -14.15,2.98zm48.08 -361.58l-1.41 0c-3.45,0 -6.6,-1.6 -9.43,-4.82 -2.83,-3.21 -4.24,-6.04 -4.24,-8.48l0.47 -1.84c0,0 1.65,-3.6 4.95,-10.79 3.3,-7.19 7.39,-15.44 12.26,-24.77 4.87,-9.33 9.66,-17.59 14.38,-24.78 4.71,-7.19 8.48,-11.09 11.31,-11.7l2.36 0c3.77,0 8.32,0.92 13.67,2.75 5.34,1.83 10.06,4.44 14.14,7.8 1.57,1.54 2.36,3.22 2.36,5.05 0,1.53 -0.24,2.82 -0.71,3.9 -0.48,1.07 -1.34,2.07 -2.59,2.98 -7.86,5.81 -17.13,15.06 -27.82,27.76 -10.69,12.7 -18.85,23.79 -24.51,33.27 -1.26,1.83 -2.99,3.06 -5.19,3.67zm-331.26 328.08c-7.55,0 -16.19,-2.51 -25.93,-7.56 -9.74,-5.05 -18.23,-14.45 -25.46,-28.22 -2.2,-4.59 -3.3,-9.94 -3.3,-16.06 0,-22.03 9.35,-48.26 28.04,-78.7 18.7,-30.44 37.48,-50.09 56.34,-58.97 6.28,-2.44 11.78,-3.67 16.5,-3.67 7.54,0 13.36,2.06 17.44,6.2 4.09,4.12 7.07,8.48 8.96,13.07 0.63,1.53 0.94,2.91 0.94,4.14 0,3.36 -1.57,6.12 -4.71,8.25 -7.55,5.21 -16.74,15.07 -27.58,29.6 -10.84,14.53 -20.5,29.98 -28.99,46.34 -8.48,16.37 -12.72,28.99 -12.72,37.86 0,4.59 1.57,7.65 4.71,9.18 0.94,0.3 2.04,0.45 3.3,0.45 7.54,0 16.11,-7.18 25.69,-21.56 9.58,-14.38 18.14,-29.37 25.68,-44.97 7.55,-15.6 12.57,-26.31 15.09,-32.12 4.72,-18.36 9.27,-33.95 13.67,-46.8 1.89,-3.98 5.03,-6.27 9.43,-6.88l0.47 0c7.86,0 15.64,4.59 23.33,13.76 7.7,9.18 11.56,17.44 11.56,24.79 0,2.14 -0.31,3.97 -0.94,5.51 -1.89,4.27 -4.95,12.46 -9.19,24.55 -4.25,12.08 -8.34,25.54 -12.26,40.38 -3.92,14.83 -5.89,28.06 -5.89,39.69 0,7.34 1.18,13.46 3.54,18.36 2.36,4.89 6.36,7.65 12.02,8.26 3.77,0 5.5,0.76 5.18,2.29 0,1.53 -1.49,3.13 -4.47,4.82 -2.99,1.68 -6.99,2.52 -12.02,2.52 -3.46,0 -7.39,-0.61 -11.78,-1.83 -11.32,-3.67 -19.49,-10.55 -24.52,-20.65 -5.02,-10.1 -7.7,-22.03 -8.01,-35.79 -10.68,14.38 -21.29,27.91 -31.82,40.61 -10.53,12.69 -17.99,19.96 -22.39,21.8 -2.51,0.91 -5.81,1.37 -9.89,1.37zm-131.99 0l-4.24 0c-25.14,-1.53 -44.15,-9.25 -57.03,-23.17 -12.89,-13.92 -19.33,-31.28 -19.33,-52.08 0,-12.54 2.36,-25.85 7.07,-39.92 10.68,-28.76 25.54,-49.79 44.55,-63.1 19,-13.3 36.84,-19.96 53.5,-19.96 11.62,0 21.29,2.92 28.99,8.72 7.69,5.81 11.54,14.23 11.54,25.25 0,2.45 -0.15,4.89 -0.47,7.34 -1.57,4.58 -3.54,7.8 -5.89,9.64 -2.36,1.83 -4.8,2.75 -7.31,2.75 -2.83,0 -5.34,-0.92 -7.54,-2.75 -2.2,-1.83 -3.3,-3.68 -3.3,-5.51l0.94 -1.84c1.25,-1.23 1.89,-2.9 1.89,-5.04 0,-3.06 -1.03,-6.28 -3.06,-9.64 -2.05,-3.37 -4.95,-5.05 -8.72,-5.05 -2.2,0 -4.56,0.92 -7.07,2.75 -11.95,9.49 -23.17,25.25 -33.7,47.26 -10.53,22.03 -15.79,42.53 -15.79,61.49 0,9.8 1.88,18.12 5.66,25.01 3.77,6.88 10.21,11.55 19.32,13.99 4.72,0.92 9.11,1.38 13.2,1.38 17.29,0 31.58,-7.2 42.9,-21.57 2.19,-3.06 4.08,-4.59 5.65,-4.59 2.2,0 3.45,2.14 3.77,6.42l-0.47 3.68c-3.77,12.85 -12.01,22.48 -24.74,28.91 -12.73,6.42 -26.16,9.63 -40.31,9.63zm-402.26 30.29l-4.71 0c-19.8,-1.22 -35.28,-6.27 -46.43,-15.14 -11.16,-8.87 -18.85,-20.19 -23.1,-33.96 -4.24,-13.77 -6.36,-28.45 -6.36,-44.05 0,-9.48 0.47,-18.82 1.41,-27.99 2.2,-20.19 6.6,-40.07 13.2,-59.65l-0.94 0c-3.14,0 -5.19,-1 -6.13,-2.98 -0.94,-1.99 -1.41,-4.36 -1.41,-7.11 0,-3.98 0.47,-7.8 1.41,-11.47l0 0c5.02,-22.03 13.2,-43.74 24.51,-65.16 11.31,-21.42 25.76,-39.39 43.37,-53.92 17.59,-14.53 38.65,-21.8 63.16,-21.8l10.37 0.46c20.11,2.45 36.06,10.86 47.85,25.24 10.18,12.42 17.78,27.13 22.8,44.12 0.91,-1.13 1.88,-2.22 2.89,-3.28 3.77,-3.98 8.17,-6.28 13.19,-6.89l1.42 0c3.46,0 10.84,0.46 22.15,1.38 6.6,0.61 14.15,1.22 22.63,1.83 2.52,-7.95 4.56,-16.06 6.13,-24.32 0,-0.91 0.15,-1.68 0.48,-2.29 2.2,-11.93 3.3,-20.65 3.3,-26.15l0 -3.67c0,-4.59 2.51,-7.96 7.54,-10.1 2.2,-0.61 4.39,-0.91 6.6,-0.91 8.17,0 15.72,3.67 22.63,11.01 6.91,7.34 10.99,15.44 12.25,24.31l0 2.75c0,7.34 -2.04,17.9 -6.13,31.66l13.67 0.46c8.61,0 16.28,-0.39 22.99,-1.18 2.21,-6.19 5.32,-12.06 9.32,-17.63 5.02,-4.89 11.78,-7.34 20.27,-7.34 10.68,0 21.37,2.14 32.06,6.42 0.31,0 0.47,0 0.47,0 1.57,0.62 2.91,1.23 4,1.84 1.1,0.61 1.65,1.68 1.65,3.22 0,2.13 -1.73,5.96 -5.18,11.46 -5.03,7.96 -9.9,17.37 -14.62,28.22 -4.71,10.87 -8.48,20.11 -11.31,27.76 -0.94,2.14 -2.35,3.82 -4.24,5.04 -1.89,1.22 -3.77,1.84 -5.66,1.84l-3.3 -0.46c-5.34,-1.84 -10.29,-4.43 -14.85,-7.8 -4.56,-3.36 -8.25,-6.27 -11.08,-8.71 -2.19,-2.14 -3.3,-4.59 -3.3,-7.34 0,-1.94 0.12,-4.28 0.36,-7.02 -2.57,0.09 -5.29,0.13 -8.15,0.13 -9.43,0 -20.12,-0.3 -32.05,-0.92 -4.08,12.85 -8.64,26.31 -13.67,40.38 -9.42,26.62 -18.07,52.77 -25.92,78.47 -7.86,25.69 -11.79,46.34 -11.79,61.94 0,7.03 1.1,12.7 3.3,16.98 2.2,4.27 5.82,6.57 10.85,6.88 3.77,0.3 5.65,1.22 5.65,2.75 0,1.53 -1.49,3.13 -4.47,4.82 -2.99,1.68 -6.99,2.52 -12.02,2.52 -3.77,0 -7.69,-0.61 -11.78,-1.83 -11.63,-3.98 -19.72,-11.17 -24.27,-21.57 -4.56,-10.4 -6.84,-22.48 -6.84,-36.24 0,-8.57 0.63,-17.44 1.89,-26.62 0.31,-4.29 0.94,-8.41 1.88,-12.39 6.28,-32.12 15.24,-63.63 26.87,-94.53 2.82,-8.56 5.65,-17.12 8.48,-25.69 -13.83,-1.22 -24.82,-1.83 -33,-1.83 -7.13,0 -12.73,0.47 -16.78,1.4 3.33,16.87 5,33.53 5,49.98 0,17.14 -1.42,32.44 -4.25,45.89 -3.14,17.74 -8.72,35.79 -16.73,54.14 -8.01,18.36 -18.15,35.41 -30.4,51.17 -12.26,15.75 -26.47,28.6 -42.65,38.55 -16.19,9.95 -34.34,14.91 -54.45,14.91zm8.96 -35.79c12.57,0 23.25,-4.36 32.06,-13.07 8.79,-8.72 16.18,-19.59 22.16,-32.59 5.96,-13 10.76,-26.38 14.38,-40.14 3.61,-13.77 6.52,-26.01 8.72,-36.71 2.19,-9.48 4.63,-21.95 7.3,-37.4 2.67,-15.44 4.01,-31.12 4.01,-47.03 0,-16.21 -2.51,-30.82 -7.55,-43.82 -5.02,-13 -14.14,-21.18 -27.33,-24.55 -2.51,-0.61 -5.18,-0.92 -8.01,-0.92 -13.51,0 -26.79,6.27 -39.83,18.82 -13.04,12.54 -23.81,27.68 -32.29,45.43 6.28,-3.68 11.94,-5.51 16.97,-5.51 9.43,0 16.26,4.43 20.5,13.31 4.25,8.87 6.37,16.82 6.37,23.86 0,4.58 -0.79,7.95 -2.36,10.1 -12.25,5.81 -23.25,16.74 -32.99,32.81 -9.75,16.06 -16.03,34.18 -18.86,54.38 0,0 0,0.15 0,0.46 -1.89,10.7 -2.83,21.87 -2.83,33.5 0,11.01 2.05,21.1 6.13,30.28 4.08,9.18 11.94,15.15 23.57,17.9 3.46,0.61 6.76,0.92 9.9,0.92zm65.52 -327.62l-1.41 0c-3.46,0 -6.59,-1.61 -9.43,-4.82 -2.82,-3.22 -4.24,-6.04 -4.24,-8.48l0.47 -1.84c0,0 1.65,-3.59 4.95,-10.78 3.3,-7.19 7.38,-15.44 12.26,-24.78 4.87,-9.33 9.66,-17.58 14.37,-24.77 4.72,-7.19 8.49,-11.09 11.31,-11.7l2.36 0c3.77,0 8.33,0.91 13.67,2.75 5.35,1.83 10.06,4.44 14.15,7.8 1.57,1.53 2.36,3.22 2.36,5.04 0,1.54 -0.24,2.83 -0.71,3.91 -0.47,1.07 -1.33,2.06 -2.59,2.97 -7.86,5.82 -17.13,15.08 -27.81,27.76 -10.69,12.7 -18.86,23.79 -24.52,33.27 -1.26,1.84 -2.98,3.07 -5.18,3.68z"/>
     <path class="fil1" d="M1110.86 567.75c-3.97,-8.42 -10.75,-11.9 -19.1,-12.24 -7.74,-0.33 -14.79,2.5 -21.44,6.9 -8.39,5.5 -15.19,12.98 -21.33,21.26 -9.97,13.44 -17.48,28.44 -23.6,44.29 -7.8,20.22 -13.17,41.16 -16.91,62.58 -0.17,0.88 0.08,1.96 -0.81,2.59 -0.13,-1.09 0.17,-2.14 0.35,-3.17 1.22,-7.29 2.39,-14.59 3.69,-21.84 2.77,-15.34 5.46,-30.7 9.18,-45.81 1.44,-5.84 3.1,-11.6 5.39,-17.1 0.49,-1.25 0.97,-2.11 2.54,-2.23 2.42,-0.15 3.46,-2.64 2.33,-5.03 -1.26,-2.75 -4.59,-3.4 -6.96,-1.38 -1.11,0.96 -1.84,2.25 -2.51,3.59 -1.24,2.61 -2.16,5.35 -3.03,8.11 -1.99,6.47 -3.58,13.09 -4.95,19.73 -3.93,19.08 -7.21,38.29 -10.3,57.52 -0.92,5.62 -1.75,11.25 -2.58,16.87 -0.17,1.14 -0.43,1.98 -1.64,1.85 -1.05,-0.11 -1.96,-0.41 -2.06,-1.82 -0.12,-1.02 0,-2.01 0.29,-2.96 0.47,-1.63 1,-3.22 1.49,-4.88 0.18,-0.64 0.38,-1.32 0.47,-2.03 0.09,-1.08 -0.31,-1.96 -1.21,-2.39 -1.03,-0.46 -1.98,-0.13 -2.66,0.87 -0.37,0.54 -0.67,1.24 -0.84,1.87 -0.54,1.83 -1.09,3.66 -1.51,5.51 -1.33,6.21 0.12,8.84 5.64,10.25 0.77,0.19 1.08,0.5 0.98,1.37 -0.06,0.67 -0.17,1.38 -0.24,2.05 -1.25,9.93 -2.41,19.84 -3,29.8 -0.37,6.37 -0.49,12.73 -0.15,19.12 0.13,2.17 0.33,4.34 1.03,6.42 0.42,1.28 1.22,2.14 2.54,2.24 1.33,0.12 2.24,-0.69 2.94,-1.85 0.62,-1.01 0.96,-2.16 1.27,-3.3 0.62,-2.32 1.02,-4.68 1.36,-7.08 0.87,-6.01 1.39,-12.08 1.93,-18.15 0.91,-10.64 1.93,-21.25 3.24,-31.89 0.19,-1.63 0.68,-2.7 2.22,-3.37 1.92,-0.88 3.76,-2.04 5.59,-3.21 10.78,-6.72 20.78,-14.75 30.45,-23.27 16.68,-14.72 32.18,-30.73 45.03,-49.69 5.52,-8.14 10.57,-16.56 14.4,-25.78 2.52,-6.1 4.44,-12.37 4.93,-19.02 0.39,-5.38 -0.15,-10.56 -2.43,-15.29l0 0zm195.38 43.24c-0.54,-1.16 -1.75,-1.56 -3.02,-0.99 -0.94,0.45 -1.68,1.24 -2.44,1.98 -4.53,4.42 -9.01,8.9 -13.57,13.3 -7.66,7.44 -15.93,13.92 -25.15,18.77 -1.89,1.02 -3.88,1.75 -5.96,2.05 -3.41,0.52 -5.13,-1.12 -5.19,-4.88 0.01,-0.78 0.05,-1.6 0.2,-2.38 0.58,-3.05 1.47,-5.97 2.97,-8.93 2.69,1.46 3.73,1.72 5.59,0.95 4.91,-2.01 8.56,-5.72 10.71,-11.04 0.91,-2.27 0.84,-4.57 -0.82,-6.37 -1.72,-1.82 -3.83,-1.94 -6.03,-1.02 -1.99,0.8 -3.69,2.2 -5.21,3.81 -2.46,2.6 -4.52,5.44 -6.19,8.52 -0.57,-0.87 -1.69,-1.28 -2.68,-0.81l0 0c-0.49,0.24 -0.95,0.61 -1.36,1 -0.62,0.57 -1.2,1.24 -1.82,1.83 -3.58,3.73 -7.1,7.53 -10.92,10.95 -3.1,2.79 -3.9,2.61 -5.75,-1.03 -0.7,-1.35 -1.31,-2.77 -2.14,-4.03 -2.09,-3.26 -4.89,-3.67 -7.89,-1.21 -1.74,1.47 -3.19,3.28 -4.53,5.2 -1.57,2.33 -3.11,4.71 -4.71,7.05 -0.36,0.5 -0.61,1.32 -1.6,0.97 -0.25,-1.86 -0.55,-3.79 -0.83,-5.72 -0.25,-1.98 -0.55,-3.91 -1.22,-5.73 -1.57,-4.16 -4.69,-4.93 -7.94,-1.92 -1.52,1.45 -2.72,3.21 -3.93,5 -2.05,3.08 -4.03,6.18 -6.07,9.29 -0.07,-2.31 0.16,-4.42 1.3,-6.35 0.98,-1.63 0.51,-3.43 -0.75,-4.48 -1.31,-1.06 -3.16,-0.82 -4.41,0.55 -0.53,0.61 -0.91,1.31 -1.09,2.07 -0.5,2.03 -0.86,4.08 -1.11,6.14 -0.9,-0.45 -1.84,-0.35 -2.8,0.22 -1.17,0.67 -2,1.74 -2.84,2.78 -2.29,2.88 -4.54,5.76 -6.83,8.63 -3.08,3.87 -6.31,7.53 -9.83,10.9 -1.26,1.19 -2.57,2.32 -4.07,3.02 -1.34,0.65 -2.36,0.35 -2.96,-0.96 -1.09,-2.31 -1.12,-4.9 -1.04,-7.5 0.08,-1.76 0.11,-3.44 1.48,-4.91 1.24,-1.3 0.99,-3.15 -0.08,-4.25 -1.13,-1.12 -2.93,-1.11 -4.18,0.05 -0.83,0.75 -1.24,1.73 -1.41,2.83 -0.44,0.07 -0.89,0.3 -1.3,0.68 -1.03,0.94 -1.53,2.26 -1.95,3.59 -1.31,3.95 -2.55,7.91 -3.86,11.87 -1.96,5.94 -4.42,11.62 -7.57,16.97 -0.97,1.66 -1.97,3.33 -3.67,4.73 -0.79,-1.39 -0.64,-2.7 -0.64,-3.98 0.05,-5.44 0.78,-10.85 1.02,-16.32 0.13,-2.48 0.09,-4.92 -0.44,-7.34 -0.45,-2.09 -1.37,-3.9 -3.03,-4.96 -1.89,-1.25 -4.33,-1.59 -5.38,-4.15 -0.01,-0.08 -0.14,-0.15 -0.2,-0.16 -1.42,-0.32 -1.83,-1.51 -2.29,-2.87 -1.07,-3.11 -4.04,-3.78 -6.28,-1.41 -1.81,1.89 -2.69,4.28 -2.58,6.98 0.08,2.65 1.47,4.37 3.81,4.93 1.57,0.37 3.19,0.23 4.8,0.09 1.25,-0.11 2.52,-0.27 3.76,-0.18 2.27,0.18 3.33,1.25 3.9,3.66 0.51,2.31 0.48,4.67 0.39,7.05 -0.16,4.77 -0.57,9.5 -0.41,14.26 0.02,1.27 0.14,2.57 0.33,3.82 0.22,1.5 0.61,2.94 2.11,3.44 1.63,0.51 2.72,-0.63 3.77,-1.8 1.11,-1.21 1.97,-2.63 2.81,-4.07 2.56,-4.31 4.59,-8.91 6.43,-13.6 1.61,-4.14 3.22,-8.28 4.89,-12.4 0.41,-1 0.79,-2.01 1.33,-2.93 0.05,1.77 0.2,3.55 0.44,5.32 0.2,1.47 0.68,2.85 1.33,4.13 1.76,3.57 4.74,4.6 8.16,2.75 1.49,-0.79 2.75,-1.92 4,-3.1 2.83,-2.74 5.36,-5.75 7.86,-8.83 2.98,-3.68 6.1,-7.21 9.29,-10.65 0.83,-0.91 1.64,-1.83 3.04,-1.47 0.11,0.02 0.22,0.04 0.32,0.04 -0.08,1.93 -0.08,3.86 -0.02,5.8 0.03,0.26 0.09,0.56 0.17,0.85 0.76,2.94 3.29,3.7 5.41,1.59 1.17,-1.13 1.97,-2.63 2.82,-4.05 2.94,-4.97 5.89,-9.95 9.17,-14.64 0.66,-0.93 1.21,-2.01 2.34,-2.61 0.65,0.87 0.77,1.84 0.96,2.78 0.45,2.29 0.91,4.58 1.34,6.92 0.24,1.14 0.52,2.27 1.04,3.31 1.17,2.37 3.22,2.82 5.16,1.07 0.89,-0.84 1.64,-1.88 2.36,-2.92 1.68,-2.52 3.26,-5.09 4.97,-7.58 0.99,-1.42 2.1,-2.81 3.27,-4.05 1.62,-1.66 2.47,-1.56 3.77,0.29 0.59,0.83 1.06,1.78 1.58,2.69 0.5,0.83 0.9,1.68 1.42,2.45 2.03,2.92 4.12,3.33 6.99,1.23 1.43,-1.05 2.72,-2.34 3.99,-3.63 2.53,-2.62 5.19,-5.07 7.96,-7.4 1.03,-0.85 1.99,-1.77 3.35,-2.07 -1.14,2.71 -2.02,5.57 -2.66,8.57 -0.35,1.68 -0.49,3.37 -0.38,5.04 0.27,5.16 3.6,8.26 8.26,7.8 2.56,-0.24 4.99,-1.13 7.29,-2.33 8.83,-4.57 16.67,-10.85 24.22,-17.63 5.95,-5.34 11.43,-11.4 18.18,-15.54 1.21,-0.78 1.55,-2.2 0.97,-3.37l0 0zm-47 10.69c1.84,-2 3.57,-4.27 6.87,-4.73 -1.09,3.44 -3.05,5.41 -5.36,7.02 -0.8,0.56 -1.35,-0.09 -1.87,-0.6 -0.75,-0.72 -0.03,-1.26 0.36,-1.68l0 0zm-106.08 20.2c1.77,-0.47 2.97,-2.16 2.71,-3.87 -0.27,-1.75 -1.92,-2.81 -3.66,-2.3 -1.74,0.49 -2.81,2.21 -2.5,3.99 0.29,1.72 1.75,2.64 3.44,2.18l0 0zm-151.52 108.57c-0.96,-4.44 1.62,-32.37 4.06,-42.56 -1.54,13.98 -2.57,28.03 -4.06,42.56l0 0zm4.78 -48.35c-0.23,-1.02 -0.18,-1.74 0.37,-2.39 0.26,0.73 0.15,1.44 -0.37,2.39l0 0zm0.39 -2.58c-0.27,-1.07 -0.1,-2.05 0.42,-3.01 0.33,1.05 0.1,2.05 -0.42,3.01zm0.43 -3.23c-0.18,-1.06 0.02,-2.06 0.42,-3 0.42,1.06 0.19,2.03 -0.42,3l0 0zm101.95 -114.85c-0.17,4.83 -1.28,9.47 -2.81,14.03 -2.41,7.21 -5.8,13.93 -9.67,20.34 -10.17,17.01 -22.44,31.98 -36.26,45.45 -13.12,12.83 -26.77,24.85 -41.86,34.73 -1.58,1.03 -3.21,1.98 -4.8,2.91 -0.48,0.29 -0.98,0.49 -1.91,0.93 0.08,-0.92 0.09,-1.41 0.17,-1.86 3.88,-25.4 9.99,-50.14 19.77,-73.77 6.27,-15.24 13.98,-29.54 24.19,-42.1 5.79,-7.13 12.23,-13.43 20.08,-17.65 4.72,-2.59 9.66,-4.24 14.91,-4.14 11.67,0.19 18.6,8.27 18.19,21.13z"/>
    </g>
   </g>
  </g>
  <path class="fil2" d="M95.26 0l1148.1 0c52.39,0 95.25,42.86 95.25,95.26l0 723.91c0,52.39 -42.86,95.25 -95.25,95.25l-1148.1 0c-52.39,0 -95.26,-42.86 -95.26,-95.25l0 -723.91c0,-52.39 42.86,-95.26 95.26,-95.26z"/>
 </g>
</svg>
