<?xml version="1.0" encoding="UTF-8"?>
<!DOCTYPE svg PUBLIC "-//W3C//DTD SVG 1.1//EN" "http://www.w3.org/Graphics/SVG/1.1/DTD/svg11.dtd">
<!-- Creator: CorelDRAW (Evaluation Version) -->
<svg xmlns="http://www.w3.org/2000/svg" xml:space="preserve" width="52.3314mm" height="35.7481mm" version="1.1" style="shape-rendering:geometricPrecision; text-rendering:geometricPrecision; image-rendering:optimizeQuality; fill-rule:evenodd; clip-rule:evenodd"
viewBox="0 0 874.52 597.39"
 xmlns:xlink="http://www.w3.org/1999/xlink"
 xmlns:xodm="http://www.corel.com/coreldraw/odm/2003">
 <defs>
  <style type="text/css">
   <![CDATA[
    .fil6 {fill:none}
    .fil1 {fill:white}
    .fil0 {fill:white}
    .fil3 {fill:#FFF215}
    .fil2 {fill:#EE3338}
    .fil5 {fill:white;fill-rule:nonzero}
    .fil4 {fill:#FFF215;fill-rule:nonzero}
   ]]>
  </style>
   <clipPath id="id0">
    <path d="M62.23 0l750.06 0c34.23,0 62.23,28 62.23,62.23l0 472.93c0,34.23 -28,62.23 -62.23,62.23l-750.06 0c-34.23,0 -62.23,-28 -62.23,-62.23l0 -472.93c0,-34.23 28,-62.23 62.23,-62.23z"/>
   </clipPath>
 </defs>
 <g id="Camada_x0020_1">
  <metadata id="CorelCorpID_0Corel-Layer"/>
  <path class="fil0" d="M62.23 0l750.06 0c34.23,0 62.23,28 62.23,62.23l0 472.93c0,34.23 -28,62.23 -62.23,62.23l-750.06 0c-34.23,0 -62.23,-28 -62.23,-62.23l0 -472.93c0,-34.23 28,-62.23 62.23,-62.23z"/>
  <g style="clip-path:url(#id0)">
   <g id="_105553211536576">
    <g>
     <path id="_1" class="fil1" d="M874.52 298.7c0,110.62 -72.29,199.3 -158.98,199.3l-556.56 0c-86.68,0 -158.98,-88.68 -158.98,-199.3 0,-110.62 72.3,-199.3 158.98,-199.3l556.56 0c86.68,0 158.98,88.68 158.98,199.3z"/>
     <path class="fil2" d="M158.98 115.91l556.56 0c80.28,0 145.97,82.25 145.97,182.79l0 -0c0,100.53 -65.69,182.79 -145.97,182.79l-556.56 0c-80.29,0 -145.97,-82.25 -145.97,-182.79l0 0c0,-100.53 65.69,-182.79 145.97,-182.79z"/>
     <path class="fil3" d="M836.61 257.94c-14.54,-67.07 -63.99,-115.91 -121.07,-115.91l-311.22 0 320.82 16.78c50.38,2.64 93.56,43.04 111.47,99.13z"/>
     <path class="fil4" d="M107.47 296.47l0.66 -3.12c-2,0.55 -3.66,1.15 -4.98,1.83 -1.29,0.67 -2.82,1.58 -4.56,2.73 -2.11,1.39 -3.6,2.17 -4.43,2.4 -1.01,0.28 -1.95,0.19 -2.74,-0.34 -0.82,-0.49 -1.32,-1.25 -1.53,-2.26 -0.45,-2.1 0.01,-4.47 1.44,-7.2 1.4,-2.72 3.4,-4.91 5.96,-6.6 3.32,-2.27 7.74,-4.55 13.27,-6.88 5.49,-2.35 11.03,-4.28 16.62,-5.82 6.3,-1.74 12.05,-2.89 17.23,-3.48 5.18,-0.59 9.92,-0.54 14.2,0.15 4.28,0.67 8.2,1.89 11.68,3.7 3.52,1.8 6.45,4.19 8.77,7.21 2.35,3.01 3.94,6.46 4.78,10.32 0.76,3.51 0.82,7.67 0.16,12.46 -0.62,4.78 -1.92,9.63 -3.85,14.55 -1.93,4.94 -4.24,9.29 -7,13.08 -3.18,4.42 -7.48,8.6 -12.98,12.57 -5.46,3.96 -10.65,6.62 -15.57,7.98 -2.12,0.58 -4.04,0.74 -5.78,0.53 -1.71,-0.22 -2.69,-0.82 -2.89,-1.77 -0.32,-1.5 -0.01,-3.05 0.97,-4.71 0.98,-1.65 2.97,-3.9 5.9,-6.73 2.57,-2.29 4.88,-4.83 6.95,-7.59 2.35,-3.73 3.89,-7.44 4.59,-11.12 0.7,-3.71 0.55,-7.82 -0.44,-12.39 -0.94,-4.35 -2.61,-7.81 -4.92,-10.37 -2.35,-2.58 -5.67,-4.52 -9.97,-5.87l-4.65 38.78 -0.9 6.82c-0.45,2.72 -0.84,7.26 -1.14,13.66 -0.73,11.06 -1.95,18.95 -3.67,23.63 -0.76,2.08 -1.86,4.2 -3.27,6.4 -2.41,3.03 -5.65,5.97 -9.68,8.86 -4.06,2.9 -7.7,4.77 -10.86,5.64 -2.09,0.58 -3.9,0.5 -5.36,-0.25 -1.47,-0.75 -2.41,-2.1 -2.84,-4.06 -0.47,-2.18 -0.55,-5.55 -0.23,-10.08 0.32,-4.53 1.24,-12.74 2.73,-24.64l0.66 -4.91 0.64 -5.33 7.03 -47.79zm151.36 10.3l-1.62 0.94c-4.07,2.25 -7.09,3.65 -9,4.18 -2.37,0.65 -3.65,0.43 -3.88,-0.63 -0.08,-0.38 0.2,-1.5 0.81,-3.34 2.4,-5.45 3.14,-10.17 2.28,-14.14 -0.5,-2.28 -1.38,-4.26 -2.71,-5.88 -1.3,-1.63 -2.49,-2.31 -3.56,-2.01 -0.98,0.27 -2.23,1.57 -3.84,3.94 -4.43,6.9 -7.67,13.61 -9.71,20.14 -2.04,6.53 -2.61,12.01 -1.65,16.42 0.63,2.91 1.83,5.14 3.6,6.67 1.77,1.56 3.67,2.04 5.73,1.48 1.72,-0.47 4.62,-3.03 8.7,-7.64 4.05,-4.6 8.46,-10.43 13.25,-17.48l2.05 -2.44 -0.43 -0.2zm-1.46 19.71l0.07 0.33 -0.44 -0.22c-4.31,7.32 -8.41,13.5 -12.26,18.45 -3.84,4.98 -7.54,8.94 -11.07,11.9 -3.53,2.93 -6.96,4.86 -10.25,5.76 -6.73,1.85 -12.7,1.39 -17.96,-1.39 -5.26,-2.76 -8.54,-7.22 -9.86,-13.31 -0.82,-3.78 -0.71,-8.54 0.36,-14.28 1.03,-5.76 2.92,-11.61 5.63,-17.6 4.55,-9.81 10.99,-18.85 19.3,-27.1 8.58,-8.5 17.46,-14 26.59,-16.52 7.68,-2.12 14.29,-2.47 19.87,-1.04 5.55,1.41 8.77,4.24 9.7,8.51 0.68,3.13 0.17,6.78 -1.53,10.97 3.26,-0.9 5.35,-1.16 6.32,-0.76 0.99,0.36 1.7,1.66 2.18,3.89 -0.04,-0.19 0.04,0.94 0.28,3.38 0.78,5.38 1.65,10.32 2.64,14.89 0.52,2.39 0.95,4.21 1.27,5.41 0.33,1.21 0.75,2.56 1.28,4.11 0.53,1.55 0.99,2.75 1.35,3.69 1.03,2.34 2.33,4.6 3.97,6.74 -2.95,4.13 -5.89,7.39 -8.87,9.74 -3,2.38 -6.19,4.04 -9.61,4.98 -9.25,2.55 -15.38,-3.02 -18.35,-16.73 -0.34,-1.58 -0.55,-2.84 -0.63,-3.8zm-35.23 -70.49c-3.07,0.85 -4.8,0.4 -5.18,-1.34 -0.51,-2.34 2.51,-5.71 8.99,-10.09 5.79,-3.79 10.39,-6.15 13.74,-7.07 2.09,-0.58 4.18,-0.84 6.23,-0.71 2.07,0.09 4.33,0.56 6.82,1.41 3.41,1.14 6.02,1.45 7.83,0.95 1.84,-0.51 3.7,-1.28 5.49,-2.35 1.77,-0.72 2.6,-1.06 2.54,-1.05 0.74,-0.2 1.4,-0.16 1.97,0.09 0.61,0.26 0.98,0.77 1.14,1.5 0.24,1.12 -0.75,2.83 -2.99,5.15 -5.43,5.16 -10.44,8.35 -14.99,9.61 -3.9,1.08 -8.46,0.8 -13.65,-0.88 -3.14,-0.98 -5.49,-1.28 -7.06,-0.85 -1.01,0.28 -2.65,1.16 -4.87,2.61 -2.45,1.6 -4.46,2.58 -6.02,3.01zm129.88 -15.14c8.94,-2.46 13.63,-2.78 14.03,-0.93 0.46,2.12 -1.29,3.81 -5.28,5.09 -4.83,1.62 -9.08,4.09 -12.82,7.42 -3.71,3.33 -6.82,7.32 -9.26,12 -2.47,4.69 -4.1,9.63 -4.89,14.86 -0.82,5.24 -0.66,10.47 0.48,15.75 1.26,5.79 3.8,10.02 7.64,12.71 3.81,2.7 8.19,3.36 13.11,2.01 4.58,-1.26 8.12,-4.46 10.64,-9.53 2.52,-5.07 3.19,-10.39 1.99,-15.91 -0.98,-4.51 -2.97,-8.46 -5.95,-11.82 -2.98,-3.39 -6.84,-5.84 -11.49,-7.44 -2.02,-0.74 -3.07,-1.37 -3.19,-1.92 -0.16,-0.73 0.82,-2.21 2.95,-4.44 2.41,-2.39 5.19,-4.63 8.39,-6.69 3.17,-2.06 5.94,-3.42 8.27,-4.07 2.71,-0.74 5.39,-0.82 8.09,-0.24 2.7,0.58 5.24,1.78 7.62,3.58 2.35,1.8 4.36,4.04 6,6.79 1.63,2.72 2.82,5.79 3.56,9.19 1.22,5.63 1.22,11.51 0.02,17.66 -1.2,6.18 -3.41,11.49 -6.57,15.96 -4.11,5.69 -9.4,10.89 -15.94,15.57 -6.5,4.7 -12.97,7.93 -19.4,9.7 -6.27,1.73 -12.66,2.48 -19.22,2.27 -6.6,-0.23 -12,-1.39 -16.28,-3.55 -5.75,-2.91 -9.45,-8.29 -11.15,-16.09 -1.33,-6.15 -0.95,-12.79 1.13,-19.88 2.07,-7.11 5.5,-13.99 10.29,-20.61 4.75,-6.64 10.35,-12.36 16.79,-17.22 6.42,-4.82 13.23,-8.23 20.43,-10.21z"/>
     <path class="fil4" d="M409.2 373.44l-0.66 -3.03c-1.68,2.13 -3,3.32 -3.99,3.6 -0.54,0.15 -0.88,-0.02 -0.98,-0.5 -0.05,-0.21 -0.02,-0.68 0.08,-1.4 0.37,-2.33 0.34,-4.46 -0.08,-6.41 -0.61,-2.82 -1.94,-5.58 -3.96,-8.22 -0.95,-1.41 -1.84,-1.99 -2.71,-1.75 -0.42,0.12 -0.75,0.38 -0.96,0.81 -1.01,1.68 -1.85,3.9 -2.5,6.65 -0.67,2.76 -1.07,5.65 -1.22,8.7 -0.15,3.07 0.02,5.69 0.49,7.88 0.9,4.14 2.76,5.83 5.6,5.04 1.41,-0.39 3.15,-1.64 5.21,-3.78 2.06,-2.14 3.95,-4.66 5.67,-7.58zm-3.56 -25.35l0.14 -2.31c0.18,-5.1 0.45,-9.28 0.8,-12.5 0.35,-3.22 0.82,-5.98 1.43,-8.32 0.59,-2.32 1.32,-4.07 2.15,-5.26 1.31,-2.03 4.11,-3.63 8.41,-4.81 1.9,-0.52 3.31,-0.82 4.27,-0.89 0.96,-0.1 1.78,0.02 2.42,0.32 -0.77,5.72 -1.22,9.98 -1.4,12.78 -0.16,2.81 -0.18,6.58 -0.07,11.35 0.25,7.76 1.03,14.62 2.32,20.59 0.85,3.94 2.1,7.93 3.75,11.96 1.65,4.05 3.88,8.43 6.66,13.17 -1.82,1.86 -3.58,3.52 -5.3,4.94 -1.72,1.44 -3.36,2.65 -4.96,3.64 -1.6,1.01 -3.06,1.67 -4.35,2.03 -2.3,0.63 -4.13,0.1 -5.51,-1.64 -1.14,-1.41 -1.93,-2.59 -2.39,-3.52 -0.45,-0.92 -1.46,-3.57 -3.02,-7.95 -4.23,6.33 -8.46,11.58 -12.68,15.71 -4.22,4.13 -7.77,6.6 -10.65,7.4 -3.31,0.91 -6.27,0.46 -8.89,-1.36 -2.64,-1.81 -4.35,-4.59 -5.17,-8.36 -0.73,-3.37 -0.74,-7.36 0,-11.94 0.74,-4.59 2.13,-9.21 4.18,-13.88 1.35,-3.06 2.82,-5.75 4.41,-8.06 1.62,-2.3 3.52,-4.56 5.72,-6.76 3.99,-3.9 7.54,-6.27 10.6,-7.12 1.49,-0.41 3.88,-0.14 7.12,0.8zm57.22 17.74c1.58,-1.59 2.72,-3.04 3.43,-4.39 1.61,-2.85 2.66,-5.88 3.16,-9.12 0.49,-2.18 0.73,-4.52 0.74,-7.03 -0.01,-2.49 -0.22,-4.78 -0.67,-6.85 -0.41,-1.91 -1.09,-2.75 -1.97,-2.5 -1.27,0.35 -2.68,3.35 -4.22,8.97 -0.89,3.39 -1.5,6.69 -1.83,9.91 -0.31,3.21 -0.25,5.88 0.21,8 0.16,0.73 0.53,1.75 1.14,3.01zm0.48 1.64c0.88,1.97 2.66,2.58 5.28,1.86 2.97,-0.82 6.47,-3.41 10.55,-7.77 2.36,-2.54 4.02,-3.94 4.97,-4.2 1.19,-0.33 2.34,-0.34 3.49,-0.07 1.15,0.27 1.78,0.72 1.91,1.31 0.14,0.62 -0.25,1.6 -1.18,2.92 -1.68,2.43 -3.69,4.89 -6.03,7.41 -2.35,2.5 -4.65,4.69 -6.92,6.56 -2.27,1.85 -4.59,3.48 -6.97,4.85 -2.38,1.37 -4.54,2.33 -6.52,2.87 -4.92,1.36 -9.13,1.19 -12.63,-0.48 -3.49,-1.69 -5.68,-4.6 -6.58,-8.74 -0.69,-3.18 -0.7,-6.98 -0.01,-11.39 0.71,-4.43 2,-8.76 3.86,-12.96 2.25,-4.93 5.32,-9.39 9.28,-13.36 4.88,-4.82 9.89,-7.94 15.02,-9.35 3.69,-1.02 6.83,-0.76 9.4,0.73 2.55,1.49 4.24,4.05 5.02,7.68 0.61,2.82 0.4,6 -0.61,9.53 -1.01,3.53 -2.85,7.16 -5.51,10.88 -2.15,3.11 -4.4,5.68 -6.69,7.72 -2.3,2.03 -4.42,3.32 -6.33,3.84 -0.87,0.24 -1.8,0.29 -2.79,0.16z"/>
     <path class="fil4" d="M571.65 385.49l0.96 -3.9c7.68,-30.75 13.67,-51.03 17.99,-60.8 0.73,-1.38 1.39,-2.5 1.93,-3.31 0.56,-0.84 1.23,-1.63 2.01,-2.37 0.77,-0.76 1.83,-1.58 3.13,-2.48 3.8,-2.72 8.97,-4.97 15.48,-6.76 3.41,-0.94 5.57,-1.26 6.59,-1.02 0.99,0.28 1.68,1.3 2.06,3.06 0.3,1.38 0.56,2.87 0.78,4.46 1.54,9.26 2.71,15.82 3.54,19.66 2.11,9.74 4.85,18.78 8.23,27.09 2.02,4.59 4.53,9.15 7.5,13.65 2.99,3.91 5.64,6.81 8,8.66 2.75,2.05 4.98,3.47 6.74,4.28 2.2,1.13 3.38,2.1 3.57,2.98 0.34,1.56 -0.73,4.11 -3.17,7.64 -4.16,5.77 -8.8,9.35 -13.9,10.76 -7.16,1.97 -14.27,1.04 -21.29,-2.78 -3.53,-1.81 -6.55,-4.09 -9,-6.82 -2.43,-2.74 -4.61,-6.35 -6.49,-10.87 -1.88,-4.52 -3.77,-10.38 -5.62,-17.61 -2.13,-7.81 -3.32,-12.18 -3.61,-13.2l-0.35 0.1c-2.28,7.15 -4.16,13.09 -5.68,17.85 -1.52,4.77 -2.75,8.71 -3.69,11.83 -0.95,3.09 -2.04,6.81 -3.28,11.14 -3.95,13.77 -6.65,22.16 -8.13,25.21 -0.07,0.13 -0.25,0.43 -0.53,0.86 -0.27,0.46 -0.51,0.83 -0.76,1.09 -0.79,1.1 -1.77,2.03 -2.91,2.78 -1.14,0.78 -2.15,1.28 -3,1.51 -2.41,0.66 -5.34,0.07 -8.82,-1.81 -3.48,-1.85 -6.75,-4.61 -9.83,-8.22 -3.2,-3.85 -6,-7.89 -8.42,-12.15 -2.41,-4.23 -4.83,-9.4 -7.27,-15.47 -2.43,-6.07 -5.06,-13.6 -7.84,-22.55l-0.35 0.1c-1.01,3.83 -1.76,6.67 -2.24,8.6 -0.49,1.9 -1.25,4.86 -2.28,8.85 -1.01,3.96 -1.59,6.3 -1.76,6.93 -1.35,5.27 -2.81,10.59 -4.37,16.03 -1.56,5.44 -2.86,9.62 -3.9,12.6 -1,2.97 -2.2,5.94 -3.56,8.96 -0.6,1.4 -1.77,3.46 -3.48,6.19 -2.76,3.79 -5.98,7.01 -9.65,9.73 -3.68,2.69 -7.32,4.55 -10.93,5.54 -1.38,0.38 -2.65,0.4 -3.81,0.09 -1.16,-0.31 -1.83,-0.98 -2.04,-1.94 -0.19,-0.86 0.33,-2.21 1.58,-4.07 0.66,-1.14 2,-3.99 4.07,-8.52l3.5 -8.23c2.2,-4.9 5.33,-13.46 9.3,-25.7l2.63 -7.96c6.09,-18.98 10.19,-31.94 12.26,-38.89 2.08,-6.93 3.02,-10.9 2.81,-11.86 -0.23,-1.06 -1.34,-2.02 -3.35,-2.85 -1.53,-0.62 -2.36,-1.28 -2.51,-1.98 -0.24,-1.12 1.17,-2.63 4.3,-4.54 3.1,-1.9 6.61,-3.39 10.51,-4.46 7.84,-2.16 13.78,-2.14 17.77,0.04 2.47,1.36 5.23,4.61 8.22,9.79 3.02,5.17 6.58,12.88 10.67,23.14 0.25,0.56 0.44,1.01 0.57,1.33 0.13,0.32 0.25,0.59 0.37,0.83 0.11,0.22 0.21,0.55 0.3,0.96 0.63,1.31 1.01,2.2 1.11,2.67 2.62,6.21 4.45,10.19 5.5,11.91 1.03,1.73 2.33,3.13 3.84,4.23zm122.82 -16.8c2.3,-2.31 3.96,-4.42 4.99,-6.38 2.34,-4.14 3.87,-8.55 4.59,-13.26 0.71,-3.17 1.07,-6.57 1.08,-10.23 -0.01,-3.63 -0.32,-6.95 -0.98,-9.97 -0.6,-2.78 -1.58,-3.99 -2.87,-3.64 -1.85,0.51 -3.89,4.87 -6.13,13.05 -1.3,4.92 -2.18,9.73 -2.66,14.41 -0.45,4.66 -0.36,8.54 0.31,11.63 0.23,1.06 0.77,2.54 1.66,4.39zm0.71 2.39c1.28,2.87 3.86,3.75 7.68,2.7 4.31,-1.19 9.41,-4.95 15.34,-11.29 3.43,-3.69 5.85,-5.74 7.23,-6.12 1.73,-0.48 3.41,-0.5 5.08,-0.1 1.67,0.39 2.59,1.05 2.78,1.9 0.2,0.91 -0.37,2.33 -1.72,4.24 -2.44,3.53 -5.36,7.12 -8.77,10.78 -3.41,3.63 -6.77,6.81 -10.06,9.54 -3.3,2.7 -6.68,5.06 -10.14,7.05 -3.46,2 -6.61,3.39 -9.48,4.18 -7.16,1.97 -13.28,1.73 -18.38,-0.69 -5.07,-2.45 -8.26,-6.7 -9.57,-12.72 -1,-4.62 -1.01,-10.15 -0.01,-16.56 1.03,-6.45 2.9,-12.74 5.62,-18.85 3.27,-7.17 7.74,-13.66 13.49,-19.42 7.1,-7.02 14.39,-11.55 21.84,-13.6 5.37,-1.48 9.93,-1.11 13.66,1.05 3.7,2.17 6.16,5.9 7.3,11.17 0.89,4.1 0.58,8.72 -0.89,13.86 -1.47,5.14 -4.15,10.41 -8.02,15.83 -3.13,4.52 -6.39,8.25 -9.73,11.23 -3.34,2.96 -6.42,4.82 -9.21,5.59 -1.26,0.35 -2.62,0.42 -4.05,0.24zm84.03 -60.93c1.08,-6.38 1.69,-12.9 1.89,-19.59 0.17,-6.68 -0.08,-11.72 -0.8,-15.05 -0.2,-0.93 -0.59,-1.3 -1.18,-1.13 -0.91,0.25 -2.1,2.5 -3.64,6.75 -1.5,4.26 -2.61,8.48 -3.35,12.67 -1.53,9.17 -2.63,16.73 -3.24,22.68 -0.64,5.95 -0.88,10.86 -0.78,14.77 0.12,3.87 0.59,7.76 1.43,11.6 0.71,3.3 1.65,5.6 2.83,6.9 1.15,1.28 2.67,1.69 4.49,1.19 3.14,-0.86 6.42,-3.09 9.76,-6.62 3.38,-3.52 6.19,-7.73 8.5,-12.6 1.82,-3.66 3.4,-5.7 4.78,-6.08 1.79,-0.49 2.94,0.51 3.48,3 1.17,5.43 0.38,11.26 -2.31,17.47 -2.73,6.22 -6.78,11.8 -12.13,16.68 -5.35,4.88 -11.16,8.19 -17.47,9.93 -7.75,2.13 -14.53,1.71 -20.33,-1.26 -5.81,-2.97 -9.46,-7.93 -10.97,-14.89 -1.23,-5.66 -1.29,-12.71 -0.19,-21.11 1.1,-8.39 3.11,-17.06 6.05,-26.07 2.96,-9.01 6.49,-17.41 10.62,-25.21 4.15,-7.83 8.57,-14.13 13.22,-18.96 2.84,-3.09 6.31,-5.2 10.39,-6.33 3.11,-0.86 6.08,-0.77 8.98,0.23 2.9,1.02 5.34,2.85 7.38,5.51 2.04,2.66 3.47,5.84 4.28,9.55 1.72,7.95 1.65,16.22 -0.26,24.81 -1.87,8.58 -5.35,16.52 -10.45,23.84 -2.41,3.5 -4.81,6.39 -7.23,8.68 -2.43,2.29 -4.67,3.71 -6.73,4.27 -2,0.55 -3.17,0.16 -3.47,-1.22 -0.16,-0.75 0.28,-2.42 1.32,-4.96 1.39,-3.35 2.83,-8.21 4.31,-14.56 0.11,-0.64 0.22,-1.3 0.38,-2 0.15,-0.73 0.32,-1.68 0.46,-2.9z"/>
     <path class="fil5" d="M153.18 214.68c0,2.04 -1.2,3.55 -3.61,4.53 -1.69,0.77 -3.48,1.16 -5.38,1.16 -1.84,0 -3.64,-0.39 -5.38,-1.16 -2.41,-0.98 -3.61,-2.49 -3.61,-4.53l0 -22.76c0,-0.07 0.03,-0.35 0.08,-0.84 0.41,-3.86 2.84,-6.81 7.3,-8.85 3.28,-1.48 6.71,-2.21 10.3,-2.21l22.52 0c7.58,0 13.04,1.58 16.37,4.74 1.9,1.76 2.84,3.62 2.84,5.58l0 3.16c0,4.07 -2.33,7.2 -6.99,9.37 -3.43,1.62 -6.99,2.42 -10.68,2.42l-12.22 0c-1.28,0 -2.59,-0.25 -3.92,-0.74 -1.79,-0.7 -2.69,-1.72 -2.69,-3.05 0,-1.34 0.9,-2.35 2.69,-3.06 1.28,-0.49 2.59,-0.74 3.92,-0.74l7.3 0c1.13,0 2.2,-0.25 3.23,-0.74 1.44,-0.7 2.15,-1.69 2.15,-2.95l0 -4.21c0,-1.69 -1.81,-2.53 -5.42,-2.53l-13.37 0c-3.61,0 -5.42,0.84 -5.42,2.53l0 0.53 0 24.34zm114.5 -21.17l0 -2.64c0,-1.26 -0.72,-2.21 -2.15,-2.84 -1.02,-0.49 -2.1,-0.74 -3.23,-0.74l-23.59 0c-1.33,0 -2.61,-0.21 -3.84,-0.63 -1.79,-0.63 -2.69,-1.62 -2.69,-2.95 0,-1.34 0.87,-2.32 2.61,-2.95 1.18,-0.49 2.43,-0.74 3.77,-0.74l29.43 0c3.69,0 7.25,0.81 10.68,2.42 4.66,2.18 6.99,5.34 6.99,9.48l0 22.76c0,1.97 -1.2,3.48 -3.61,4.53 -1.74,0.77 -3.54,1.16 -5.38,1.16 -1.84,0 -3.64,-0.39 -5.38,-1.16 -2.41,-0.98 -3.61,-2.49 -3.61,-4.53l0 -10.43c0,-1.19 -0.72,-2.14 -2.15,-2.84 -1.02,-0.49 -2.1,-0.74 -3.23,-0.74l-13.3 0c-1.13,0 -2.2,0.25 -3.23,0.74 -1.43,0.7 -2.15,1.65 -2.15,2.84l0 4.95c0,1.19 0.72,2.14 2.15,2.84 1.02,0.49 2.1,0.74 3.23,0.74l6.53 0c1.28,0 2.59,0.25 3.92,0.74 1.79,0.7 2.69,1.72 2.69,3.05 0,1.27 -0.9,2.28 -2.69,3.05 -1.33,0.49 -2.64,0.74 -3.92,0.74l-12.22 0c-3.69,0 -7.25,-0.81 -10.68,-2.42 -4.66,-2.18 -6.99,-5.34 -6.99,-9.48l0 -3.16c0,-4.07 2.33,-7.23 6.99,-9.48 3.43,-1.54 6.99,-2.32 10.68,-2.32l24.36 0zm88.29 26.86l-7.38 0c-1.28,0 -2.59,-0.25 -3.92,-0.74 -1.79,-0.7 -2.69,-1.72 -2.69,-3.05 0,-1.34 0.9,-2.35 2.69,-3.05 1.33,-0.49 2.64,-0.74 3.92,-0.74l1.54 0c3.94,0 7.35,-0.81 10.22,-2.42 3.94,-2.18 5.92,-5.58 5.92,-10.22 0,-4.71 -1.95,-8.18 -5.84,-10.43 -2.82,-1.62 -6.2,-2.42 -10.14,-2.42l-4.46 0c-1.13,0 -2.2,0.25 -3.23,0.74 -1.43,0.63 -2.15,1.58 -2.15,2.84l0 23.81c0,2.04 -1.2,3.55 -3.61,4.53 -1.74,0.77 -3.53,1.16 -5.38,1.16 -1.84,0 -3.64,-0.39 -5.38,-1.16 -2.41,-0.98 -3.61,-2.49 -3.61,-4.53l0 -22.76c0,-4.14 2.33,-7.3 6.99,-9.48 3.43,-1.62 6.99,-2.42 10.68,-2.42l15.91 0c6.25,0 11.91,1.33 16.98,4 7.02,3.58 10.53,8.99 10.53,16.22 0,7.16 -3.54,12.57 -10.6,16.22 -5.07,2.6 -10.73,3.9 -16.98,3.9zm105.66 -26.86l0 -2.64c0,-1.26 -0.72,-2.21 -2.15,-2.84 -1.02,-0.49 -2.1,-0.74 -3.23,-0.74l-23.59 0c-1.33,0 -2.61,-0.21 -3.84,-0.63 -1.79,-0.63 -2.69,-1.62 -2.69,-2.95 0,-1.34 0.87,-2.32 2.61,-2.95 1.18,-0.49 2.43,-0.74 3.77,-0.74l29.43 0c3.69,0 7.25,0.81 10.68,2.42 4.66,2.18 6.99,5.34 6.99,9.48l0 22.76c0,1.97 -1.2,3.48 -3.61,4.53 -1.74,0.77 -3.53,1.16 -5.38,1.16 -1.84,0 -3.64,-0.39 -5.38,-1.16 -2.41,-0.98 -3.61,-2.49 -3.61,-4.53l0 -10.43c0,-1.19 -0.72,-2.14 -2.15,-2.84 -1.02,-0.49 -2.1,-0.74 -3.23,-0.74l-13.29 0c-1.13,0 -2.2,0.25 -3.23,0.74 -1.43,0.7 -2.15,1.65 -2.15,2.84l0 4.95c0,1.19 0.72,2.14 2.15,2.84 1.02,0.49 2.1,0.74 3.23,0.74l6.53 0c1.28,0 2.59,0.25 3.92,0.74 1.79,0.7 2.69,1.72 2.69,3.05 0,1.27 -0.9,2.28 -2.69,3.05 -1.33,0.49 -2.64,0.74 -3.92,0.74l-12.22 0c-3.69,0 -7.25,-0.81 -10.68,-2.42 -4.66,-2.18 -6.99,-5.34 -6.99,-9.48l0 -3.16c0,-4.07 2.33,-7.23 6.99,-9.48 3.43,-1.54 6.99,-2.32 10.68,-2.32l24.36 0zm77.84 8.01c0,-1.27 0.9,-2.25 2.69,-2.95 1.28,-0.49 2.59,-0.77 3.92,-0.84l7.3 0c1.13,0 2.2,-0.25 3.23,-0.74 1.44,-0.63 2.15,-1.58 2.15,-2.84l0 -4.21c0,-1.76 -1.81,-2.63 -5.42,-2.63l-13.37 0c-3.61,0 -5.42,0.88 -5.42,2.63l0 0.42 0 24.44c0,1.97 -1.2,3.48 -3.61,4.53 -1.69,0.7 -3.48,1.05 -5.38,1.05 -1.84,0 -3.64,-0.35 -5.38,-1.05 -2.41,-1.05 -3.61,-2.56 -3.61,-4.53l0 -22.86c0,-0.07 0.03,-0.35 0.08,-0.84 0.41,-3.86 2.84,-6.78 7.3,-8.74 3.28,-1.55 6.71,-2.32 10.3,-2.32l22.52 0c7.58,0 13.04,1.58 16.37,4.74 1.9,1.76 2.84,3.62 2.84,5.58l0 3.16c0,3.3 -1.72,6.11 -5.15,8.43 -1.38,0.91 -3.1,1.69 -5.15,2.32l7.99 5.79c1.54,1.18 2.3,2.6 2.3,4.28 0,2 -1.29,3.56 -3.88,4.69 -1.92,0.9 -3.79,1.35 -5.62,1.35 -2.08,0 -3.81,-0.49 -5.16,-1.49l-19.84 -14.63c-1.33,-0.77 -2,-1.69 -2,-2.74zm82.45 18.86c-1.84,0 -3.64,-0.39 -5.38,-1.16 -2.41,-0.98 -3.61,-2.49 -3.61,-4.53l0 -29.08c0,-2.04 1.2,-3.55 3.61,-4.53 1.74,-0.77 3.53,-1.16 5.38,-1.16 1.84,0 3.64,0.39 5.38,1.16 2.41,0.98 3.61,2.49 3.61,4.53l0 29.08c0,1.97 -1.2,3.48 -3.61,4.53 -1.74,0.77 -3.53,1.16 -5.38,1.16zm88.68 -26.86l0 -2.64c0,-1.26 -0.72,-2.21 -2.15,-2.84 -1.02,-0.49 -2.1,-0.74 -3.23,-0.74l-23.59 0c-1.33,0 -2.61,-0.21 -3.84,-0.63 -1.79,-0.63 -2.69,-1.62 -2.69,-2.95 0,-1.34 0.87,-2.32 2.61,-2.95 1.18,-0.49 2.43,-0.74 3.77,-0.74l29.43 0c3.69,0 7.25,0.81 10.68,2.42 4.66,2.18 6.99,5.34 6.99,9.48l0 22.76c0,1.97 -1.2,3.48 -3.61,4.53 -1.74,0.77 -3.53,1.16 -5.38,1.16 -1.84,0 -3.64,-0.39 -5.38,-1.16 -2.41,-0.98 -3.61,-2.49 -3.61,-4.53l0 -10.43c0,-1.19 -0.72,-2.14 -2.15,-2.84 -1.02,-0.49 -2.1,-0.74 -3.23,-0.74l-13.29 0c-1.13,0 -2.2,0.25 -3.23,0.74 -1.43,0.7 -2.15,1.65 -2.15,2.84l0 4.95c0,1.19 0.72,2.14 2.15,2.84 1.02,0.49 2.1,0.74 3.23,0.74l6.53 0c1.28,0 2.59,0.25 3.92,0.74 1.79,0.7 2.69,1.72 2.69,3.05 0,1.27 -0.9,2.28 -2.69,3.05 -1.33,0.49 -2.64,0.74 -3.92,0.74l-12.22 0c-3.69,0 -7.25,-0.81 -10.68,-2.42 -4.66,-2.18 -6.99,-5.34 -6.99,-9.48l0 -3.16c0,-4.07 2.33,-7.23 6.99,-9.48 3.43,-1.54 6.99,-2.32 10.68,-2.32l24.36 0z"/>
     <path class="fil3" d="M37.93 339.46c14.54,67.06 63.99,115.91 121.07,115.91l311.22 0 -320.82 -16.78c-50.38,-2.64 -93.56,-43.04 -111.48,-99.13z"/>
    </g>
   </g>
  </g>
  <path class="fil6" d="M62.23 0l750.06 0c34.23,0 62.23,28 62.23,62.23l0 472.93c0,34.23 -28,62.23 -62.23,62.23l-750.06 0c-34.23,0 -62.23,-28 -62.23,-62.23l0 -472.93c0,-34.23 28,-62.23 62.23,-62.23z"/>
 </g>
</svg>
