<?xml version="1.0" encoding="UTF-8"?>
<!DOCTYPE svg PUBLIC "-//W3C//DTD SVG 1.1//EN" "http://www.w3.org/Graphics/SVG/1.1/DTD/svg11.dtd">
<!-- Creator: CorelDRAW (Evaluation Version) -->
<svg xmlns="http://www.w3.org/2000/svg" xml:space="preserve" width="52.3314mm" height="35.7481mm" version="1.1" style="shape-rendering:geometricPrecision; text-rendering:geometricPrecision; image-rendering:optimizeQuality; fill-rule:evenodd; clip-rule:evenodd"
viewBox="0 0 1192.31 814.48"
 xmlns:xlink="http://www.w3.org/1999/xlink"
 xmlns:xodm="http://www.corel.com/coreldraw/odm/2003">
 <defs>
  <style type="text/css">
   <![CDATA[
    .fil3 {fill:none}
    .fil0 {fill:white}
    .fil1 {fill:#1157D8;fill-rule:nonzero}
    .fil2 {fill:#FF8A15;fill-rule:nonzero}
   ]]>
  </style>
   <clipPath id="id0">
    <path d="M84.84 0l1022.62 0c46.67,0 84.84,38.18 84.84,84.84l0 644.79c0,46.67 -38.18,84.84 -84.84,84.84l-1022.62 0c-46.67,0 -84.84,-38.18 -84.84,-84.84l0 -644.79c0,-46.66 38.18,-84.84 84.84,-84.84z"/>
   </clipPath>
 </defs>
 <g id="Camada_x0020_1">
  <metadata id="CorelCorpID_0Corel-Layer"/>
  <path class="fil0" d="M84.84 0l1022.62 0c46.67,0 84.84,38.18 84.84,84.84l0 644.79c0,46.67 -38.18,84.84 -84.84,84.84l-1022.62 0c-46.67,0 -84.84,-38.18 -84.84,-84.84l0 -644.79c0,-46.66 38.18,-84.84 84.84,-84.84z"/>
  <g style="clip-path:url(#id0)">
   <g id="_105553210674848">
    <g>
     <path id="_1" class="fil1" d="M699.29 481.38l0 -0.99 70.39 0c4.41,0 7.99,-3.58 7.99,-7.99l0 -16.99c0,-4.42 -3.58,-7.99 -7.99,-7.99l-140.78 0c-4.41,0 -7.99,3.58 -7.99,7.99l0 16.99c0,4.41 3.58,7.99 7.99,7.99l41.58 0c4.42,0 7.99,3.58 7.99,7.99l0 115.91c0,4.41 3.58,7.99 7.99,7.99l25.64 0c4.41,0 7.99,-3.58 7.99,-7.99l0 -94.4c0,-13.36 -8.75,-24.63 -20.82,-28.51z"/>
     <path class="fil1" d="M389.79 554.78c0,13.54 -10.98,24.53 -24.53,24.53l-40.97 0c-13.54,0 -24.53,-10.98 -24.53,-24.53l0 -49.87c0,-13.54 10.98,-24.53 24.53,-24.53l40.97 0c13.54,0 24.53,10.98 24.53,24.53l0 49.87zm-7.78 -107.37l-74.46 0c-27.29,0 -49.41,22.12 -49.41,49.41l0 66.06c0,27.29 22.12,49.41 49.41,49.41l74.46 0c27.29,0 49.41,-22.12 49.41,-49.41l0 -66.06c0,-27.29 -22.12,-49.41 -49.41,-49.41z"/>
     <path class="fil1" d="M608.32 505.12l0 0c0,-31.87 -25.83,-57.71 -57.7,-57.71l-90.93 0c-4.41,0 -7.99,3.58 -7.99,7.99l0 148.89c0,4.41 3.58,7.99 7.99,7.99l25.65 0c4.41,0 7.99,-3.58 7.99,-7.99l0 -115.92c0,-4.41 3.58,-7.99 7.99,-7.99l39.83 0c13.62,0 25.3,10.65 25.55,24.27 0.25,13.87 -10.92,25.19 -24.73,25.19l-9.82 0 0 0 -18.63 0c-3.48,0 -5.52,3.91 -3.54,6.77l49.84 71.71c1.72,2.48 4.55,3.96 7.57,3.96l33.19 0c3.48,0 5.52,-3.91 3.54,-6.76l-36.85 -53.02c23.75,-6.1 41.06,-24.91 41.06,-47.38z"/>
     <path class="fil1" d="M1024.96 579.31c-13.54,0 -24.53,-10.98 -24.53,-24.53l0 -99.38c0,-4.41 -3.57,-7.99 -7.99,-7.99l-25.64 0c-4.41,0 -7.99,3.58 -7.99,7.99l0 107.47c0,27.29 22.12,49.41 49.41,49.41l91.25 0c4.41,0 7.99,-3.58 7.99,-7.99l0 -16.99c0,-4.42 -3.58,-7.99 -7.99,-7.99l-74.51 0z"/>
     <path class="fil1" d="M174.55 529.85l-40.08 0c-4.42,0 -7.99,-3.58 -7.99,-7.99l0 -33.48c0,-4.41 3.58,-7.99 7.99,-7.99l40.9 0c13.81,0 24.98,11.32 24.72,25.19 -0.25,13.61 -11.93,24.27 -25.55,24.27zm9.47 -82.44l-91.18 0c-4.41,0 -7.99,3.58 -7.99,7.99l0 148.89c0,4.41 3.58,7.99 7.99,7.99l25.64 0c4.42,0 7.99,-3.58 7.99,-7.99l0 -57.96 1.23 0c3.41,9.6 12.54,16.49 23.31,16.49l33.01 0c31.87,0 57.7,-25.83 57.7,-57.7l0 0c0,-31.87 -25.83,-57.71 -57.7,-57.71z"/>
     <path class="fil1" d="M892.45 488.38l0 50.05c0,4.37 -3.54,7.91 -7.9,7.91l-47.15 0c-5.4,0 -8.96,-5.64 -6.63,-10.52l21.79 -45.56c2.89,-6.04 8.98,-9.88 15.68,-9.88l16.22 0c4.42,0 7.99,3.58 7.99,7.99zm-72.88 -15.33l-63.02 131.77c-1.66,3.46 0.87,7.46 4.7,7.46l28.32 0c2.83,0 5.41,-1.62 6.63,-4.18l11.77 -24.62c1.22,-2.55 3.8,-4.18 6.63,-4.18l94.75 0 0 1.22c-9.83,3.43 -16.9,12.76 -16.9,23.77 0,4.41 3.58,7.99 7.99,7.99l25.64 0c4.42,0 7.99,-3.58 7.99,-7.99l0 -24.98 0 -0.21 0 -123.69c0,-4.41 -3.58,-7.99 -7.99,-7.99l-65.83 0c-17.37,0 -33.19,9.97 -40.69,25.64z"/>
     <path class="fil1" d="M94.97 731.99c0,3.64 -0.67,4.32 -4.32,4.32l-1.49 0c-3.37,0 -4.32,-0.68 -4.32,-4.32l0 -38.33c0,-16.87 8.64,-25.24 25.78,-25.24 10.66,0 17.54,3.78 20.65,11.2 3.37,-7.42 10.39,-11.2 20.78,-11.2 17.14,0 25.64,8.37 25.64,25.24l0 38.33c0,3.64 -0.94,4.32 -4.32,4.32l-1.49 0c-3.64,0 -4.32,-0.68 -4.32,-4.32l0 -38.33c0,-10.93 -4.05,-15.65 -15.52,-15.65 -11.74,0 -15.79,4.45 -15.79,15.65l0 38.33c0,3.64 -0.68,4.32 -4.32,4.32l-1.35 0c-3.65,0 -4.32,-0.68 -4.32,-4.32l0 -38.33c0,-10.93 -4.19,-15.65 -15.65,-15.65 -11.47,0 -15.65,4.73 -15.65,15.65l0 38.33z"/>
     <path class="fil1" d="M234.09 705.68l-15.79 0c-12.28,0 -17.54,3.24 -17.54,11.74 0,7.69 4.99,11.47 15.11,11.47 12.96,0 18.22,-3.24 18.22,-12.95l0 -10.26zm10.12 10.66c0,14.98 -8.64,21.32 -28.2,21.32 -16.06,0 -25.37,-6.61 -25.37,-20.24 0,-13.9 8.77,-19.7 27.53,-19.7l15.93 0 0 -8.1c0,-8.77 -5.8,-12.28 -17.68,-12.28 -5.81,0 -10.66,0.54 -14.85,1.49 -3.24,0.67 -4.32,-0.13 -4.32,-3.37l0 -1.08c0,-3.1 0.81,-3.91 4.05,-4.59 4.19,-0.95 9.04,-1.35 14.58,-1.35 18.89,0 28.34,7.02 28.34,21.18l0 26.72z"/>
     <path class="fil1" d="M302.91 691.78c0,-9.58 -5.94,-14.31 -17.68,-14.31 -12.01,0 -17.95,4.73 -17.95,14.31l0 1.62c0,10.12 4.86,14.57 17.95,14.57 13.09,0 17.68,-4.45 17.68,-14.57l0 -1.62zm-30.9 43.05c-4.19,2.02 -6.34,5.8 -6.34,11.07 0,8.64 4.86,11.07 19.57,11.07 14.44,0 19.43,-2.43 19.43,-11.47 0,-4.18 -1.35,-6.88 -4.05,-8.1 -2.7,-1.22 -7.82,-1.89 -15.38,-1.89 -5.53,0 -9.85,-0.27 -13.23,-0.67zm41.16 -41.43c0,15.65 -9.31,23.48 -27.94,23.48 -7.15,0 -11.87,0.41 -14.31,1.08 -2.16,0.68 -3.24,2.03 -3.24,4.05 0,1.89 1.08,3.11 3.37,3.78 2.3,0.54 7.02,0.81 14.17,0.81 11.2,0 18.89,1.35 23.07,4.18 4.32,2.7 6.48,7.43 6.48,14.31 0,7.69 -2.16,12.96 -6.61,16.06 -4.19,3.1 -11.88,4.59 -22.94,4.59 -11.33,0 -19.17,-1.49 -23.35,-4.59 -4.18,-2.97 -6.34,-7.69 -6.34,-14.17 0,-6.48 2.56,-11.34 7.56,-14.44 -3.65,-1.76 -5.53,-4.72 -5.53,-8.91 0,-5.94 3.64,-9.45 10.93,-10.53 -7.56,-3.1 -11.34,-9.71 -11.34,-19.7l0 -1.62c0,-14.71 10.39,-23.35 28.07,-23.35 5.13,0 9.71,0.95 13.9,2.7l7.69 -6.88c2.29,-2.03 3.37,-2.03 5.53,0l0.95 0.95c2.16,2.03 2.16,3.1 0,5.26l-6.07 6.21c3.91,3.65 5.94,8.77 5.94,15.11l0 1.62z"/>
     <path class="fil1" d="M367.41 705.68l-15.79 0c-12.28,0 -17.54,3.24 -17.54,11.74 0,7.69 4.99,11.47 15.11,11.47 12.96,0 18.22,-3.24 18.22,-12.95l0 -10.26zm10.12 10.66c0,14.98 -8.64,21.32 -28.21,21.32 -16.06,0 -25.37,-6.61 -25.37,-20.24 0,-13.9 8.77,-19.7 27.53,-19.7l15.93 0 0 -8.1c0,-8.77 -5.81,-12.28 -17.68,-12.28 -5.81,0 -10.66,0.54 -14.84,1.49 -3.24,0.67 -4.32,-0.13 -4.32,-3.37l0 -1.08c0,-3.1 0.81,-3.91 4.05,-4.59 4.18,-0.95 9.04,-1.35 14.57,-1.35 18.89,0 28.34,7.02 28.34,21.18l0 26.72z"/>
     <path class="fil1" d="M392.63 673.83c0,-3.24 0.81,-4.05 4.05,-4.05l31.71 0c10.39,0 14.44,3.37 14.44,12.41 0,5.53 -1.89,9.04 -8.77,13.9l-32.12 22.54c-2.16,1.48 -3.24,2.97 -3.24,4.73 0,2.43 1.89,3.64 5.67,3.64l34.41 0c3.24,0 4.04,0.81 4.04,4.05l0 1.21c0,3.24 -0.81,4.05 -4.04,4.05l-35.23 0c-9.44,0 -14.17,-4.05 -14.17,-12.14 0,-5.27 2.83,-9.99 8.37,-13.9l31.85 -22.13c2.56,-1.75 3.91,-3.65 3.91,-5.53 0,-2.29 -1.89,-3.51 -5.67,-3.51l-31.17 0c-3.24,0 -4.05,-0.81 -4.05,-4.05l0 -1.22z"/>
     <path class="fil1" d="M457.81 674.1c0,-3.37 0.68,-4.32 4.32,-4.32l1.49 0c3.37,0 4.32,0.95 4.32,4.32l0 57.89c0,3.64 -0.95,4.32 -4.32,4.32l-1.49 0c-3.64,0 -4.32,-0.68 -4.32,-4.32l0 -57.89zm11.61 -25.1c0,3.65 -2.83,6.48 -6.48,6.48 -3.78,0 -6.75,-2.83 -6.75,-6.48 0,-3.64 2.97,-6.61 6.75,-6.61 3.64,0 6.48,2.97 6.48,6.61z"/>
     <path class="fil1" d="M495.59 731.99c0,3.64 -0.67,4.32 -4.32,4.32l-1.49 0c-3.37,0 -4.32,-0.68 -4.32,-4.32l0 -38.33c0,-16.87 9.45,-25.24 28.2,-25.24 19.43,0 28.07,8.5 28.07,25.24l0 38.33c0,3.64 -0.67,4.32 -4.32,4.32l-1.62 0c-3.64,0 -4.32,-0.68 -4.32,-4.32l0 -38.33c0,-11.2 -4.45,-15.65 -17.81,-15.65 -13.36,0 -18.08,4.73 -18.08,15.65l0 38.33z"/>
     <path class="fil1" d="M566.43 698.39l36.44 0 0 -4.45c0,-10.93 -6.07,-16.46 -18.22,-16.46 -12.15,0 -18.22,5.53 -18.22,16.46l0 4.45zm45.62 4.32c-0.41,3.37 -1.21,4.19 -4.86,4.19l-40.76 0 0 4.05c0,12.28 6.07,17.14 21.05,17.14 6.07,0 12.15,-0.81 18.35,-2.57 3.24,-0.94 4.32,0.14 4.32,3.51l0 1.22c0,2.83 -0.54,3.78 -4.19,4.86 -5.66,1.75 -11.87,2.56 -18.49,2.56 -21.46,0 -31.18,-8.37 -31.18,-28.2l0 -12.55c0,-19.03 9.45,-28.48 28.48,-28.48 17.95,0 27.66,9.31 27.66,26.99 0,3.1 -0.13,5.53 -0.4,7.29z"/>
     <path class="fil2" d="M216.75 50l-123.75 0c-4.5,0 -8.15,3.65 -8.15,8.15l0 266c0,3.76 2.13,7.2 5.49,8.89l83.01 41.51c4.79,2.39 10.42,-1.09 10.42,-6.44l0 -246.01c0,-3.76 -2.13,-7.2 -5.49,-8.88l-51.3 -25.65c-1.81,-0.9 -0.84,-3.64 1.14,-3.2l97.04 21.56c4.72,1.05 8.08,5.24 8.08,10.07l0 171.11c0,4.86 4.49,8.51 9.25,7.5 55.94,-11.85 97.92,-61.47 97.92,-120.93l0 0c0,-68.29 -55.36,-123.66 -123.66,-123.66z"/>
    </g>
   </g>
  </g>
  <path class="fil3" d="M84.84 0l1022.62 0c46.67,0 84.84,38.18 84.84,84.84l0 644.79c0,46.67 -38.18,84.84 -84.84,84.84l-1022.62 0c-46.67,0 -84.84,-38.18 -84.84,-84.84l0 -644.79c0,-46.66 38.18,-84.84 84.84,-84.84z"/>
 </g>
</svg>
