<?xml version="1.0" encoding="UTF-8"?>
<!DOCTYPE svg PUBLIC "-//W3C//DTD SVG 1.1//EN" "http://www.w3.org/Graphics/SVG/1.1/DTD/svg11.dtd">
<!-- Creator: CorelDRAW (Evaluation Version) -->
<svg xmlns="http://www.w3.org/2000/svg" xml:space="preserve" width="52.3314mm" height="35.7481mm" version="1.1" style="shape-rendering:geometricPrecision; text-rendering:geometricPrecision; image-rendering:optimizeQuality; fill-rule:evenodd; clip-rule:evenodd"
viewBox="0 0 21818.54 14904.46"
 xmlns:xlink="http://www.w3.org/1999/xlink"
 xmlns:xodm="http://www.corel.com/coreldraw/odm/2003">
 <defs>
  <style type="text/css">
   <![CDATA[
    .fil3 {fill:none}
    .fil0 {fill:white}
    .fil2 {fill:#FE8205}
    .fil1 {fill:#FE8205;fill-rule:nonzero}
   ]]>
  </style>
   <clipPath id="id0">
    <path d="M1552.61 0l18713.32 0c853.91,0 1552.61,698.65 1552.61,1552.56l0 11799.29c0,853.96 -698.69,1552.61 -1552.61,1552.61l-18713.32 0c-854,0 -1552.61,-698.65 -1552.61,-1552.61l0 -11799.29c0,-853.91 698.61,-1552.56 1552.61,-1552.56z"/>
   </clipPath>
 </defs>
 <g id="Camada_x0020_1">
  <metadata id="CorelCorpID_0Corel-Layer"/>
  <path class="fil0" d="M1552.61 0l18713.32 0c853.91,0 1552.61,698.65 1552.61,1552.56l0 11799.29c0,853.96 -698.69,1552.61 -1552.61,1552.61l-18713.32 0c-854,0 -1552.61,-698.65 -1552.61,-1552.61l0 -11799.29c0,-853.91 698.61,-1552.56 1552.61,-1552.56z"/>
  <g style="clip-path:url(#id0)">
   <g id="_105553210819264">
    <g>
     <path id="_1" class="fil1" d="M9250.72 4998.28c0,-338.21 -354.72,-558.14 -930.46,-642.66 -610.72,-91.35 -767.57,-152.22 -767.57,-270.63 0,-145.47 180.24,-250.24 639.57,-250.24 337.3,0 738.63,77.67 936.3,223.18l29.14 0 0 -246.95c0,-236.82 -308.36,-463.42 -1151.52,-463.42 -819.93,0 -1413.1,328.08 -1413.1,777.95 0,297.77 244.32,524.37 1029.36,629.19 569.82,74.51 662.92,138.8 662.92,277.47 0,169.02 -133.79,250.32 -575.82,250.32 -366.27,0 -784.95,-98.06 -1011.68,-236.77l-29.14 0 0 196.08c0,311.32 360.48,534.59 1168.86,534.59 889.73,0 1413.14,-314.62 1413.14,-778.12zm3163.58 -74.38l0 -729.84c0,-226.6 -238.61,-345.09 -599.13,-345.09l-377.91 0 0 1074.93c0,307.78 -157.14,375.53 -354.77,375.53 -238.36,0 -407.09,-74.55 -407.09,-378.86l0 -726.5c0,-233.4 -203.55,-345.09 -593.12,-345.09l-383.83 0 0 1085.14c0,598.63 552.43,842.28 1331.63,842.28 878.1,0 1384.21,-263.88 1384.21,-852.5zm3401.82 -131.08c0,-598.75 -540.76,-943.85 -1378.2,-943.85 -942.14,0 -1470.55,392.54 -1465.47,1028.27l8.09 1006.76c2.13,280.64 238.4,392.41 604.72,392.41l343.13 0 0 -709.57c122.16,121.83 325.71,209.67 645.53,209.67 773.36,0 1242.2,-378.36 1242.2,-983.7zm-971.07 71c0,311.28 -151.3,473.51 -418.81,473.51 -290.73,0 -500.15,-125.12 -500.15,-554.73 0,-317.87 192,-466.75 424.56,-466.75 354.77,0 494.4,148.89 494.4,547.97zm3983.31 -325.54c0,-446.49 -517.54,-689.31 -1244.37,-689.31 -843.2,0 -1419.02,395.04 -1419.02,983.66 0,561.48 558.35,943.76 1436.49,943.76 779.12,0 1058.34,-209.84 1058.34,-439.86l0 -169.02 -29.14 0c-145.38,84.51 -383.74,145.34 -837.45,145.34 -377.95,0 -657.08,-108.15 -657.08,-304.44l360.6 0c889.73,0 1331.63,-91.35 1331.63,-470.13zm-895.52 -50.74c0,91.35 -93.02,145.47 -552.43,145.47l-267.42 0c11.55,-219.85 191.83,-361.9 441.86,-361.9 255.95,0 377.99,74.38 377.99,216.43zm3047.26 -117.62l0 -216.47c0,-165.73 -209.42,-304.48 -680.43,-304.48 -622.18,0 -1040.99,243.61 -1040.99,713.74l0 858.54c0,246.78 273.42,355.14 633.94,355.14l313.95 0 0 -1142.68c0,-257 122.08,-311.11 348.97,-311.11 145.34,0 273.26,16.84 372.19,47.32l52.37 0z"/>
     <path class="fil1" d="M12527.17 10021.92c0,-667.38 -792.21,-1101.07 -2077.56,-1267.88 -1363.53,-180.2 -1713.96,-300.36 -1713.96,-533.88 0,-286.97 402.46,-493.94 1428.19,-493.94 753.06,0 1648.96,153.51 2090.53,440.49l64.96 0 0 -487.18c0,-467 -688.23,-914.16 -2571,-914.16 -1830.74,0 -3155.24,647.33 -3155.24,1534.84 0,587.29 545.43,1034.32 2298.33,1241.28 1272.43,146.72 1480.23,273.59 1480.23,547.18 0,333.71 -298.69,493.77 -1285.56,493.77 -818.06,0 -1752.9,-193.58 -2259.14,-467.17l-64.96 0 0 387.12c0,613.93 805.01,1054.33 2609.86,1054.33 1986.63,0 3155.33,-620.64 3155.33,-1534.8zm3336.9 -3063.06c0,-327.04 -519.37,-587.25 -1155.65,-587.25 -649.2,0 -1181.5,260.21 -1181.5,587.25 0,326.96 532.29,594 1181.5,594 636.28,0 1155.65,-267.04 1155.65,-594zm1051.75 4070.66l0 -360.27 -337.55 0c-584.33,0 -818.06,-93.43 -818.06,-393.75l0 -1701.66c0,-473.8 -441.49,-707.45 -1415.27,-707.45l-688.14 0 0 2542.56c0,834.03 856.92,1147.77 2051.55,1147.77 817.98,0 1207.47,-200.17 1207.47,-527.21zm4064.19 -13.3l0 -373.74 -454.5 0c-584.16,0 -843.95,-93.39 -843.95,-393.75l0 -2774.96c0,-473.8 -428.65,-707.2 -1402.3,-707.2l-688.1 0 0 3609.07c0,833.94 921.83,1181.08 2116.38,1181.08 545.34,0 1040.57,-98.98 1207.6,-340.26 40.73,-59.08 64.87,-126.87 64.87,-200.25z"/>
     <path class="fil2" d="M838.4 5243.31c286.89,-92.31 573.78,-184.66 860.96,-277.18 0.04,4.38 0.46,9.26 0.46,13.3 0,481.14 92.43,860.34 277.01,1137.47 184.74,275.63 501.11,500.98 946.93,673.01 324.75,124.79 532.92,246.7 625.15,363.9 92.43,117.24 138,284.8 138,500.94 0,196.46 -53.03,357.89 -160.23,485.77 -106.11,127.87 -242.99,191.79 -408.72,191.79 -178.36,0 -356.64,-74.59 -536.01,-222.18 -179.41,-149.3 -360.94,-373.15 -545.59,-673.05l-559.4 1324.71c239.9,330.42 490.39,572.61 750.52,727.88 261.12,153.76 549.76,231.4 867.17,231.4 528.63,0 952.23,-210.05 1269.55,-631.86 417.72,-553.1 617.39,-1605.68 380.12,-2271.52 -423.56,-1187.83 -2111.13,-1048.54 -2138.81,-2143.69l0 0 0 -1072.55c0,-453.83 375.9,-824.98 835.53,-824.98l0.21 0c459.58,0 835.57,371.15 835.57,824.98l0 534.55c532.21,-171.69 1064.71,-343.47 1596.93,-515.03 0,1418.15 0,2837.04 0,4254.31 0,1417.31 0,2835.37 0,4252.65 -839.45,-241.65 -1679.31,-483.56 -2518.17,-724.71 -838.86,-241.11 -1678.44,-482.39 -2517.17,-724.04 0,-905.03 0,-1811.06 0,-2717.13 0,-905.11 0,-1811.89 0,-2718.72zm2270.1 -731.34l247.07 -79.47 418.18 -134.54 0 -622.02c0,-180.57 -149.72,-328.37 -332.5,-328.37l-0.21 0c-182.87,0 -332.54,147.8 -332.54,328.37l0 836.03z"/>
    </g>
   </g>
  </g>
  <path class="fil3" d="M1552.61 0l18713.32 0c853.91,0 1552.61,698.65 1552.61,1552.56l0 11799.29c0,853.96 -698.69,1552.61 -1552.61,1552.61l-18713.32 0c-854,0 -1552.61,-698.65 -1552.61,-1552.61l0 -11799.29c0,-853.91 698.61,-1552.56 1552.61,-1552.56z"/>
 </g>
</svg>
