<?xml version="1.0" encoding="UTF-8"?>
<!DOCTYPE svg PUBLIC "-//W3C//DTD SVG 1.1//EN" "http://www.w3.org/Graphics/SVG/1.1/DTD/svg11.dtd">
<!-- Creator: CorelDRAW (Evaluation Version) -->
<svg xmlns="http://www.w3.org/2000/svg" xml:space="preserve" width="52.3314mm" height="35.7481mm" version="1.1" style="shape-rendering:geometricPrecision; text-rendering:geometricPrecision; image-rendering:optimizeQuality; fill-rule:evenodd; clip-rule:evenodd"
viewBox="0 0 2852.2 1948.37"
 xmlns:xlink="http://www.w3.org/1999/xlink"
 xmlns:xodm="http://www.corel.com/coreldraw/odm/2003">
 <defs>
  <style type="text/css">
   <![CDATA[
    .fil5 {fill:none}
    .fil0 {fill:white}
    .fil1 {fill:#3F4096}
    .fil4 {fill:white;fill-rule:nonzero}
    .fil3 {fill:#FFF215;fill-rule:nonzero}
    .fil2 {fill:#F58735;fill-rule:nonzero}
   ]]>
  </style>
   <clipPath id="id0">
    <path d="M202.96 0l2446.28 0c111.63,0 202.96,91.33 202.96,202.96l0 1542.45c0,111.63 -91.33,202.96 -202.96,202.96l-2446.28 0c-111.63,0 -202.96,-91.33 -202.96,-202.96l0 -1542.45c0,-111.63 91.33,-202.96 202.96,-202.96z"/>
   </clipPath>
 </defs>
 <g id="Camada_x0020_1">
  <metadata id="CorelCorpID_0Corel-Layer"/>
  <path class="fil0" d="M202.96 0l2446.28 0c111.63,0 202.96,91.33 202.96,202.96l0 1542.45c0,111.63 -91.33,202.96 -202.96,202.96l-2446.28 0c-111.63,0 -202.96,-91.33 -202.96,-202.96l0 -1542.45c0,-111.63 91.33,-202.96 202.96,-202.96z"/>
  <g style="clip-path:url(#id0)">
   <g id="_105553212119552">
    <g>
     <path id="_1" class="fil1" d="M1426.1 328.26c787.48,0 1426.11,289.25 1426.11,645.92 0,356.68 -638.62,645.93 -1426.11,645.93 -787.48,0 -1426.1,-289.25 -1426.1,-645.93 0,-356.68 638.62,-645.92 1426.1,-645.92z"/>
     <polygon class="fil2" points="1592.05,740.83 1566.25,885.47 1691.16,885.47 1716.96,740.83 "/>
     <polygon class="fil3" points="843.86,924.49 845.9,924.49 759.07,1411.13 874.8,1411.13 994.11,742.42 799.36,742.42 618.09,1135.48 617.17,1132.08 576.06,742.42 380.79,742.42 261.48,1411.13 377.72,1411.13 464.55,924.49 466.07,924.49 527.1,1411.13 611.22,1411.13 "/>
     <path class="fil3" d="M1292.29 1297.12l16.37 114.01 138.67 0 -98.38 -668.71 -160.09 0 -339.05 668.71 138.68 0 57.55 -114.01 246.25 0zm-54.76 -384.55l34.53 240.77 -154.99 0 120.46 -240.77z"/>
     <polygon class="fil3" points="1556.19,926.75 1469.77,1411.12 1594.68,1411.12 1681.1,926.75 "/>
     <path class="fil3" d="M2172.83 1076.77c-7.46,-41.97 -29.59,-64.66 -66.37,-68.06 -6.93,-1.13 -15.76,-2.13 -26.49,-2.98 -10.73,-0.85 -23.89,-1.84 -39.49,-2.98 -15.6,-1.14 -43.59,-2.84 -83.97,-5.11 -29.27,-1.7 -46.91,-2.83 -52.93,-3.4 -2.04,0 -5.44,0 -10.2,0 -7.13,0 -10.7,0 -10.7,0 -16.31,0 -28.45,-3.41 -36.41,-10.21 -7.96,-6.81 -10.02,-20.98 -6.18,-42.53 2.12,-11.91 5.29,-21.56 9.49,-28.93 4.21,-7.37 9.01,-12.9 14.43,-16.59 5.42,-3.68 10.94,-6.09 16.59,-7.23 5.64,-1.13 11.86,-1.7 18.66,-1.7 7.13,0 488.75,0 687.58,0l25.81 -144.63c-201.21,0 -705.1,0 -754.38,0 -37.05,0 -66.65,17.3 -88.79,51.9 -22.15,34.6 -39.4,86.5 -51.74,155.69 -10.02,56.15 -11.78,98.41 -5.29,126.77 9.53,38 32.86,58.7 69.98,62.11 7.28,1.13 16.11,2.13 26.49,2.98 10.38,0.85 21.45,1.71 33.19,2.56 11.74,0.85 40.81,2.69 87.21,5.53 29.61,1.7 47.59,2.84 53.95,3.41 10.54,0 19.38,0.43 26.54,1.28 7.16,0.85 13.81,3.12 19.94,6.81 6.14,3.68 10.6,9.64 13.39,17.87 2.78,8.22 2.95,19.14 0.52,32.75 -2.12,11.91 -5.37,21.56 -9.75,28.93 -4.38,7.37 -9.44,12.9 -15.2,16.59 -5.75,3.68 -11.71,6.09 -17.86,7.23 -6.15,1.14 -12.8,1.71 -19.93,1.71 -7.14,0 -201.92,0 -400.75,0l-25.81 144.63c191.7,0 404.15,0 453.77,0 42.49,0 76.22,-16.16 101.19,-48.49 24.97,-32.33 43.88,-84.51 56.73,-156.54 9.21,-51.61 11.46,-94.72 6.76,-129.32z"/>
     <polygon class="fil3" points="2355.82,552.02 2263.6,1068.9 2388.5,1068.9 2480.73,552.02 "/>
     <path class="fil4" d="M512.86 613.49c-1.62,-9.4 -6.44,-14.49 -14.44,-15.25 -1.51,-0.25 -3.43,-0.47 -5.76,-0.66 -2.33,-0.19 -5.2,-0.41 -8.6,-0.66 -3.39,-0.26 -9.48,-0.64 -18.27,-1.14 -6.37,-0.38 -10.2,-0.64 -11.51,-0.76 -0.45,0 -1.18,0 -2.22,0 -1.55,0 -2.33,0 -2.33,0 -3.55,0 -6.19,-0.76 -7.92,-2.29 -1.73,-1.53 -2.18,-4.7 -1.35,-9.53 0.46,-2.67 1.15,-4.83 2.07,-6.48 0.92,-1.65 1.96,-2.89 3.14,-3.72 1.18,-0.83 2.38,-1.37 3.61,-1.62 1.23,-0.26 2.58,-0.38 4.06,-0.38 1.55,0 23.96,0 67.22,0l5.61 -32.4c-43.78,0 -71.03,0 -81.75,0 -8.06,0 -14.5,3.88 -19.32,11.63 -4.82,7.75 -8.57,19.38 -11.26,34.88 -2.18,12.57 -2.56,22.04 -1.15,28.4 2.08,8.51 7.15,13.15 15.23,13.91 1.58,0.26 3.5,0.48 5.76,0.67 2.26,0.19 4.67,0.38 7.22,0.57 2.56,0.19 8.88,0.6 18.98,1.24 6.44,0.38 10.35,0.64 11.73,0.76 2.29,0 4.22,0.09 5.77,0.28 1.56,0.19 3,0.7 4.34,1.53 1.34,0.83 2.31,2.16 2.92,4 0.6,1.85 0.64,4.29 0.11,7.34 -0.46,2.67 -1.17,4.83 -2.12,6.48 -0.95,1.65 -2.05,2.89 -3.31,3.72 -1.25,0.82 -2.55,1.36 -3.89,1.62 -1.34,0.25 -2.79,0.38 -4.34,0.38 -1.55,0 -23.96,0 -67.22,0l-5.61 32.4c41.71,0 67.96,0 78.76,0 9.24,0 16.58,-3.62 22.01,-10.86 5.43,-7.24 9.55,-18.93 12.34,-35.07 2,-11.56 2.49,-21.22 1.47,-28.97zm68.22 -74.9l-18.43 106.35c-1.17,6.73 -1.73,12.45 -1.7,17.15 0.03,4.7 0.88,9.09 2.55,13.15 1.78,3.81 3.38,6.61 4.81,8.38 1.43,1.78 3.53,3.11 6.3,4.01 2.77,0.89 6.71,1.46 11.85,1.71 5.13,0.26 12.98,0.38 23.56,0.38 10.64,0 18.56,-0.13 23.75,-0.38 5.18,-0.25 9.31,-0.82 12.39,-1.71 3.07,-0.89 5.59,-2.2 7.55,-3.91 1.96,-1.72 4.54,-4.55 7.73,-8.48 3.07,-4.07 5.44,-8.45 7.1,-13.15 1.67,-4.7 3.08,-10.42 4.25,-17.15l18.43 -106.35 -26.73 0 -17.3 99.87c-0.51,2.92 -1.64,5.3 -3.4,7.15 -1.76,1.84 -4.27,2.76 -7.52,2.76l-38.6 0c-3.04,0 -5.11,-0.92 -6.24,-2.76 -1.12,-1.84 -1.43,-4.22 -0.92,-7.15l17.3 -99.87 -26.73 0zm218.82 101.96c10.06,0 17.95,-4.47 23.68,-13.43 5.73,-8.95 10.24,-22.9 13.52,-41.84 1.59,-9.15 2.27,-16.71 2.04,-22.68 -0.22,-5.97 -1.34,-10.7 -3.36,-14.2 -2.02,-3.49 -4.93,-6 -8.73,-7.53 -3.8,-1.53 -8.74,-2.29 -14.8,-2.29l-69.99 0 -25.96 149.8 27.18 0 19.45 -112.25 40.48 0c2.59,0 4.67,1.46 6.23,4.38 1.56,2.92 2.06,6.48 1.48,10.67 -0.9,5.21 -2.67,9.24 -5.31,12.11 -2.64,2.86 -5.36,4.29 -8.17,4.29l-36.39 0 15.7 32.97 22.96 0zm101.46 12.96l4.29 -24.78 64.22 0 5.25 -30.3 -64.23 0 4.36 -25.16 68.44 0 6.01 -34.69 -66.89 0 -27.62 0 -1.11 0 -25.96 149.8 1.89 0 26.84 0 66.89 0 6.04 -34.88 -68.44 0zm200.43 -46.69l-39.05 0 38.33 81.57 30.17 0 -26.39 -53.17 0.13 -0.76c5.18,0 9.64,-0.89 13.39,-2.67 3.74,-1.78 6.98,-4.57 9.71,-8.39 2.73,-3.81 5.12,-8.83 7.16,-15.05 2.04,-6.23 3.85,-13.91 5.43,-23.07 1.59,-9.15 2.29,-16.71 2.1,-22.68 -0.19,-5.97 -1.27,-10.7 -3.25,-14.2 -1.98,-3.49 -4.88,-6 -8.68,-7.53 -3.8,-1.53 -8.77,-2.29 -14.91,-2.29l-72.32 0 -25.96 149.8 27.18 0 19.48 -112.44 43.15 0c2.66,0 4.74,1.43 6.25,4.29 1.5,2.86 1.86,6.51 1.1,10.96 -0.88,5.09 -2.59,8.96 -5.12,11.63 -2.53,2.67 -5.17,4 -7.9,4zm205.63 -27.45l0.45 0 -18.89 109.02 25.17 0 25.96 -149.8 -42.37 0 -39.44 88.05 -0.2 -0.76 -8.94 -87.29 -42.48 0 -25.95 149.8 25.29 0 18.89 -109.02 0.33 0 13.28 109.02 18.3 0 50.61 -109.02zm97.3 74.14l4.29 -24.78 64.22 0 5.25 -30.3 -64.23 0 4.36 -25.16 68.44 0 6.01 -34.69 -66.89 0 -27.62 0 -1.11 0 -25.96 149.8 1.89 0 26.84 0 66.89 0 6.04 -34.88 -68.44 0zm200.43 -46.69l-39.05 0 38.33 81.57 30.17 0 -26.39 -53.17 0.13 -0.76c5.18,0 9.64,-0.89 13.39,-2.67 3.74,-1.78 6.98,-4.57 9.71,-8.39 2.73,-3.81 5.12,-8.83 7.16,-15.05 2.04,-6.23 3.85,-13.91 5.44,-23.07 1.59,-9.15 2.29,-16.71 2.1,-22.68 -0.19,-5.97 -1.27,-10.7 -3.25,-14.2 -1.98,-3.49 -4.88,-6 -8.68,-7.53 -3.8,-1.53 -8.77,-2.29 -14.91,-2.29l-72.32 0 -25.96 149.8 27.18 0 19.48 -112.44 43.15 0c2.66,0 4.74,1.43 6.25,4.29 1.5,2.86 1.86,6.51 1.1,10.96 -0.88,5.09 -2.59,8.96 -5.12,11.63 -2.53,2.67 -5.17,4 -7.9,4zm89.86 18.49c-2.42,13.97 -3.67,21.22 -3.77,21.72 -2.35,13.6 -1.83,23.89 1.59,30.88 3.41,6.99 9.92,10.48 19.53,10.48 15.01,0 40,0 74.98,0l6.27 -36.21c-43.92,0 -67.92,0 -71.99,0 -2.66,0 -4.46,-0.82 -5.4,-2.47 -0.93,-1.65 -1.16,-3.88 -0.67,-6.67l1.71 -11.82 6.14 -35.45 2.48 -12.39c0.4,-2.29 1.36,-4.2 2.88,-5.72 1.52,-1.53 3.58,-2.29 6.16,-2.29 4.07,0 28.06,0 71.99,0l6.37 -36.78c-34.97,0 -59.97,0 -74.98,0 -9.61,0 -17.34,3.49 -23.17,10.48 -5.83,6.99 -9.94,17.35 -12.32,31.07 -0.07,0.38 -1.31,7.56 -3.73,21.54l-4.1 23.63zm234.08 37.55l3.56 25.53 30.17 0 -21.41 -149.8 -34.83 0 -73.76 149.8 30.17 0 12.52 -25.53 53.58 0zm-11.91 -86.15l7.51 53.94 -33.72 0 26.21 -53.94zm122.4 111.68l58.12 0c9.61,0 17.35,-3.46 23.21,-10.38 5.86,-6.93 9.95,-17.06 12.26,-30.4 0.07,-0.38 1.32,-7.62 3.77,-21.72l4.32 -24.97c2.43,-13.98 3.67,-21.16 3.73,-21.54 2.31,-13.34 1.74,-23.47 -1.72,-30.4 -3.46,-6.93 -10,-10.39 -19.61,-10.39 -15.01,0 -43.3,0 -84.86,0l-25.96 149.8 0.78 0 25.95 0zm4.7 -35.45l13.57 -78.33 0.33 0c33.43,0 52.17,0 56.24,0 2.67,0 4.47,0.8 5.41,2.38 0.94,1.59 1.2,3.66 0.76,6.2l-2.05 11.82 -3.3 19.06 -3.07 17.72 -2.18 12.58c-0.44,2.54 -1.41,4.61 -2.9,6.19 -1.49,1.59 -3.58,2.38 -6.24,2.38l-56.24 0 -0.33 0zm141.32 -3.24c-1.06,6.1 -1.54,11.24 -1.46,15.44 0.09,4.2 0.94,8.01 2.56,11.43 1.45,3.18 3.17,5.62 5.17,7.34 1.99,1.71 4.73,2.99 8.21,3.81 3.48,0.83 7.79,1.37 12.92,1.62 5.13,0.26 12.69,0.38 22.67,0.38 9.98,0 17.62,-0.13 22.91,-0.38 5.3,-0.25 9.81,-0.79 13.54,-1.62 3.73,-0.82 6.94,-2.1 9.64,-3.81 2.7,-1.72 5.29,-4.16 7.76,-7.34 2.81,-3.43 4.99,-7.24 6.53,-11.43 1.54,-4.19 2.84,-9.34 3.9,-15.44 2.51,-14.49 5.47,-31.57 8.88,-51.27l3.77 -21.72c1.06,-6.1 1.53,-11.15 1.41,-15.15 -0.12,-4 -0.99,-7.72 -2.62,-11.15 -1.35,-3.3 -3.04,-5.84 -5.06,-7.62 -2.02,-1.78 -4.73,-3.05 -8.1,-3.81 -3.38,-0.76 -7.56,-1.24 -12.56,-1.43 -4.99,-0.19 -12.74,-0.29 -23.25,-0.29 -10.5,0 -18.28,0.1 -23.34,0.29 -5.06,0.19 -9.45,0.66 -13.17,1.43 -3.72,0.76 -6.92,2.03 -9.59,3.81 -2.68,1.78 -5.26,4.32 -7.76,7.62 -2.81,3.43 -4.98,7.15 -6.48,11.15 -1.51,4 -2.79,9.05 -3.85,15.15l-12.64 73zm36.04 -66.52c0.49,-2.8 1.48,-5.02 2.99,-6.67 1.5,-1.65 3.7,-2.48 6.58,-2.48 29.06,0 45.62,0 49.7,0 3.1,0 5.12,0.64 6.04,1.91 0.93,1.27 1.08,3.68 0.46,7.24l-7.53 43.45 -2.98 17.15c-0.41,2.41 -1.44,4.41 -3.09,6 -1.64,1.59 -3.91,2.38 -6.79,2.38 -28.84,0 -45.29,0 -49.36,0 -3.11,0 -5.11,-0.6 -6.01,-1.81 -0.9,-1.2 -1.07,-3.4 -0.52,-6.57l10.5 -60.61z"/>
    </g>
   </g>
  </g>
  <path class="fil5" d="M202.96 0l2446.28 0c111.63,0 202.96,91.33 202.96,202.96l0 1542.45c0,111.63 -91.33,202.96 -202.96,202.96l-2446.28 0c-111.63,0 -202.96,-91.33 -202.96,-202.96l0 -1542.45c0,-111.63 91.33,-202.96 202.96,-202.96z"/>
 </g>
</svg>
