<?xml version="1.0" encoding="UTF-8"?>
<!DOCTYPE svg PUBLIC "-//W3C//DTD SVG 1.1//EN" "http://www.w3.org/Graphics/SVG/1.1/DTD/svg11.dtd">
<!-- Creator: CorelDRAW (Evaluation Version) -->
<svg xmlns="http://www.w3.org/2000/svg" xml:space="preserve" width="52.3314mm" height="35.7481mm" version="1.1" style="shape-rendering:geometricPrecision; text-rendering:geometricPrecision; image-rendering:optimizeQuality; fill-rule:evenodd; clip-rule:evenodd"
viewBox="0 0 874.52 597.39"
 xmlns:xlink="http://www.w3.org/1999/xlink"
 xmlns:xodm="http://www.corel.com/coreldraw/odm/2003">
 <defs>
  <style type="text/css">
   <![CDATA[
    .fil5 {fill:none}
    .fil1 {fill:white}
    .fil0 {fill:white}
    .fil3 {fill:#EE3338}
    .fil4 {fill:#317F50;fill-rule:nonzero}
    .fil2 {fill:#3F4096;fill-rule:nonzero}
   ]]>
  </style>
   <clipPath id="id0">
    <path d="M62.23 0l750.06 0c34.23,0 62.23,28 62.23,62.23l0 472.93c0,34.23 -28,62.23 -62.23,62.23l-750.06 0c-34.23,0 -62.23,-28 -62.23,-62.23l0 -472.93c0,-34.23 28,-62.23 62.23,-62.23z"/>
   </clipPath>
    <clipPath id="id1">
     <path d="M842.16 7.69c15.21,8.64 26.7,23.87 31.1,42.07 0.83,4.03 1.27,8.2 1.27,12.47l0 472.93c0,4.26 -0.44,8.43 -1.26,12.46 -4.42,18.31 -16.02,33.61 -31.36,42.22 -8.82,4.81 -18.91,7.55 -29.61,7.55l-750.06 0c-10.67,0 -20.74,-2.72 -29.54,-7.51 -15.38,-8.62 -27.01,-23.95 -31.43,-42.3 -0.82,-4.02 -1.25,-8.17 -1.25,-12.42l0 -472.93c0,-4.25 0.43,-8.41 1.26,-12.42 4.42,-18.33 16.03,-33.65 31.39,-42.27 8.81,-4.8 18.9,-7.53 29.59,-7.53l750.06 0c10.81,0 20.99,2.79 29.87,7.69z"/>
    </clipPath>
    <clipPath id="id2">
     <path d="M62.23 0l750.06 0c34.23,0 62.23,28 62.23,62.23l0 472.93c0,34.23 -28,62.23 -62.23,62.23l-750.06 0c-34.23,0 -62.23,-28 -62.23,-62.23l0 -472.93c0,-34.23 28,-62.23 62.23,-62.23z"/>
    </clipPath>
 </defs>
 <g id="Camada_x0020_1">
  <metadata id="CorelCorpID_0Corel-Layer"/>
  <path class="fil0" d="M62.23 0l750.06 0c34.23,0 62.23,28 62.23,62.23l0 472.93c0,34.23 -28,62.23 -62.23,62.23l-750.06 0c-34.23,0 -62.23,-28 -62.23,-62.23l0 -472.93c0,-34.23 28,-62.23 62.23,-62.23z"/>
  <g style="clip-path:url(#id0)">
   <g id="_105553211646848">
    <path id="_1" class="fil1" d="M61.22 -0l752.08 0c34.05,0 61.91,29.81 61.91,66.25l0 464.9c0,36.44 -27.86,66.25 -61.91,66.25l-752.08 0c-34.05,0 -61.91,-29.81 -61.91,-66.25l0 -464.9c0,-36.44 27.86,-66.25 61.91,-66.25z"/>
   </g>
   <g style="clip-path:url(#id1)">
    <g>
     <g>
      <path id="_2" class="fil2" d="M119.06 154.12l13.65 -1.27c0.29,3.3 0.9,5.81 1.81,7.55 1.47,2.8 3.59,4.19 6.34,4.19 2.04,0 3.62,-0.71 4.73,-2.14 1.1,-1.43 1.65,-3.09 1.65,-4.98 0,-1.79 -0.52,-3.4 -1.58,-4.81 -1.06,-1.42 -3.5,-2.75 -7.35,-4.01 -6.29,-2.11 -10.78,-4.9 -13.46,-8.39 -2.7,-3.49 -4.05,-7.94 -4.05,-13.35 0,-3.56 0.69,-6.92 2.08,-10.08 1.39,-3.16 3.46,-5.64 6.24,-7.46 2.78,-1.8 6.58,-2.7 11.42,-2.7 5.93,0 10.46,1.64 13.58,4.93 3.11,3.29 4.96,8.52 5.56,15.68l-13.53 1.17c-0.36,-3.11 -1.11,-5.38 -2.27,-6.79 -1.15,-1.4 -2.74,-2.11 -4.76,-2.11 -1.67,0 -2.93,0.51 -3.77,1.58 -0.84,1.05 -1.26,2.33 -1.26,3.85 0,1.09 0.34,2.08 1.04,2.96 0.68,0.92 2.28,1.76 4.82,2.55 6.27,2.01 10.76,4.06 13.47,6.12 2.72,2.06 4.69,4.6 5.93,7.66 1.23,3.04 1.86,6.46 1.86,10.24 0,4.43 -0.83,8.52 -2.47,12.25 -1.64,3.75 -3.95,6.58 -6.91,8.52 -2.95,1.93 -6.68,2.9 -11.18,2.9 -7.89,0 -13.36,-2.25 -16.4,-6.79 -3.05,-4.53 -4.77,-10.27 -5.17,-17.26zm90.38 -46.28l14.32 0 0 41.23c0,4.09 -0.43,7.94 -1.29,11.58 -0.85,3.62 -2.2,6.81 -4.02,9.53 -1.83,2.72 -3.74,4.62 -5.75,5.73 -2.79,1.53 -6.13,2.3 -10.05,2.3 -2.26,0 -4.72,-0.23 -7.39,-0.71 -2.67,-0.47 -4.9,-1.4 -6.69,-2.8 -1.79,-1.4 -3.44,-3.4 -4.93,-5.97 -1.49,-2.58 -2.51,-5.23 -3.06,-7.97 -0.89,-4.4 -1.33,-8.29 -1.33,-11.69l0 -41.23 14.32 0 0 42.22c0,3.78 0.7,6.73 2.1,8.84 1.41,2.13 3.35,3.19 5.85,3.19 2.47,0 4.41,-1.05 5.82,-3.14 1.39,-2.08 2.1,-5.06 2.1,-8.89l0 -42.22zm34.58 0l23.85 0c5.19,0 9.08,1.83 11.67,5.52 2.58,3.67 3.88,8.92 3.88,15.7 0,6.99 -1.41,12.45 -4.23,16.38 -2.82,3.93 -7.13,5.89 -12.91,5.89l-7.85 0 0 25.67 -14.41 0 0 -69.16zm14.41 29.48l3.51 0c2.77,0 4.7,-0.71 5.83,-2.14 1.11,-1.43 1.68,-3.27 1.68,-5.49 0,-2.17 -0.49,-4.03 -1.46,-5.52 -0.96,-1.52 -2.79,-2.27 -5.47,-2.27l-4.09 0 0 15.43zm43.28 -29.48l38.44 0 0 14.77 -24.07 0 0 11 22.33 0 0 14.1 -22.33 0 0 13.62 24.77 0 0 15.67 -39.15 0 0 -69.16zm57.88 69.16l0 -69.16 23.91 0c4.44,0 7.83,0.56 10.16,1.7 2.34,1.13 4.24,3.22 5.68,6.3 1.44,3.06 2.15,6.79 2.15,11.19 0,3.85 -0.55,7.15 -1.64,9.93 -1.1,2.79 -2.62,5.04 -4.53,6.78 -1.23,1.1 -2.91,2.01 -5.04,2.72 1.71,0.85 2.95,1.71 3.74,2.56 0.52,0.56 1.29,1.77 2.29,3.62 1.01,1.87 1.67,3.29 2.01,4.3l6.94 20.05 -16.22 0 -7.67 -21.14c-0.97,-2.72 -1.84,-4.51 -2.61,-5.33 -1.03,-1.06 -2.2,-1.59 -3.51,-1.59l-1.27 0 0 28.06 -14.41 0zm14.41 -41.14l6.05 0c0.65,0 1.92,-0.31 3.8,-0.93 0.95,-0.29 1.73,-1.01 2.33,-2.17 0.59,-1.16 0.9,-2.49 0.9,-4.01 0,-2.24 -0.48,-3.94 -1.43,-5.14 -0.95,-1.21 -2.74,-1.8 -5.35,-1.8l-6.31 0 0 14.06zm46.52 -28.02l18.88 0 7.29 42.07 7.25 -42.07 18.81 0 0 69.16 -11.72 0 0 -52.73 -9.09 52.73 -10.61 0 -9.06 -52.73 0 52.73 -11.75 0 0 -69.16zm72.17 0l38.45 0 0 14.77 -24.07 0 0 11 22.33 0 0 14.1 -22.33 0 0 13.62 24.77 0 0 15.67 -39.15 0 0 -69.16zm57.88 69.16l0 -69.16 23.91 0c4.43,0 7.83,0.56 10.16,1.7 2.35,1.13 4.24,3.22 5.68,6.3 1.44,3.06 2.15,6.79 2.15,11.19 0,3.85 -0.55,7.15 -1.64,9.93 -1.1,2.79 -2.61,5.04 -4.53,6.78 -1.23,1.1 -2.91,2.01 -5.04,2.72 1.71,0.85 2.95,1.71 3.74,2.56 0.52,0.56 1.29,1.77 2.29,3.62 1,1.87 1.67,3.29 2.01,4.3l6.94 20.05 -16.22 0 -7.67 -21.14c-0.97,-2.72 -1.84,-4.51 -2.61,-5.33 -1.03,-1.06 -2.21,-1.59 -3.51,-1.59l-1.27 0 0 28.06 -14.41 0zm14.41 -41.14l6.06 0c0.65,0 1.91,-0.31 3.79,-0.93 0.95,-0.29 1.73,-1.01 2.34,-2.17 0.59,-1.16 0.9,-2.49 0.9,-4.01 0,-2.24 -0.48,-3.94 -1.43,-5.14 -0.95,-1.21 -2.74,-1.8 -5.35,-1.8l-6.31 0 0 14.06zm76.42 12.88l12.57 5.67c-0.84,5.25 -2.17,9.63 -3.99,13.16 -1.82,3.53 -4.07,6.18 -6.77,7.97 -2.69,1.8 -6.12,2.69 -10.27,2.69 -5.05,0 -9.18,-1.09 -12.37,-3.27 -3.2,-2.19 -5.97,-6.04 -8.29,-11.54 -2.31,-5.51 -3.48,-12.55 -3.48,-21.13 0,-11.45 2.04,-20.25 6.13,-26.39 4.09,-6.15 9.87,-9.23 17.34,-9.23 5.85,0 10.44,1.75 13.8,5.28 3.35,3.53 5.84,8.94 7.46,16.23l-12.67 4.2c-0.44,-2.11 -0.91,-3.66 -1.39,-4.64 -0.8,-1.63 -1.78,-2.88 -2.94,-3.77 -1.17,-0.88 -2.47,-1.32 -3.9,-1.32 -3.24,0 -5.74,1.95 -7.47,5.85 -1.31,2.9 -1.97,7.44 -1.97,13.64 0,7.68 0.79,12.93 2.35,15.78 1.57,2.85 3.76,4.27 6.59,4.27 2.75,0 4.82,-1.14 6.22,-3.45 1.41,-2.28 2.42,-5.62 3.06,-10zm58.93 16.84l-16.35 0 -2.25 11.42 -14.66 0 17.45 -69.16 15.64 0 17.46 69.16 -15.02 0 -2.28 -11.42zm-3 -14.96l-5.14 -24.86 -5.11 24.86 10.24 0zm35.9 -42.78l21.32 0c4.19,0 7.59,0.85 10.18,2.54 2.59,1.71 4.73,4.14 6.41,7.31 1.69,3.19 2.91,6.88 3.67,11.09 0.76,4.22 1.14,8.68 1.14,13.4 0,7.39 -0.56,13.12 -1.7,17.2 -1.12,4.07 -2.69,7.49 -4.7,10.23 -2,2.75 -4.15,4.59 -6.45,5.51 -3.15,1.26 -6,1.88 -8.55,1.88l-21.32 0 0 -69.16zm14.35 15.67l0 37.78 3.51 0c3.01,0 5.14,-0.48 6.4,-1.48 1.27,-0.98 2.26,-2.72 2.98,-5.18 0.72,-2.46 1.07,-6.47 1.07,-12.01 0,-7.33 -0.8,-12.34 -2.4,-15.04 -1.61,-2.71 -4.27,-4.06 -7.99,-4.06l-3.58 0zm44.93 18.95c0,-11.29 2.12,-20.08 6.34,-26.36 4.23,-6.3 10.11,-9.44 17.65,-9.44 7.73,0 13.69,3.09 17.87,9.27 4.17,6.17 6.27,14.83 6.27,25.96 0,8.08 -0.92,14.72 -2.75,19.88 -1.83,5.17 -4.47,9.19 -7.91,12.08 -3.46,2.88 -7.75,4.31 -12.91,4.31 -5.23,0 -9.57,-1.24 -13.01,-3.72 -3.42,-2.5 -6.2,-6.43 -8.34,-11.8 -2.13,-5.38 -3.2,-12.11 -3.2,-20.19zm14.36 0.1c0,6.99 0.87,11.99 2.61,15.06 1.74,3.04 4.12,4.57 7.11,4.57 3.08,0 5.47,-1.5 7.16,-4.48 1.68,-2.99 2.54,-8.36 2.54,-16.08 0,-6.52 -0.89,-11.27 -2.65,-14.28 -1.76,-2.99 -4.15,-4.49 -7.18,-4.49 -2.89,0 -5.21,1.51 -6.96,4.57 -1.75,3.04 -2.63,8.1 -2.63,15.14z"/>
      <path class="fil3" d="M24.3 100.58c75.48,-1.42 75.71,278.66 104.73,311.64 25.59,22.54 403.84,-100.98 721.18,63.96 -479.45,-104.17 -624.35,-1.29 -728.93,-27.31 -44.56,-10.92 -40.3,-303.72 -96.98,-348.3z"/>
      <path class="fil3" d="M270.16 200.36l-159.24 0 18.59 188.46 140.65 0 0 -188.46zm-141.33 7.08l0 30.52 -10.5 0 -3.1 -30.52 13.6 0zm0 37.55l0 28.93 -6.84 0 -2.94 -28.93 9.78 0zm0 35.95l0 28.93 -3.19 0 -2.94 -28.93 6.13 0zm0 35.95l0 24.42 -2.48 -24.42 2.48 0zm3.39 57.81l0 -21.86 15.15 0 0 28.9 -14.43 0 -0.72 -7.05zm0 -28.88l0 -28.93 15.15 0 0 28.93 -15.15 0zm0 -35.95l0 -28.93 15.15 0 0 28.93 -15.15 0zm0 -35.95l0 -28.93 15.15 0 0 28.93 -15.15 0zm0 -35.95l0 -30.52 15.15 0 0 30.52 -15.15 0zm134.53 107.85l-11.04 0 0 -28.93 11.04 0 0 28.93zm-14.43 0l-14.1 0 0 -28.93 14.1 0 0 28.93zm-17.49 0l-14.1 0 0 -28.93 14.1 0 0 28.93zm-17.49 0l-14.1 0 0 -28.93 14.1 0 0 28.93zm-17.49 0l-14.1 0 0 -28.93 14.1 0 0 28.93zm-17.49 0l-14.1 0 0 -28.93 14.1 0 0 28.93zm-17.49 0l-14.1 0 0 -28.93 14.1 0 0 28.93zm-14.1 7.02l14.1 0 0 28.9 -14.1 0 0 -28.9zm17.49 0l14.1 0 0 28.9 -14.1 0 0 -28.9zm17.49 0l14.1 0 0 28.9 -14.1 0 0 -28.9zm17.49 0l14.1 0 0 28.9 -14.1 0 0 -28.9zm17.49 0l14.1 0 0 28.9 -14.1 0 0 -28.9zm17.49 0l14.1 0 0 28.9 -14.1 0 0 -28.9zm17.49 0l11.04 0 0 28.9 -11.04 0 0 -28.9zm11.04 -42.97l-11.04 0 0 -28.93 11.04 0 0 28.93zm-14.43 0l-14.1 0 0 -28.93 14.1 0 0 28.93zm-17.49 0l-14.1 0 0 -28.93 14.1 0 0 28.93zm-17.49 0l-14.1 0 0 -28.93 14.1 0 0 28.93zm-17.49 0l-14.1 0 0 -28.93 14.1 0 0 28.93zm-17.49 0l-14.1 0 0 -28.93 14.1 0 0 28.93zm-17.49 0l-14.1 0 0 -28.93 14.1 0 0 28.93zm101.89 -35.95l-11.04 0 0 -28.93 11.04 0 0 28.93zm-14.43 0l-14.1 0 0 -28.93 14.1 0 0 28.93zm-17.49 0l-14.1 0 0 -28.93 14.1 0 0 28.93zm-17.49 0l-14.1 0 0 -28.93 14.1 0 0 28.93zm-17.49 0l-14.1 0 0 -28.93 14.1 0 0 28.93zm-17.49 0l-14.1 0 0 -28.93 14.1 0 0 28.93zm-17.49 0l-14.1 0 0 -28.93 14.1 0 0 28.93zm-14.1 -35.95l0 -30.52 14.1 0 0 30.52 -14.1 0zm17.49 0l0 -30.52 14.1 0 0 30.52 -14.1 0zm98.5 0l-11.04 0 0 -30.52 11.04 0 0 30.52zm-14.43 0l-14.1 0 0 -30.52 14.1 0 0 30.52zm-17.49 0l-14.1 0 0 -30.52 14.1 0 0 30.52zm-17.49 0l-14.1 0 0 -30.52 14.1 0 0 30.52zm-17.49 0l-14.1 0 0 -30.52 14.1 0 0 30.52z"/>
      <path class="fil3" d="M133.75 462.33c-7.43,0 -13.45,12.47 -13.45,27.86 0,15.38 6.02,27.85 13.45,27.85 7.43,0 13.45,-12.47 13.45,-27.85 0,-15.38 -6.02,-27.86 -13.45,-27.86z"/>
      <path class="fil3" d="M222.43 475.4c-5.68,0 -10.29,9.55 -10.29,21.32 0,11.77 4.61,21.32 10.29,21.32 5.69,0 10.3,-9.55 10.3,-21.32 0,-11.77 -4.61,-21.32 -10.3,-21.32z"/>
      <path class="fil4" d="M380.43 239.09c0.69,1.65 0.81,4.08 0.3,7.21l-3.04 19.49c-2.03,12.84 -2.5,27.04 -1.4,42.58 1.08,15.58 3.61,29.67 7.59,42.35 1.55,5 0.25,7.51 -3.93,7.51 -4.93,0 -9.76,-1.71 -14.5,-5.11 -4.72,-3.43 -8.19,-7.51 -10.39,-12.25 -0.64,-1.35 -1.41,-2.04 -2.27,-2.04 -0.69,0 -1.26,0.69 -1.74,2.11 -4.08,11.33 -11.31,16.99 -21.7,16.99 -7.8,0 -15.14,-2.93 -21.99,-8.79 -6.08,-5.2 -10.76,-11.66 -13.99,-19.36 -4.89,-11.66 -7.15,-25.69 -6.82,-42.08 0.27,-13.77 2.19,-26.54 5.71,-38.4 1.46,-4.74 2.27,-7.84 2.47,-9.26 0.17,-1.42 -0.03,-3.03 -0.56,-4.81 -0.9,-2.96 0.23,-5.2 3.45,-6.75 2.39,-1.22 5.37,-1.84 9.03,-1.84 3.9,0 8.45,1.88 13.65,5.63 5.18,3.79 8.15,6.59 8.94,8.46 0.68,1.62 0.38,4.12 -0.89,7.51 -1.53,4.25 -3.19,9.25 -5.01,15.05 -2.49,8.03 -4.08,16.6 -4.8,25.65 -0.34,3.89 -0.41,8.33 -0.23,13.44 0.22,7.44 1.28,13.4 3.14,17.85 1.39,3.33 3.34,5 5.83,5 6.42,0 11.38,-11.89 14.9,-35.66 1.3,-8.6 2.46,-18.57 3.45,-29.87 0.64,-7.44 1.29,-12.81 1.91,-16.1 1.3,-7.12 3.07,-11.86 5.42,-14.16 1.91,-1.88 4.38,-2.8 7.42,-2.8 3.69,0 7.51,1.45 11.42,4.34 1.17,0.89 3.22,2.57 6.14,5.01 1.29,1.09 2.09,2.11 2.51,3.09zm135.03 0.49c0.48,1.15 0.66,2.31 0.45,3.46 -1.8,6.82 -4.13,17.22 -7.04,31.18 -1.82,12.35 -2.61,26.28 -2.41,41.72 0.19,11.72 1.52,20.91 3.99,27.6 1.35,3.56 1.82,5.83 1.37,6.88 -2,5.2 -6.46,7.81 -13.4,7.81 -6.87,0 -13.43,-3.72 -19.68,-11.2 -3.42,-4.11 -7.38,-11.59 -11.92,-22.39 -0.77,-1.84 -3.2,-8.03 -7.25,-18.51l-2.52 -6.49c-1.05,-2.5 -1.92,-3.75 -2.61,-3.75 -0.72,0 -1.22,0.79 -1.41,2.4 -0.46,3.43 -0.3,9.48 0.47,18.25 0.26,2.83 0.91,7.34 2.01,13.5 1.84,6.95 3.63,14.32 5.35,22.13 -0.19,1.78 -1.51,3.33 -3.93,4.61 -2.21,1.15 -4.48,1.75 -6.83,1.75 -3.59,0 -8.2,-2.6 -13.8,-7.81 -2.77,-2.57 -4.79,-4.68 -6.09,-6.29 -0.96,-1.22 -1.78,-2.6 -2.43,-4.15 -1.75,-4.18 -2.93,-12.25 -3.49,-24.2 -0.46,-9.98 -0.25,-22.98 0.63,-38.99 0.63,-10.27 1.82,-20.75 3.66,-31.35 1.06,-6.12 1.96,-10.14 2.71,-12.05 1.88,-4.97 4.82,-7.44 8.72,-7.44 2.48,0 5.39,0.82 8.75,2.5l4.63 2.4 5.73 2.8c2.42,1.42 4.04,3.13 4.88,5.14 0.46,1.09 1.3,5.07 2.5,11.95 0.89,5.01 2.12,10.57 3.76,16.7 1.57,5.8 2.99,10.24 4.31,13.4 0.73,1.74 1.47,2.6 2.2,2.6 0.83,0 1.34,-2.9 1.64,-8.69 0.14,-3.79 0.58,-8.49 1.24,-14.16 0.91,-8.37 1.56,-13.73 1.93,-16.14 1.18,-6.98 2.7,-11.82 4.62,-14.49 1.92,-2.67 4.49,-4.02 7.74,-4.02 2.83,0 5.97,1.15 9.44,3.49l4.49 2.96c4.42,2.96 6.94,5.27 7.62,6.88zm77.36 1.61c0.59,1.42 0.73,2.96 0.43,4.64l-3.3 18.14c-2.34,12.78 -3.02,28.58 -2.09,47.35 0.39,7.84 1.11,14.43 2.12,19.69 1,5.27 2.4,10.08 4.23,14.46 1.1,2.64 1.51,4.51 1.24,5.6 -0.55,2.07 -1.91,3.75 -4.11,5.1 -2.16,1.35 -4.53,2.04 -7.19,2.04 -3.76,0 -8.3,-2.17 -13.55,-6.55 -3.63,-2.96 -5.83,-4.84 -6.59,-5.6 -1.9,-1.48 -3.5,-3.72 -4.77,-6.75 -1.22,-2.9 -2.13,-7.38 -2.69,-13.4 -0.27,-2.54 -0.41,-6.98 -0.49,-13.44 -0.07,-5.66 -0.03,-12.74 0.07,-21.31 0.06,-3.56 0.28,-8.13 0.7,-13.8l0.18 -2.2c0.37,-5.04 0.77,-9.19 1.13,-12.45 1.42,-12.41 2.04,-19.73 1.96,-21.9 -0.06,-1.05 -0.21,-2.24 -0.5,-3.59 -0.59,-2.96 -0.09,-5.24 1.47,-6.85 2.48,-2.57 5.81,-3.85 9.92,-3.85 2.97,0 7.9,2.47 14.86,7.44 3.76,2.7 6.08,5.1 6.96,7.21zm112.26 0.53c0.65,1.55 1.15,4.81 1.47,9.74 1.17,17.85 3.83,35.2 8.01,52.1 2.88,11.72 6.31,22.26 10.25,31.68 0.62,1.48 1.72,3.69 3.31,6.65 1.55,2.96 2.66,5.2 3.29,6.69 1.56,3.72 0.51,6.49 -3.18,8.3 -1.84,0.89 -3.89,1.35 -6.1,1.35 -4.66,0 -10.54,-2.57 -17.59,-7.71 -4.27,-3.1 -7.54,-7.35 -9.8,-12.75 -1.37,-3.26 -2.62,-6.82 -3.72,-10.6 -11.89,0.62 -19.61,1.71 -23.21,3.26 -1.68,0.69 -2.67,3.09 -3.07,7.18 -0.34,3.39 -0.32,6.72 0.04,9.98 0.44,3.76 0.48,6.16 0.18,7.18 -0.45,2.3 -2.17,3.46 -5.14,3.46 -4.25,0 -9.21,-2.04 -14.88,-6.09 -5.67,-4.05 -9.37,-8.1 -11.07,-12.15 -1.62,-3.85 -1.73,-8.83 -0.4,-14.95 -3.21,-3.79 -5.21,-6.65 -6.01,-8.56 -1.16,-2.77 0.09,-4.87 3.82,-6.29 2.5,-0.96 4.16,-2.5 5.04,-4.61 0.19,-0.53 0.7,-2.93 1.51,-7.25 2.12,-11.33 6.34,-24.14 12.68,-38.5 6.53,-14.79 12.8,-25.19 18.79,-31.15 2.89,-2.9 5.98,-4.35 9.29,-4.35 2.14,0 4.08,0.43 5.76,1.32 1.67,0.86 4.94,2.96 9.77,6.32l5 3.46c3.14,2.21 5.11,4.28 5.95,6.29zm-23.43 34.01c-0.26,-0.62 -0.71,-0.95 -1.3,-0.95 -0.69,0 -1.22,0.46 -1.63,1.45 -0.27,0.43 -0.64,1.28 -1.06,2.5 -0.1,0.26 -0.63,1.61 -1.65,4.05 -0.38,1.15 -0.87,2.37 -1.4,3.65 -0.34,0.92 -0.54,1.42 -0.55,1.55l-2.61 9.25c-0.7,2.6 -0.94,4.25 -0.61,5.04 0.29,0.69 0.89,1.05 1.75,1.05 0.69,0 1.16,-0.03 1.37,-0.1l1.7 -0.3c0.92,-0.2 1.76,-0.33 2.52,-0.43 0.72,-0.1 2.7,-0.39 5.93,-0.92 -1.02,-6.62 -1.64,-11.72 -1.88,-15.35 -0.08,-1.58 -0.16,-4.41 -0.34,-8.46 0,-0.99 -0.07,-1.65 -0.24,-2.04zm29.08 -86.21c1.44,3.43 -0.43,7.94 -5.58,13.54 -1.88,2.27 -4.47,5.3 -7.82,9.09 -2.19,2.27 -4.96,3.39 -8.28,3.39 -4.66,0 -9.69,-1.78 -15.08,-5.34 -1.54,-0.79 -4.46,-2.57 -8.84,-5.43 -2.93,-2.14 -5.41,-3.19 -7.52,-3.19 -2.28,0 -4.49,1.32 -6.52,3.95 -1.22,1.78 -2.44,3.56 -3.64,5.3l-2.94 3.36c-0.77,0.89 -1.68,1.35 -2.68,1.35 -1.48,0 -3.41,-0.73 -5.79,-2.21 -3.91,-2.4 -6.38,-4.84 -7.43,-7.34 -1.24,-2.96 0.98,-8.43 6.66,-16.47 2.37,-3.49 5.08,-5.99 8.12,-7.54 3.01,-1.55 5.7,-2.3 7.98,-2.3 3.11,0 6.46,0.59 10.02,1.74 4.23,1.35 9.9,4.08 17,8.17 2.78,1.61 4.99,2.44 6.68,2.44 1.83,0 4.31,-2.47 7.55,-7.34l2.2 -3.39c0.59,-0.89 1.47,-1.35 2.68,-1.35 1.48,0 3.43,0.76 5.81,2.24 3.89,2.37 6.38,4.84 7.43,7.34zm131.47 79.07c6.4,15.25 8.14,31.32 5.26,48.24 -3.03,17.95 -10.22,30.36 -21.48,37.25 -5.48,3.33 -11.68,5 -18.61,5 -9.39,0 -18.37,-3.39 -27.03,-10.21 -8.95,-7.01 -15.6,-15.71 -19.94,-26.05 -5.37,-12.81 -6.85,-27.27 -4.47,-43.4 2.32,-15.71 8.26,-28.95 17.81,-39.75 8.24,-9.32 16.33,-13.99 24.26,-13.99 4.59,0 10.2,2.01 16.77,5.99 5.57,3.33 10.21,7.97 13.83,13.86 1.05,1.68 2.09,3.33 3.18,4.94l4.52 6.65c1.94,2.9 3.92,6.72 5.91,11.46zm-28.51 -7.9c-1.42,-3.39 -3.49,-5.11 -6.18,-5.11 -3.76,0 -7.94,4.51 -12.53,13.5 -5.07,10.04 -7.43,21.54 -7.01,34.54 0.16,5.89 1.04,10.7 2.57,14.36 2.32,5.53 5.48,8.3 9.45,8.3 3.97,0 7.69,-3.65 11.13,-11 1.67,-3.59 2.98,-7.38 3.92,-11.39 1.42,-6.09 2.14,-13.07 2.14,-20.91 -0.04,-9.39 -1.19,-16.83 -3.49,-22.29z"/>
     </g>
    </g>
   </g>
   <g style="clip-path:url(#id2)">
    <path class="fil5" d="M61.22 -0l752.08 0c34.05,0 61.91,29.81 61.91,66.25l0 464.9c0,36.44 -27.86,66.25 -61.91,66.25l-752.08 0c-34.05,0 -61.91,-29.81 -61.91,-66.25l0 -464.9c0,-36.44 27.86,-66.25 61.91,-66.25z"/>
   </g>
  </g>
  <path class="fil5" d="M62.23 0l750.06 0c34.23,0 62.23,28 62.23,62.23l0 472.93c0,34.23 -28,62.23 -62.23,62.23l-750.06 0c-34.23,0 -62.23,-28 -62.23,-62.23l0 -472.93c0,-34.23 28,-62.23 62.23,-62.23z"/>
 </g>
</svg>
