<?xml version="1.0" encoding="UTF-8"?>
<!DOCTYPE svg PUBLIC "-//W3C//DTD SVG 1.1//EN" "http://www.w3.org/Graphics/SVG/1.1/DTD/svg11.dtd">
<!-- Creator: CorelDRAW (Evaluation Version) -->
<svg xmlns="http://www.w3.org/2000/svg" xml:space="preserve" width="52.3314mm" height="35.7481mm" version="1.1" style="shape-rendering:geometricPrecision; text-rendering:geometricPrecision; image-rendering:optimizeQuality; fill-rule:evenodd; clip-rule:evenodd"
viewBox="0 0 2261.05 1544.55"
 xmlns:xlink="http://www.w3.org/1999/xlink"
 xmlns:xodm="http://www.corel.com/coreldraw/odm/2003">
 <defs>
  <style type="text/css">
   <![CDATA[
    .fil11 {fill:none}
    .fil1 {fill:white}
    .fil0 {fill:white}
    .fil8 {fill:#91D9F8}
    .fil9 {fill:#34C4E7}
    .fil10 {fill:#3055A3}
    .fil7 {fill:#00B0F0}
    .fil6 {fill:#0098DB}
    .fil5 {fill:#6666FF}
    .fil3 {fill:#1682B8;fill-rule:nonzero}
    .fil2 {fill:#3055A3;fill-rule:nonzero}
    .fil4 {fill:#201F1F;fill-rule:nonzero}
   ]]>
  </style>
   <clipPath id="id0">
    <path d="M160.9 0l1939.26 0c88.5,0 160.9,72.4 160.9,160.9l0 1222.76c0,88.5 -72.4,160.9 -160.9,160.9l-1939.26 0c-88.5,0 -160.9,-72.4 -160.9,-160.9l0 -1222.76c0,-88.5 72.4,-160.9 160.9,-160.9z"/>
   </clipPath>
 </defs>
 <g id="Camada_x0020_1">
  <metadata id="CorelCorpID_0Corel-Layer"/>
  <path class="fil0" d="M160.9 0l1939.26 0c88.5,0 160.9,72.4 160.9,160.9l0 1222.76c0,88.5 -72.4,160.9 -160.9,160.9l-1939.26 0c-88.5,0 -160.9,-72.4 -160.9,-160.9l0 -1222.76c0,-88.5 72.4,-160.9 160.9,-160.9z"/>
  <g style="clip-path:url(#id0)">
   <g id="_105553211209312">
    <g id="ZICASA.cdr">
     <path id="_1" class="fil1" d="M176.8 1022.82l-160.91 0 0 -91 375.91 0 0 77.13 -177.53 178.94 186.69 0 0 95.21 -400.97 0 0 -81.1 176.8 -179.18zm277.58 260.28l0 -351.28 177.86 0 0 351.28 -177.86 0zm441.85 -277.77c-8.36,-5.59 -25.54,-6.3 -34.99,-6.3 -8.66,0 -28.12,0.78 -35.26,7.1l-0.08 0.07c-1.94,1.69 -3.63,8.27 -4.17,10.75 -2.19,10.21 -2.58,22.07 -2.58,32.53l0 3.88c0,11.39 0.38,24.18 2.62,35.34 0.53,2.62 2.32,10.03 4.32,11.86l0.08 0.07c7.11,6.55 26.34,7.34 35.06,7.34 9,0 26.86,-0.57 34.91,-5.72 4.8,-3.24 5.42,-11.02 5.42,-16.54l0 -23.77 154.27 0 2.33 11.49c0.38,1.92 0.71,3.83 0.88,5.78 0.23,2.58 0.19,5.28 0.19,7.87 0,36.75 -25,58 -54.2,69.77 -19.12,7.71 -40.33,11.86 -60.51,14.5 -27.47,3.6 -55.51,4.67 -83.16,4.67 -32.02,0 -64.86,-1.49 -96.55,-6.84 -22.76,-3.88 -46.99,-10.18 -67.63,-21.64l-0.09 -0.05c-13.34,-7.55 -23.8,-18.63 -30.2,-33.56 -7.44,-17.36 -8.68,-41.63 -8.68,-60.55 0,-18.92 1.23,-43.18 8.68,-60.55 6.4,-14.93 16.87,-26.02 30.23,-33.58 20.35,-11.43 44.42,-17.67 66.89,-21.58 31.19,-5.43 63.55,-6.94 95.1,-6.94 44.73,0 101.76,2.58 144.06,19.72 29.2,11.79 55.32,33.01 55.32,70.04l0 16.7 -154.9 -0.16 -0.5 -14.09c-0.23,-6.51 -1.45,-13.87 -6.85,-17.6zm412.67 126.24l-86.85 0 -16.44 39.5 -166.96 0 141.09 -235.42 171.87 0 139.51 235.42 -165.65 0 -16.57 -39.5zm-60.79 -66.53l34.12 0 -17 -40.35 -17.12 40.35zm320.46 6.81c-5.67,-1.57 -11.33,-3.18 -16.97,-4.85 -11.77,-3.49 -25.64,-7.54 -36.72,-13.12l-0.16 -0.09 -0.17 -0.09c-9.41,-5.09 -18.51,-11.66 -25.41,-20.42l-0.03 -0.04c-6.7,-8.56 -10.63,-18.73 -10.63,-30.06 0,-31.68 28.41,-47.84 52.28,-56.34 37.52,-13.48 83.26,-16.12 122.51,-16.12 40.77,0 90.24,2.15 129.33,15.81 24.75,8.69 52.48,25.28 52.48,57.73 0,2.05 -0.26,4.09 -0.61,6.1l-0.01 0.07c-0.05,0.26 -0.1,0.55 -0.13,0.83l0 14.39 -94.89 0c11.27,2.83 22.51,5.85 33.61,9.22 11.17,3.4 24.2,7.52 34.53,13.31l0.13 0.08 0.13 0.08c8.57,5.07 16.78,11.54 22.8,20.04 5.91,8.35 9.21,18 9.21,28.59 0,33.62 -27.23,51.7 -53.07,61.51 -39.37,14.87 -89.15,17.52 -130.5,17.52 -25.56,0 -51.41,-0.95 -76.82,-4.1 -18.94,-2.35 -38.62,-5.99 -56.74,-12.66 -26.02,-9.68 -52.27,-27.77 -52.27,-61.5 0,-1.87 0.02,-3.71 0.19,-5.57 0.26,-3.08 1.04,-6.33 1.75,-9.33l2.59 -11.01 93.61 0zm54.61 13.91l-3.1 -0.73 0 7.52c0,4.46 0.55,8.88 4.35,11.26 6.97,4.42 22.5,4.98 30.33,4.98 8.68,0 19.88,-0.68 28.04,-4.25l0.07 -0.03c0.1,-0.04 0.21,-0.1 0.34,-0.15 -3.19,-1.8 -7.12,-3.5 -8.89,-4.21 -11.59,-4.69 -24.33,-7.96 -36.41,-10.78l-0.1 -0.02 -0.09 -0.02c-4.85,-1.21 -9.7,-2.4 -14.55,-3.57zm65.63 -72.08l0 -5.25c0,-3.88 -1.54,-5.75 -4.58,-7.58 -7.4,-4.43 -19.11,-5.18 -27.34,-5.18 -6.68,0 -14.8,0.48 -21.64,2.57 14.06,6.09 40.29,12.35 47.58,14l0.15 0.04c1.94,0.47 3.88,0.94 5.82,1.4zm390.02 117.9l-86.85 0 -16.44 39.5 -166.96 0 141.09 -235.42 171.87 0 139.51 235.42 -165.65 0 -16.57 -39.5zm-60.78 -66.53l34.12 0 -17 -40.35 -17.12 40.35z"/>
     <path class="fil2" d="M13.39 1268.42l0 -60 197.62 -200.27 -181.73 0 0 -61.65 349.13 0 0 56.01 -198.48 200.06 207.65 0 0 65.85 -374.19 0zm454.39 0l0 -321.92 151.08 0 0 321.92 -151.08 0z"/>
     <path class="fil3" d="M914.96 1076.61l130.14 0c0.25,1.24 0.5,2.61 0.63,4.02 0.13,1.41 0.13,3.56 0.13,6.44 0,25.16 -15.19,43.8 -45.43,55.99 -30.25,12.19 -76.68,18.27 -139.06,18.27 -36.77,0 -68.27,-2.24 -94.5,-6.67 -26.23,-4.48 -47.44,-11.23 -63.63,-20.23 -11.29,-6.39 -19.33,-15.34 -24.22,-26.76 -4.9,-11.42 -7.41,-29.5 -7.41,-54.3 0,-24.8 2.51,-42.88 7.41,-54.3 4.9,-11.42 12.93,-20.37 24.22,-26.76 15.94,-8.95 36.9,-15.62 62.87,-20.14 25.98,-4.52 56.98,-6.76 93,-6.76 62,0 108.43,6.26 139.43,18.82 31,12.51 46.56,31.29 46.56,56.27l0 2.01 -128.64 -0.14c-0.5,-14.02 -4.89,-23.84 -13.18,-29.5 -8.41,-5.66 -22.34,-8.49 -42.04,-8.49 -21.21,0 -35.9,3.47 -43.68,10.37 -7.9,6.9 -11.8,25.16 -11.8,54.76l0 3.88c0,31.83 3.89,51.33 11.8,58.51 7.78,7.17 22.34,10.78 43.68,10.78 19.95,0 33.76,-2.6 41.79,-7.81 7.91,-5.25 11.92,-14.94 11.92,-29.14l0 -9.09z"/>
     <path class="fil3" d="M1227.12 1079.72l76.05 0 -37.9 -89.93 -38.15 89.93zm-163.65 76.68l123.49 -206.06 157.38 0 122.11 206.06 -132.4 0 -16.57 -39.51 -104.04 0 -16.44 39.51 -133.53 0z"/>
     <path class="fil3" d="M1485.34 1086.52l121.36 0 0 6.03c0,11.33 3.64,19.32 11.04,23.98 7.28,4.61 19.7,6.94 37.02,6.94 13.93,0 24.97,-1.78 33.01,-5.3 8.16,-3.52 12.17,-8.31 12.17,-14.38 0,-10 -19.7,-19.55 -59.24,-28.78 -6.4,-1.59 -11.29,-2.78 -14.68,-3.61l-6.27 -1.46c-53.09,-13.01 -86.22,-22.83 -99.27,-29.41 -9.29,-5.02 -16.31,-10.64 -21.21,-16.85 -4.9,-6.26 -7.41,-13.11 -7.41,-20.51 0,-18 14.31,-32.15 43.05,-42.39 28.62,-10.27 68.15,-15.39 118.35,-15.39 54.72,0 96.38,5.02 125.25,15.12 28.74,10.09 43.17,24.66 43.17,43.75 0,0.82 -0.13,1.92 -0.38,3.38 -0.25,1.42 -0.38,2.51 -0.38,3.34l-118.72 0 0 -2.56c0,-9 -3.89,-15.85 -11.54,-20.46 -7.78,-4.66 -18.95,-6.99 -33.76,-6.99 -12.42,0 -22.59,1.65 -30.12,4.89 -7.66,3.24 -11.42,7.58 -11.42,12.93 0,8.72 21.59,17.99 64.76,27.81 7.78,1.87 13.8,3.34 17.95,4.29 3.51,0.73 8.28,1.83 14.43,3.33 46.31,10.73 75.93,19.73 88.98,27.04 8.03,4.75 14.31,10.09 18.57,16.12 4.27,6.03 6.4,12.56 6.4,19.59 0,20.6 -14.69,36.49 -44.05,47.63 -29.49,11.15 -71.54,16.72 -126.13,16.72 -57.35,0 -100.4,-5.34 -129.27,-15.98 -28.74,-10.69 -43.17,-26.54 -43.17,-47.59 0,-1.32 0,-2.74 0.13,-4.2 0.13,-1.46 0.63,-3.84 1.38,-7.03z"/>
     <path class="fil3" d="M1997.06 1079.72l76.05 0 -37.9 -89.93 -38.15 89.93zm-163.65 76.68l123.49 -206.06 157.38 0 122.11 206.06 -132.4 0 -16.57 -39.51 -104.04 0 -16.44 39.51 -133.53 0z"/>
     <path class="fil1" d="M2113.82 1255.04l14.37 -50.15 -4.28 0 -0.16 -5.06c-0.03,-0.79 -0.05,-1.59 -0.05,-2.38 0,-3.99 0.76,-8.17 3.27,-11.68 2.45,-3.43 6.26,-6.03 11.45,-6.03 1.83,0 3.6,0.28 5.28,0.85 1.03,0.34 2.11,0.84 3.16,1.37l0.07 -2.22 19.29 0 0.15 5.07c0.03,0.85 0.04,1.7 0.04,2.54 0,3.95 -0.66,8.24 -3.12,11.77 -0.61,0.87 -1.32,1.67 -2.11,2.39l24.9 86.84 -33.13 0 -2.95 -13 -10.14 0 -2.91 13 -32.68 0 4.72 -16.49c-0.45,0.92 -0.93,1.84 -1.45,2.73 -2.51,4.28 -5.96,8.24 -10.79,11.06 -1.12,0.67 -2.3,1.24 -3.52,1.72 1.3,2.36 1.89,4.9 1.89,7.54 0,2.39 -0.58,4.76 -1.57,7.04 -1.29,2.88 -3.64,5.25 -6.86,6.99 -3.53,1.87 -7.73,2.55 -11.93,2.55 -4.26,0 -8.62,-0.69 -12.72,-1.58l-4.82 -1.05 0 -17.68 3.9 0.99 1.13 -5.8c-0.92,-0.42 -1.8,-0.89 -2.67,-1.41 -6.19,-3.73 -10.18,-9.79 -12.89,-15.44 -2.89,-6.06 -4.22,-12.78 -4.7,-19.39l0 1.23c0,4.79 -0.55,9.57 -1.81,14.26 -1.17,4.37 -3.08,8.62 -6,12.46 -2.44,3.2 -5.56,6.29 -9.64,8.27 -4.98,2.41 -10.62,3.38 -16.41,3.38 -3.65,0 -7.28,-0.34 -10.83,-0.9 -4.34,-0.67 -8.34,-2.06 -11.7,-4.37 -3.32,-2.28 -5.88,-5.25 -7.89,-8.32 -2.19,-3.33 -3.75,-6.86 -4.59,-10.55 -1.07,-4.67 -1.82,-9.48 -1.82,-14.24l0 -16.73c-0.38,1.59 -0.9,3.15 -1.58,4.68 -1.61,3.58 -4,6.93 -7.42,9.67 -0.06,0.05 -0.13,0.1 -0.2,0.15 1.05,1.27 1.98,2.77 2.77,4.04 1.1,1.8 2.26,3.75 2.97,5.63l11.62 29.55 -34.66 0 -8.13 -19.74 0 19.74 -31.77 0 0 -59.28 -17.24 0 0 59.28 -31.68 0 0 -59.28 -15.42 0 0.2 2.16 -12.5 0.96c0.56,0.32 1.1,0.66 1.62,1.01 4.42,2.96 7.63,6.62 9.59,10.92 1.98,4.31 2.8,8.86 2.8,13.43 0,5.44 -1.13,10.79 -3.66,15.86 -2.36,4.74 -5.92,8.97 -11.18,11.99 -5.37,3.1 -11.75,4.29 -18.32,4.29 -10.81,0 -21.02,-2.61 -26.82,-10.24 -3.22,-4.21 -5.22,-8.88 -6.39,-13.7l0 22.6 -28.45 0 -11.53 -22.16 0 22.16 -30.58 0 0 -38.27c-0.41,5.88 -1.44,11.86 -3.63,17.33 -2.4,5.98 -6.16,11.67 -12.02,15.98 -5.9,4.33 -13.15,6.3 -21.16,6.3 -7.65,0 -14.91,-1.56 -20.95,-5.39 -6.22,-3.99 -10.19,-9.86 -12.85,-15.73 -0.79,-1.77 -1.46,-3.58 -2.01,-5.43 -1.04,3.94 -2.5,7.85 -4.61,11.45 -2.51,4.28 -5.96,8.24 -10.79,11.06 -5.02,2.96 -11.01,4.09 -17.2,4.09 -7.17,0 -14.18,-1.3 -19.97,-4.78 -6.19,-3.73 -10.18,-9.79 -12.89,-15.44 -3.85,-8.07 -4.93,-17.32 -4.93,-25.88 0,-10.81 1.7,-23.25 8.86,-32.71 6.27,-8.32 15.73,-13.04 28.06,-13.04 8.97,0 16.95,2.38 22.83,7.83 5.59,5.18 8.71,12.27 10.59,18.95 1.41,-4.8 3.54,-9.41 6.68,-13.53 6.4,-8.39 15.93,-13.25 28.43,-13.25 12.53,0 22.24,4.63 28.72,13.05 5.84,7.6 8.16,16.96 8.84,25.98l0 -37.69 28.3 0 11.64 22.42 0 -22.42 30.62 0 0 53.09 16.1 -1.32c-3.35,-1.83 -6.34,-4.04 -8.68,-6.71 -4.71,-5.36 -6.41,-11.71 -6.41,-18.16 0,-4.59 1.01,-9.1 3.14,-13.38 2.16,-4.34 5.54,-8.04 10.33,-10.79 5.39,-3.08 12.08,-4.07 18.61,-4.07 8.71,0 16.8,2.09 22.56,7.44 2.42,2.25 4.2,4.91 5.51,7.75l0 -13.84 105.32 0c5.41,0 11.45,0.49 16.25,2.56 4.94,2.09 8.16,5.72 10.28,9.72 1.08,2.03 1.85,4.17 2.37,6.34l0 -18.62 31.65 0 0 53.26c0,2.26 0.29,5.41 1.79,7.41 0.5,0.67 0.91,1.08 1.92,1.08 0.99,0 1.4,-0.41 1.9,-1.06 1.49,-1.95 1.77,-5.22 1.77,-7.44l0 -53.26 31.65 0 0 37.87c0.66,-9.06 2.89,-18.58 8.63,-26.17 6.27,-8.32 15.73,-13.04 28.06,-13.04 8.97,0 16.95,2.38 22.83,7.83 6.12,5.67 9.28,13.64 11.1,20.83l1.1 4.36 -28.94 8.45 -1.44 -6.04c-0.29,-1.22 -0.71,-3 -1.35,-4.14 -0.47,-0.84 -1.16,-1.83 -2.04,-2.43 -0.27,-0.18 -0.46,-0.28 -0.81,-0.28 -1.8,0 -3.05,2.36 -3.57,3.4 -1.86,3.63 -2.07,9.72 -2.07,13.58 0,3.87 0.17,12.15 2.35,15.67 0.53,0.85 1.27,1.96 2.63,1.96 1.23,0 1.71,-0.38 2.3,-1.24 1.83,-2.62 2.71,-6.62 3.19,-9.55l1.2 -7.25 28.75 11.41 -0.11 0.58zm-482.7 -23.21l-25.74 7.52 -1.44 -6.04c-0.29,-1.22 -0.71,-3 -1.36,-4.14 -0.47,-0.84 -1.15,-1.83 -2.04,-2.43 -0.26,-0.18 -0.46,-0.28 -0.8,-0.28 -1.8,0 -3.05,2.36 -3.57,3.4 -1.86,3.63 -2.07,9.72 -2.07,13.58 0,3.87 0.17,12.15 2.36,15.67 0.53,0.85 1.27,1.96 2.62,1.96 1.23,0 1.71,-0.38 2.31,-1.24 1.83,-2.62 2.71,-6.62 3.19,-9.55l1.2 -7.25 24.95 9.9c-0.34,-3.06 -0.48,-6.14 -0.48,-9.13 0,-3.89 0.24,-7.95 0.87,-11.99zm30.82 12.1c0,4.04 0.28,11.1 2.64,14.77 0.69,1.05 1.67,2.38 3.36,2.38 1.77,0 2.66,-1.1 3.4,-2.25 2.36,-3.69 2.58,-11.9 2.58,-15.96 0,-3.91 -0.32,-10.3 -2.66,-13.83 -0.75,-1.11 -1.72,-2.35 -3.48,-2.35 -1.54,0 -2.57,1.47 -3.17,2.4 -2.38,3.65 -2.67,10.83 -2.67,14.85zm145.46 -21c-0.13,0.32 -0.16,0.68 -0.16,0.98 0,0.12 0.01,0.19 0.06,0.28 0.38,0.22 1.01,0.45 1.63,0.65 -0.24,-0.66 -0.53,-1.24 -0.89,-1.63 -0.22,-0.23 -0.35,-0.27 -0.65,-0.28zm-1.83 33.33c0.24,1.9 0.69,4.2 1.62,5.77 0.44,0.73 1.06,1.78 2.25,1.78 0.12,0 0.45,-0.01 0.57,-0.05 0.05,-0.03 0.13,-0.12 0.16,-0.15 0.72,-0.82 0.97,-1.71 0.97,-2.7 0,-0.95 -0.25,-1.79 -0.92,-2.58 -0.64,-0.67 -2.9,-1.5 -4.64,-2.07zm131.11 -25.15l1 0c0.66,-0.1 1.53,-0.34 2.25,-0.55 0.42,-0.73 0.54,-1.57 0.54,-2.36 0,-0.58 -0.07,-1.88 -0.45,-2.58 -0.52,-0.1 -1.36,-0.13 -1.75,-0.13l-1.59 0 0 5.62zm-494.95 35.94l19.44 -67.84 30.71 0 25.56 89.12 -33.14 0 -2.95 -13 -10.14 0 -2.91 13 -52.87 0 -8.13 -19.74 0 19.74 -59.09 0 -2.95 -13 -10.14 0 -2.91 13 -32.68 0 12.88 -44.96c-0.96,2.35 -2.25,4.59 -3.93,6.66 -5.08,6.23 -12.94,9.09 -22.21,9.09l-3.59 0 0 29.22 -31.77 0 0 -89.12 37.41 0c8.71,0 15.96,2.84 20.63,8.71 4.79,5.99 6.04,13.7 6.04,20.65 0,2.68 -0.19,5.44 -0.68,8.16l10.75 -37.52 30.72 0 19.75 68.86 0 -68.86 37.49 0c5.41,0 11.45,0.49 16.25,2.56 4.94,2.09 8.16,5.72 10.28,9.72 2.47,4.63 3.3,9.77 3.3,14.76 0,4.39 -0.65,8.88 -2.51,13.05 -1.61,3.58 -3.99,6.93 -7.41,9.67 -0.06,0.05 -0.13,0.1 -0.2,0.15 1.05,1.27 1.98,2.77 2.76,4.04 1.1,1.79 2.26,3.74 2.98,5.65l3.24 8.25zm-159.03 -34.45c0.06,-0.01 0.1,-0.03 0.14,-0.05 0.79,-0.91 0.98,-2.2 0.98,-3.28 0,-1.16 -0.19,-2.49 -0.91,-3.55 -0.06,-0.01 -0.13,-0.03 -0.21,-0.04l0 6.91zm124.61 -1.49l1 0c0.66,-0.1 1.53,-0.34 2.25,-0.55 0.41,-0.73 0.54,-1.57 0.54,-2.36 0,-0.58 -0.07,-1.88 -0.45,-2.58 -0.52,-0.1 -1.37,-0.13 -1.75,-0.13l-1.58 0 0 5.62zm-275.81 21.28l17.09 -1.4c-3.35,-1.83 -6.34,-4.04 -8.68,-6.71 -4.71,-5.36 -6.41,-11.71 -6.41,-18.16 0,-4.59 1.01,-9.1 3.14,-13.38 2.16,-4.34 5.54,-8.04 10.32,-10.79 5.39,-3.08 12.08,-4.07 18.61,-4.07 8.71,0 16.8,2.09 22.56,7.44 6.02,5.6 8.06,13.71 8.74,20.83l0.48 5.07 -12.5 0.96c0.56,0.32 1.1,0.66 1.62,1.01 4.42,2.96 7.63,6.62 9.59,10.92 1.98,4.31 2.8,8.86 2.8,13.43 0,5.44 -1.13,10.79 -3.66,15.86 -2.36,4.74 -5.92,8.97 -11.18,11.99 -5.37,3.1 -11.75,4.29 -18.32,4.29 -10.81,0 -21.02,-2.61 -26.82,-10.24 -4.48,-5.85 -6.6,-12.59 -7.38,-19.35l0 28.25 -59.53 0 -2.95 -13 -10.14 0 -2.91 13 -88.31 0 -8.13 -19.74 0 19.74 -95.42 0 0 -59.28 -16.95 0 0 59.28 -31.68 0 0 -59.28 -18.92 0 0 -29.84 130.4 0 0 27.2 -31.12 0 0 2.13 28.87 0 0 26.45 -28.87 0 0 5.12 31.93 0 0 -60.9 37.49 0c5.41,0 11.45,0.49 16.25,2.56 4.94,2.09 8.16,5.72 10.28,9.72 2.47,4.63 3.3,9.77 3.3,14.76 0,4.39 -0.65,8.88 -2.5,13.05 -1.61,3.58 -4,6.93 -7.42,9.67 -0.06,0.05 -0.13,0.1 -0.2,0.15 1.05,1.27 1.98,2.77 2.77,4.04 1.1,1.8 2.26,3.75 2.97,5.63l5.6 14.25 0 -73.82 31.72 0 0 72.6 20.81 -72.6 30.72 0 20.24 70.56 0 -70.56 31.72 0 0 53.17zm-171.97 -21.28l1 0c0.66,-0.1 1.53,-0.34 2.25,-0.55 0.41,-0.73 0.54,-1.57 0.54,-2.36 0,-0.58 -0.07,-1.88 -0.45,-2.58 -0.52,-0.1 -1.36,-0.13 -1.75,-0.13l-1.59 0 0 5.62zm204.43 -8.18c-0.13,0.32 -0.16,0.68 -0.16,0.98 0,0.12 0.01,0.19 0.06,0.28 0.38,0.22 1.01,0.45 1.63,0.65 -0.24,-0.66 -0.53,-1.24 -0.89,-1.63 -0.22,-0.23 -0.35,-0.27 -0.65,-0.28zm-1.83 33.33c0.24,1.9 0.69,4.2 1.62,5.77 0.44,0.73 1.06,1.78 2.25,1.78 0.12,0 0.45,-0.01 0.57,-0.05 0.05,-0.03 0.13,-0.12 0.16,-0.15 0.72,-0.82 0.97,-1.71 0.97,-2.7 0,-0.95 -0.25,-1.79 -0.92,-2.58 -0.64,-0.67 -2.91,-1.5 -4.65,-2.07zm-425.13 10.4l19.33 -67.44 30.72 0 25.56 89.12 -33.13 0 -2.95 -13 -10.14 0 -2.91 13 -107.13 0 0 -89.12 36.6 0 3.78 19.24 3.77 -19.24 36.51 0 0 67.44zm1445.2 1.9c-3.5,-7.78 -4.52,-16.52 -4.52,-24.73 0,-10.93 1.87,-23.16 9.13,-32.69 6.4,-8.39 15.93,-13.25 28.44,-13.25 12.52,0 22.24,4.63 28.72,13.05 7.21,9.38 9.06,21.46 9.06,32.25 0,7.96 -0.8,16.59 -3.86,24.21 -2.4,5.98 -6.16,11.67 -12.03,15.98 -5.9,4.33 -13.14,6.3 -21.16,6.3 -7.65,0 -14.91,-1.56 -20.94,-5.39 -6.22,-3.99 -10.19,-9.85 -12.85,-15.73zm27.18 -24.62c0,4.04 0.27,11.1 2.64,14.77 0.68,1.05 1.67,2.38 3.36,2.38 1.77,0 2.66,-1.1 3.4,-2.25 2.36,-3.69 2.58,-11.9 2.58,-15.96 0,-3.91 -0.32,-10.3 -2.67,-13.83 -0.74,-1.11 -1.72,-2.35 -3.48,-2.35 -1.54,0 -2.57,1.47 -3.17,2.4 -2.39,3.65 -2.67,10.83 -2.67,14.85z"/>
     <path class="fil4" d="M662.92 1204.41l24.41 0 9.42 47.9 9.38 -47.9 24.33 0 0 78.73 -15.15 0 0 -60.04 -11.76 60.04 -13.71 0 -11.71 -60.04 0 60.04 -15.2 0 0 -78.73zm119.11 65.73l-21.14 0 -2.91 13 -18.96 0 22.56 -78.73 20.23 0 22.58 78.73 -19.42 0 -2.95 -13zm-3.89 -17.03l-6.64 -28.3 -6.6 28.3 13.24 0zm25 -48.7l56.39 0 0 19.45 -18.93 0 0 59.28 -18.55 0 0 -59.28 -18.92 0 0 -19.45zm67.55 0l49.71 0 0 16.81 -31.12 0 0 12.52 28.87 0 0 16.06 -28.87 0 0 15.51 32.03 0 0 17.84 -50.62 0 0 -78.73zm63.65 78.73l0 -78.73 30.92 0c5.73,0 10.12,0.64 13.14,1.94 3.03,1.28 5.48,3.67 7.34,7.17 1.86,3.48 2.78,7.74 2.78,12.74 0,4.38 -0.71,8.14 -2.13,11.31 -1.43,3.18 -3.38,5.74 -5.86,7.72 -1.59,1.24 -3.76,2.29 -6.51,3.1 2.21,0.97 3.82,1.94 4.83,2.91 0.67,0.64 1.66,2.02 2.96,4.13 1.3,2.13 2.16,3.74 2.6,4.9l8.97 22.82 -20.97 0 -9.91 -24.07c-1.26,-3.1 -2.38,-5.13 -3.37,-6.07 -1.33,-1.21 -2.85,-1.81 -4.55,-1.81l-1.63 0 0 31.95 -18.63 0zm18.63 -46.84l7.83 0c0.84,0 2.47,-0.35 4.9,-1.06 1.23,-0.33 2.24,-1.16 3.02,-2.48 0.77,-1.32 1.16,-2.84 1.16,-4.57 0,-2.54 -0.62,-4.49 -1.84,-5.85 -1.23,-1.37 -3.54,-2.05 -6.92,-2.05l-8.15 0 0 16zm49.89 -31.9l18.59 0 0 78.73 -18.59 0 0 -78.73zm71.65 65.73l-21.14 0 -2.91 13 -18.95 0 22.56 -78.73 20.23 0 22.58 78.73 -19.42 0 -2.95 -13zm-3.89 -17.03l-6.64 -28.3 -6.6 28.3 13.24 0zm35.72 -48.7l18.6 0 0 78.73 -18.6 0 0 -78.73zm31.47 52.68l17.66 -1.45c0.38,3.76 1.16,6.61 2.33,8.6 1.9,3.19 4.64,4.77 8.19,4.77 2.64,0 4.68,-0.81 6.12,-2.44 1.43,-1.63 2.14,-3.52 2.14,-5.66 0,-2.04 -0.67,-3.87 -2.04,-5.48 -1.37,-1.62 -4.53,-3.14 -9.51,-4.57 -8.14,-2.4 -13.94,-5.57 -17.4,-9.55 -3.5,-3.98 -5.25,-9.04 -5.25,-15.2 0,-4.05 0.89,-7.88 2.68,-11.48 1.79,-3.59 4.48,-6.42 8.07,-8.49 3.59,-2.05 8.52,-3.08 14.76,-3.08 7.67,0 13.53,1.87 17.56,5.61 4.03,3.74 6.42,9.7 7.19,17.86l-17.49 1.34c-0.46,-3.54 -1.44,-6.12 -2.93,-7.73 -1.48,-1.59 -3.54,-2.4 -6.15,-2.4 -2.16,0 -3.79,0.59 -4.88,1.8 -1.09,1.19 -1.64,2.66 -1.64,4.38 0,1.24 0.45,2.36 1.34,3.37 0.88,1.05 2.95,2 6.23,2.9 8.11,2.29 13.91,4.62 17.42,6.96 3.51,2.35 6.07,5.24 7.66,8.72 1.59,3.47 2.4,7.35 2.4,11.66 0,5.04 -1.08,9.7 -3.2,13.95 -2.12,4.27 -5.1,7.5 -8.93,9.7 -3.82,2.2 -8.64,3.3 -14.46,3.3 -10.21,0 -17.28,-2.57 -21.21,-7.73 -3.94,-5.15 -6.17,-11.7 -6.68,-19.65zm119.68 -52.68l30.84 0c6.71,0 11.74,2.09 15.08,6.29 3.34,4.18 5.02,10.15 5.02,17.87 0,7.96 -1.82,14.17 -5.47,18.64 -3.65,4.47 -9.21,6.71 -16.69,6.71l-10.15 0 0 29.22 -18.63 0 0 -78.73zm18.63 33.56l4.55 0c3.58,0 6.08,-0.81 7.54,-2.44 1.44,-1.63 2.16,-3.72 2.16,-6.25 0,-2.48 -0.63,-4.58 -1.89,-6.29 -1.24,-1.72 -3.6,-2.59 -7.07,-2.59l-5.28 0 0 17.56zm74.63 32.17l-21.14 0 -2.91 13 -18.96 0 22.57 -78.73 20.23 0 22.58 78.73 -19.42 0 -2.95 -13zm-3.88 -17.03l-6.64 -28.3 -6.6 28.3 13.24 0zm35.23 30.03l0 -78.73 30.92 0c5.73,0 10.12,0.64 13.14,1.94 3.03,1.28 5.48,3.67 7.34,7.17 1.86,3.48 2.78,7.74 2.78,12.74 0,4.38 -0.71,8.14 -2.13,11.31 -1.43,3.18 -3.38,5.74 -5.86,7.72 -1.59,1.24 -3.76,2.29 -6.51,3.1 2.21,0.97 3.82,1.94 4.83,2.91 0.67,0.64 1.66,2.02 2.96,4.13 1.3,2.13 2.17,3.74 2.6,4.9l8.97 22.82 -20.97 0 -9.91 -24.07c-1.26,-3.1 -2.38,-5.13 -3.37,-6.07 -1.33,-1.21 -2.85,-1.81 -4.55,-1.81l-1.63 0 0 31.95 -18.63 0zm18.63 -46.84l7.83 0c0.84,0 2.47,-0.35 4.9,-1.06 1.23,-0.33 2.24,-1.16 3.02,-2.48 0.77,-1.32 1.16,-2.84 1.16,-4.57 0,-2.54 -0.62,-4.49 -1.84,-5.85 -1.23,-1.37 -3.54,-2.05 -6.92,-2.05l-8.15 0 0 16zm86.1 33.84l-21.14 0 -2.91 13 -18.96 0 22.57 -78.73 20.23 0 22.58 78.73 -19.42 0 -2.95 -13zm-3.88 -17.03l-6.64 -28.3 -6.6 28.3 13.24 0zm128.11 -2.14l16.26 6.45c-1.09,5.98 -2.81,10.96 -5.16,14.98 -2.35,4.01 -5.27,7.04 -8.75,9.07 -3.48,2.05 -7.91,3.06 -13.28,3.06 -6.53,0 -11.87,-1.24 -15.99,-3.72 -4.14,-2.49 -7.72,-6.87 -10.72,-13.14 -2.99,-6.27 -4.5,-14.28 -4.5,-24.05 0,-13.04 2.64,-23.06 7.93,-30.05 5.28,-7 12.76,-10.5 22.42,-10.5 7.56,0 13.5,2 17.84,6.01 4.33,4.02 7.55,10.18 9.65,18.48l-16.38 4.78c-0.57,-2.4 -1.18,-4.16 -1.81,-5.28 -1.03,-1.85 -2.31,-3.28 -3.8,-4.29 -1.51,-1.01 -3.18,-1.5 -5.05,-1.5 -4.19,0 -7.42,2.22 -9.66,6.65 -1.69,3.3 -2.54,8.47 -2.54,15.52 0,8.74 1.02,14.72 3.03,17.97 2.03,3.24 4.87,4.86 8.51,4.86 3.55,0 6.23,-1.3 8.05,-3.92 1.82,-2.61 3.13,-6.4 3.95,-11.38zm25.73 -7.15c0,-12.85 2.74,-22.86 8.19,-30.01 5.47,-7.17 13.07,-10.74 22.82,-10.74 9.99,0 17.7,3.52 23.11,10.56 5.4,7.02 8.11,16.88 8.11,29.55 0,9.2 -1.19,16.75 -3.55,22.64 -2.36,5.88 -5.77,10.47 -10.23,13.75 -4.48,3.28 -10.02,4.91 -16.69,4.91 -6.77,0 -12.37,-1.41 -16.82,-4.23 -4.43,-2.84 -8.02,-7.31 -10.79,-13.44 -2.75,-6.12 -4.14,-13.78 -4.14,-22.99zm18.57 0.11c0,7.95 1.12,13.65 3.37,17.14 2.25,3.46 5.33,5.2 9.2,5.2 3.98,0 7.07,-1.7 9.25,-5.09 2.18,-3.41 3.28,-9.51 3.28,-18.31 0,-7.43 -1.14,-12.83 -3.42,-16.26 -2.28,-3.41 -5.37,-5.11 -9.29,-5.11 -3.73,0 -6.74,1.72 -9,5.21 -2.27,3.47 -3.4,9.22 -3.4,17.23zm56.57 -39.52l17.33 0 22.61 43.55 0 -43.55 17.49 0 0 78.73 -17.49 0 -22.49 -43.22 0 43.22 -17.45 0 0 -78.73zm69.31 52.68l17.66 -1.45c0.38,3.76 1.16,6.61 2.33,8.6 1.9,3.19 4.64,4.77 8.19,4.77 2.64,0 4.68,-0.81 6.12,-2.44 1.43,-1.63 2.14,-3.52 2.14,-5.66 0,-2.04 -0.67,-3.87 -2.04,-5.48 -1.37,-1.62 -4.53,-3.14 -9.51,-4.57 -8.14,-2.4 -13.94,-5.57 -17.4,-9.55 -3.5,-3.98 -5.25,-9.04 -5.25,-15.2 0,-4.05 0.89,-7.88 2.68,-11.48 1.79,-3.59 4.48,-6.42 8.07,-8.49 3.59,-2.05 8.52,-3.08 14.76,-3.08 7.68,0 13.53,1.87 17.56,5.61 4.03,3.74 6.42,9.7 7.19,17.86l-17.49 1.34c-0.46,-3.54 -1.44,-6.12 -2.93,-7.73 -1.48,-1.59 -3.54,-2.4 -6.15,-2.4 -2.16,0 -3.79,0.59 -4.88,1.8 -1.09,1.19 -1.64,2.66 -1.64,4.38 0,1.24 0.45,2.36 1.34,3.37 0.88,1.05 2.95,2 6.23,2.9 8.11,2.29 13.91,4.62 17.42,6.96 3.51,2.35 6.07,5.24 7.66,8.72 1.59,3.47 2.4,7.35 2.4,11.66 0,5.04 -1.08,9.7 -3.2,13.95 -2.12,4.27 -5.1,7.5 -8.93,9.7 -3.82,2.2 -8.64,3.3 -14.46,3.3 -10.21,0 -17.28,-2.57 -21.21,-7.73 -3.94,-5.15 -6.17,-11.7 -6.68,-19.65zm62.39 -52.68l56.39 0 0 19.45 -18.93 0 0 59.28 -18.55 0 0 -59.28 -18.92 0 0 -19.45zm67.83 78.73l0 -78.73 30.92 0c5.73,0 10.12,0.64 13.14,1.94 3.03,1.28 5.48,3.67 7.34,7.17 1.86,3.48 2.78,7.74 2.78,12.74 0,4.38 -0.72,8.14 -2.13,11.31 -1.43,3.18 -3.38,5.74 -5.86,7.72 -1.59,1.24 -3.76,2.29 -6.52,3.1 2.21,0.97 3.82,1.94 4.84,2.91 0.67,0.64 1.66,2.02 2.96,4.13 1.3,2.13 2.16,3.74 2.6,4.9l8.98 22.82 -20.97 0 -9.91 -24.07c-1.26,-3.1 -2.38,-5.13 -3.37,-6.07 -1.33,-1.21 -2.85,-1.81 -4.55,-1.81l-1.63 0 0 31.95 -18.64 0zm18.64 -46.84l7.82 0c0.84,0 2.48,-0.35 4.91,-1.06 1.23,-0.33 2.24,-1.16 3.02,-2.48 0.77,-1.32 1.16,-2.84 1.16,-4.57 0,-2.54 -0.62,-4.49 -1.84,-5.85 -1.23,-1.37 -3.54,-2.05 -6.92,-2.05l-8.15 0 0 16zm86.78 -31.9l18.53 0 0 46.94c0,4.66 -0.56,9.04 -1.66,13.18 -1.11,4.13 -2.84,7.76 -5.2,10.85 -2.36,3.1 -4.84,5.26 -7.44,6.52 -3.61,1.74 -7.93,2.62 -12.99,2.62 -2.93,0 -6.11,-0.25 -9.57,-0.81 -3.45,-0.53 -6.33,-1.59 -8.65,-3.19 -2.32,-1.59 -4.45,-3.87 -6.38,-6.8 -1.93,-2.93 -3.24,-5.96 -3.96,-9.07 -1.14,-5 -1.72,-9.44 -1.72,-13.31l0 -46.94 18.52 0 0 48.06c0,4.31 0.91,7.66 2.71,10.06 1.82,2.42 4.33,3.63 7.57,3.63 3.19,0 5.7,-1.19 7.52,-3.57 1.8,-2.37 2.71,-5.76 2.71,-10.12l0 -48.06zm73.58 46.56l16.26 6.45c-1.09,5.98 -2.81,10.96 -5.16,14.98 -2.35,4.01 -5.27,7.04 -8.75,9.07 -3.48,2.05 -7.91,3.06 -13.28,3.06 -6.53,0 -11.87,-1.24 -15.99,-3.72 -4.14,-2.49 -7.72,-6.87 -10.72,-13.14 -2.99,-6.27 -4.5,-14.28 -4.5,-24.05 0,-13.04 2.64,-23.06 7.93,-30.05 5.28,-7 12.76,-10.5 22.42,-10.5 7.56,0 13.5,2 17.84,6.01 4.33,4.02 7.55,10.18 9.65,18.48l-16.38 4.78c-0.57,-2.4 -1.18,-4.16 -1.8,-5.28 -1.04,-1.85 -2.31,-3.28 -3.81,-4.29 -1.51,-1.01 -3.18,-1.5 -5.05,-1.5 -4.19,0 -7.42,2.22 -9.66,6.65 -1.69,3.3 -2.54,8.47 -2.54,15.52 0,8.74 1.02,14.72 3.03,17.97 2.03,3.24 4.87,4.86 8.51,4.86 3.55,0 6.23,-1.3 8.05,-3.92 1.82,-2.61 3.13,-6.4 3.96,-11.38zm-22.69 41.02l1.23 -6.33c2.56,-0.83 4.96,-1.24 7.2,-1.24 4.67,0 7.9,1.04 9.67,3.12 1.78,2.09 2.66,4.53 2.66,7.37 0,1.71 -0.41,3.49 -1.2,5.32 -0.81,1.81 -2.25,3.28 -4.32,4.4 -2.08,1.1 -4.83,1.67 -8.27,1.67 -3.12,0 -6.77,-0.48 -10.97,-1.39l0 -6.62c2.83,0.72 5.85,1.08 9.04,1.08 2.35,0 3.94,-0.42 4.78,-1.24 0.83,-0.83 1.24,-1.89 1.24,-3.21 0,-1.04 -0.35,-1.94 -1.02,-2.69 -0.68,-0.75 -1.75,-1.12 -3.2,-1.12 -1.94,0 -4.22,0.29 -6.84,0.9zm87.7 -21.85l-21.14 0 -2.91 13 -18.95 0 22.56 -78.73 20.23 0 22.58 78.73 -19.42 0 -2.95 -13zm-3.89 -17.03l-6.64 -28.3 -6.6 28.3 13.24 0zm1.72 -68.19l6.47 0c0.03,0.93 0.04,1.74 0.04,2.42 0,3.97 -0.77,7.06 -2.29,9.24 -1.54,2.18 -3.5,3.28 -5.9,3.28 -1.75,0 -4.4,-0.95 -7.95,-2.86 -2.16,-1.14 -3.64,-1.72 -4.46,-1.72 -0.79,0 -1.41,0.33 -1.84,0.97 -0.43,0.64 -0.67,1.79 -0.7,3.44l-6.39 0c-0.03,-0.86 -0.04,-1.61 -0.04,-2.26 0,-3.83 0.81,-6.87 2.42,-9.13 1.61,-2.26 3.52,-3.39 5.73,-3.39 0.96,0 1.86,0.15 2.71,0.44 0.84,0.27 2.41,1.04 4.68,2.29 2.28,1.27 3.94,1.89 4.98,1.89 0.74,0 1.33,-0.33 1.79,-0.99 0.45,-0.66 0.7,-1.87 0.76,-3.63zm30.92 58.89c0,-12.85 2.74,-22.86 8.2,-30.01 5.47,-7.17 13.07,-10.74 22.81,-10.74 10,0 17.7,3.52 23.11,10.56 5.4,7.02 8.11,16.88 8.11,29.55 0,9.2 -1.19,16.75 -3.55,22.64 -2.36,5.88 -5.77,10.47 -10.23,13.75 -4.48,3.28 -10.02,4.91 -16.69,4.91 -6.77,0 -12.37,-1.41 -16.82,-4.23 -4.43,-2.84 -8.02,-7.31 -10.79,-13.44 -2.75,-6.12 -4.14,-13.78 -4.14,-22.99zm18.57 0.11c0,7.95 1.12,13.65 3.37,17.14 2.25,3.46 5.33,5.2 9.2,5.2 3.98,0 7.07,-1.7 9.25,-5.09 2.18,-3.41 3.29,-9.51 3.29,-18.31 0,-7.43 -1.15,-12.83 -3.43,-16.26 -2.28,-3.41 -5.37,-5.11 -9.29,-5.11 -3.73,0 -6.74,1.72 -9,5.21 -2.27,3.47 -3.4,9.22 -3.4,17.23z"/>
     <polygon class="fil1" points="1183.76,567.93 1183.76,674.17 1101.05,674.17 1084.82,674.17 984.18,674.17 984.18,463.66 1084.82,463.66 1101.05,463.66 1183.76,463.66 "/>
     <path class="fil1" d="M1380.17 601.96c17.94,-18.03 34.66,-37.56 49.98,-58.36 14.57,-19.8 38.25,-2.95 26.93,19.18 -75.92,148.49 -213.12,249.88 -366.7,283.42 -59.87,13.07 -126.61,16.29 -186.35,0.68 -46.6,-12.18 -95.19,-38.1 -117.47,-86.25 -19.84,-42.9 -12.32,-90.42 6.18,-132.16 27.92,-63.01 82.36,-120.49 131.65,-164.57 18.74,-16.76 39.04,6.92 21.94,25.59 -22.52,24.6 -44.76,55.09 -55,88.22 -6.93,22.44 -8.15,45.68 0.03,67.94 12.56,34.19 43.59,56.75 74.19,70.03 43.39,18.83 93.99,23.38 140.3,19.5 49.08,-4.12 96.51,-17.39 140.8,-38.24l0 -207.42 -221.82 -157.23 1.44 -99.22 459.93 267.72 -106.04 -0.65 0 101.82z"/>
     <polygon class="fil5" points="1000.4,481.07 1066.9,481.07 1066.9,552.49 1000.4,552.49 "/>
     <polygon class="fil6" points="1101.04,481.07 1167.54,481.07 1167.54,552.49 1101.04,552.49 "/>
     <polygon class="fil7" points="1000.4,585.34 1066.9,585.34 1066.9,656.76 1000.4,656.76 "/>
     <polygon class="fil8" points="1101.04,585.34 1167.54,585.34 1167.54,656.76 1101.04,656.76 "/>
     <path class="fil9" d="M1042.07 262.06l379.52 220.91 -57.64 -0.35 0 137.47c-31.93,27.39 -65.9,48.46 -101.09,65.7l0 -205.66 -221.68 -157.13 0.89 -60.94z"/>
     <path class="fil10" d="M934.78 477.26c-243.19,265.59 252.49,424.45 508.09,77.13 -230.21,450.28 -957.64,324.9 -508.09,-77.13z"/>
    </g>
   </g>
  </g>
  <path class="fil11" d="M160.9 0l1939.26 0c88.5,0 160.9,72.4 160.9,160.9l0 1222.76c0,88.5 -72.4,160.9 -160.9,160.9l-1939.26 0c-88.5,0 -160.9,-72.4 -160.9,-160.9l0 -1222.76c0,-88.5 72.4,-160.9 160.9,-160.9z"/>
 </g>
</svg>
