<?xml version="1.0" encoding="UTF-8"?>
<!DOCTYPE svg PUBLIC "-//W3C//DTD SVG 1.1//EN" "http://www.w3.org/Graphics/SVG/1.1/DTD/svg11.dtd">
<!-- Creator: CorelDRAW (Evaluation Version) -->
<svg xmlns="http://www.w3.org/2000/svg" xml:space="preserve" width="52.3314mm" height="35.7481mm" version="1.1" style="shape-rendering:geometricPrecision; text-rendering:geometricPrecision; image-rendering:optimizeQuality; fill-rule:evenodd; clip-rule:evenodd"
viewBox="0 0 21818.54 14904.46"
 xmlns:xlink="http://www.w3.org/1999/xlink"
 xmlns:xodm="http://www.corel.com/coreldraw/odm/2003">
 <defs>
  <style type="text/css">
   <![CDATA[
    .fil5 {fill:none}
    .fil1 {fill:white}
    .fil0 {fill:white}
    .fil3 {fill:#373535}
    .fil2 {fill:#F58735}
    .fil4 {fill:#373535;fill-rule:nonzero}
   ]]>
  </style>
   <clipPath id="id0">
    <path d="M1552.61 0l18713.32 0c853.91,0 1552.61,698.65 1552.61,1552.61l0 11799.25c0,853.96 -698.69,1552.61 -1552.61,1552.61l-18713.32 0c-854,0 -1552.61,-698.65 -1552.61,-1552.61l0 -11799.25c0,-853.96 698.61,-1552.61 1552.61,-1552.61z"/>
   </clipPath>
 </defs>
 <g id="Camada_x0020_1">
  <metadata id="CorelCorpID_0Corel-Layer"/>
  <path class="fil0" d="M1552.61 0l18713.32 0c853.91,0 1552.61,698.65 1552.61,1552.61l0 11799.25c0,853.96 -698.69,1552.61 -1552.61,1552.61l-18713.32 0c-854,0 -1552.61,-698.65 -1552.61,-1552.61l0 -11799.25c0,-853.96 698.61,-1552.61 1552.61,-1552.61z"/>
  <g style="clip-path:url(#id0)">
   <g id="_105553211240416">
    <g>
     <path id="_1" class="fil1" d="M11114.9 3564.75c5911.49,0 10703.6,1740.43 10703.6,3887.46 0,2146.94 -4792.11,3887.41 -10703.6,3887.41 -5911.44,0 -10703.6,-1740.47 -10703.6,-3887.41 0,-2147.02 4792.15,-3887.46 10703.6,-3887.46z"/>
     <path class="fil2" d="M13145.68 6173.53c5579.28,-108.9 4423.8,2097.28 3892.88,2233.7 -1684.65,432.9 -1487.19,-1685.31 -3892.88,-2233.7z"/>
     <path class="fil2" d="M12960.73 6563.73c3823.67,3443.88 1114.2,4189.77 639.65,3946.29 -1505.83,-772.57 486.22,-2063.51 -639.65,-3946.29z"/>
     <path class="fil3" d="M10909.27 3564.88c6024.01,0 10909.27,1740.81 10909.27,3887.41 0,2146.56 -4885.25,3887.37 -10909.27,3887.37 -6024.01,0 -10909.27,-1740.81 -10909.27,-3887.37 0,-2146.61 4885.25,-3887.41 10909.27,-3887.41zm0 348.55c5796.83,0 10497.88,1584.71 10497.88,3538.86 0,1954.11 -4701.05,3538.86 -10497.88,3538.86 -5796.83,0 -10497.88,-1584.75 -10497.88,-3538.86 0,-1954.15 4701.05,-3538.86 10497.88,-3538.86z"/>
     <path class="fil4" d="M8887.16 5155.17l0 257.37 -2058.47 2831 1075.97 0c256.45,3.42 432.36,-60.91 527.63,-193.04 95.31,-132.13 158.56,-313.11 189.74,-543.05l327.5 -5.13 -109.19 1086.06 -3165.63 0 0 -272.8 2053.26 -2815.53 -1013.64 0c-232.19,3.42 -382.95,66.04 -452.24,187.87 -69.29,121.83 -119.58,282.22 -150.76,481.26l-353.47 -5.13 135.17 -1008.89 2994.14 0zm353.47 0l1933.68 0 0 344.88c-221.77,3.42 -360.39,36.9 -415.85,100.36 -55.45,63.5 -83.18,203.34 -83.18,419.52l0 1714c0,219.64 27.73,360.31 83.18,422.1 55.45,61.75 194.08,92.64 415.85,92.64l0 339.71 -1933.68 0 0 -345.72c225.23,3.42 364.73,-25.72 418.43,-87.51 53.7,-61.75 80.55,-200.75 80.55,-417.76l0 -1726.88c0,-212.76 -26.85,-351.76 -80.55,-415.22 -53.7,-63.5 -193.21,-95.23 -418.43,-95.23l0 -344.88zm5442.44 0l0 257.37 -2058.47 2831 1076.01 0c256.45,3.42 432.31,-60.91 527.63,-193.04 95.27,-132.13 158.52,-313.11 189.7,-543.05l327.5 -5.13 -109.15 1086.06 -3165.67 0 0 -272.8 2053.26 -2815.53 -1013.64 0c-232.19,3.42 -382.91,66.04 -452.24,187.87 -69.29,121.83 -119.53,282.22 -150.72,481.26l-353.47 -5.13 135.13 -1008.89 2994.14 0zm2697.83 0l987.67 2486.11c10.38,27.48 19.93,52.32 28.56,74.63 8.67,22.31 18.22,43.78 28.6,64.37 65.83,150.97 142.09,265.92 228.73,344.84 86.64,78.92 228.73,120.12 426.23,123.54l0 339.71 -2001.26 0 0 -344.84 72.8 0c3.42,3.42 8.63,5.13 15.59,5.13 6.92,0 12.09,0 15.55,0 17.34,0 34.69,-0.88 51.99,-2.58 17.34,-1.71 36.4,-2.54 57.16,-2.54 51.99,-6.88 99.65,-19.76 142.97,-38.61 43.32,-18.89 65,-55.79 65,-110.69 0,-44.61 -7.8,-93.48 -23.39,-146.68 -15.59,-53.2 -33.81,-107.23 -54.58,-162.14 -6.96,-17.18 -13.88,-34.31 -20.8,-51.49 -6.92,-17.14 -13.88,-34.31 -20.8,-51.45 -17.3,-41.19 -33.77,-80.63 -49.41,-118.41 -15.55,-37.73 -28.56,-73.75 -38.98,-108.07l-1195.55 0c-13.84,34.31 -30.31,72.05 -49.36,112.36 -19.1,41.19 -38.98,84.09 -59.79,128.71 -6.92,13.72 -13.01,27.43 -18.18,40.32 -5.21,13.72 -11.3,27.43 -18.22,41.15 -24.27,58.33 -45.9,115.82 -65,171.61 -19.05,56.62 -28.56,103.77 -28.56,141.55 0,57.45 25.14,97.77 75.38,120.08 50.24,22.31 106.53,35.19 168.94,38.61 10.38,0 22.51,0 36.36,0 13.88,0 26.02,0 36.4,0l98.77 -5.13 0 343.13 -1372.33 0 0 -344.84c173.28,3.42 299.77,-34.36 379.49,-113.28 79.68,-78.92 149.01,-183.57 207.92,-313.95 6.92,-17.18 14.72,-34.31 23.39,-51.49 8.67,-17.14 16.47,-34.31 23.39,-51.45l1122.79 -2558.2 722.54 0zm-213.09 1966.24l-358.68 -1014.02c-20.8,-51.45 -36.4,-105.48 -46.78,-162.1 -10.42,-56.62 -17.34,-114.11 -20.8,-172.44 -6.92,61.75 -16.47,123.54 -28.6,185.28 -12.13,61.79 -30.31,121.83 -54.58,180.16l-426.23 983.12 935.67 0z"/>
     <path class="fil4" d="M3695.88 9956.87l0 -896.23 133.83 0 334.92 541.76 327.54 -541.76 132.46 0 0 896.23 -153.31 0 0 -553.6c0,-10.67 0.42,-24.31 1.58,-40.78 1.13,-16.51 2.75,-34.73 4.38,-54.99 -8.96,23.14 -16.76,42.24 -23.43,56.99 -6.67,15.05 -12.84,27.52 -18.14,37.07l-266.96 447.66 -33.06 0 -267.67 -449.41c-9.84,-17.05 -18.34,-32.98 -25.22,-48.03 -6.88,-14.76 -12.63,-29.52 -17.22,-43.4 1.38,18.51 2.5,35.61 3.21,50.62 0.67,15.34 0.92,30.1 0.92,44.28l0 553.6 -133.83 0zm1261.84 -684.1c0,-81.59 12.17,-137.17 36.27,-167.27 24.35,-29.81 70.96,-44.86 140.01,-44.86l522.96 0c69.09,0 115.7,15.05 140.01,44.86 24.1,30.1 36.27,85.68 36.27,167.27l0 472.3c0,81.89 -12.17,137.71 -36.27,167.23 -24.31,29.81 -70.92,44.57 -140.01,44.57l-522.96 0c-69.04,0 -115.66,-14.76 -140.01,-44.57 -24.1,-29.52 -36.27,-85.35 -36.27,-167.23l0 -472.3zm165.52 515.41l545.18 0 0 -567.19 -545.18 0 0 567.19zm1223.98 0l213.93 0c113.86,0 194.46,-22.31 241.94,-66.88 47.53,-44.82 71.38,-118.62 71.38,-221.35 0,-91.72 -19.72,-160.94 -59.2,-208.09 -39.48,-47.15 -97.77,-70.88 -174.9,-70.88l-293.14 0 0 567.19zm-165.52 168.69l0 -896.23 457.5 0c130.37,0 230.69,38.52 300.94,115.2 70,76.97 105.15,186.08 105.15,327.29 0,83.93 -13.8,159.18 -41.11,226.02 -27.31,67.13 -65.87,119.83 -115.7,158.31 -30.77,24.31 -69.29,41.94 -115.2,52.95 -45.95,11.01 -104.94,16.47 -176.57,16.47l-415.01 0zm1324.96 -357.68l311.28 0 -153.35 -364.61 -157.93 364.61zm-318.16 357.68l402.17 -896.23 159.35 0 407.67 896.23 -185.7 0 -85.43 -195.62 -450.62 0 -82.59 195.62 -164.85 0zm1789.59 -739.38l-465.29 0 0 192.45 443.03 0c69.59,0 116.62,15.05 140.96,44.86 24.56,30.1 36.73,85.68 36.73,167.27l0 122.99c0,81.3 -12.17,136.88 -36.73,166.98 -24.35,29.81 -71.38,44.82 -140.96,44.82l-438.9 0c-69.54,0 -116.62,-15.01 -140.92,-44.82 -24.56,-30.1 -36.73,-85.68 -36.73,-166.98l0 -24.6 146.01 -38.23 0 105.94 502.23 0 0 -204.3 -443.03 0c-69.09,0 -115.7,-15.05 -140.05,-44.86 -24.1,-30.1 -36.27,-85.68 -36.27,-167.27l0 -98.98c0,-81.59 12.17,-137.17 36.27,-167.27 24.35,-29.81 70.96,-44.86 140.05,-44.86l403.3 0c66.83,0 112.95,14.47 138.21,43.15 25.47,28.93 38.11,80.13 38.11,153.64l0 18.51 -146.01 43.4 0 -101.86z"/>
     <path class="fil2" d="M4325.94 7008.14c748.56,1336.14 -142.63,1338.05 -256.33,1226.98 -360.89,-352.39 378.36,-574.86 256.33,-1226.98zm106.07 -135.34c1741.02,108.36 1302.86,765.86 1132.72,794.79 -539.88,91.81 -403.17,-562.65 -1132.72,-794.79zm-85.22 -144.22c983.37,-1222.06 1435.28,-571.28 1379.54,-432.06 -176.86,441.86 -776.78,13.59 -1379.54,432.06zm-190 -9.84c-755.27,-1333.43 135.92,-1338.51 250.2,-1227.86 362.6,351.1 -375.49,576.24 -250.2,1227.86zm-105.27 134.38c-1740.47,-114.66 -1298.99,-770.57 -1128.71,-798.84 540.38,-89.89 400.34,564.06 1128.71,798.84zm84.43 144.55c-989.46,1218.48 -1438.12,566.11 -1381.66,427.06 179.07,-441.2 776.82,-10.76 1381.66,-427.06z"/>
    </g>
   </g>
  </g>
  <path class="fil5" d="M1552.61 0l18713.32 0c853.91,0 1552.61,698.65 1552.61,1552.61l0 11799.25c0,853.96 -698.69,1552.61 -1552.61,1552.61l-18713.32 0c-854,0 -1552.61,-698.65 -1552.61,-1552.61l0 -11799.25c0,-853.96 698.61,-1552.61 1552.61,-1552.61z"/>
 </g>
</svg>
